<svg xmlns="http://www.w3.org/2000/svg" viewBox="0 0 330 115"><defs><style>.cls-1{fill:none;stroke:#7c7c7c;stroke-miterlimit:10;stroke-width:2px;}.cls-2{fill:#585857;}.cls-3{fill:#478ac9;}.cls-4{fill:#77aad9;}</style></defs><title>desenhoPrancheta 1</title><g id="Camada_4" data-name="Camada 4"><line class="cls-1" x1="303.6" y1="174.2" x2="304.1" y2="-13.5"/></g><g id="Camada_3" data-name="Camada 3"><g id="desenho3d"><path d="M52.7,61V52.4h6.2v1H53.8v2.6h4.8v1H53.8V60h5.3v1Z"/><path d="M59.8,59.2l1-.2a1.5,1.5,0,0,0,.5,1,1.7,1.7,0,0,0,1.1.3,1.6,1.6,0,0,0,1.1-.3.9.9,0,0,0,.4-.7.6.6,0,0,0-.3-.6l-1.1-.4-1.6-.5a1.5,1.5,0,0,1-.9-1.4,1.6,1.6,0,0,1,.2-.8l.5-.6.7-.3h.9l1.3.2a1.7,1.7,0,0,1,.8.6,2.2,2.2,0,0,1,.4,1h-1a1.1,1.1,0,0,0-.4-.7,1.5,1.5,0,0,0-1-.3,1.7,1.7,0,0,0-1,.2.7.7,0,0,0-.3.6.6.6,0,0,0,.1.4l.4.3.9.3,1.6.5a1.6,1.6,0,0,1,.7.6,1.5,1.5,0,0,1,.3.9,1.8,1.8,0,0,1-.3,1,2,2,0,0,1-.9.7l-1.3.3a2.9,2.9,0,0,1-1.8-.5A2.3,2.3,0,0,1,59.8,59.2Z"/><path d="M69.9,58.7h1a2.7,2.7,0,0,1-.9,1.7,2.5,2.5,0,0,1-1.7.6,2.7,2.7,0,0,1-2.1-.8,3.4,3.4,0,0,1-.8-2.4,4.3,4.3,0,0,1,.3-1.8,2.3,2.3,0,0,1,1-1.1,3,3,0,0,1,1.5-.4,2.6,2.6,0,0,1,1.7.5,2.4,2.4,0,0,1,.8,1.5l-1,.2a1.7,1.7,0,0,0-.5-.9,1.3,1.3,0,0,0-.9-.3,1.6,1.6,0,0,0-1.3.6,2.7,2.7,0,0,0-.5,1.8,2.8,2.8,0,0,0,.5,1.8,1.6,1.6,0,0,0,1.3.6,1.5,1.5,0,0,0,1-.4A1.9,1.9,0,0,0,69.9,58.7Z"/><path d="M71.1,57.9a3.2,3.2,0,0,1,1-2.6,2.9,2.9,0,0,1,2-.7,2.8,2.8,0,0,1,2.1.8,3.2,3.2,0,0,1,.8,2.3,4.1,4.1,0,0,1-.4,1.9,2.6,2.6,0,0,1-1,1.1,3.1,3.1,0,0,1-1.5.4,2.8,2.8,0,0,1-2.1-.8A3.3,3.3,0,0,1,71.1,57.9Zm1.1,0a2.7,2.7,0,0,0,.5,1.8,1.7,1.7,0,0,0,2.6,0,2.7,2.7,0,0,0,.5-1.8,2.6,2.6,0,0,0-.5-1.7,1.7,1.7,0,0,0-2.6,0A2.6,2.6,0,0,0,72.2,57.9Z"/><path d="M77.8,61V52.4h1.1V61Z"/><path d="M84.2,60.3,83,61l-1.2.2a2.3,2.3,0,0,1-1.6-.5,1.7,1.7,0,0,1-.6-1.3,1.7,1.7,0,0,1,.2-.8l.5-.6.8-.3.9-.2,1.9-.4v-.3a1.2,1.2,0,0,0-.3-.9,1.8,1.8,0,0,0-1.2-.4,1.9,1.9,0,0,0-1.1.3,1.6,1.6,0,0,0-.5.9h-1a2.6,2.6,0,0,1,.5-1.1,2,2,0,0,1,.9-.6l1.4-.2,1.3.2.7.5a1.7,1.7,0,0,1,.3.7,5.9,5.9,0,0,1,.1,1v1.4a14.9,14.9,0,0,0,.1,1.9,2.3,2.3,0,0,0,.3.7H84.4A2.2,2.2,0,0,1,84.2,60.3Zm-.1-2.4-1.7.4-.9.2-.4.3a.9.9,0,0,0,.2,1.2,1.4,1.4,0,0,0,.9.3l1.1-.3a1.6,1.6,0,0,0,.7-.7,2.5,2.5,0,0,0,.2-1.1Z"/><path d="M89.1,58.3h1.1a2.4,2.4,0,0,0,.4,1.1,1.9,1.9,0,0,0,.9.7l1.3.3,1.1-.2a1.6,1.6,0,0,0,.7-.5,1.2,1.2,0,0,0,.2-.7,1.1,1.1,0,0,0-.2-.7l-.8-.5-1.5-.4-1.7-.5a2.3,2.3,0,0,1-.9-.8,2,2,0,0,1-.3-1.1,2.2,2.2,0,0,1,.4-1.2,2.3,2.3,0,0,1,1.1-.9,4.1,4.1,0,0,1,1.6-.3,4.3,4.3,0,0,1,1.7.3,2.4,2.4,0,0,1,1.1.9,2.6,2.6,0,0,1,.4,1.4H94.6a1.8,1.8,0,0,0-.6-1.2,2.3,2.3,0,0,0-1.5-.4,2.4,2.4,0,0,0-1.5.4,1.1,1.1,0,0,0-.5.9,1,1,0,0,0,.3.8,4.5,4.5,0,0,0,1.7.6l1.9.5a2.6,2.6,0,0,1,1.1.9,2.1,2.1,0,0,1,.4,1.2,2.3,2.3,0,0,1-.4,1.3,2.6,2.6,0,0,1-1.1.9,3.9,3.9,0,0,1-1.7.3,4.9,4.9,0,0,1-2-.3,2.7,2.7,0,0,1-1.2-1A2.9,2.9,0,0,1,89.1,58.3Z"/><path d="M101.3,59h1.1a2.7,2.7,0,0,1-1,1.5,3.2,3.2,0,0,1-3.9-.3,3.3,3.3,0,0,1-.8-2.4,3.4,3.4,0,0,1,.8-2.4,2.7,2.7,0,0,1,2.1-.9,2.7,2.7,0,0,1,2,.8,3.4,3.4,0,0,1,.8,2.4v.3H97.8a2.4,2.4,0,0,0,.6,1.6,1.7,1.7,0,0,0,1.3.5,1.6,1.6,0,0,0,1-.3A2,2,0,0,0,101.3,59Zm-3.5-1.7h3.5a2.1,2.1,0,0,0-.4-1.2,1.6,1.6,0,0,0-1.3-.6,1.7,1.7,0,0,0-1.2.5A1.9,1.9,0,0,0,97.8,57.3Z"/><path d="M107.4,58.7h1a2.7,2.7,0,0,1-.9,1.7,2.5,2.5,0,0,1-1.7.6,2.7,2.7,0,0,1-2.1-.8,3.4,3.4,0,0,1-.8-2.4,4.3,4.3,0,0,1,.3-1.8,2.3,2.3,0,0,1,1-1.1,3,3,0,0,1,1.5-.4,2.6,2.6,0,0,1,1.7.5,2.4,2.4,0,0,1,.8,1.5l-1,.2a1.7,1.7,0,0,0-.5-.9,1.3,1.3,0,0,0-.9-.3,1.6,1.6,0,0,0-1.3.6,2.7,2.7,0,0,0-.5,1.8,2.8,2.8,0,0,0,.5,1.8,1.6,1.6,0,0,0,1.3.6,1.5,1.5,0,0,0,1-.4A1.9,1.9,0,0,0,107.4,58.7Z"/><path d="M113.1,61v-.9a2.3,2.3,0,0,1-2,1.1l-1-.2-.7-.5a2,2,0,0,1-.3-.8,5.4,5.4,0,0,1-.1-1V54.8H110v3.5a6.2,6.2,0,0,0,.1,1.1,1.1,1.1,0,0,0,.4.7l.8.2.9-.2a1.4,1.4,0,0,0,.6-.7,3.3,3.3,0,0,0,.2-1.2V54.8H114V61Z"/><path d="M115.3,61V54.8h.9v.9a2.2,2.2,0,0,1,2-1l1,.2a1.6,1.6,0,0,1,.7.5,2,2,0,0,1,.3.8,6,6,0,0,1,.1,1V61h-1.1V57.2a2.8,2.8,0,0,0-.1-1,1,1,0,0,0-.4-.5l-.7-.2a1.7,1.7,0,0,0-1.2.4,2.1,2.1,0,0,0-.5,1.6V61Z"/><path d="M125.6,61v-.8a1.9,1.9,0,0,1-1.7.9,2.4,2.4,0,0,1-1.4-.4,2.7,2.7,0,0,1-1-1.1,4,4,0,0,1-.3-1.7,4.4,4.4,0,0,1,.3-1.7,2.4,2.4,0,0,1,.9-1.2,2.5,2.5,0,0,1,1.4-.4l1,.2.7.6V52.4h1V61Zm-3.3-3.1a2.7,2.7,0,0,0,.5,1.8,1.5,1.5,0,0,0,1.2.6,1.5,1.5,0,0,0,1.2-.6,2.6,2.6,0,0,0,.5-1.7,2.9,2.9,0,0,0-.5-1.9,1.5,1.5,0,0,0-1.2-.6,1.5,1.5,0,0,0-1.2.6A2.8,2.8,0,0,0,122.3,57.9Z"/><path d="M132,60.3l-1.1.7-1.2.2a2.3,2.3,0,0,1-1.6-.5,1.7,1.7,0,0,1-.6-1.3,1.7,1.7,0,0,1,.2-.8l.5-.6.8-.3.9-.2,1.9-.4v-.3a1.2,1.2,0,0,0-.3-.9,1.8,1.8,0,0,0-1.2-.4,1.9,1.9,0,0,0-1.1.3,1.6,1.6,0,0,0-.5.9h-1a2.6,2.6,0,0,1,.5-1.1,2,2,0,0,1,.9-.6l1.4-.2,1.3.2.7.5a1.7,1.7,0,0,1,.3.7,5.9,5.9,0,0,1,.1,1v1.4a14.9,14.9,0,0,0,.1,1.9,2.3,2.3,0,0,0,.3.7h-1.1A2.2,2.2,0,0,1,132,60.3Zm-.1-2.4-1.7.4-.9.2-.4.3a.9.9,0,0,0,.2,1.2,1.4,1.4,0,0,0,.9.3l1.1-.3a1.6,1.6,0,0,0,.7-.7,2.5,2.5,0,0,0,.2-1.1ZM129.8,54l.8-1.6H132L130.7,54Z"/><path d="M134.2,61V54.8h.9v.9a2.6,2.6,0,0,1,.7-.9l.7-.2a2.1,2.1,0,0,1,1.1.3l-.4,1-.8-.2-.6.2a1.1,1.1,0,0,0-.4.6,4.1,4.1,0,0,0-.2,1.2V61Z"/><path d="M137.9,53.6V52.4h1.1v1.2Zm0,7.4V54.8h1.1V61Z"/><path d="M144.2,60.3l-1.1.7-1.2.2a2.3,2.3,0,0,1-1.6-.5,1.7,1.7,0,0,1-.6-1.3,1.7,1.7,0,0,1,.2-.8l.5-.6.8-.3.9-.2,1.9-.4v-.3a1.2,1.2,0,0,0-.3-.9,1.8,1.8,0,0,0-1.2-.4,1.9,1.9,0,0,0-1.1.3,1.6,1.6,0,0,0-.5.9h-1a2.6,2.6,0,0,1,.5-1.1,2,2,0,0,1,.9-.6l1.4-.2,1.3.2.7.5a1.7,1.7,0,0,1,.3.7,5.9,5.9,0,0,1,.1,1v1.4a14.9,14.9,0,0,0,.1,1.9,2.3,2.3,0,0,0,.3.7h-1.1A2.2,2.2,0,0,1,144.2,60.3Zm-.1-2.4-1.7.4-.9.2-.4.3a.9.9,0,0,0,.2,1.2,1.4,1.4,0,0,0,.9.3l1.1-.3a1.6,1.6,0,0,0,.7-.7,2.5,2.5,0,0,0,.2-1.1Z"/><path d="M148,61l3.3-8.6h1.2L156,61h-1.3l-1-2.6h-3.6l-.9,2.6Zm2.5-3.5h2.9l-.9-2.4-.6-1.8a11,11,0,0,1-.5,1.6Z"/><path d="M156.4,61V52.4h1.1V61Z"/><path d="M159.7,61h-1V52.4h1.1v3.1a2.1,2.1,0,0,1,1.7-.8l1.1.2a2.2,2.2,0,0,1,.8.7,3.1,3.1,0,0,1,.5,1,4.2,4.2,0,0,1,.2,1.3,3.6,3.6,0,0,1-.8,2.5,2.5,2.5,0,0,1-1.9.9,2,2,0,0,1-1.7-.9Zm0-3.2a3.2,3.2,0,0,0,.3,1.6,1.5,1.5,0,0,0,2.5.2,2.7,2.7,0,0,0,.5-1.8,2.8,2.8,0,0,0-.5-1.8,1.5,1.5,0,0,0-1.2-.6,1.5,1.5,0,0,0-1.2.6A2.6,2.6,0,0,0,159.7,57.9Z"/><path d="M169.3,59h1.1a2.7,2.7,0,0,1-1,1.5,3.2,3.2,0,0,1-3.9-.3,3.3,3.3,0,0,1-.8-2.4,3.4,3.4,0,0,1,.8-2.4,2.7,2.7,0,0,1,2.1-.9,2.7,2.7,0,0,1,2,.8,3.4,3.4,0,0,1,.8,2.4v.3h-4.6a2.4,2.4,0,0,0,.6,1.6,1.7,1.7,0,0,0,1.3.5,1.6,1.6,0,0,0,1-.3A2,2,0,0,0,169.3,59Zm-3.5-1.7h3.5a2.1,2.1,0,0,0-.4-1.2,1.6,1.6,0,0,0-1.3-.6,1.7,1.7,0,0,0-1.2.5A1.9,1.9,0,0,0,165.9,57.3Z"/><path d="M171.4,61V54.8h.9v.9a2.6,2.6,0,0,1,.7-.9l.7-.2a2.1,2.1,0,0,1,1.1.3l-.4,1-.8-.2-.6.2a1.1,1.1,0,0,0-.4.6,4.1,4.1,0,0,0-.2,1.2V61Z"/><path d="M177.3,60.1l.2.9h-.8l-.9-.2a1,1,0,0,1-.4-.5,3.8,3.8,0,0,1-.1-1.2V55.6h-.8v-.8h.8V53.3l1-.6v2.2h1.1v.8h-1.1v3.6a1.8,1.8,0,0,0,.1.6l.2.2h.8Z"/><path d="M177.6,57.9a3.2,3.2,0,0,1,1-2.6,2.9,2.9,0,0,1,2-.7,2.8,2.8,0,0,1,2.1.8,3.2,3.2,0,0,1,.8,2.3,4.1,4.1,0,0,1-.4,1.9,2.6,2.6,0,0,1-1,1.1,3.1,3.1,0,0,1-1.5.4,2.8,2.8,0,0,1-2.1-.8A3.3,3.3,0,0,1,177.6,57.9Zm1.1,0a2.7,2.7,0,0,0,.5,1.8,1.7,1.7,0,0,0,2.6,0,2.7,2.7,0,0,0,.5-1.8,2.6,2.6,0,0,0-.5-1.7,1.7,1.7,0,0,0-2.6,0A2.6,2.6,0,0,0,178.7,57.9Z"/><path d="M51,72.7h1.1a2.4,2.4,0,0,0,.4,1.1,1.9,1.9,0,0,0,.9.7l1.3.3,1.1-.2a1.6,1.6,0,0,0,.7-.5,1.2,1.2,0,0,0,.2-.7,1.1,1.1,0,0,0-.2-.7l-.8-.5-1.5-.4-1.7-.5a2.3,2.3,0,0,1-.9-.8,2,2,0,0,1-.3-1.1,2.2,2.2,0,0,1,.4-1.2,2.3,2.3,0,0,1,1.1-.9,4.1,4.1,0,0,1,1.6-.3A4.3,4.3,0,0,1,56,67a2.4,2.4,0,0,1,1.1.9,2.6,2.6,0,0,1,.4,1.4H56.5a1.8,1.8,0,0,0-.6-1.2,2.3,2.3,0,0,0-1.5-.4,2.4,2.4,0,0,0-1.5.4,1.1,1.1,0,0,0-.5.9,1,1,0,0,0,.3.8,4.5,4.5,0,0,0,1.7.6l1.9.5a2.6,2.6,0,0,1,1.1.9,2.1,2.1,0,0,1,.4,1.2,2.3,2.3,0,0,1-.4,1.3,2.6,2.6,0,0,1-1.1.9,3.9,3.9,0,0,1-1.7.3,4.9,4.9,0,0,1-2-.3,2.7,2.7,0,0,1-1.2-1A2.9,2.9,0,0,1,51,72.7Z"/><path d="M62.9,74.7l-1.1.7-1.2.2a2.3,2.3,0,0,1-1.6-.5,1.7,1.7,0,0,1-.6-1.3,1.7,1.7,0,0,1,.2-.8l.5-.6L60,72l.9-.2,1.9-.4v-.3a1.2,1.2,0,0,0-.3-.9,1.8,1.8,0,0,0-1.2-.4,1.9,1.9,0,0,0-1.1.3,1.6,1.6,0,0,0-.5.9h-1a2.6,2.6,0,0,1,.5-1.1,2,2,0,0,1,.9-.6l1.4-.2,1.3.2.7.5a1.7,1.7,0,0,1,.3.7,5.9,5.9,0,0,1,.1,1v1.4a14.9,14.9,0,0,0,.1,1.9,2.3,2.3,0,0,0,.3.7H63.1A2.2,2.2,0,0,1,62.9,74.7Zm-.1-2.4-1.7.4-.9.2-.4.3a.9.9,0,0,0,.2,1.2,1.4,1.4,0,0,0,.9.3l1.1-.3a1.6,1.6,0,0,0,.7-.7,2.5,2.5,0,0,0,.2-1.1Z"/><path d="M65.2,75.4V69.2h.9v.9a2.2,2.2,0,0,1,.8-.7,2.2,2.2,0,0,1,1.1-.3,2,2,0,0,1,1.1.3,1.5,1.5,0,0,1,.6.8,2.2,2.2,0,0,1,1.9-1.1,1.9,1.9,0,0,1,1.4.5,2.2,2.2,0,0,1,.5,1.6v4.3h-1V71.5a2.9,2.9,0,0,0-.1-.9.9.9,0,0,0-.4-.4l-.6-.2a1.5,1.5,0,0,0-1.1.4,1.9,1.9,0,0,0-.4,1.4v3.6H68.9v-4a1.8,1.8,0,0,0-.3-1.1,1,1,0,0,0-.8-.4l-.8.2a1.3,1.3,0,0,0-.5.7,3.9,3.9,0,0,0-.2,1.3v3.2Z"/><path d="M74.8,77.8V69.2h1V70a2.4,2.4,0,0,1,.8-.7l1-.2a2.5,2.5,0,0,1,1.4.4,2.5,2.5,0,0,1,.9,1.2,4.2,4.2,0,0,1,.3,1.6,4.2,4.2,0,0,1-.3,1.7,2.6,2.6,0,0,1-1,1.2,2.6,2.6,0,0,1-1.4.4l-.9-.2-.7-.6v3Zm1-5.5a2.7,2.7,0,0,0,.5,1.8,1.5,1.5,0,0,0,1.2.6,1.5,1.5,0,0,0,1.2-.6,2.8,2.8,0,0,0,.5-1.8,2.7,2.7,0,0,0-.5-1.8,1.5,1.5,0,0,0-1.2-.6,1.5,1.5,0,0,0-1.2.6A2.8,2.8,0,0,0,75.8,72.3Z"/><path d="M85.2,74.7l-1.1.7-1.2.2a2.3,2.3,0,0,1-1.6-.5,1.7,1.7,0,0,1-.6-1.3,1.7,1.7,0,0,1,.2-.8l.5-.6.8-.3.9-.2,1.9-.4v-.3a1.2,1.2,0,0,0-.3-.9,1.8,1.8,0,0,0-1.2-.4,1.9,1.9,0,0,0-1.1.3,1.6,1.6,0,0,0-.5.9H81a2.6,2.6,0,0,1,.5-1.1,2,2,0,0,1,.9-.6l1.4-.2,1.3.2.7.5a1.7,1.7,0,0,1,.3.7,5.9,5.9,0,0,1,.1,1v1.4a14.9,14.9,0,0,0,.1,1.9,2.3,2.3,0,0,0,.3.7H85.4A2.2,2.2,0,0,1,85.2,74.7Zm-.1-2.4-1.7.4-.9.2-.4.3a.9.9,0,0,0,.2,1.2,1.4,1.4,0,0,0,.9.3l1.1-.3a1.6,1.6,0,0,0,.7-.7,2.5,2.5,0,0,0,.2-1.1Z"/><path d="M87.5,68V66.8h1.1V68Zm0,7.4V69.2h1.1v6.2Z"/><path d="M89.4,72.3a3.2,3.2,0,0,1,1-2.6,2.9,2.9,0,0,1,2-.7,2.8,2.8,0,0,1,2.1.8,3.2,3.2,0,0,1,.8,2.3,4.1,4.1,0,0,1-.4,1.9,2.6,2.6,0,0,1-1,1.1,3.1,3.1,0,0,1-1.5.4,2.8,2.8,0,0,1-2.1-.8A3.3,3.3,0,0,1,89.4,72.3Zm1.1,0a2.7,2.7,0,0,0,.5,1.8,1.7,1.7,0,0,0,2.6,0,2.7,2.7,0,0,0,.5-1.8,2.6,2.6,0,0,0-.5-1.7,1.7,1.7,0,0,0-2.6,0A2.6,2.6,0,0,0,90.5,72.3Z"/><path d="M96.4,75.4V74.2h1.2v1.2a2.1,2.1,0,0,1-.2,1.1,1.5,1.5,0,0,1-.7.6l-.3-.5.5-.4a1.8,1.8,0,0,0,.2-.8Z"/><path d="M102.1,75.4V66.8h3.2a4,4,0,0,1,1.6.3,2,2,0,0,1,.9.8,2.1,2.1,0,0,1,.3,1.1,1.9,1.9,0,0,1-.3,1,2.1,2.1,0,0,1-.9.8,2.2,2.2,0,0,1,1.2.8,2.1,2.1,0,0,1,.4,1.3,2.5,2.5,0,0,1-.3,1.1,2.2,2.2,0,0,1-.6.8l-.9.4h-4.7Zm1.1-5h2.9a1.2,1.2,0,0,0,.7-.4,1.2,1.2,0,0,0,.2-.7,1.4,1.4,0,0,0-.2-.8,1,1,0,0,0-.6-.4h-3Zm0,4h2.9l.7-.2.4-.5a1.5,1.5,0,0,0,.2-.7,1.4,1.4,0,0,0-.2-.8,1.3,1.3,0,0,0-.7-.5h-3.2Z"/><path d="M109.7,75.4V69.2h.9v.9a2.6,2.6,0,0,1,.7-.9l.7-.2a2.1,2.1,0,0,1,1.1.3l-.4,1-.8-.2-.6.2a1.1,1.1,0,0,0-.4.6,4.1,4.1,0,0,0-.2,1.2v3.3Z"/><path d="M117.4,74.7l-1.1.7-1.2.2a2.3,2.3,0,0,1-1.6-.5,1.7,1.7,0,0,1-.6-1.3,1.7,1.7,0,0,1,.2-.8l.5-.6.8-.3.9-.2,1.9-.4v-.3a1.2,1.2,0,0,0-.3-.9,1.8,1.8,0,0,0-1.2-.4,1.9,1.9,0,0,0-1.1.3,1.6,1.6,0,0,0-.5.9h-1a2.6,2.6,0,0,1,.5-1.1,2,2,0,0,1,.9-.6l1.4-.2,1.3.2.7.5a1.7,1.7,0,0,1,.3.7,5.9,5.9,0,0,1,.1,1v1.4a14.9,14.9,0,0,0,.1,1.9,2.3,2.3,0,0,0,.3.7h-1.1A2.2,2.2,0,0,1,117.4,74.7Zm-.1-2.4-1.7.4-.9.2-.4.3a.9.9,0,0,0,.2,1.2,1.4,1.4,0,0,0,.9.3l1.1-.3a1.6,1.6,0,0,0,.7-.7,2.5,2.5,0,0,0,.2-1.1Z"/><path d="M119.4,75.9l1,.2a1,1,0,0,0,.4.7,1.8,1.8,0,0,0,1.1.3,1.9,1.9,0,0,0,1.1-.3,1.4,1.4,0,0,0,.5-.8,6.7,6.7,0,0,0,.1-1.4,2.2,2.2,0,0,1-1.7.8,2.3,2.3,0,0,1-2-.9,3.6,3.6,0,0,1-.7-2.2,4.1,4.1,0,0,1,.3-1.6,2.6,2.6,0,0,1,.9-1.2,2.5,2.5,0,0,1,1.4-.4,2.2,2.2,0,0,1,1.8.9v-.7h1v5.4a5.1,5.1,0,0,1-.3,2.1,2.2,2.2,0,0,1-.9,1,3.2,3.2,0,0,1-1.6.4,3,3,0,0,1-1.8-.5A1.7,1.7,0,0,1,119.4,75.9Zm.9-3.7a2.7,2.7,0,0,0,.5,1.8,1.6,1.6,0,0,0,2.4,0,2.6,2.6,0,0,0,.5-1.8,2.6,2.6,0,0,0-.5-1.7,1.6,1.6,0,0,0-1.2-.6,1.5,1.5,0,0,0-1.2.6A2.5,2.5,0,0,0,120.3,72.2Z"/><path d="M130,74.7l-1.1.7-1.2.2a2.3,2.3,0,0,1-1.6-.5,1.7,1.7,0,0,1-.6-1.3,1.7,1.7,0,0,1,.2-.8l.5-.6.8-.3.9-.2,1.9-.4v-.3a1.2,1.2,0,0,0-.3-.9,1.8,1.8,0,0,0-1.2-.4,1.9,1.9,0,0,0-1.1.3,1.6,1.6,0,0,0-.5.9h-1a2.6,2.6,0,0,1,.5-1.1,2,2,0,0,1,.9-.6l1.4-.2,1.3.2.7.5a1.7,1.7,0,0,1,.3.7,5.9,5.9,0,0,1,.1,1v1.4a14.9,14.9,0,0,0,.1,1.9,2.3,2.3,0,0,0,.3.7h-1.1A2.2,2.2,0,0,1,130,74.7Zm-.1-2.4-1.7.4-.9.2-.4.3a.9.9,0,0,0,.2,1.2,1.4,1.4,0,0,0,.9.3l1.1-.3a1.6,1.6,0,0,0,.7-.7,2.5,2.5,0,0,0,.2-1.1Z"/><path d="M137.2,77.9a10.5,10.5,0,0,1-1.5-2.6,8.1,8.1,0,0,1-.2-5.7,11.2,11.2,0,0,1,1.6-3h.8l-.9,1.7a9.5,9.5,0,0,0-.6,1.7,9.8,9.8,0,0,0-.3,2.2,10.6,10.6,0,0,0,1.8,5.6Z"/><path d="M139,75.4V66.8h4.5l1.1.4a2.1,2.1,0,0,1,.7.8,2.8,2.8,0,0,1-.4,3,3.3,3.3,0,0,1-2.5.8h-2.2v3.5Zm1.1-4.5h2.2a2.4,2.4,0,0,0,1.6-.4,1.5,1.5,0,0,0,.5-1.2,1.6,1.6,0,0,0-.3-.9,1.3,1.3,0,0,0-.7-.5h-3.3Z"/><path d="M146.1,72.3a3.2,3.2,0,0,1,1-2.6,2.9,2.9,0,0,1,2-.7,2.8,2.8,0,0,1,2.1.8,3.2,3.2,0,0,1,.8,2.3,4.1,4.1,0,0,1-.4,1.9,2.6,2.6,0,0,1-1,1.1,3.1,3.1,0,0,1-1.5.4,2.8,2.8,0,0,1-2.1-.8A3.3,3.3,0,0,1,146.1,72.3Zm1.1,0a2.7,2.7,0,0,0,.5,1.8,1.7,1.7,0,0,0,2.6,0,2.7,2.7,0,0,0,.5-1.8,2.6,2.6,0,0,0-.5-1.7,1.7,1.7,0,0,0-2.6,0A2.6,2.6,0,0,0,147.2,72.3Z"/><path d="M152.8,75.4V69.2h.9v.9a2.6,2.6,0,0,1,.7-.9l.7-.2a2.1,2.1,0,0,1,1.1.3l-.4,1-.8-.2-.6.2a1.1,1.1,0,0,0-.4.6,4.1,4.1,0,0,0-.2,1.2v3.3Z"/><path d="M158.8,74.5l.2.9h-.8l-.9-.2a1,1,0,0,1-.4-.5,3.8,3.8,0,0,1-.1-1.2V70h-.8v-.8h.8V67.7l1-.6v2.2h1.1V70h-1.1v3.6a1.8,1.8,0,0,0,.1.6l.2.2h.8Z"/><path d="M163.5,75.4v-.9a2.3,2.3,0,0,1-2,1.1l-1-.2-.7-.5a2,2,0,0,1-.3-.8,5.4,5.4,0,0,1-.1-1V69.2h1.1v3.5a6.2,6.2,0,0,0,.1,1.1,1.1,1.1,0,0,0,.4.7l.8.2.9-.2a1.4,1.4,0,0,0,.6-.7,3.3,3.3,0,0,0,.2-1.2V69.2h1.1v6.2Z"/><path d="M165.5,75.9l1,.2a1,1,0,0,0,.4.7,1.8,1.8,0,0,0,1.1.3,1.9,1.9,0,0,0,1.1-.3,1.4,1.4,0,0,0,.5-.8,6.7,6.7,0,0,0,.1-1.4,2.2,2.2,0,0,1-1.7.8,2.3,2.3,0,0,1-2-.9,3.6,3.6,0,0,1-.7-2.2,4.1,4.1,0,0,1,.3-1.6,2.6,2.6,0,0,1,.9-1.2,2.5,2.5,0,0,1,1.4-.4,2.2,2.2,0,0,1,1.8.9v-.7h1v5.4a5.1,5.1,0,0,1-.3,2.1,2.2,2.2,0,0,1-.9,1,3.2,3.2,0,0,1-1.6.4,3,3,0,0,1-1.8-.5A1.7,1.7,0,0,1,165.5,75.9Zm.9-3.7a2.7,2.7,0,0,0,.5,1.8,1.6,1.6,0,0,0,2.4,0,2.6,2.6,0,0,0,.5-1.8,2.6,2.6,0,0,0-.5-1.7,1.6,1.6,0,0,0-1.2-.6,1.5,1.5,0,0,0-1.2.6A2.5,2.5,0,0,0,166.4,72.2Z"/><path d="M176.1,74.7l-1.1.7-1.2.2a2.3,2.3,0,0,1-1.6-.5,1.7,1.7,0,0,1-.6-1.3,1.7,1.7,0,0,1,.2-.8l.5-.6.8-.3.9-.2,1.9-.4v-.3a1.2,1.2,0,0,0-.3-.9,1.8,1.8,0,0,0-1.2-.4,1.9,1.9,0,0,0-1.1.3,1.6,1.6,0,0,0-.5.9h-1a2.6,2.6,0,0,1,.5-1.1,2,2,0,0,1,.9-.6l1.4-.2,1.3.2.7.5a1.7,1.7,0,0,1,.3.7,5.9,5.9,0,0,1,.1,1v1.4a14.9,14.9,0,0,0,.1,1.9,2.3,2.3,0,0,0,.3.7h-1.1A2.2,2.2,0,0,1,176.1,74.7Zm-.1-2.4-1.7.4-.9.2-.4.3a.9.9,0,0,0,.2,1.2,1.4,1.4,0,0,0,.9.3l1.1-.3a1.6,1.6,0,0,0,.7-.7,2.5,2.5,0,0,0,.2-1.1Z"/><path d="M178.3,75.4V66.8h1.1v8.6Z"/><path d="M181.4,77.9h-.8a10.6,10.6,0,0,0,1.8-5.6,9.6,9.6,0,0,0-.3-2.2,9.2,9.2,0,0,0-.6-1.7l-.9-1.8h.8a11.2,11.2,0,0,1,1.6,3,8.1,8.1,0,0,1-.2,5.7A10.7,10.7,0,0,1,181.4,77.9Z"/><path class="cls-2" d="M193.2,42.7a7.9,7.9,0,0,1,.3-2.5,3.1,3.1,0,0,1,.9-1.4,2.4,2.4,0,0,1,1.6-.5,2.5,2.5,0,0,1,1.2.3,2.3,2.3,0,0,1,.9.8,4.3,4.3,0,0,1,.5,1.3,8.5,8.5,0,0,1,.2,2,7.9,7.9,0,0,1-.3,2.4,3.1,3.1,0,0,1-.9,1.4,2.4,2.4,0,0,1-1.6.5,2.4,2.4,0,0,1-2-.9A5.7,5.7,0,0,1,193.2,42.7Zm1.1,0a5.4,5.4,0,0,0,.5,2.8,1.4,1.4,0,0,0,2.4,0,5.4,5.4,0,0,0,.5-2.8,5.4,5.4,0,0,0-.5-2.8,1.5,1.5,0,0,0-1.2-.7,1.4,1.4,0,0,0-1.2.6A5.4,5.4,0,0,0,194.2,42.7Z"/><path class="cls-2" d="M199.7,44.9h1a1.8,1.8,0,0,0,.5,1,1.4,1.4,0,0,0,.9.3l.9-.2.6-.6a3.5,3.5,0,0,0,.4-1,5.3,5.3,0,0,0,.2-1.3v-.2a2.4,2.4,0,0,1-.9.8,2.3,2.3,0,0,1-1.2.3,2.4,2.4,0,0,1-1.8-.8,2.8,2.8,0,0,1-.7-2,2.9,2.9,0,0,1,.8-2.1,2.6,2.6,0,0,1,1.9-.8,2.8,2.8,0,0,1,1.5.5,2.8,2.8,0,0,1,1.1,1.3,6.3,6.3,0,0,1,.4,2.4,7.8,7.8,0,0,1-.4,2.6,3.1,3.1,0,0,1-1.1,1.5,2.8,2.8,0,0,1-1.7.5,2.3,2.3,0,0,1-2.4-2.1Zm4.3-3.8a2.1,2.1,0,0,0-.5-1.4,1.5,1.5,0,0,0-1.2-.5,1.6,1.6,0,0,0-1.2.6,2.1,2.1,0,0,0-.5,1.5,1.8,1.8,0,0,0,.5,1.3,1.6,1.6,0,0,0,1.2.5,1.6,1.6,0,0,0,1.2-.5A2,2,0,0,0,204,41.1Z"/><path class="cls-2" d="M205.4,47l2.5-8.9h.8L206.2,47Z"/><path class="cls-2" d="M214.4,45.9v1h-5.7a1.9,1.9,0,0,1,.1-.7,3.9,3.9,0,0,1,.7-1.1l1.4-1.3a11.7,11.7,0,0,0,1.9-1.8,2.2,2.2,0,0,0,.5-1.3,1.4,1.4,0,0,0-.4-1.1,1.6,1.6,0,0,0-1.2-.4,1.6,1.6,0,0,0-1.2.5,1.7,1.7,0,0,0-.5,1.3h-1.1a2.7,2.7,0,0,1,.8-1.8,2.9,2.9,0,0,1,2-.6,2.7,2.7,0,0,1,2,.7,2.3,2.3,0,0,1,.7,1.7,2.6,2.6,0,0,1-.2,1,3.9,3.9,0,0,1-.7,1l-1.6,1.5-1.2,1.1-.4.6Z"/><path class="cls-2" d="M215.2,42.7a7.9,7.9,0,0,1,.3-2.5,3.1,3.1,0,0,1,.9-1.4,2.4,2.4,0,0,1,1.6-.5,2.5,2.5,0,0,1,1.2.3,2.3,2.3,0,0,1,.9.8,4.3,4.3,0,0,1,.5,1.3,8.5,8.5,0,0,1,.2,2,7.9,7.9,0,0,1-.3,2.4,3.1,3.1,0,0,1-.9,1.4,2.4,2.4,0,0,1-1.6.5,2.4,2.4,0,0,1-2-.9A5.7,5.7,0,0,1,215.2,42.7Zm1.1,0a5.4,5.4,0,0,0,.5,2.8,1.4,1.4,0,0,0,2.4,0,5.4,5.4,0,0,0,.5-2.8,5.4,5.4,0,0,0-.5-2.8,1.5,1.5,0,0,0-1.2-.7,1.4,1.4,0,0,0-1.2.6A5.4,5.4,0,0,0,216.3,42.7Z"/><path class="cls-2" d="M225.5,46.9h-1.1V40.2l-1,.7-1.1.5v-1a6.4,6.4,0,0,0,1.5-1,4,4,0,0,0,.9-1.1h.7Z"/><path class="cls-2" d="M227.9,42.7a7.9,7.9,0,0,1,.3-2.5,3.1,3.1,0,0,1,.9-1.4,2.4,2.4,0,0,1,1.6-.5,2.5,2.5,0,0,1,1.2.3,2.3,2.3,0,0,1,.9.8,4.3,4.3,0,0,1,.5,1.3,8.5,8.5,0,0,1,.2,2,7.9,7.9,0,0,1-.3,2.4,3.1,3.1,0,0,1-.9,1.4,2.4,2.4,0,0,1-1.6.5,2.4,2.4,0,0,1-2-.9A5.7,5.7,0,0,1,227.9,42.7Zm1.1,0a5.4,5.4,0,0,0,.5,2.8,1.4,1.4,0,0,0,2.4,0,5.4,5.4,0,0,0,.5-2.8,5.4,5.4,0,0,0-.5-2.8,1.5,1.5,0,0,0-1.2-.7,1.4,1.4,0,0,0-1.2.6A5.4,5.4,0,0,0,229,42.7Z"/><path class="cls-2" d="M233.8,44.2v-.8h6.7v.8Z"/><path class="cls-2" d="M240.6,42.7a7.9,7.9,0,0,1,.3-2.5,3.1,3.1,0,0,1,.9-1.4,2.4,2.4,0,0,1,1.6-.5,2.5,2.5,0,0,1,1.2.3,2.3,2.3,0,0,1,.9.8,4.3,4.3,0,0,1,.5,1.3,8.5,8.5,0,0,1,.2,2,7.9,7.9,0,0,1-.3,2.4,3.1,3.1,0,0,1-.9,1.4,2.4,2.4,0,0,1-1.6.5,2.4,2.4,0,0,1-2-.9A5.7,5.7,0,0,1,240.6,42.7Zm1.1,0a5.4,5.4,0,0,0,.5,2.8,1.4,1.4,0,0,0,2.4,0,5.4,5.4,0,0,0,.5-2.8,5.4,5.4,0,0,0-.5-2.8,1.5,1.5,0,0,0-1.2-.7,1.4,1.4,0,0,0-1.2.6A5.4,5.4,0,0,0,241.7,42.7Z"/><path class="cls-2" d="M247,39.4v-1h5.6v.8a11.7,11.7,0,0,0-1.6,2.3,14.1,14.1,0,0,0-1.2,3,11.1,11.1,0,0,0-.4,2.4h-1.1a10.5,10.5,0,0,1,.4-2.4,12.9,12.9,0,0,1,1.1-2.8,11.9,11.9,0,0,1,1.5-2.2Z"/><path class="cls-2" d="M252.8,47l2.5-8.9h.8L253.7,47Z"/><path class="cls-2" d="M261.9,45.9v1h-5.7a1.9,1.9,0,0,1,.1-.7A3.9,3.9,0,0,1,257,45l1.4-1.3a11.7,11.7,0,0,0,1.9-1.8,2.2,2.2,0,0,0,.5-1.3,1.4,1.4,0,0,0-.4-1.1,1.6,1.6,0,0,0-1.2-.4,1.6,1.6,0,0,0-1.2.5,1.7,1.7,0,0,0-.5,1.3h-1.1a2.7,2.7,0,0,1,.8-1.8,2.9,2.9,0,0,1,2-.6,2.7,2.7,0,0,1,2,.7,2.3,2.3,0,0,1,.7,1.7,2.6,2.6,0,0,1-.2,1,3.9,3.9,0,0,1-.7,1l-1.6,1.5-1.2,1.1-.4.6Z"/><path class="cls-2" d="M262.7,42.7a7.9,7.9,0,0,1,.3-2.5,3.1,3.1,0,0,1,.9-1.4,2.4,2.4,0,0,1,1.6-.5,2.5,2.5,0,0,1,1.2.3,2.3,2.3,0,0,1,.9.8,4.3,4.3,0,0,1,.5,1.3,8.5,8.5,0,0,1,.2,2,7.9,7.9,0,0,1-.3,2.4,3.1,3.1,0,0,1-.9,1.4,2.4,2.4,0,0,1-1.6.5,2.4,2.4,0,0,1-2-.9A5.7,5.7,0,0,1,262.7,42.7Zm1.1,0a5.4,5.4,0,0,0,.5,2.8,1.4,1.4,0,0,0,2.4,0,5.4,5.4,0,0,0,.5-2.8,5.4,5.4,0,0,0-.5-2.8,1.5,1.5,0,0,0-1.2-.7,1.4,1.4,0,0,0-1.2.6A5.4,5.4,0,0,0,263.8,42.7Z"/><path class="cls-2" d="M273,46.9H272V40.2l-1,.7-1.1.5v-1a6.4,6.4,0,0,0,1.5-1,4,4,0,0,0,.9-1.1h.7Z"/><path class="cls-2" d="M275.4,44.6h1.1a2.3,2.3,0,0,0,.6,1.3,1.5,1.5,0,0,0,1.1.4,1.7,1.7,0,0,0,1.3-.5,1.7,1.7,0,0,0,.5-1.3,1.6,1.6,0,0,0-.5-1.2,1.6,1.6,0,0,0-1.2-.5h-.7v-.9h.2a2.2,2.2,0,0,0,1.2-.4,1.2,1.2,0,0,0,.5-1.1,1.3,1.3,0,0,0-.4-1,1.4,1.4,0,0,0-1-.4,1.4,1.4,0,0,0-1,.4,1.9,1.9,0,0,0-.5,1.2l-1.1-.2a2.7,2.7,0,0,1,.9-1.6,2.5,2.5,0,0,1,1.7-.6,2.8,2.8,0,0,1,1.3.3,2.2,2.2,0,0,1,.9.8,2.1,2.1,0,0,1,.3,1.1,1.8,1.8,0,0,1-.3,1,2,2,0,0,1-.9.7,2,2,0,0,1,1.2.7,2.2,2.2,0,0,1,.4,1.4,2.5,2.5,0,0,1-.8,1.9,2.9,2.9,0,0,1-2.1.8,2.7,2.7,0,0,1-1.9-.7A2.6,2.6,0,0,1,275.4,44.6Z"/><path class="cls-3" d="M286.3,31.6H195.4a.6.6,0,0,0-.7.4,1.2,1.2,0,0,1-1.4.6,1.3,1.3,0,0,1-.9-1.2,1.2,1.2,0,0,1,2.4-.5.5.5,0,0,0,.5.3h99c.7,0,.7,0,.7-.7s0-.4.1-.6A9.7,9.7,0,1,1,304.6,41a9.4,9.4,0,0,1-7.2-3.2,9.1,9.1,0,0,1-2.4-5.8c0-.2,0-.4-.3-.4h-8.3Zm18.2,8.8a9.1,9.1,0,1,0-9-9.6A9.1,9.1,0,0,0,304.5,40.4Z"/><path class="cls-4" d="M286.6,31.1h-.3a17.7,17.7,0,0,1,5-12.3,17.7,17.7,0,0,1,11-5.6,18.4,18.4,0,0,1,20.3,14.4,17.8,17.8,0,0,1-3.5,15,17.7,17.7,0,0,1-8.8,6.2,18.3,18.3,0,0,1-22.1-9.2,16.9,16.9,0,0,1-1.9-6.9V31.6h.3a17.1,17.1,0,0,0,1.9,7.9,17.8,17.8,0,0,0,8.8,8.4,18,18,0,0,0,21.6-5.4A17.5,17.5,0,0,0,322.4,28a17.3,17.3,0,0,0-6.2-10.5,17.6,17.6,0,0,0-15-3.8,17.3,17.3,0,0,0-9.7,5.4A17.5,17.5,0,0,0,286.6,31.1Z"/><path class="cls-4" d="M281.7,31.1h-.3a21.5,21.5,0,0,1,2.4-10A23.5,23.5,0,0,1,301.7,8.2H304c.1,0,.3-.1.3.1s-.2.2-.3.2a22.9,22.9,0,0,0-9.8,2.5,22.7,22.7,0,0,0-4.5,3.1,22.8,22.8,0,0,0-7.9,15.3C281.7,29.9,281.7,30.5,281.7,31.1Z"/><path class="cls-3" d="M304.6,38.3a7,7,0,1,1,6.9-6.9A7,7,0,0,1,304.6,38.3Zm-6.4-7a6.4,6.4,0,1,0,6.5-6.4A6.4,6.4,0,0,0,298.2,31.3Z"/><path class="cls-3" d="M308.1,31.4a3.5,3.5,0,1,1-3.4-3.5A3.5,3.5,0,0,1,308.1,31.4Z"/><path class="cls-2" d="M122.9,18.1V9.2h-3.3V8.1h7.9V9.2h-3.3v8.8Z"/><path class="cls-2" d="M133.3,15.8l1.3.2a3.1,3.1,0,0,1-1.1,1.7,3.8,3.8,0,0,1-4.6-.4,3.8,3.8,0,0,1-.9-2.8,4,4,0,0,1,.9-2.8,3.2,3.2,0,0,1,2.4-1,3.1,3.1,0,0,1,2.4,1,3.9,3.9,0,0,1,.9,2.8v.3h-5.4a2.8,2.8,0,0,0,.7,1.8,2,2,0,0,0,1.5.6,1.9,1.9,0,0,0,1.2-.4A2.4,2.4,0,0,0,133.3,15.8Zm-4-2h4.1a2.5,2.5,0,0,0-.5-1.4,1.9,1.9,0,0,0-1.5-.7,2,2,0,0,0-1.4.6A2.2,2.2,0,0,0,129.3,13.8Zm1.3-3.8.9-1.9h1.6l-1.5,1.9Z"/><path class="cls-2" d="M140.5,15.4l1.2.2a3.1,3.1,0,0,1-1,2,3,3,0,0,1-2,.7,3.1,3.1,0,0,1-2.4-1,4,4,0,0,1-.9-2.8,5.1,5.1,0,0,1,.4-2.1,2.7,2.7,0,0,1,1.2-1.3,3.5,3.5,0,0,1,1.7-.4,3,3,0,0,1,1.9.6,2.7,2.7,0,0,1,1,1.7l-1.2.2a2,2,0,0,0-.6-1.1,1.6,1.6,0,0,0-1-.4,1.9,1.9,0,0,0-1.5.7,3.2,3.2,0,0,0-.6,2.1,3.3,3.3,0,0,0,.6,2.1,1.8,1.8,0,0,0,1.5.7,1.7,1.7,0,0,0,1.2-.4A2.2,2.2,0,0,0,140.5,15.4Z"/><path class="cls-2" d="M142.4,18.1V10.8h1.1v1a2.6,2.6,0,0,1,2.3-1.2l1.2.2a1.9,1.9,0,0,1,.8.6,2.4,2.4,0,0,1,.4.9,7.1,7.1,0,0,1,.1,1.2v4.5H147V13.7a3.3,3.3,0,0,0-.1-1.1,1.2,1.2,0,0,0-.5-.6l-.9-.2a2,2,0,0,0-1.4.5,2.5,2.5,0,0,0-.6,1.9v4Z"/><path class="cls-2" d="M149.8,9.5V8.1H151V9.5Zm0,8.6V10.8H151v7.3Z"/><path class="cls-2" d="M157.3,15.4l1.2.2a3.1,3.1,0,0,1-1,2,3,3,0,0,1-2,.7,3.1,3.1,0,0,1-2.4-1,4,4,0,0,1-.9-2.8,5.1,5.1,0,0,1,.4-2.1,2.7,2.7,0,0,1,1.2-1.3,3.5,3.5,0,0,1,1.7-.4,3,3,0,0,1,1.9.6,2.7,2.7,0,0,1,1,1.7l-1.2.2a2,2,0,0,0-.6-1.1,1.6,1.6,0,0,0-1-.4,1.9,1.9,0,0,0-1.5.7,3.2,3.2,0,0,0-.6,2.1,3.3,3.3,0,0,0,.6,2.1,1.8,1.8,0,0,0,1.5.7,1.7,1.7,0,0,0,1.2-.4A2.2,2.2,0,0,0,157.3,15.4Z"/><path class="cls-2" d="M158.7,14.5a3.7,3.7,0,0,1,1.1-3,3.4,3.4,0,0,1,2.3-.8,3.3,3.3,0,0,1,2.4,1,3.7,3.7,0,0,1,1,2.7,4.8,4.8,0,0,1-.4,2.2,3,3,0,0,1-1.2,1.2,3.6,3.6,0,0,1-1.8.4,3.3,3.3,0,0,1-2.5-1A3.9,3.9,0,0,1,158.7,14.5Zm1.3,0a3.1,3.1,0,0,0,.6,2.1,2,2,0,0,0,3.1,0,3.2,3.2,0,0,0,.6-2.1,3,3,0,0,0-.6-2,2,2,0,0,0-3.1,0A3.1,3.1,0,0,0,159.9,14.5Z"/><path class="cls-2" d="M174.8,18.1v-.9a2.3,2.3,0,0,1-2,1.1,2.9,2.9,0,0,1-1.6-.5,3.1,3.1,0,0,1-1.1-1.3,4.6,4.6,0,0,1-.4-2,5.2,5.2,0,0,1,.4-2,2.9,2.9,0,0,1,1.1-1.4,2.9,2.9,0,0,1,1.6-.5,2.4,2.4,0,0,1,2,1V8.1h1.2v10Zm-3.9-3.6a3.2,3.2,0,0,0,.6,2.1,1.8,1.8,0,0,0,1.4.7,1.7,1.7,0,0,0,1.4-.7,3,3,0,0,0,.6-2,3.4,3.4,0,0,0-.6-2.2,1.8,1.8,0,0,0-1.4-.7,1.7,1.7,0,0,0-1.4.7A3.3,3.3,0,0,0,170.9,14.5Z"/><path class="cls-2" d="M182.4,15.8l1.3.2a3.1,3.1,0,0,1-1.1,1.7,3.8,3.8,0,0,1-4.6-.4,3.8,3.8,0,0,1-.9-2.8,4,4,0,0,1,.9-2.8,3.2,3.2,0,0,1,2.4-1,3.1,3.1,0,0,1,2.4,1,3.9,3.9,0,0,1,.9,2.8v.3h-5.4a2.8,2.8,0,0,0,.7,1.8,2,2,0,0,0,1.5.6,1.9,1.9,0,0,0,1.2-.4A2.4,2.4,0,0,0,182.4,15.8Zm-4-2h4.1a2.5,2.5,0,0,0-.5-1.4,1.9,1.9,0,0,0-1.5-.7,1.9,1.9,0,0,0-1.4.6A2.2,2.2,0,0,0,178.4,13.8Z"/><path class="cls-2" d="M72.5,34.9v-10h5.2a3.4,3.4,0,0,1,1.5.7,4.1,4.1,0,0,1,1.2,1.7,6.7,6.7,0,0,1,.4,2.4,7,7,0,0,1-.3,2,4.9,4.9,0,0,1-.7,1.5,3.6,3.6,0,0,1-.9.9l-1.2.5-1.6.2Zm1.3-1.2h2.1l1.6-.2.9-.5a3.2,3.2,0,0,0,.7-1.3,6.2,6.2,0,0,0,.3-1.9,4.7,4.7,0,0,0-.5-2.4,2.6,2.6,0,0,0-1.3-1.1L75.9,26H73.8Z"/><path class="cls-2" d="M87,32.6l1.3.2a3.1,3.1,0,0,1-1.1,1.7,3.8,3.8,0,0,1-4.6-.4,3.8,3.8,0,0,1-.9-2.8,4,4,0,0,1,.9-2.8,3.2,3.2,0,0,1,2.4-1,3.1,3.1,0,0,1,2.4,1,3.9,3.9,0,0,1,.9,2.8v.3H82.9a2.8,2.8,0,0,0,.7,1.8,2,2,0,0,0,1.5.6,1.9,1.9,0,0,0,1.2-.4A2.4,2.4,0,0,0,87,32.6Zm-4-2H87a2.5,2.5,0,0,0-.5-1.4,1.9,1.9,0,0,0-1.5-.7,2,2,0,0,0-1.4.6A2.2,2.2,0,0,0,83,30.6Z"/><path class="cls-2" d="M89,32.7l1.2-.2a1.7,1.7,0,0,0,.6,1.1,2,2,0,0,0,1.3.4,1.9,1.9,0,0,0,1.3-.3,1,1,0,0,0,.4-.8.7.7,0,0,0-.4-.7l-1.3-.4-1.9-.6a1.8,1.8,0,0,1-1.1-1.7,1.9,1.9,0,0,1,.2-.9A2,2,0,0,1,90,28l.8-.4h1.1l1.5.2a2,2,0,0,1,1,.7,2.6,2.6,0,0,1,.4,1.1l-1.2.2a1.3,1.3,0,0,0-.5-.9,1.7,1.7,0,0,0-1.1-.3,2,2,0,0,0-1.2.3.8.8,0,0,0-.4.7.7.7,0,0,0,.2.4l.5.3,1.1.3,1.8.6a1.8,1.8,0,0,1,.8.6,1.8,1.8,0,0,1,.3,1.1,2.1,2.1,0,0,1-.4,1.2,2.3,2.3,0,0,1-1,.8,3.8,3.8,0,0,1-1.5.3,3.4,3.4,0,0,1-2.2-.6A2.7,2.7,0,0,1,89,32.7Z"/><path class="cls-2" d="M101,32.6l1.3.2a3.1,3.1,0,0,1-1.1,1.7,3.8,3.8,0,0,1-4.6-.4,3.8,3.8,0,0,1-.9-2.8,4,4,0,0,1,.9-2.8,3.2,3.2,0,0,1,2.4-1,3.1,3.1,0,0,1,2.4,1,3.9,3.9,0,0,1,.9,2.8v.3H96.9a2.8,2.8,0,0,0,.7,1.8,2,2,0,0,0,1.5.6,1.9,1.9,0,0,0,1.2-.4A2.4,2.4,0,0,0,101,32.6Zm-4-2h4.1a2.5,2.5,0,0,0-.5-1.4,1.9,1.9,0,0,0-1.5-.7,2,2,0,0,0-1.4.6A2.2,2.2,0,0,0,97,30.6Z"/><path class="cls-2" d="M103.5,34.9V27.6h1.1v1a2.6,2.6,0,0,1,2.3-1.2l1.2.2a1.9,1.9,0,0,1,.8.6,2.4,2.4,0,0,1,.4.9,7.1,7.1,0,0,1,.1,1.2v4.5h-1.2V30.5a3.3,3.3,0,0,0-.1-1.1,1.2,1.2,0,0,0-.5-.6l-.9-.2a2,2,0,0,0-1.4.5,2.5,2.5,0,0,0-.6,1.9v4Z"/><path class="cls-2" d="M110.9,34.9v-10h1.2v3.6a2.7,2.7,0,0,1,2.2-1,2.9,2.9,0,0,1,1.4.3,1.9,1.9,0,0,1,.9.9,4,4,0,0,1,.3,1.6v4.6h-1.2V30.3a1.9,1.9,0,0,0-.4-1.3,1.5,1.5,0,0,0-1.1-.4,2,2,0,0,0-1,.3,1.6,1.6,0,0,0-.7.8,3.5,3.5,0,0,0-.2,1.3v4Z"/><path class="cls-2" d="M117.8,31.3a3.7,3.7,0,0,1,1.1-3,3.4,3.4,0,0,1,2.3-.8,3.3,3.3,0,0,1,2.4,1,3.7,3.7,0,0,1,1,2.7,4.8,4.8,0,0,1-.4,2.2,3,3,0,0,1-1.2,1.2,3.6,3.6,0,0,1-1.8.4,3.3,3.3,0,0,1-2.5-1A3.9,3.9,0,0,1,117.8,31.3Zm1.3,0a3.1,3.1,0,0,0,.6,2.1,2,2,0,0,0,3.1,0,3.2,3.2,0,0,0,.6-2.1,3,3,0,0,0-.6-2,2,2,0,0,0-3.1,0A3.1,3.1,0,0,0,119.1,31.3Z"/><path class="cls-2" d="M129.4,34.9v-10h5.2a3.4,3.4,0,0,1,1.5.7,4.1,4.1,0,0,1,1.2,1.7,6.7,6.7,0,0,1,.4,2.4,7,7,0,0,1-.3,2,4.9,4.9,0,0,1-.7,1.5,3.6,3.6,0,0,1-.9.9l-1.2.5-1.6.2Zm1.3-1.2h2.1l1.6-.2.9-.5a3.2,3.2,0,0,0,.7-1.3,6.2,6.2,0,0,0,.3-1.9,4.7,4.7,0,0,0-.5-2.4,2.6,2.6,0,0,0-1.3-1.1l-1.7-.2h-2.1Z"/><path class="cls-2" d="M139,26.3V24.9h1.2v1.4Zm0,8.6V27.6h1.2v7.3Z"/><path class="cls-2" d="M141.5,35.5l1.2.2a1.1,1.1,0,0,0,.4.8,2.1,2.1,0,0,0,1.3.3,2.2,2.2,0,0,0,1.3-.3,1.7,1.7,0,0,0,.6-1,7.9,7.9,0,0,0,.1-1.6,2.5,2.5,0,0,1-2,1,2.7,2.7,0,0,1-2.3-1.1,4.2,4.2,0,0,1-.8-2.6,4.8,4.8,0,0,1,.4-1.9,3,3,0,0,1,1.1-1.4,2.9,2.9,0,0,1,1.7-.5,2.6,2.6,0,0,1,2.1,1v-.9h1.1v6.3a6,6,0,0,1-.3,2.4,2.5,2.5,0,0,1-1.1,1.1,3.8,3.8,0,0,1-1.8.4,3.5,3.5,0,0,1-2.1-.6A2,2,0,0,1,141.5,35.5Zm1-4.4a3.1,3.1,0,0,0,.6,2.1,1.9,1.9,0,0,0,2.8,0,3,3,0,0,0,.6-2,3,3,0,0,0-.6-2,1.8,1.8,0,0,0-1.4-.7,1.8,1.8,0,0,0-1.4.7A3,3,0,0,0,142.5,31.1Z"/><path class="cls-2" d="M149.1,26.3V24.9h1.2v1.4Zm0,8.6V27.6h1.2v7.3Z"/><path class="cls-2" d="M154.5,33.8l.2,1.1h-.9l-1-.2a1.2,1.2,0,0,1-.5-.6,4.4,4.4,0,0,1-.2-1.5V28.6h-.9v-1h.9V25.8l1.2-.7v2.5h1.2v1h-1.2v4.2a2.1,2.1,0,0,0,.1.7l.2.2h1Z"/><path class="cls-2" d="M160.1,34a4.6,4.6,0,0,1-1.3.8l-1.4.2a2.6,2.6,0,0,1-1.8-.6,1.9,1.9,0,0,1-.6-1.5,2,2,0,0,1,.9-1.7l.9-.4,1.1-.2,2.2-.4V30a1.4,1.4,0,0,0-.3-1.1,2.1,2.1,0,0,0-1.4-.4,2.2,2.2,0,0,0-1.3.3,1.9,1.9,0,0,0-.6,1.1l-1.2-.2a3,3,0,0,1,.5-1.2,2.4,2.4,0,0,1,1.1-.7l1.6-.3,1.5.2a2,2,0,0,1,.9.5,1.9,1.9,0,0,1,.4.8,6.9,6.9,0,0,1,.1,1.1v1.6a17.4,17.4,0,0,0,.1,2.2,2.7,2.7,0,0,0,.3.9h-1.3A2.6,2.6,0,0,1,160.1,34Zm-.1-2.7-2,.5-1.1.2-.5.4a1.1,1.1,0,0,0,.2,1.4,1.6,1.6,0,0,0,1.1.3,2.5,2.5,0,0,0,1.3-.3,1.9,1.9,0,0,0,.8-.9,3,3,0,0,0,.2-1.2Z"/><path class="cls-2" d="M162.7,34.9v-10h1.2v10Z"/><path class="cls-2" d="M168.6,32.4l1.1-.2a2.5,2.5,0,0,0,.7,1.4,1.7,1.7,0,0,0,1.2.4,1.8,1.8,0,0,0,1.4-.6,1.9,1.9,0,0,0,.6-1.4,1.8,1.8,0,0,0-.5-1.3,1.8,1.8,0,0,0-1.3-.5h-.8v-1h.2a2.4,2.4,0,0,0,1.3-.4,1.3,1.3,0,0,0,.6-1.2,1.4,1.4,0,0,0-.4-1,1.5,1.5,0,0,0-1.1-.4,1.6,1.6,0,0,0-1.1.4,2.1,2.1,0,0,0-.6,1.3l-1.1-.2a2.9,2.9,0,0,1,1-1.8,2.7,2.7,0,0,1,1.8-.6,3,3,0,0,1,1.4.3,2.4,2.4,0,0,1,1,.9,2.3,2.3,0,0,1,.3,1.2,2,2,0,0,1-.3,1.1,2.2,2.2,0,0,1-1,.8,2.2,2.2,0,0,1,1.3.8,2.4,2.4,0,0,1,.5,1.5,2.7,2.7,0,0,1-.9,2.1,3.1,3.1,0,0,1-2.2.8,2.9,2.9,0,0,1-2-.7A2.8,2.8,0,0,1,168.6,32.4Z"/><path class="cls-2" d="M175.9,34.9V25.6h4.9a3.2,3.2,0,0,1,1.4.7,3.8,3.8,0,0,1,1.1,1.6,6.2,6.2,0,0,1,.4,2.2,6.5,6.5,0,0,1-.2,1.9,4.6,4.6,0,0,1-.6,1.4l-.8.8-1.1.5-1.5.2Zm1.2-1.1h2l1.4-.2.8-.5a2.9,2.9,0,0,0,.7-1.2,5.8,5.8,0,0,0,.2-1.8,4.3,4.3,0,0,0-.5-2.2,2.4,2.4,0,0,0-1.2-1.1l-1.6-.2h-2Z"/><path class="cls-2" d="M122,46.9V38.3h1.2l4.5,6.7V38.3h1.1v8.6h-1.2l-4.5-6.7v6.8Z"/><path class="cls-2" d="M130.4,39.9l.8-1.6h1.4l-1.3,1.6Zm.1,7V40.7h1.1v6.2Z"/><path class="cls-2" d="M134.7,46.9l-2.4-6.2h1.1l1.3,3.7.4,1.3.4-1.2,1.4-3.8H138l-2.4,6.2Z"/><path class="cls-2" d="M142.7,44.9h1.1a2.7,2.7,0,0,1-1,1.5,3.2,3.2,0,0,1-3.9-.3,3.3,3.3,0,0,1-.8-2.4,3.4,3.4,0,0,1,.8-2.4,2.7,2.7,0,0,1,2.1-.9,2.7,2.7,0,0,1,2,.8,3.4,3.4,0,0,1,.8,2.4V44h-4.6a2.4,2.4,0,0,0,.6,1.6,1.7,1.7,0,0,0,1.3.5,1.6,1.6,0,0,0,1-.3A2,2,0,0,0,142.7,44.9Zm-3.5-1.7h3.5a2.1,2.1,0,0,0-.4-1.2,1.6,1.6,0,0,0-1.3-.6,1.7,1.7,0,0,0-1.2.5A1.9,1.9,0,0,0,139.3,43.2Z"/><path class="cls-2" d="M144.6,46.9V38.3h1.1v8.6Z"/><path class="cls-2" d="M152.8,46.9V44.8h-3.7v-1l3.9-5.6h.9v5.6H155v1h-1.2v2.1Zm0-3V40l-2.7,3.9Z"/><path class="cls-2" d="M165.4,46l1.5.8-.3.8a6.7,6.7,0,0,1-1.8-1.1,4.3,4.3,0,0,1-2.1.5,4.1,4.1,0,0,1-2.1-.6,3.8,3.8,0,0,1-1.5-1.6,5,5,0,0,1-.5-2.3,5.2,5.2,0,0,1,.5-2.3,3.6,3.6,0,0,1,1.5-1.6,4.2,4.2,0,0,1,2.1-.5,4.1,4.1,0,0,1,2.1.6,3.7,3.7,0,0,1,1.5,1.6,5.1,5.1,0,0,1,.5,2.3,5.3,5.3,0,0,1-.3,1.9A4,4,0,0,1,165.4,46Zm-2.5-1.5a4.2,4.2,0,0,1,1.6.8,3.5,3.5,0,0,0,1-2.7,4.4,4.4,0,0,0-.4-1.8,2.7,2.7,0,0,0-1-1.2,3,3,0,0,0-3.6.4,3.6,3.6,0,0,0-.8,2.6,3.7,3.7,0,0,0,.8,2.6,2.8,2.8,0,0,0,2.1.9l1.1-.2-1.1-.5Z"/><path class="cls-2" d="M167.8,46.9V38.3h3.8a5.1,5.1,0,0,1,1.7.2,1.9,1.9,0,0,1,1,.8,2.4,2.4,0,0,1,.4,1.3,2.2,2.2,0,0,1-.6,1.5,3,3,0,0,1-1.8.8l.7.4.9,1.1,1.5,2.3h-1.4l-1.1-1.8-.8-1.2-.6-.6-.5-.2h-2v3.8Zm1.1-4.8h2.4l1.2-.2a1.3,1.3,0,0,0,.7-.5,1.4,1.4,0,0,0,.2-.8,1.3,1.3,0,0,0-.4-1,2.1,2.1,0,0,0-1.4-.4h-2.7Z"/><path class="cls-2" d="M182.4,46l1.5.8-.3.8a6.7,6.7,0,0,1-1.8-1.1,4.3,4.3,0,0,1-2.1.5,4.1,4.1,0,0,1-2.1-.6,3.8,3.8,0,0,1-1.5-1.6,5,5,0,0,1-.5-2.3,5.2,5.2,0,0,1,.5-2.3,3.6,3.6,0,0,1,1.5-1.6,4.2,4.2,0,0,1,2.1-.5,4.1,4.1,0,0,1,2.1.6,3.7,3.7,0,0,1,1.5,1.6,5.1,5.1,0,0,1,.5,2.3,5.3,5.3,0,0,1-.3,1.9A4,4,0,0,1,182.4,46Zm-2.5-1.5a4.2,4.2,0,0,1,1.6.8,3.5,3.5,0,0,0,1-2.7,4.4,4.4,0,0,0-.4-1.8,2.7,2.7,0,0,0-1-1.2,3,3,0,0,0-3.6.4,3.6,3.6,0,0,0-.8,2.6,3.7,3.7,0,0,0,.8,2.6,2.8,2.8,0,0,0,2.1.9l1.1-.2-1.1-.5Z"/></g></g></svg>