<svg xmlns="http://www.w3.org/2000/svg" viewBox="0 0 330 115"><defs><style>.cls-1{fill:none;stroke:#7c7c7c;stroke-miterlimit:10;stroke-width:2px;}.cls-2{fill:#585857;}.cls-3{fill:#478ac9;}.cls-4{fill:#77aad9;}</style></defs><title>exelPrancheta 1</title><g id="Camada_4" data-name="Camada 4"><line class="cls-1" x1="303.6" y1="174.2" x2="304.1" y2="-13.5"/></g><g id="Camada_2" data-name="Camada 2"><g id="exel"><path class="cls-2" d="M151.6,63V54.4h3.2a4,4,0,0,1,1.6.3,2,2,0,0,1,.9.8,2.1,2.1,0,0,1,.3,1.1,1.9,1.9,0,0,1-.3,1,2.1,2.1,0,0,1-.9.8,2.2,2.2,0,0,1,1.2.8,2.1,2.1,0,0,1,.4,1.3,2.5,2.5,0,0,1-.3,1.1,2.2,2.2,0,0,1-.6.8l-.9.4h-4.7Zm1.1-5h2.9a1.2,1.2,0,0,0,.7-.4,1.2,1.2,0,0,0,.2-.7,1.4,1.4,0,0,0-.2-.8,1,1,0,0,0-.6-.4h-3Zm0,4h2.9l.7-.2.4-.5a1.5,1.5,0,0,0,.2-.7,1.4,1.4,0,0,0-.2-.8,1.3,1.3,0,0,0-.7-.5h-3.2Z"/><path class="cls-2" d="M163.1,62.3,162,63l-1.2.2a2.3,2.3,0,0,1-1.6-.5,1.7,1.7,0,0,1-.6-1.3,1.7,1.7,0,0,1,.2-.8l.5-.6.8-.3.9-.2,1.9-.4v-.3a1.2,1.2,0,0,0-.3-.9,1.8,1.8,0,0,0-1.2-.4,1.9,1.9,0,0,0-1.1.3,1.6,1.6,0,0,0-.5.9h-1a2.6,2.6,0,0,1,.5-1.1,2,2,0,0,1,.9-.6l1.4-.2,1.3.2.7.5a1.7,1.7,0,0,1,.3.7,5.9,5.9,0,0,1,.1,1v1.4a14.9,14.9,0,0,0,.1,1.9,2.3,2.3,0,0,0,.3.7h-1.1A2.2,2.2,0,0,1,163.1,62.3Zm-.1-2.4-1.7.4-.9.2-.4.3a.9.9,0,0,0,.2,1.2,1.4,1.4,0,0,0,.9.3l1.1-.3a1.6,1.6,0,0,0,.7-.7,2.5,2.5,0,0,0,.2-1.1ZM161,56l.8-1.6h1.4L161.8,56Z"/><path class="cls-2" d="M164.8,61.2l1-.2a1.5,1.5,0,0,0,.5,1,1.7,1.7,0,0,0,1.1.3,1.6,1.6,0,0,0,1.1-.3.9.9,0,0,0,.4-.7.6.6,0,0,0-.3-.6l-1.1-.4-1.6-.5a1.5,1.5,0,0,1-.9-1.4,1.6,1.6,0,0,1,.2-.8l.5-.6.7-.3h.9l1.3.2a1.7,1.7,0,0,1,.8.6,2.2,2.2,0,0,1,.4,1h-1a1.1,1.1,0,0,0-.4-.7,1.5,1.5,0,0,0-1-.3,1.7,1.7,0,0,0-1,.2.7.7,0,0,0-.3.6.6.6,0,0,0,.1.4l.4.3.9.3,1.6.5a1.6,1.6,0,0,1,.7.6,1.5,1.5,0,0,1,.3.9,1.8,1.8,0,0,1-.3,1,2,2,0,0,1-.9.7l-1.3.3a2.9,2.9,0,0,1-1.8-.5A2.3,2.3,0,0,1,164.8,61.2Z"/><path class="cls-2" d="M170.8,55.6V54.4h1.1v1.2Zm0,7.4V56.8h1.1V63Z"/><path class="cls-2" d="M177,60.7h1a2.7,2.7,0,0,1-.9,1.7,2.5,2.5,0,0,1-1.7.6,2.7,2.7,0,0,1-2.1-.8,3.4,3.4,0,0,1-.8-2.4,4.3,4.3,0,0,1,.3-1.8,2.3,2.3,0,0,1,1-1.1,3,3,0,0,1,1.5-.4,2.6,2.6,0,0,1,1.7.5,2.4,2.4,0,0,1,.8,1.5l-1,.2a1.7,1.7,0,0,0-.5-.9,1.3,1.3,0,0,0-.9-.3,1.6,1.6,0,0,0-1.3.6,2.7,2.7,0,0,0-.5,1.8,2.8,2.8,0,0,0,.5,1.8,1.6,1.6,0,0,0,1.3.6,1.5,1.5,0,0,0,1-.4A1.9,1.9,0,0,0,177,60.7Z"/><path class="cls-2" d="M178.1,59.9a3.2,3.2,0,0,1,1-2.6,2.9,2.9,0,0,1,2-.7,2.8,2.8,0,0,1,2.1.8,3.2,3.2,0,0,1,.8,2.3,4.1,4.1,0,0,1-.4,1.9,2.6,2.6,0,0,1-1,1.1,3.1,3.1,0,0,1-1.5.4,2.8,2.8,0,0,1-2.1-.8A3.3,3.3,0,0,1,178.1,59.9Zm1.1,0a2.7,2.7,0,0,0,.5,1.8,1.7,1.7,0,0,0,2.6,0,2.7,2.7,0,0,0,.5-1.8,2.6,2.6,0,0,0-.5-1.7,1.7,1.7,0,0,0-2.6,0A2.6,2.6,0,0,0,179.1,59.9Z"/><path class="cls-2" d="M48.1,77.4V68.8h5.8v1H49.2v2.7h4v1h-4v3.9Z"/><path class="cls-2" d="M58.8,77.4v-.9a2.3,2.3,0,0,1-2,1.1l-1-.2-.7-.5a2,2,0,0,1-.3-.8,5.4,5.4,0,0,1-.1-1V71.2h1.1v3.5a6.2,6.2,0,0,0,.1,1.1,1.1,1.1,0,0,0,.4.7l.8.2.9-.2a1.4,1.4,0,0,0,.6-.7,3.3,3.3,0,0,0,.2-1.2V71.2h1.1v6.2Z"/><path class="cls-2" d="M60.9,77.4V71.2h.9v.9a2.2,2.2,0,0,1,2-1l1,.2a1.6,1.6,0,0,1,.7.5,2,2,0,0,1,.3.8,6,6,0,0,1,.1,1v3.8H64.9V73.6a2.8,2.8,0,0,0-.1-1,1,1,0,0,0-.4-.5l-.7-.2a1.7,1.7,0,0,0-1.2.4A2.1,2.1,0,0,0,62,74v3.4Z"/><path class="cls-2" d="M71.2,75.1h1a2.7,2.7,0,0,1-.9,1.7,2.5,2.5,0,0,1-1.7.6,2.7,2.7,0,0,1-2.1-.8,3.4,3.4,0,0,1-.8-2.4,4.3,4.3,0,0,1,.3-1.8,2.3,2.3,0,0,1,1-1.1,3,3,0,0,1,1.5-.4,2.6,2.6,0,0,1,1.7.5,2.4,2.4,0,0,1,.8,1.5l-1,.2a1.7,1.7,0,0,0-.5-.9,1.3,1.3,0,0,0-.9-.3,1.6,1.6,0,0,0-1.3.6,2.7,2.7,0,0,0-.5,1.8,2.8,2.8,0,0,0,.5,1.8,1.6,1.6,0,0,0,1.3.6,1.5,1.5,0,0,0,1-.4A1.9,1.9,0,0,0,71.2,75.1Z"/><path class="cls-2" d="M72.6,70V68.8h1.1V70Zm0,7.4V71.2h1.1v6.2Z"/><path class="cls-2" d="M74.4,74.3a3.2,3.2,0,0,1,1-2.6,2.9,2.9,0,0,1,2-.7,2.8,2.8,0,0,1,2.1.8,3.2,3.2,0,0,1,.8,2.3,4.1,4.1,0,0,1-.4,1.9,2.6,2.6,0,0,1-1,1.1,3.1,3.1,0,0,1-1.5.4,2.8,2.8,0,0,1-2.1-.8A3.3,3.3,0,0,1,74.4,74.3Zm1.1,0a2.7,2.7,0,0,0,.5,1.8,1.7,1.7,0,0,0,2.6,0,2.7,2.7,0,0,0,.5-1.8,2.6,2.6,0,0,0-.5-1.7,1.7,1.7,0,0,0-2.6,0A2.6,2.6,0,0,0,75.5,74.3Z"/><path class="cls-2" d="M81,77.4V71.2H82v.9a2.2,2.2,0,0,1,2-1l1,.2a1.6,1.6,0,0,1,.7.5,2,2,0,0,1,.3.8,6,6,0,0,1,.1,1v3.8H85V73.6a2.8,2.8,0,0,0-.1-1,1,1,0,0,0-.4-.5l-.7-.2a1.7,1.7,0,0,0-1.2.4,2.1,2.1,0,0,0-.5,1.6v3.4Z"/><path class="cls-2" d="M91.3,76.7l-1.1.7-1.2.2a2.3,2.3,0,0,1-1.6-.5,1.7,1.7,0,0,1-.6-1.3,1.7,1.7,0,0,1,.2-.8l.5-.6.8-.3.9-.2,1.9-.4v-.3a1.2,1.2,0,0,0-.3-.9,1.8,1.8,0,0,0-1.2-.4,1.9,1.9,0,0,0-1.1.3,1.6,1.6,0,0,0-.5.9H87a2.6,2.6,0,0,1,.5-1.1,2,2,0,0,1,.9-.6l1.4-.2,1.3.2.7.5a1.7,1.7,0,0,1,.3.7,5.9,5.9,0,0,1,.1,1v1.4a14.9,14.9,0,0,0,.1,1.9,2.3,2.3,0,0,0,.3.7H91.5A2.2,2.2,0,0,1,91.3,76.7Zm-.1-2.4-1.7.4-.9.2-.4.3a.9.9,0,0,0,.2,1.2,1.4,1.4,0,0,0,.9.3l1.1-.3a1.6,1.6,0,0,0,.7-.7,2.5,2.5,0,0,0,.2-1.1Z"/><path class="cls-2" d="M93.4,77.4V68.8h1.1v8.6Z"/><path class="cls-2" d="M95.6,70V68.8h1.1V70Zm0,7.4V71.2h1.1v6.2Z"/><path class="cls-2" d="M101.8,77.4v-.8a1.9,1.9,0,0,1-1.7.9,2.4,2.4,0,0,1-1.4-.4,2.7,2.7,0,0,1-1-1.1,4,4,0,0,1-.3-1.7,4.4,4.4,0,0,1,.3-1.7,2.4,2.4,0,0,1,.9-1.2,2.5,2.5,0,0,1,1.4-.4l1,.2.7.6V68.8h1v8.6Zm-3.3-3.1a2.7,2.7,0,0,0,.5,1.8,1.5,1.5,0,0,0,1.2.6,1.5,1.5,0,0,0,1.2-.6,2.6,2.6,0,0,0,.5-1.7,2.9,2.9,0,0,0-.5-1.9,1.5,1.5,0,0,0-1.2-.6,1.5,1.5,0,0,0-1.2.6A2.8,2.8,0,0,0,98.5,74.3Z"/><path class="cls-2" d="M108,76.7l-1.1.7-1.2.2a2.3,2.3,0,0,1-1.6-.5,1.7,1.7,0,0,1-.6-1.3,1.7,1.7,0,0,1,.2-.8l.5-.6.8-.3.9-.2,1.9-.4v-.3a1.2,1.2,0,0,0-.3-.9,1.8,1.8,0,0,0-1.2-.4,1.9,1.9,0,0,0-1.1.3,1.6,1.6,0,0,0-.5.9h-1a2.6,2.6,0,0,1,.5-1.1,2,2,0,0,1,.9-.6l1.4-.2,1.3.2.7.5a1.7,1.7,0,0,1,.3.7,5.9,5.9,0,0,1,.1,1v1.4a14.9,14.9,0,0,0,.1,1.9,2.3,2.3,0,0,0,.3.7h-1.1A2.2,2.2,0,0,1,108,76.7Zm-.1-2.4-1.7.4-.9.2-.4.3a.9.9,0,0,0,.2,1.2,1.4,1.4,0,0,0,.9.3l1.1-.3a1.6,1.6,0,0,0,.7-.7,2.5,2.5,0,0,0,.2-1.1Z"/><path class="cls-2" d="M114.2,77.4v-.8a1.9,1.9,0,0,1-1.7.9,2.4,2.4,0,0,1-1.4-.4,2.7,2.7,0,0,1-1-1.1,4,4,0,0,1-.3-1.7,4.4,4.4,0,0,1,.3-1.7,2.4,2.4,0,0,1,.9-1.2,2.5,2.5,0,0,1,1.4-.4l1,.2.7.6V68.8h1v8.6Zm-3.3-3.1a2.7,2.7,0,0,0,.5,1.8,1.5,1.5,0,0,0,1.2.6,1.5,1.5,0,0,0,1.2-.6,2.6,2.6,0,0,0,.5-1.7,2.9,2.9,0,0,0-.5-1.9,1.5,1.5,0,0,0-1.2-.6,1.5,1.5,0,0,0-1.2.6A2.8,2.8,0,0,0,110.9,74.3Z"/><path class="cls-2" d="M120.6,75.4h1.1a2.7,2.7,0,0,1-1,1.5,3.2,3.2,0,0,1-3.9-.3,3.3,3.3,0,0,1-.8-2.4,3.4,3.4,0,0,1,.8-2.4,2.7,2.7,0,0,1,2.1-.9,2.7,2.7,0,0,1,2,.8,3.4,3.4,0,0,1,.8,2.4v.3h-4.6a2.4,2.4,0,0,0,.6,1.6,1.7,1.7,0,0,0,1.3.5,1.6,1.6,0,0,0,1-.3A2,2,0,0,0,120.6,75.4Zm-3.5-1.7h3.5a2.1,2.1,0,0,0-.4-1.2,1.6,1.6,0,0,0-1.3-.6,1.7,1.7,0,0,0-1.2.5A1.9,1.9,0,0,0,117.1,73.7Z"/><path class="cls-2" d="M122.1,75.6l1-.2a1.5,1.5,0,0,0,.5,1,1.7,1.7,0,0,0,1.1.3,1.6,1.6,0,0,0,1.1-.3.9.9,0,0,0,.4-.7.6.6,0,0,0-.3-.6l-1.1-.4-1.6-.5a1.5,1.5,0,0,1-.9-1.4,1.6,1.6,0,0,1,.2-.8l.5-.6.7-.3h.9l1.3.2a1.7,1.7,0,0,1,.8.6,2.2,2.2,0,0,1,.4,1h-1a1.1,1.1,0,0,0-.4-.7,1.5,1.5,0,0,0-1-.3,1.7,1.7,0,0,0-1,.2.7.7,0,0,0-.3.6.6.6,0,0,0,.1.4l.4.3.9.3,1.6.5a1.6,1.6,0,0,1,.7.6,1.5,1.5,0,0,1,.3.9,1.8,1.8,0,0,1-.3,1,2,2,0,0,1-.9.7l-1.3.3a2.9,2.9,0,0,1-1.8-.5A2.3,2.3,0,0,1,122.1,75.6Z"/><path class="cls-2" d="M135,76.7l-1.1.7-1.2.2a2.3,2.3,0,0,1-1.6-.5,1.7,1.7,0,0,1-.6-1.3,1.7,1.7,0,0,1,.2-.8l.5-.6.8-.3.9-.2,1.9-.4v-.3a1.2,1.2,0,0,0-.3-.9,1.8,1.8,0,0,0-1.2-.4,1.9,1.9,0,0,0-1.1.3,1.6,1.6,0,0,0-.5.9h-1a2.6,2.6,0,0,1,.5-1.1,2,2,0,0,1,.9-.6l1.4-.2,1.3.2.7.5a1.7,1.7,0,0,1,.3.7,5.9,5.9,0,0,1,.1,1v1.4a14.9,14.9,0,0,0,.1,1.9,2.3,2.3,0,0,0,.3.7h-1.1A2.2,2.2,0,0,1,135,76.7Zm-.1-2.4-1.7.4-.9.2-.4.3a.9.9,0,0,0,.2,1.2,1.4,1.4,0,0,0,.9.3l1.1-.3a1.6,1.6,0,0,0,.7-.7,2.5,2.5,0,0,0,.2-1.1Z"/><path class="cls-2" d="M138.8,77.4l-2.4-6.2h1.1l1.3,3.7.4,1.3.4-1.2,1.4-3.8h1.1l-2.4,6.2Z"/><path class="cls-2" d="M146.7,76.7l-1.1.7-1.2.2a2.3,2.3,0,0,1-1.6-.5,1.7,1.7,0,0,1-.6-1.3,1.7,1.7,0,0,1,.2-.8l.5-.6.8-.3.9-.2,1.9-.4v-.3a1.2,1.2,0,0,0-.3-.9,1.8,1.8,0,0,0-1.2-.4,1.9,1.9,0,0,0-1.1.3,1.6,1.6,0,0,0-.5.9h-1a2.6,2.6,0,0,1,.5-1.1,2,2,0,0,1,.9-.6l1.4-.2,1.3.2.7.5a1.7,1.7,0,0,1,.3.7,5.9,5.9,0,0,1,.1,1v1.4a14.9,14.9,0,0,0,.1,1.9,2.3,2.3,0,0,0,.3.7h-1.1A2.2,2.2,0,0,1,146.7,76.7Zm-.1-2.4-1.7.4-.9.2-.4.3a.9.9,0,0,0,.2,1.2,1.4,1.4,0,0,0,.9.3l1.1-.3a1.6,1.6,0,0,0,.7-.7,2.5,2.5,0,0,0,.2-1.1Z"/><path class="cls-2" d="M148.8,77.4V71.2h.9v.9a2.2,2.2,0,0,1,2-1l1,.2a1.6,1.6,0,0,1,.7.5,2,2,0,0,1,.3.8,6,6,0,0,1,.1,1v3.8h-1.1V73.6a2.8,2.8,0,0,0-.1-1,1,1,0,0,0-.4-.5l-.7-.2a1.7,1.7,0,0,0-1.2.4,2.1,2.1,0,0,0-.5,1.6v3.4Z"/><path class="cls-2" d="M159.1,75.1h1a2.7,2.7,0,0,1-.9,1.7,2.5,2.5,0,0,1-1.7.6,2.7,2.7,0,0,1-2.1-.8,3.4,3.4,0,0,1-.8-2.4,4.3,4.3,0,0,1,.3-1.8,2.3,2.3,0,0,1,1-1.1,3,3,0,0,1,1.5-.4,2.6,2.6,0,0,1,1.7.5A2.4,2.4,0,0,1,160,73l-1,.2a1.7,1.7,0,0,0-.5-.9,1.3,1.3,0,0,0-.9-.3,1.6,1.6,0,0,0-1.3.6,2.7,2.7,0,0,0-.5,1.8,2.8,2.8,0,0,0,.5,1.8,1.6,1.6,0,0,0,1.3.6,1.5,1.5,0,0,0,1-.4A1.9,1.9,0,0,0,159.1,75.1Zm-2.4,3.1.3-1h.8l-.2.6.8.3a.8.8,0,0,1,.3.6,1,1,0,0,1-.4.8,2,2,0,0,1-1.3.3H156V79h.6l.8-.2a.3.3,0,0,0,.2-.3v-.2h-.9Z"/><path class="cls-2" d="M164.6,76.7l-1.1.7-1.2.2a2.3,2.3,0,0,1-1.6-.5,1.7,1.7,0,0,1-.6-1.3,1.7,1.7,0,0,1,.2-.8l.5-.6.8-.3.9-.2,1.9-.4v-.3a1.2,1.2,0,0,0-.3-.9,1.8,1.8,0,0,0-1.2-.4,1.9,1.9,0,0,0-1.1.3,1.6,1.6,0,0,0-.5.9h-1a2.6,2.6,0,0,1,.5-1.1,2,2,0,0,1,.9-.6l1.4-.2,1.3.2.7.5a1.7,1.7,0,0,1,.3.7,5.9,5.9,0,0,1,.1,1v1.4a14.9,14.9,0,0,0,.1,1.9,2.3,2.3,0,0,0,.3.7h-1.1A2.2,2.2,0,0,1,164.6,76.7Zm-.1-2.4-1.7.4-.9.2-.4.3a.9.9,0,0,0,.2,1.2,1.4,1.4,0,0,0,.9.3l1.1-.3a1.6,1.6,0,0,0,.7-.7,2.5,2.5,0,0,0,.2-1.1Z"/><path class="cls-2" d="M170.8,77.4v-.8a1.9,1.9,0,0,1-1.7.9,2.4,2.4,0,0,1-1.4-.4,2.7,2.7,0,0,1-1-1.1,4,4,0,0,1-.3-1.7,4.4,4.4,0,0,1,.3-1.7,2.4,2.4,0,0,1,.9-1.2,2.5,2.5,0,0,1,1.4-.4l1,.2.7.6V68.8h1v8.6Zm-3.3-3.1a2.7,2.7,0,0,0,.5,1.8,1.5,1.5,0,0,0,1.2.6,1.5,1.5,0,0,0,1.2-.6,2.6,2.6,0,0,0,.5-1.7,2.9,2.9,0,0,0-.5-1.9,1.5,1.5,0,0,0-1.2-.6,1.5,1.5,0,0,0-1.2.6A2.8,2.8,0,0,0,167.4,74.3Z"/><path class="cls-2" d="M177,76.7l-1.1.7-1.2.2a2.3,2.3,0,0,1-1.6-.5,1.7,1.7,0,0,1-.6-1.3,1.7,1.7,0,0,1,.2-.8l.5-.6.8-.3.9-.2,1.9-.4v-.3a1.2,1.2,0,0,0-.3-.9,1.8,1.8,0,0,0-1.2-.4,1.9,1.9,0,0,0-1.1.3,1.6,1.6,0,0,0-.5.9h-1a2.6,2.6,0,0,1,.5-1.1,2,2,0,0,1,.9-.6l1.4-.2,1.3.2.7.5a1.7,1.7,0,0,1,.3.7,5.9,5.9,0,0,1,.1,1v1.4a14.9,14.9,0,0,0,.1,1.9,2.3,2.3,0,0,0,.3.7h-1.1A2.2,2.2,0,0,1,177,76.7Zm-.1-2.4-1.7.4-.9.2-.4.3a.9.9,0,0,0,.2,1.2,1.4,1.4,0,0,0,.9.3l1.1-.3a1.6,1.6,0,0,0,.7-.7,2.5,2.5,0,0,0,.2-1.1Z"/><path class="cls-2" d="M178.7,75.6l1-.2a1.5,1.5,0,0,0,.5,1,1.7,1.7,0,0,0,1.1.3,1.6,1.6,0,0,0,1.1-.3.9.9,0,0,0,.4-.7.6.6,0,0,0-.3-.6l-1.1-.4-1.6-.5a1.5,1.5,0,0,1-.9-1.4,1.6,1.6,0,0,1,.2-.8l.5-.6.7-.3h.9l1.3.2a1.7,1.7,0,0,1,.8.6,2.2,2.2,0,0,1,.4,1h-1a1.1,1.1,0,0,0-.4-.7,1.5,1.5,0,0,0-1-.3,1.7,1.7,0,0,0-1,.2.7.7,0,0,0-.3.6.6.6,0,0,0,.1.4l.4.3.9.3,1.6.5a1.6,1.6,0,0,1,.7.6,1.5,1.5,0,0,1,.3.9,1.8,1.8,0,0,1-.3,1,2,2,0,0,1-.9.7l-1.3.3a2.9,2.9,0,0,1-1.8-.5A2.3,2.3,0,0,1,178.7,75.6Z"/><path d="M38.6,91.8V83.2h6.2v1H39.7v2.6h4.8v1H39.7v2.9H45v1Z"/><path d="M45.7,90l1-.2a1.5,1.5,0,0,0,.5,1,1.7,1.7,0,0,0,1.1.3,1.6,1.6,0,0,0,1.1-.3.9.9,0,0,0,.4-.7.6.6,0,0,0-.3-.6l-1.1-.4-1.6-.5a1.5,1.5,0,0,1-.9-1.4,1.6,1.6,0,0,1,.2-.8l.5-.6.7-.3h.9l1.3.2a1.7,1.7,0,0,1,.8.6,2.2,2.2,0,0,1,.4,1h-1a1.1,1.1,0,0,0-.4-.7,1.5,1.5,0,0,0-1-.3,1.7,1.7,0,0,0-1,.2.7.7,0,0,0-.3.6.6.6,0,0,0,.1.4l.4.3.9.3,1.6.5a1.6,1.6,0,0,1,.7.6,1.5,1.5,0,0,1,.3.9,1.8,1.8,0,0,1-.3,1,2,2,0,0,1-.9.7l-1.3.3a2.9,2.9,0,0,1-1.8-.5A2.3,2.3,0,0,1,45.7,90Z"/><path d="M55.8,89.5h1a2.7,2.7,0,0,1-.9,1.7,2.5,2.5,0,0,1-1.7.6,2.7,2.7,0,0,1-2.1-.8,3.4,3.4,0,0,1-.8-2.4,4.3,4.3,0,0,1,.3-1.8,2.3,2.3,0,0,1,1-1.1,3,3,0,0,1,1.5-.4,2.6,2.6,0,0,1,1.7.5,2.4,2.4,0,0,1,.8,1.5l-1,.2a1.7,1.7,0,0,0-.5-.9,1.3,1.3,0,0,0-.9-.3,1.6,1.6,0,0,0-1.3.6,2.7,2.7,0,0,0-.5,1.8,2.8,2.8,0,0,0,.5,1.8,1.6,1.6,0,0,0,1.3.6,1.5,1.5,0,0,0,1-.4A1.9,1.9,0,0,0,55.8,89.5Z"/><path d="M57,88.7a3.2,3.2,0,0,1,1-2.6,2.9,2.9,0,0,1,2-.7,2.8,2.8,0,0,1,2.1.8,3.2,3.2,0,0,1,.8,2.3,4.1,4.1,0,0,1-.4,1.9,2.6,2.6,0,0,1-1,1.1,3.1,3.1,0,0,1-1.5.4,2.8,2.8,0,0,1-2.1-.8A3.3,3.3,0,0,1,57,88.7Zm1.1,0a2.7,2.7,0,0,0,.5,1.8,1.7,1.7,0,0,0,2.6,0,2.7,2.7,0,0,0,.5-1.8,2.6,2.6,0,0,0-.5-1.7,1.7,1.7,0,0,0-2.6,0A2.6,2.6,0,0,0,58.1,88.7Z"/><path d="M63.7,91.8V83.2h1.1v8.6Z"/><path d="M70.1,91.1l-1.1.7-1.2.2a2.3,2.3,0,0,1-1.6-.5,1.7,1.7,0,0,1-.6-1.3,1.7,1.7,0,0,1,.2-.8l.5-.6.8-.3.9-.2,1.9-.4v-.3a1.2,1.2,0,0,0-.3-.9,1.8,1.8,0,0,0-1.2-.4,1.9,1.9,0,0,0-1.1.3,1.6,1.6,0,0,0-.5.9h-1a2.6,2.6,0,0,1,.5-1.1,2,2,0,0,1,.9-.6l1.4-.2,1.3.2.7.5a1.7,1.7,0,0,1,.3.7,5.9,5.9,0,0,1,.1,1v1.4a14.9,14.9,0,0,0,.1,1.9,2.3,2.3,0,0,0,.3.7H70.3A2.2,2.2,0,0,1,70.1,91.1ZM70,88.7l-1.7.4-.9.2-.4.3a.9.9,0,0,0,.2,1.2,1.4,1.4,0,0,0,.9.3l1.1-.3a1.6,1.6,0,0,0,.7-.7,2.5,2.5,0,0,0,.2-1.1Z"/><path d="M75.4,91.8V83.2H80l1.1.4a2.1,2.1,0,0,1,.7.8,2.8,2.8,0,0,1-.4,3,3.3,3.3,0,0,1-2.5.8H76.6v3.5Zm1.1-4.5h2.2a2.4,2.4,0,0,0,1.6-.4,1.5,1.5,0,0,0,.5-1.2,1.6,1.6,0,0,0-.3-.9,1.3,1.3,0,0,0-.7-.5H76.6Z"/><path d="M82.9,91.8V85.6h.9v.9a2.6,2.6,0,0,1,.7-.9l.7-.2a2.1,2.1,0,0,1,1.1.3l-.4,1-.8-.2-.6.2a1.1,1.1,0,0,0-.4.6,4.1,4.1,0,0,0-.2,1.2v3.3Z"/><path d="M86.2,88.7a3.2,3.2,0,0,1,1-2.6,2.9,2.9,0,0,1,2-.7,2.8,2.8,0,0,1,2.1.8,3.2,3.2,0,0,1,.8,2.3,4.1,4.1,0,0,1-.4,1.9,2.6,2.6,0,0,1-1,1.1,3.1,3.1,0,0,1-1.5.4,2.8,2.8,0,0,1-2.1-.8A3.3,3.3,0,0,1,86.2,88.7Zm1.1,0a2.7,2.7,0,0,0,.5,1.8,1.7,1.7,0,0,0,2.6,0,2.7,2.7,0,0,0,.5-1.8,2.6,2.6,0,0,0-.5-1.7,1.7,1.7,0,0,0-2.6,0A2.6,2.6,0,0,0,87.3,88.7Z"/><path d="M93.1,91.8V86.4h-.9v-.8h.9v-.7a2.9,2.9,0,0,1,.1-.9,1.3,1.3,0,0,1,.5-.7,1.9,1.9,0,0,1,1.1-.3h1l-.2.9h-.6l-.7.2a1.1,1.1,0,0,0-.2.8v.6h1.2v.8H94.2v5.4Z"/><path d="M95.9,84.4V83.2h1.1v1.2Zm0,7.4V85.6h1.1v6.2Z"/><path d="M97.7,90l1-.2a1.5,1.5,0,0,0,.5,1,1.7,1.7,0,0,0,1.1.3,1.6,1.6,0,0,0,1.1-.3.9.9,0,0,0,.4-.7.6.6,0,0,0-.3-.6l-1.1-.4-1.6-.5a1.5,1.5,0,0,1-.9-1.4,1.6,1.6,0,0,1,.2-.8l.5-.6.7-.3h.9l1.3.2a1.7,1.7,0,0,1,.8.6,2.2,2.2,0,0,1,.4,1h-1a1.1,1.1,0,0,0-.4-.7,1.5,1.5,0,0,0-1-.3,1.7,1.7,0,0,0-1,.2.7.7,0,0,0-.3.6.6.6,0,0,0,.1.4l.4.3.9.3,1.6.5a1.6,1.6,0,0,1,.7.6,1.5,1.5,0,0,1,.3.9,1.8,1.8,0,0,1-.3,1,2,2,0,0,1-.9.7l-1.3.3a2.9,2.9,0,0,1-1.8-.5A2.3,2.3,0,0,1,97.7,90Z"/><path d="M103.4,90l1-.2a1.5,1.5,0,0,0,.5,1,1.7,1.7,0,0,0,1.1.3,1.6,1.6,0,0,0,1.1-.3.9.9,0,0,0,.4-.7.6.6,0,0,0-.3-.6l-1.1-.4-1.6-.5a1.5,1.5,0,0,1-.9-1.4,1.6,1.6,0,0,1,.2-.8l.5-.6.7-.3h.9l1.3.2a1.7,1.7,0,0,1,.8.6,2.2,2.2,0,0,1,.4,1h-1a1.1,1.1,0,0,0-.4-.7,1.5,1.5,0,0,0-1-.3,1.7,1.7,0,0,0-1,.2.7.7,0,0,0-.3.6.6.6,0,0,0,.1.4l.4.3.9.3,1.6.5a1.6,1.6,0,0,1,.7.6,1.5,1.5,0,0,1,.3.9,1.8,1.8,0,0,1-.3,1,2,2,0,0,1-.9.7L106,92a2.9,2.9,0,0,1-1.8-.5A2.3,2.3,0,0,1,103.4,90Z"/><path d="M109.4,84.4V83.2h1.1v1.2Zm0,7.4V85.6h1.1v6.2Z"/><path d="M111.4,88.7a3.2,3.2,0,0,1,1-2.6,2.9,2.9,0,0,1,2-.7,2.8,2.8,0,0,1,2.1.8,3.2,3.2,0,0,1,.8,2.3,4.1,4.1,0,0,1-.4,1.9,2.6,2.6,0,0,1-1,1.1,3.1,3.1,0,0,1-1.5.4,2.8,2.8,0,0,1-2.1-.8A3.3,3.3,0,0,1,111.4,88.7Zm1.1,0a2.7,2.7,0,0,0,.5,1.8,1.7,1.7,0,0,0,2.6,0,2.7,2.7,0,0,0,.5-1.8,2.6,2.6,0,0,0-.5-1.7,1.7,1.7,0,0,0-2.6,0A2.6,2.6,0,0,0,112.4,88.7Z"/><path d="M118.1,91.8V85.6h.9v.9a2.2,2.2,0,0,1,2-1l1,.2a1.6,1.6,0,0,1,.7.5,2,2,0,0,1,.3.8,6,6,0,0,1,.1,1v3.8h-1.1V88a2.8,2.8,0,0,0-.1-1,1,1,0,0,0-.4-.5l-.7-.2a1.7,1.7,0,0,0-1.2.4,2.1,2.1,0,0,0-.5,1.6v3.4Z"/><path d="M128.4,91.1l-1.1.7-1.2.2a2.3,2.3,0,0,1-1.6-.5,1.7,1.7,0,0,1-.6-1.3,1.7,1.7,0,0,1,.2-.8l.5-.6.8-.3.9-.2,1.9-.4v-.3a1.2,1.2,0,0,0-.3-.9,1.8,1.8,0,0,0-1.2-.4,1.9,1.9,0,0,0-1.1.3,1.6,1.6,0,0,0-.5.9h-1a2.6,2.6,0,0,1,.5-1.1,2,2,0,0,1,.9-.6l1.4-.2,1.3.2.7.5a1.7,1.7,0,0,1,.3.7,5.9,5.9,0,0,1,.1,1v1.4a14.9,14.9,0,0,0,.1,1.9,2.3,2.3,0,0,0,.3.7h-1.1A2.2,2.2,0,0,1,128.4,91.1Zm-.1-2.4-1.7.4-.9.2-.4.3a.9.9,0,0,0,.2,1.2,1.4,1.4,0,0,0,.9.3l1.1-.3a1.6,1.6,0,0,0,.7-.7,2.5,2.5,0,0,0,.2-1.1Z"/><path d="M130.7,91.8V83.2h1.1v8.6Z"/><path d="M140,91.8V91a1.9,1.9,0,0,1-1.7.9,2.4,2.4,0,0,1-1.4-.4,2.7,2.7,0,0,1-1-1.1,4,4,0,0,1-.3-1.7,4.4,4.4,0,0,1,.3-1.7,2.4,2.4,0,0,1,.9-1.2,2.5,2.5,0,0,1,1.4-.4l1,.2.7.6V83.2h1v8.6Zm-3.3-3.1a2.7,2.7,0,0,0,.5,1.8,1.5,1.5,0,0,0,1.2.6,1.5,1.5,0,0,0,1.2-.6,2.6,2.6,0,0,0,.5-1.7,2.9,2.9,0,0,0-.5-1.9,1.5,1.5,0,0,0-1.2-.6,1.5,1.5,0,0,0-1.2.6A2.8,2.8,0,0,0,136.7,88.7Z"/><path d="M146.5,89.8h1.1a2.7,2.7,0,0,1-1,1.5,3.2,3.2,0,0,1-3.9-.3,3.3,3.3,0,0,1-.8-2.4,3.4,3.4,0,0,1,.8-2.4,2.7,2.7,0,0,1,2.1-.9,2.7,2.7,0,0,1,2,.8,3.4,3.4,0,0,1,.8,2.4V89H143a2.4,2.4,0,0,0,.6,1.6,1.7,1.7,0,0,0,1.3.5,1.6,1.6,0,0,0,1-.3A2,2,0,0,0,146.5,89.8Zm-3.5-1.7h3.5a2.1,2.1,0,0,0-.4-1.2,1.6,1.6,0,0,0-1.3-.6,1.7,1.7,0,0,0-1.2.5A1.9,1.9,0,0,0,143.1,88.1Z"/><path d="M151.7,91.8V83.2h3.2a4,4,0,0,1,1.6.3,2,2,0,0,1,.9.8,2.1,2.1,0,0,1,.3,1.1,1.9,1.9,0,0,1-.3,1,2.1,2.1,0,0,1-.9.8,2.2,2.2,0,0,1,1.2.8,2.1,2.1,0,0,1,.4,1.3,2.5,2.5,0,0,1-.3,1.1,2.2,2.2,0,0,1-.6.8l-.9.4h-4.7Zm1.1-5h2.9a1.2,1.2,0,0,0,.7-.4,1.2,1.2,0,0,0,.2-.7,1.4,1.4,0,0,0-.2-.8,1,1,0,0,0-.6-.4h-3Zm0,4h2.9l.7-.2.4-.5a1.5,1.5,0,0,0,.2-.7,1.4,1.4,0,0,0-.2-.8,1.3,1.3,0,0,0-.7-.5h-3.2Z"/><path d="M159.2,91.8V85.6h.9v.9a2.6,2.6,0,0,1,.7-.9l.7-.2a2.1,2.1,0,0,1,1.1.3l-.4,1-.8-.2-.6.2a1.1,1.1,0,0,0-.4.6,4.1,4.1,0,0,0-.2,1.2v3.3Z"/><path d="M166.9,91.1l-1.1.7-1.2.2a2.3,2.3,0,0,1-1.6-.5,1.7,1.7,0,0,1-.6-1.3,1.7,1.7,0,0,1,.2-.8l.5-.6.8-.3.9-.2,1.9-.4v-.3a1.2,1.2,0,0,0-.3-.9,1.8,1.8,0,0,0-1.2-.4,1.9,1.9,0,0,0-1.1.3,1.6,1.6,0,0,0-.5.9h-1a2.6,2.6,0,0,1,.5-1.1,2,2,0,0,1,.9-.6l1.4-.2,1.3.2.7.5a1.7,1.7,0,0,1,.3.7,5.9,5.9,0,0,1,.1,1v1.4a14.9,14.9,0,0,0,.1,1.9,2.3,2.3,0,0,0,.3.7h-1.1A2.2,2.2,0,0,1,166.9,91.1Zm-.1-2.4-1.7.4-.9.2-.4.3a.9.9,0,0,0,.2,1.2,1.4,1.4,0,0,0,.9.3l1.1-.3a1.6,1.6,0,0,0,.7-.7,2.5,2.5,0,0,0,.2-1.1Z"/><path d="M169,92.3l1,.2a1,1,0,0,0,.4.7,1.8,1.8,0,0,0,1.1.3,1.9,1.9,0,0,0,1.1-.3,1.4,1.4,0,0,0,.5-.8,6.7,6.7,0,0,0,.1-1.4,2.2,2.2,0,0,1-1.7.8,2.3,2.3,0,0,1-2-.9,3.6,3.6,0,0,1-.7-2.2,4.1,4.1,0,0,1,.3-1.6,2.6,2.6,0,0,1,.9-1.2,2.5,2.5,0,0,1,1.4-.4,2.2,2.2,0,0,1,1.8.9v-.7h1V91a5.1,5.1,0,0,1-.3,2.1,2.2,2.2,0,0,1-.9,1,3.2,3.2,0,0,1-1.6.4,3,3,0,0,1-1.8-.5A1.7,1.7,0,0,1,169,92.3Zm.9-3.7a2.7,2.7,0,0,0,.5,1.8,1.6,1.6,0,0,0,2.4,0,2.6,2.6,0,0,0,.5-1.8,2.6,2.6,0,0,0-.5-1.7,1.6,1.6,0,0,0-1.2-.6,1.5,1.5,0,0,0-1.2.6A2.5,2.5,0,0,0,169.8,88.6Z"/><path d="M179.5,91.1l-1.1.7-1.2.2a2.3,2.3,0,0,1-1.6-.5,1.7,1.7,0,0,1-.6-1.3,1.7,1.7,0,0,1,.2-.8l.5-.6.8-.3.9-.2,1.9-.4v-.3a1.2,1.2,0,0,0-.3-.9,1.8,1.8,0,0,0-1.2-.4,1.9,1.9,0,0,0-1.1.3,1.6,1.6,0,0,0-.5.9h-1a2.6,2.6,0,0,1,.5-1.1,2,2,0,0,1,.9-.6l1.4-.2,1.3.2.7.5a1.7,1.7,0,0,1,.3.7,5.9,5.9,0,0,1,.1,1v1.4a14.9,14.9,0,0,0,.1,1.9,2.3,2.3,0,0,0,.3.7h-1.1A2.2,2.2,0,0,1,179.5,91.1Zm-.1-2.4-1.7.4-.9.2-.4.3a.9.9,0,0,0,.2,1.2,1.4,1.4,0,0,0,.9.3l1.1-.3a1.6,1.6,0,0,0,.7-.7,2.5,2.5,0,0,0,.2-1.1Z"/><path d="M182.1,91.8V90.6h1.2v1.2a2.1,2.1,0,0,1-.2,1.1,1.5,1.5,0,0,1-.7.6l-.3-.5.5-.4a1.8,1.8,0,0,0,.2-.8Z"/><path d="M102.6,106.2V97.6h3.2a4,4,0,0,1,1.6.3,2,2,0,0,1,.9.8,2.1,2.1,0,0,1,.3,1.1,1.9,1.9,0,0,1-.3,1,2.1,2.1,0,0,1-.9.8,2.2,2.2,0,0,1,1.2.8,2.1,2.1,0,0,1,.4,1.3,2.5,2.5,0,0,1-.3,1.1,2.2,2.2,0,0,1-.6.8l-.9.4h-4.7Zm1.1-5h2.9a1.2,1.2,0,0,0,.7-.4,1.2,1.2,0,0,0,.2-.8,1.4,1.4,0,0,0-.2-.8,1,1,0,0,0-.6-.4h-3Zm0,4h2.9l.7-.2.4-.5a1.5,1.5,0,0,0,.2-.7,1.4,1.4,0,0,0-.2-.8,1.3,1.3,0,0,0-.7-.5h-3.2Z"/><path d="M110.1,106.2V100h.9v.9a2.6,2.6,0,0,1,.7-.9l.7-.2a2.1,2.1,0,0,1,1.1.3l-.4,1-.8-.2-.6.2a1.1,1.1,0,0,0-.4.6,4.1,4.1,0,0,0-.2,1.2v3.3Z"/><path d="M117.8,105.5l-1.1.7-1.2.2a2.3,2.3,0,0,1-1.6-.5,1.7,1.7,0,0,1-.6-1.3,1.7,1.7,0,0,1,.2-.8l.5-.6.8-.3.9-.2,1.9-.4V102a1.2,1.2,0,0,0-.3-.9,1.8,1.8,0,0,0-1.2-.4,1.9,1.9,0,0,0-1.1.3,1.6,1.6,0,0,0-.5.9h-1a2.6,2.6,0,0,1,.5-1.1,2,2,0,0,1,.9-.6l1.4-.2,1.3.2.7.5a1.7,1.7,0,0,1,.3.7,5.9,5.9,0,0,1,.1,1v1.4a14.9,14.9,0,0,0,.1,1.9,2.3,2.3,0,0,0,.3.7H118A2.2,2.2,0,0,1,117.8,105.5Zm-.1-2.4-1.7.4-.9.2-.4.3a.9.9,0,0,0,.2,1.2,1.4,1.4,0,0,0,.9.3l1.1-.3a1.6,1.6,0,0,0,.7-.7,2.5,2.5,0,0,0,.2-1.1Z"/><path d="M119.9,106.7l1,.2a1,1,0,0,0,.4.7,1.8,1.8,0,0,0,1.1.3,1.9,1.9,0,0,0,1.1-.3,1.4,1.4,0,0,0,.5-.8,6.7,6.7,0,0,0,.1-1.4,2.2,2.2,0,0,1-1.7.8,2.3,2.3,0,0,1-2-.9,3.6,3.6,0,0,1-.7-2.2,4.1,4.1,0,0,1,.3-1.6,2.6,2.6,0,0,1,.9-1.2,2.5,2.5,0,0,1,1.4-.4,2.2,2.2,0,0,1,1.8.9V100h1v5.4a5.1,5.1,0,0,1-.3,2.1,2.2,2.2,0,0,1-.9,1,3.2,3.2,0,0,1-1.6.4,3,3,0,0,1-1.8-.5A1.7,1.7,0,0,1,119.9,106.7Zm.9-3.7a2.7,2.7,0,0,0,.5,1.8,1.6,1.6,0,0,0,2.4,0,2.6,2.6,0,0,0,.5-1.8,2.6,2.6,0,0,0-.5-1.7,1.6,1.6,0,0,0-1.2-.6,1.5,1.5,0,0,0-1.2.6A2.5,2.5,0,0,0,120.8,103Z"/><path d="M130.4,105.5l-1.1.7-1.2.2a2.3,2.3,0,0,1-1.6-.5,1.7,1.7,0,0,1-.6-1.3,1.7,1.7,0,0,1,.2-.8l.5-.6.8-.3.9-.2,1.9-.4V102a1.2,1.2,0,0,0-.3-.9,1.8,1.8,0,0,0-1.2-.4,1.9,1.9,0,0,0-1.1.3,1.6,1.6,0,0,0-.5.9h-1a2.6,2.6,0,0,1,.5-1.1,2,2,0,0,1,.9-.6l1.4-.2,1.3.2.7.5a1.7,1.7,0,0,1,.3.7,5.9,5.9,0,0,1,.1,1v1.4a14.9,14.9,0,0,0,.1,1.9,2.3,2.3,0,0,0,.3.7h-1.1A2.2,2.2,0,0,1,130.4,105.5Zm-.1-2.4-1.7.4-.9.2-.4.3a.9.9,0,0,0,.2,1.2,1.4,1.4,0,0,0,.9.3l1.1-.3a1.6,1.6,0,0,0,.7-.7,2.5,2.5,0,0,0,.2-1.1Z"/><path d="M137.7,108.7a10.5,10.5,0,0,1-1.5-2.6,8.1,8.1,0,0,1-.2-5.7,11.2,11.2,0,0,1,1.6-3h.8l-.9,1.7a9.5,9.5,0,0,0-.6,1.7,9.8,9.8,0,0,0-.3,2.2,10.6,10.6,0,0,0,1.8,5.6Z"/><path d="M139.4,106.2V97.6H144l1.1.4a2.1,2.1,0,0,1,.7.8,2.8,2.8,0,0,1-.4,3,3.3,3.3,0,0,1-2.5.8h-2.2v3.5Zm1.1-4.5h2.2a2.4,2.4,0,0,0,1.6-.4,1.5,1.5,0,0,0,.5-1.2,1.6,1.6,0,0,0-.3-.9,1.3,1.3,0,0,0-.7-.5h-3.3Z"/><path d="M146.6,103.1a3.2,3.2,0,0,1,1-2.6,2.9,2.9,0,0,1,2-.7,2.8,2.8,0,0,1,2.1.8,3.2,3.2,0,0,1,.8,2.3,4.1,4.1,0,0,1-.4,1.9,2.6,2.6,0,0,1-1,1.1,3.1,3.1,0,0,1-1.5.4,2.8,2.8,0,0,1-2.1-.8A3.3,3.3,0,0,1,146.6,103.1Zm1.1,0a2.7,2.7,0,0,0,.5,1.8,1.7,1.7,0,0,0,2.6,0,2.7,2.7,0,0,0,.5-1.8,2.6,2.6,0,0,0-.5-1.7,1.7,1.7,0,0,0-2.6,0A2.6,2.6,0,0,0,147.6,103.1Z"/><path d="M153.3,106.2V100h.9v.9a2.6,2.6,0,0,1,.7-.9l.7-.2a2.1,2.1,0,0,1,1.1.3l-.4,1-.8-.2-.6.2a1.1,1.1,0,0,0-.4.6,4.1,4.1,0,0,0-.2,1.2v3.3Z"/><path d="M159.2,105.3l.2.9h-.8l-.9-.2a1,1,0,0,1-.4-.5,3.8,3.8,0,0,1-.1-1.2v-3.6h-.8V100h.8V98.5l1-.6V100h1.1v.8h-1.1v3.6a1.8,1.8,0,0,0,.1.6l.2.2h.8Z"/><path d="M164,106.2v-.9a2.3,2.3,0,0,1-2,1.1l-1-.2-.7-.5a2,2,0,0,1-.3-.8,5.4,5.4,0,0,1-.1-1V100h1.1v3.5a6.2,6.2,0,0,0,.1,1.1,1.1,1.1,0,0,0,.4.7l.8.2.9-.2a1.4,1.4,0,0,0,.6-.7,3.3,3.3,0,0,0,.2-1.2V100h1.1v6.2Z"/><path d="M166,106.7l1,.2a1,1,0,0,0,.4.7,1.8,1.8,0,0,0,1.1.3,1.9,1.9,0,0,0,1.1-.3,1.4,1.4,0,0,0,.5-.8,6.7,6.7,0,0,0,.1-1.4,2.2,2.2,0,0,1-1.7.8,2.3,2.3,0,0,1-2-.9,3.6,3.6,0,0,1-.7-2.2,4.1,4.1,0,0,1,.3-1.6,2.6,2.6,0,0,1,.9-1.2,2.5,2.5,0,0,1,1.4-.4,2.2,2.2,0,0,1,1.8.9V100h1v5.4a5.1,5.1,0,0,1-.3,2.1,2.2,2.2,0,0,1-.9,1,3.2,3.2,0,0,1-1.6.4,3,3,0,0,1-1.8-.5A1.7,1.7,0,0,1,166,106.7Zm.9-3.7a2.7,2.7,0,0,0,.5,1.8,1.6,1.6,0,0,0,2.4,0,2.6,2.6,0,0,0,.5-1.8,2.6,2.6,0,0,0-.5-1.7,1.6,1.6,0,0,0-1.2-.6,1.5,1.5,0,0,0-1.2.6A2.5,2.5,0,0,0,166.9,103Z"/><path d="M176.6,105.5l-1.1.7-1.2.2a2.3,2.3,0,0,1-1.6-.5,1.7,1.7,0,0,1-.6-1.3,1.7,1.7,0,0,1,.2-.8l.5-.6.8-.3.9-.2,1.9-.4V102a1.2,1.2,0,0,0-.3-.9,1.8,1.8,0,0,0-1.2-.4,1.9,1.9,0,0,0-1.1.3,1.6,1.6,0,0,0-.5.9h-1a2.6,2.6,0,0,1,.5-1.1,2,2,0,0,1,.9-.6l1.4-.2,1.3.2.7.5a1.7,1.7,0,0,1,.3.7,5.9,5.9,0,0,1,.1,1v1.4a14.9,14.9,0,0,0,.1,1.9,2.3,2.3,0,0,0,.3.7h-1.1A2.2,2.2,0,0,1,176.6,105.5Zm-.1-2.4-1.7.4-.9.2-.4.3a.9.9,0,0,0,.2,1.2,1.4,1.4,0,0,0,.9.3l1.1-.3a1.6,1.6,0,0,0,.7-.7,2.5,2.5,0,0,0,.2-1.1Z"/><path d="M178.8,106.2V97.6h1.1v8.6Z"/><path d="M181.8,108.7h-.8a10.6,10.6,0,0,0,1.8-5.6,9.6,9.6,0,0,0-.3-2.2,9.2,9.2,0,0,0-.6-1.7l-.9-1.8h.8a11.2,11.2,0,0,1,1.6,3,8.1,8.1,0,0,1-.2,5.7A10.7,10.7,0,0,1,181.8,108.7Z"/><path class="cls-2" d="M193.2,43.7a7.9,7.9,0,0,1,.3-2.5,3.1,3.1,0,0,1,.9-1.4,2.4,2.4,0,0,1,1.6-.5,2.5,2.5,0,0,1,1.2.3,2.3,2.3,0,0,1,.9.8,4.3,4.3,0,0,1,.5,1.3,8.5,8.5,0,0,1,.2,2,7.9,7.9,0,0,1-.3,2.4,3.1,3.1,0,0,1-.9,1.4,2.4,2.4,0,0,1-1.6.5,2.4,2.4,0,0,1-2-.9A5.7,5.7,0,0,1,193.2,43.7Zm1.1,0a5.4,5.4,0,0,0,.5,2.8,1.4,1.4,0,0,0,2.4,0,5.4,5.4,0,0,0,.5-2.8,5.4,5.4,0,0,0-.5-2.8,1.5,1.5,0,0,0-1.2-.7,1.4,1.4,0,0,0-1.2.6A5.4,5.4,0,0,0,194.2,43.7Z"/><path class="cls-2" d="M202.9,47.9V45.8h-3.7v-1l3.9-5.6h.9v5.6h1.2v1H204v2.1Zm0-3V41l-2.7,3.9Z"/><path class="cls-2" d="M205.4,48l2.5-8.9h.8L206.2,48Z"/><path class="cls-2" d="M214.4,46.9v1h-5.7a1.9,1.9,0,0,1,.1-.7,3.9,3.9,0,0,1,.7-1.1l1.4-1.3a11.7,11.7,0,0,0,1.9-1.8,2.2,2.2,0,0,0,.5-1.3,1.4,1.4,0,0,0-.4-1.1,1.6,1.6,0,0,0-1.2-.4,1.6,1.6,0,0,0-1.2.5,1.7,1.7,0,0,0-.5,1.3h-1.1a2.7,2.7,0,0,1,.8-1.8,2.9,2.9,0,0,1,2-.6,2.7,2.7,0,0,1,2,.7,2.3,2.3,0,0,1,.7,1.7,2.6,2.6,0,0,1-.2,1,3.9,3.9,0,0,1-.7,1l-1.6,1.5-1.2,1.1-.4.6Z"/><path class="cls-2" d="M215.2,43.7a7.9,7.9,0,0,1,.3-2.5,3.1,3.1,0,0,1,.9-1.4,2.4,2.4,0,0,1,1.6-.5,2.5,2.5,0,0,1,1.2.3,2.3,2.3,0,0,1,.9.8,4.3,4.3,0,0,1,.5,1.3,8.5,8.5,0,0,1,.2,2,7.9,7.9,0,0,1-.3,2.4,3.1,3.1,0,0,1-.9,1.4,2.4,2.4,0,0,1-1.6.5,2.4,2.4,0,0,1-2-.9A5.7,5.7,0,0,1,215.2,43.7Zm1.1,0a5.4,5.4,0,0,0,.5,2.8,1.4,1.4,0,0,0,2.4,0,5.4,5.4,0,0,0,.5-2.8,5.4,5.4,0,0,0-.5-2.8,1.5,1.5,0,0,0-1.2-.7,1.4,1.4,0,0,0-1.2.6A5.4,5.4,0,0,0,216.3,43.7Z"/><path class="cls-2" d="M225.5,47.9h-1.1V41.2l-1,.7-1.1.5v-1a6.4,6.4,0,0,0,1.5-1,4,4,0,0,0,.9-1.1h.7Z"/><path class="cls-2" d="M231.3,47.9V45.8h-3.7v-1l3.9-5.6h.9v5.6h1.2v1h-1.2v2.1Zm0-3V41l-2.7,3.9Z"/><path class="cls-2" d="M233.8,45.2v-.8h6.7v.8Z"/><path class="cls-2" d="M240.6,43.7a7.9,7.9,0,0,1,.3-2.5,3.1,3.1,0,0,1,.9-1.4,2.4,2.4,0,0,1,1.6-.5,2.5,2.5,0,0,1,1.2.3,2.3,2.3,0,0,1,.9.8,4.3,4.3,0,0,1,.5,1.3,8.5,8.5,0,0,1,.2,2,7.9,7.9,0,0,1-.3,2.4,3.1,3.1,0,0,1-.9,1.4,2.4,2.4,0,0,1-1.6.5,2.4,2.4,0,0,1-2-.9A5.7,5.7,0,0,1,240.6,43.7Zm1.1,0a5.4,5.4,0,0,0,.5,2.8,1.4,1.4,0,0,0,2.4,0,5.4,5.4,0,0,0,.5-2.8,5.4,5.4,0,0,0-.5-2.8,1.5,1.5,0,0,0-1.2-.7,1.4,1.4,0,0,0-1.2.6A5.4,5.4,0,0,0,241.7,43.7Z"/><path class="cls-2" d="M252.4,41.4h-1a2,2,0,0,0-.4-.9,1.4,1.4,0,0,0-1.1-.5,1.4,1.4,0,0,0-.9.3,2.4,2.4,0,0,0-.8,1.1,5.5,5.5,0,0,0-.3,2,2.4,2.4,0,0,1,.9-.9l1.2-.3a2.4,2.4,0,0,1,1.8.8,2.8,2.8,0,0,1,.7,2,3.3,3.3,0,0,1-.3,1.5,2.5,2.5,0,0,1-1,1.1,2.6,2.6,0,0,1-1.4.4,2.7,2.7,0,0,1-2.2-1,4.9,4.9,0,0,1-.8-3.2,5.7,5.7,0,0,1,.9-3.6,2.6,2.6,0,0,1,2.2-1,2.3,2.3,0,0,1,2.4,2.1Zm-4.3,3.7a2.4,2.4,0,0,0,.2,1,1.7,1.7,0,0,0,.6.8l.9.3a1.5,1.5,0,0,0,1.1-.5,2.1,2.1,0,0,0,.5-1.5,2,2,0,0,0-.5-1.4,1.6,1.6,0,0,0-1.2-.5,1.6,1.6,0,0,0-1.2.5A1.8,1.8,0,0,0,248.1,45.1Z"/><path class="cls-2" d="M252.8,48l2.5-8.9h.8L253.7,48Z"/><path class="cls-2" d="M261.9,46.9v1h-5.7a1.9,1.9,0,0,1,.1-.7A3.9,3.9,0,0,1,257,46l1.4-1.3a11.7,11.7,0,0,0,1.9-1.8,2.2,2.2,0,0,0,.5-1.3,1.4,1.4,0,0,0-.4-1.1,1.6,1.6,0,0,0-1.2-.4,1.6,1.6,0,0,0-1.2.5,1.7,1.7,0,0,0-.5,1.3h-1.1a2.7,2.7,0,0,1,.8-1.8,2.9,2.9,0,0,1,2-.6,2.7,2.7,0,0,1,2,.7,2.3,2.3,0,0,1,.7,1.7,2.6,2.6,0,0,1-.2,1,3.9,3.9,0,0,1-.7,1l-1.6,1.5-1.2,1.1-.4.6Z"/><path class="cls-2" d="M262.7,43.7a7.9,7.9,0,0,1,.3-2.5,3.1,3.1,0,0,1,.9-1.4,2.4,2.4,0,0,1,1.6-.5,2.5,2.5,0,0,1,1.2.3,2.3,2.3,0,0,1,.9.8,4.3,4.3,0,0,1,.5,1.3,8.5,8.5,0,0,1,.2,2,7.9,7.9,0,0,1-.3,2.4,3.1,3.1,0,0,1-.9,1.4,2.4,2.4,0,0,1-1.6.5,2.4,2.4,0,0,1-2-.9A5.7,5.7,0,0,1,262.7,43.7Zm1.1,0a5.4,5.4,0,0,0,.5,2.8,1.4,1.4,0,0,0,2.4,0,5.4,5.4,0,0,0,.5-2.8,5.4,5.4,0,0,0-.5-2.8,1.5,1.5,0,0,0-1.2-.7,1.4,1.4,0,0,0-1.2.6A5.4,5.4,0,0,0,263.8,43.7Z"/><path class="cls-2" d="M273,47.9H272V41.2l-1,.7-1.1.5v-1a6.4,6.4,0,0,0,1.5-1,4,4,0,0,0,.9-1.1h.7Z"/><path class="cls-2" d="M278.8,47.9V45.8H275v-1l3.9-5.6h.9v5.6H281v1h-1.2v2.1Zm0-3V41l-2.7,3.9Z"/><path class="cls-2" d="M95.8,35.7v-10h2l2.4,7.1.5,1.5.5-1.6,2.4-7h1.8v10H104V27.3l-2.9,8.4H99.9L97,27.1v8.5Z"/><path class="cls-2" d="M106.9,27.1V25.7h1.2v1.4Zm0,8.6V28.4h1.2v7.3Z"/><path class="cls-2" d="M114.4,33l1.2.2a3.1,3.1,0,0,1-1,2,3,3,0,0,1-2,.7,3.1,3.1,0,0,1-2.4-1,3.9,3.9,0,0,1-.9-2.8,5.1,5.1,0,0,1,.4-2.1,2.7,2.7,0,0,1,1.2-1.3,3.5,3.5,0,0,1,1.7-.4,3,3,0,0,1,1.9.6,2.7,2.7,0,0,1,1,1.7l-1.2.2a2,2,0,0,0-.6-1.1,1.6,1.6,0,0,0-1-.4,1.9,1.9,0,0,0-1.5.7,3.2,3.2,0,0,0-.6,2.1,3.3,3.3,0,0,0,.6,2.1,1.8,1.8,0,0,0,1.5.7,1.7,1.7,0,0,0,1.2-.4A2.2,2.2,0,0,0,114.4,33Z"/><path class="cls-2" d="M116.3,35.7V28.4h1.1v1.1a3,3,0,0,1,.8-1l.8-.2a2.4,2.4,0,0,1,1.3.4l-.4,1.1-.9-.3-.7.2a1.3,1.3,0,0,0-.5.7,4.8,4.8,0,0,0-.2,1.4v3.8Z"/><path class="cls-2" d="M120.1,32a3.7,3.7,0,0,1,1.1-3,3.4,3.4,0,0,1,2.3-.8,3.3,3.3,0,0,1,2.4,1,3.7,3.7,0,0,1,1,2.7,4.8,4.8,0,0,1-.4,2.2,3,3,0,0,1-1.2,1.2,3.6,3.6,0,0,1-1.8.4,3.3,3.3,0,0,1-2.5-1A3.9,3.9,0,0,1,120.1,32Zm1.3,0a3.1,3.1,0,0,0,.6,2.1,2,2,0,0,0,3.1,0,3.2,3.2,0,0,0,.6-2.1,3,3,0,0,0-.6-2,2,2,0,0,0-3.1,0A3.1,3.1,0,0,0,121.4,32Z"/><path class="cls-2" d="M127.5,33.5l1.2-.2a1.7,1.7,0,0,0,.6,1.1,2,2,0,0,0,1.3.4,1.9,1.9,0,0,0,1.3-.3,1,1,0,0,0,.4-.8.7.7,0,0,0-.4-.7l-1.3-.4-1.9-.6a1.8,1.8,0,0,1-1.1-1.7,1.9,1.9,0,0,1,.2-.9,2,2,0,0,1,.6-.7l.8-.4h1.1l1.5.2a2,2,0,0,1,1,.7,2.6,2.6,0,0,1,.4,1.1l-1.2.2a1.3,1.3,0,0,0-.5-.9,1.7,1.7,0,0,0-1.1-.3,2,2,0,0,0-1.2.3.8.8,0,0,0-.4.7.7.7,0,0,0,.2.4l.5.3,1.1.3,1.8.6a1.9,1.9,0,0,1,.8.6,1.8,1.8,0,0,1,.3,1.1,2.1,2.1,0,0,1-.4,1.2,2.3,2.3,0,0,1-1,.8,3.8,3.8,0,0,1-1.5.3,3.4,3.4,0,0,1-2.2-.6A2.7,2.7,0,0,1,127.5,33.5Z"/><path class="cls-2" d="M134.1,32a3.7,3.7,0,0,1,1.1-3,3.4,3.4,0,0,1,2.3-.8,3.3,3.3,0,0,1,2.4,1,3.7,3.7,0,0,1,1,2.7,4.8,4.8,0,0,1-.4,2.2,3,3,0,0,1-1.2,1.2,3.6,3.6,0,0,1-1.8.4,3.3,3.3,0,0,1-2.5-1A3.9,3.9,0,0,1,134.1,32Zm1.3,0a3.1,3.1,0,0,0,.6,2.1,2,2,0,0,0,3.1,0,3.2,3.2,0,0,0,.6-2.1,3,3,0,0,0-.6-2,2,2,0,0,0-3.1,0A3.1,3.1,0,0,0,135.4,32Z"/><path class="cls-2" d="M142.3,35.7V29.4h-1.1v-1h1.1v-.8a3.4,3.4,0,0,1,.1-1.1,1.6,1.6,0,0,1,.6-.8,2.2,2.2,0,0,1,1.3-.3h1.1l-.2,1.1h-.7a1.1,1.1,0,0,0-.8.2,1.3,1.3,0,0,0-.2.9v.7h1.4v1h-1.4v6.3Z"/><path class="cls-2" d="M148.2,34.6l.2,1.1h-.9l-1-.2a1.2,1.2,0,0,1-.5-.6,4.4,4.4,0,0,1-.2-1.5V29.4h-.9v-1h.9V26.6l1.2-.7v2.5h1.2v1H147v4.2a2.1,2.1,0,0,0,.1.7l.2.2h1Z"/><path class="cls-2" d="M152.7,35.7v-10H160v1.2H154v3.1h5.5v1.2H154v3.4h6.2v1.2Z"/><path class="cls-2" d="M160.7,35.7l2.7-3.8-2.5-3.5h1.5l1.1,1.7.5.8.6-.8,1.2-1.7h1.5l-2.5,3.4,2.7,3.8H166l-1.5-2.3-.4-.6-1.9,2.9Z"/><path class="cls-2" d="M172.9,33l1.2.2a3.1,3.1,0,0,1-1,2,3,3,0,0,1-2,.7,3.1,3.1,0,0,1-2.4-1,3.9,3.9,0,0,1-.9-2.8,5.1,5.1,0,0,1,.4-2.1,2.7,2.7,0,0,1,1.2-1.3,3.5,3.5,0,0,1,1.7-.4,3,3,0,0,1,1.9.6,2.7,2.7,0,0,1,1,1.7l-1.2.2a2,2,0,0,0-.6-1.1,1.6,1.6,0,0,0-1-.4,1.9,1.9,0,0,0-1.5.7A3.2,3.2,0,0,0,169,32a3.3,3.3,0,0,0,.6,2.1,1.8,1.8,0,0,0,1.5.7,1.7,1.7,0,0,0,1.2-.4A2.2,2.2,0,0,0,172.9,33Z"/><path class="cls-2" d="M179.7,33.3l1.3.2a3.1,3.1,0,0,1-1.1,1.7,3.8,3.8,0,0,1-4.6-.4,3.8,3.8,0,0,1-.9-2.8,4,4,0,0,1,.9-2.8,3.2,3.2,0,0,1,2.4-1,3.1,3.1,0,0,1,2.4,1A3.9,3.9,0,0,1,181,32v.3h-5.4a2.8,2.8,0,0,0,.7,1.8,2,2,0,0,0,1.5.6,1.9,1.9,0,0,0,1.2-.4A2.4,2.4,0,0,0,179.7,33.3Zm-4-2h4.1a2.5,2.5,0,0,0-.5-1.4,1.9,1.9,0,0,0-1.5-.7,2,2,0,0,0-1.4.6A2.2,2.2,0,0,0,175.7,31.3Z"/><path class="cls-2" d="M182.1,35.7v-10h1.2v10Z"/><path class="cls-2" d="M49.4,47.9V39.3h5.8v1H50.6V43h4v1h-4v3.9Z"/><path class="cls-2" d="M55.7,44.8a3.2,3.2,0,0,1,1-2.6,2.9,2.9,0,0,1,2-.7,2.8,2.8,0,0,1,2.1.8,3.2,3.2,0,0,1,.8,2.3,4.1,4.1,0,0,1-.4,1.9,2.6,2.6,0,0,1-1,1.1,3.1,3.1,0,0,1-1.5.4,2.8,2.8,0,0,1-2.1-.8A3.3,3.3,0,0,1,55.7,44.8Zm1.1,0a2.7,2.7,0,0,0,.5,1.8,1.7,1.7,0,0,0,2.6,0,2.7,2.7,0,0,0,.5-1.8,2.6,2.6,0,0,0-.5-1.7,1.7,1.7,0,0,0-2.6,0A2.6,2.6,0,0,0,56.8,44.8Z"/><path class="cls-2" d="M62.3,47.9V41.7h.9v.9a2.6,2.6,0,0,1,.7-.9l.7-.2a2.1,2.1,0,0,1,1.1.3l-.4,1-.8-.2-.6.2a1.1,1.1,0,0,0-.4.6,4.1,4.1,0,0,0-.2,1.2v3.3Z"/><path class="cls-2" d="M65.8,47.9V41.7h.9v.9a2.2,2.2,0,0,1,.8-.7,2.2,2.2,0,0,1,1.1-.3,2,2,0,0,1,1.1.3,1.5,1.5,0,0,1,.6.8,2.2,2.2,0,0,1,1.9-1.1,1.9,1.9,0,0,1,1.4.5,2.2,2.2,0,0,1,.5,1.6v4.3h-1V44a2.9,2.9,0,0,0-.1-.9.9.9,0,0,0-.4-.4l-.6-.2a1.5,1.5,0,0,0-1.1.4,1.9,1.9,0,0,0-.4,1.4v3.6H69.5v-4a1.8,1.8,0,0,0-.3-1.1,1,1,0,0,0-.8-.4l-.8.2a1.3,1.3,0,0,0-.5.7,3.9,3.9,0,0,0-.2,1.3v3.2Z"/><path class="cls-2" d="M79.4,47.1l-1.1.7-1.2.2a2.3,2.3,0,0,1-1.6-.5,1.7,1.7,0,0,1-.6-1.3,1.7,1.7,0,0,1,.2-.8l.5-.6.8-.3.9-.2,1.9-.4v-.3a1.2,1.2,0,0,0-.3-.9,1.8,1.8,0,0,0-1.2-.4,1.9,1.9,0,0,0-1.1.3,1.6,1.6,0,0,0-.5.9h-1a2.6,2.6,0,0,1,.5-1.1,2,2,0,0,1,.9-.6l1.4-.2,1.3.2.7.5a1.7,1.7,0,0,1,.3.7,5.9,5.9,0,0,1,.1,1v1.4a14.9,14.9,0,0,0,.1,1.9,2.3,2.3,0,0,0,.3.7H79.6A2.2,2.2,0,0,1,79.4,47.1Zm-.1-2.4-1.7.4-.9.2-.4.3a.9.9,0,0,0,.2,1.2,1.4,1.4,0,0,0,.9.3l1.1-.3a1.6,1.6,0,0,0,.7-.7,2.5,2.5,0,0,0,.2-1.1Z"/><path class="cls-2" d="M85.6,45.6h1a2.7,2.7,0,0,1-.9,1.7A2.5,2.5,0,0,1,84,48a2.7,2.7,0,0,1-2.1-.8,3.4,3.4,0,0,1-.8-2.4,4.3,4.3,0,0,1,.3-1.8,2.3,2.3,0,0,1,1-1.1,3,3,0,0,1,1.5-.4,2.6,2.6,0,0,1,1.7.5,2.4,2.4,0,0,1,.8,1.5l-1,.2a1.7,1.7,0,0,0-.5-.9,1.3,1.3,0,0,0-.9-.3,1.6,1.6,0,0,0-1.3.6,2.7,2.7,0,0,0-.5,1.8,2.8,2.8,0,0,0,.5,1.8,1.6,1.6,0,0,0,1.3.6,1.5,1.5,0,0,0,1-.4A1.9,1.9,0,0,0,85.6,45.6Zm-2.4,3.1.3-1h.8l-.2.6.8.3a.8.8,0,0,1,.3.6,1,1,0,0,1-.4.8,2,2,0,0,1-1.3.3h-.8v-.7h.6l.8-.2a.3.3,0,0,0,.2-.3v-.2h-.9Z"/><path class="cls-2" d="M91.1,47.1l-1.1.7-1.2.2a2.3,2.3,0,0,1-1.6-.5,1.7,1.7,0,0,1-.6-1.3,1.7,1.7,0,0,1,.2-.8l.5-.6.8-.3.9-.2,1.9-.4v-.3a1.2,1.2,0,0,0-.3-.9,1.8,1.8,0,0,0-1.2-.4,1.9,1.9,0,0,0-1.1.3,1.6,1.6,0,0,0-.5.9h-1a2.6,2.6,0,0,1,.5-1.1,2,2,0,0,1,.9-.6l1.4-.2,1.3.2.7.5a1.7,1.7,0,0,1,.3.7,5.9,5.9,0,0,1,.1,1v1.4a14.9,14.9,0,0,0,.1,1.9,2.3,2.3,0,0,0,.3.7H91.3A2.2,2.2,0,0,1,91.1,47.1Zm-3.5-6.4a1.3,1.3,0,0,1,.3-1,1.1,1.1,0,0,1,.9-.4l1,.3.6.2h.3a.8.8,0,0,0,.1-.4h.8a1.5,1.5,0,0,1-.3,1,1.1,1.1,0,0,1-.8.3l-1-.3-.6-.2h-.3a.6.6,0,0,0-.1.4Zm3.4,4-1.7.4-.9.2-.4.3a.9.9,0,0,0,.2,1.2,1.4,1.4,0,0,0,.9.3l1.1-.3a1.6,1.6,0,0,0,.7-.7,2.5,2.5,0,0,0,.2-1.1Z"/><path class="cls-2" d="M92.8,44.8a3.2,3.2,0,0,1,1-2.6,2.9,2.9,0,0,1,2-.7,2.8,2.8,0,0,1,2.1.8,3.2,3.2,0,0,1,.8,2.3,4.1,4.1,0,0,1-.4,1.9,2.6,2.6,0,0,1-1,1.1,3.1,3.1,0,0,1-1.5.4,2.8,2.8,0,0,1-2.1-.8A3.3,3.3,0,0,1,92.8,44.8Zm1.1,0a2.7,2.7,0,0,0,.5,1.8,1.7,1.7,0,0,0,2.6,0,2.7,2.7,0,0,0,.5-1.8A2.6,2.6,0,0,0,97,43a1.7,1.7,0,0,0-2.6,0A2.6,2.6,0,0,0,93.9,44.8Z"/><path class="cls-2" d="M106.3,47.9v-.8a1.9,1.9,0,0,1-1.7.9,2.4,2.4,0,0,1-1.4-.4,2.7,2.7,0,0,1-1-1.1,4,4,0,0,1-.3-1.7,4.4,4.4,0,0,1,.3-1.7,2.4,2.4,0,0,1,.9-1.2,2.5,2.5,0,0,1,1.4-.4l1,.2.7.6V39.3h1v8.6ZM103,44.8a2.7,2.7,0,0,0,.5,1.8,1.5,1.5,0,0,0,1.2.6,1.5,1.5,0,0,0,1.2-.6,2.6,2.6,0,0,0,.5-1.7,2.9,2.9,0,0,0-.5-1.9,1.5,1.5,0,0,0-1.2-.6,1.5,1.5,0,0,0-1.2.6A2.8,2.8,0,0,0,103,44.8Z"/><path class="cls-2" d="M112.7,45.9h1.1a2.7,2.7,0,0,1-1,1.5,3.2,3.2,0,0,1-3.9-.3,3.3,3.3,0,0,1-.8-2.4,3.4,3.4,0,0,1,.8-2.4,2.7,2.7,0,0,1,2.1-.9,2.7,2.7,0,0,1,2,.8,3.4,3.4,0,0,1,.8,2.4V45h-4.6a2.4,2.4,0,0,0,.6,1.6,1.7,1.7,0,0,0,1.3.5,1.6,1.6,0,0,0,1-.3A2,2,0,0,0,112.7,45.9Zm-3.5-1.7h3.5a2.1,2.1,0,0,0-.4-1.2,1.6,1.6,0,0,0-1.3-.6,1.7,1.7,0,0,0-1.2.5A1.9,1.9,0,0,0,109.3,44.2Z"/><path class="cls-2" d="M121.6,45.6h1a2.7,2.7,0,0,1-.9,1.7,2.5,2.5,0,0,1-1.7.6,2.7,2.7,0,0,1-2.1-.8,3.4,3.4,0,0,1-.8-2.4,4.3,4.3,0,0,1,.3-1.8,2.3,2.3,0,0,1,1-1.1,3,3,0,0,1,1.5-.4,2.6,2.6,0,0,1,1.7.5,2.4,2.4,0,0,1,.8,1.5l-1,.2a1.7,1.7,0,0,0-.5-.9,1.3,1.3,0,0,0-.9-.3,1.6,1.6,0,0,0-1.3.6,2.7,2.7,0,0,0-.5,1.8,2.8,2.8,0,0,0,.5,1.8,1.6,1.6,0,0,0,1.3.6,1.5,1.5,0,0,0,1-.4A1.9,1.9,0,0,0,121.6,45.6Z"/><path class="cls-2" d="M127.1,47.9V47a2.3,2.3,0,0,1-2,1.1l-1-.2-.7-.5a2,2,0,0,1-.3-.8,5.4,5.4,0,0,1-.1-1V41.7h1.1v3.5a6.2,6.2,0,0,0,.1,1.1,1.1,1.1,0,0,0,.4.7l.8.2.9-.2a1.4,1.4,0,0,0,.6-.7A3.3,3.3,0,0,0,127,45V41.7H128v6.2Z"/><path class="cls-2" d="M129.2,47.9V41.7h.9v.9a2.6,2.6,0,0,1,.7-.9l.7-.2a2.1,2.1,0,0,1,1.1.3l-.4,1-.8-.2-.6.2a1.1,1.1,0,0,0-.4.6,4.1,4.1,0,0,0-.2,1.2v3.3Z"/><path class="cls-2" d="M135,46.9l.2.9h-.8l-.9-.2a1,1,0,0,1-.4-.5,3.8,3.8,0,0,1-.1-1.2V42.5h-.8v-.8h.8V40.1l1-.6v2.2H135v.8H134v3.6a1.8,1.8,0,0,0,.1.6l.2.2h.8Z"/><path class="cls-2" d="M139.7,47.1l-1.1.7-1.2.2a2.3,2.3,0,0,1-1.6-.5,1.7,1.7,0,0,1-.6-1.3,1.7,1.7,0,0,1,.2-.8l.5-.6.8-.3.9-.2,1.9-.4v-.3a1.2,1.2,0,0,0-.3-.9,1.8,1.8,0,0,0-1.2-.4,1.9,1.9,0,0,0-1.1.3,1.6,1.6,0,0,0-.5.9h-1a2.6,2.6,0,0,1,.5-1.1,2,2,0,0,1,.9-.6l1.4-.2,1.3.2.7.5a1.7,1.7,0,0,1,.3.7,5.9,5.9,0,0,1,.1,1v1.4a14.9,14.9,0,0,0,.1,1.9,2.3,2.3,0,0,0,.3.7h-1.1A2.2,2.2,0,0,1,139.7,47.1Zm-.1-2.4-1.7.4-.9.2-.4.3a.9.9,0,0,0,.2,1.2,1.4,1.4,0,0,0,.9.3l1.1-.3a1.6,1.6,0,0,0,.7-.7,2.5,2.5,0,0,0,.2-1.1Z"/><path class="cls-2" d="M148.7,47.9v-.8a1.9,1.9,0,0,1-1.7.9,2.4,2.4,0,0,1-1.4-.4,2.7,2.7,0,0,1-1-1.1,4,4,0,0,1-.3-1.7,4.4,4.4,0,0,1,.3-1.7,2.4,2.4,0,0,1,.9-1.2,2.5,2.5,0,0,1,1.4-.4l1,.2.7.6V39.3h1v8.6Zm-3.3-3.1a2.7,2.7,0,0,0,.5,1.8,1.5,1.5,0,0,0,1.2.6,1.5,1.5,0,0,0,1.2-.6,2.6,2.6,0,0,0,.5-1.7,2.9,2.9,0,0,0-.5-1.9,1.5,1.5,0,0,0-1.2-.6,1.5,1.5,0,0,0-1.2.6A2.8,2.8,0,0,0,145.3,44.8Z"/><path class="cls-2" d="M154.9,47.9V47a2.3,2.3,0,0,1-2,1.1l-1-.2-.7-.5a2,2,0,0,1-.3-.8,5.4,5.4,0,0,1-.1-1V41.7h1.1v3.5a6.2,6.2,0,0,0,.1,1.1,1.1,1.1,0,0,0,.4.7l.8.2.9-.2a1.4,1.4,0,0,0,.6-.7,3.3,3.3,0,0,0,.2-1.2V41.7h1.1v6.2Z"/><path class="cls-2" d="M157,47.9V41.7h.9v.9a2.6,2.6,0,0,1,.7-.9l.7-.2a2.1,2.1,0,0,1,1.1.3l-.4,1-.8-.2-.6.2a1.1,1.1,0,0,0-.4.6,4.1,4.1,0,0,0-.2,1.2v3.3Z"/><path class="cls-2" d="M164.6,47.1l-1.1.7-1.2.2a2.3,2.3,0,0,1-1.6-.5,1.7,1.7,0,0,1-.6-1.3,1.7,1.7,0,0,1,.2-.8l.5-.6.8-.3.9-.2,1.9-.4v-.3a1.2,1.2,0,0,0-.3-.9,1.8,1.8,0,0,0-1.2-.4,1.9,1.9,0,0,0-1.1.3,1.6,1.6,0,0,0-.5.9h-1a2.6,2.6,0,0,1,.5-1.1,2,2,0,0,1,.9-.6l1.4-.2,1.3.2.7.5a1.7,1.7,0,0,1,.3.7,5.9,5.9,0,0,1,.1,1v1.4a14.9,14.9,0,0,0,.1,1.9,2.3,2.3,0,0,0,.3.7h-1.1A2.2,2.2,0,0,1,164.6,47.1Zm-.1-2.4-1.7.4-.9.2-.4.3a.9.9,0,0,0,.2,1.2,1.4,1.4,0,0,0,.9.3l1.1-.3a1.6,1.6,0,0,0,.7-.7,2.5,2.5,0,0,0,.2-1.1Z"/><path class="cls-2" d="M170.8,45.6h1a2.7,2.7,0,0,1-.9,1.7,2.5,2.5,0,0,1-1.7.6,2.7,2.7,0,0,1-2.1-.8,3.4,3.4,0,0,1-.8-2.4,4.3,4.3,0,0,1,.3-1.8,2.3,2.3,0,0,1,1-1.1,3,3,0,0,1,1.5-.4,2.6,2.6,0,0,1,1.7.5,2.4,2.4,0,0,1,.8,1.5l-1,.2a1.7,1.7,0,0,0-.5-.9,1.3,1.3,0,0,0-.9-.3,1.6,1.6,0,0,0-1.3.6,2.7,2.7,0,0,0-.5,1.8,2.8,2.8,0,0,0,.5,1.8,1.6,1.6,0,0,0,1.3.6,1.5,1.5,0,0,0,1-.4A1.9,1.9,0,0,0,170.8,45.6Zm-2.4,3.1.3-1h.8l-.2.6.8.3a.8.8,0,0,1,.3.6,1,1,0,0,1-.4.8,2,2,0,0,1-1.3.3h-.8v-.7h.6l.8-.2a.3.3,0,0,0,.2-.3v-.2h-.9Z"/><path class="cls-2" d="M176.3,47.1l-1.1.7L174,48a2.3,2.3,0,0,1-1.6-.5,1.7,1.7,0,0,1-.6-1.3,1.7,1.7,0,0,1,.2-.8l.5-.6.8-.3.9-.2,1.9-.4v-.3a1.2,1.2,0,0,0-.3-.9,1.8,1.8,0,0,0-1.2-.4,1.9,1.9,0,0,0-1.1.3,1.6,1.6,0,0,0-.5.9h-1a2.6,2.6,0,0,1,.5-1.1,2,2,0,0,1,.9-.6l1.4-.2,1.3.2.7.5a1.7,1.7,0,0,1,.3.7,5.9,5.9,0,0,1,.1,1v1.4a14.9,14.9,0,0,0,.1,1.9,2.3,2.3,0,0,0,.3.7h-1.1A2.2,2.2,0,0,1,176.3,47.1Zm-3.5-6.4a1.3,1.3,0,0,1,.3-1,1.1,1.1,0,0,1,.9-.4l1,.3.6.2h.3a.8.8,0,0,0,.1-.4h.8a1.5,1.5,0,0,1-.3,1,1.1,1.1,0,0,1-.8.3l-1-.3-.6-.2h-.3a.6.6,0,0,0-.1.4Zm3.4,4-1.7.4-.9.2-.4.3a.9.9,0,0,0,.2,1.2,1.4,1.4,0,0,0,.9.3l1.1-.3a1.6,1.6,0,0,0,.7-.7,2.5,2.5,0,0,0,.2-1.1Z"/><path class="cls-2" d="M178.1,44.8a3.2,3.2,0,0,1,1-2.6,2.9,2.9,0,0,1,2-.7,2.8,2.8,0,0,1,2.1.8,3.2,3.2,0,0,1,.8,2.3,4.1,4.1,0,0,1-.4,1.9,2.6,2.6,0,0,1-1,1.1,3.1,3.1,0,0,1-1.5.4,2.8,2.8,0,0,1-2.1-.8A3.3,3.3,0,0,1,178.1,44.8Zm1.1,0a2.7,2.7,0,0,0,.5,1.8,1.7,1.7,0,0,0,2.6,0,2.7,2.7,0,0,0,.5-1.8,2.6,2.6,0,0,0-.5-1.7,1.7,1.7,0,0,0-2.6,0A2.6,2.6,0,0,0,179.1,44.8Z"/><path class="cls-3" d="M286.3,31.6H195.4a.6.6,0,0,0-.7.4,1.2,1.2,0,0,1-1.4.6,1.3,1.3,0,0,1-.9-1.2,1.2,1.2,0,0,1,2.4-.5.5.5,0,0,0,.5.3h99c.7,0,.7,0,.7-.7s0-.4.1-.6A9.7,9.7,0,1,1,304.6,41a9.4,9.4,0,0,1-7.2-3.2,9.1,9.1,0,0,1-2.4-5.8c0-.2,0-.4-.3-.4h-8.3Zm18.2,8.8a9.1,9.1,0,1,0-9-9.6A9.1,9.1,0,0,0,304.5,40.4Z"/><path class="cls-4" d="M286.6,31.1h-.3a17.7,17.7,0,0,1,5-12.3,17.7,17.7,0,0,1,11-5.6,18.4,18.4,0,0,1,20.3,14.4,17.8,17.8,0,0,1-3.5,15,17.7,17.7,0,0,1-8.8,6.2,18.3,18.3,0,0,1-22.1-9.2,16.9,16.9,0,0,1-1.9-6.9V31.6h.3a17.1,17.1,0,0,0,1.9,7.9,17.8,17.8,0,0,0,8.8,8.4,18,18,0,0,0,21.6-5.4A17.5,17.5,0,0,0,322.4,28a17.3,17.3,0,0,0-6.2-10.5,17.6,17.6,0,0,0-15-3.8,17.3,17.3,0,0,0-9.7,5.4A17.5,17.5,0,0,0,286.6,31.1Z"/><path class="cls-4" d="M281.7,31.1h-.3a21.5,21.5,0,0,1,2.4-10A23.5,23.5,0,0,1,301.7,8.2H304c.1,0,.3-.1.3.1s-.2.2-.3.2a22.9,22.9,0,0,0-9.8,2.5,22.7,22.7,0,0,0-4.5,3.1,22.8,22.8,0,0,0-7.9,15.3C281.7,29.9,281.7,30.5,281.7,31.1Z"/><path class="cls-3" d="M304.6,38.3a7,7,0,1,1,6.9-6.9A7,7,0,0,1,304.6,38.3Zm-6.4-7a6.4,6.4,0,1,0,6.5-6.4A6.4,6.4,0,0,0,298.2,31.3Z"/><path class="cls-3" d="M308.1,31.4a3.5,3.5,0,1,1-3.4-3.5A3.5,3.5,0,0,1,308.1,31.4Z"/></g></g></svg>