<svg xmlns="http://www.w3.org/2000/svg" viewBox="0 0 330 115"><defs><style>.cls-1{fill:none;stroke:#7c7c7c;stroke-miterlimit:10;stroke-width:2px;}.cls-2{fill:#585857;}.cls-3{fill:#478ac9;}.cls-4{fill:#77aad9;}</style></defs><title>foto2Prancheta 1</title><g id="Camada_4" data-name="Camada 4"><line class="cls-1" x1="303.6" y1="174.2" x2="304.1" y2="-13.5"/></g><g id="Camada_2" data-name="Camada 2"><g id="futugrafia"><path d="M38.6,63V54.4h6.2v1H39.7v2.6h4.8v1H39.7V62H45v1Z"/><path d="M45.7,61.2l1-.2a1.5,1.5,0,0,0,.5,1,1.7,1.7,0,0,0,1.1.3,1.6,1.6,0,0,0,1.1-.3.9.9,0,0,0,.4-.7.6.6,0,0,0-.3-.6l-1.1-.4-1.6-.5a1.5,1.5,0,0,1-.9-1.4,1.6,1.6,0,0,1,.2-.8l.5-.6.7-.3h.9l1.3.2a1.7,1.7,0,0,1,.8.6,2.2,2.2,0,0,1,.4,1h-1a1.1,1.1,0,0,0-.4-.7,1.5,1.5,0,0,0-1-.3,1.7,1.7,0,0,0-1,.2.7.7,0,0,0-.3.6.6.6,0,0,0,.1.4l.4.3.9.3,1.6.5a1.6,1.6,0,0,1,.7.6,1.5,1.5,0,0,1,.3.9,1.8,1.8,0,0,1-.3,1,2,2,0,0,1-.9.7l-1.3.3a2.9,2.9,0,0,1-1.8-.5A2.3,2.3,0,0,1,45.7,61.2Z"/><path d="M55.8,60.7h1a2.7,2.7,0,0,1-.9,1.7,2.5,2.5,0,0,1-1.7.6,2.7,2.7,0,0,1-2.1-.8,3.4,3.4,0,0,1-.8-2.4,4.3,4.3,0,0,1,.3-1.8,2.3,2.3,0,0,1,1-1.1,3,3,0,0,1,1.5-.4,2.6,2.6,0,0,1,1.7.5,2.4,2.4,0,0,1,.8,1.5l-1,.2a1.7,1.7,0,0,0-.5-.9,1.3,1.3,0,0,0-.9-.3,1.6,1.6,0,0,0-1.3.6,2.7,2.7,0,0,0-.5,1.8,2.8,2.8,0,0,0,.5,1.8,1.6,1.6,0,0,0,1.3.6,1.5,1.5,0,0,0,1-.4A1.9,1.9,0,0,0,55.8,60.7Z"/><path d="M57,59.9a3.2,3.2,0,0,1,1-2.6,2.9,2.9,0,0,1,2-.7,2.8,2.8,0,0,1,2.1.8,3.2,3.2,0,0,1,.8,2.3,4.1,4.1,0,0,1-.4,1.9,2.6,2.6,0,0,1-1,1.1,3.1,3.1,0,0,1-1.5.4,2.8,2.8,0,0,1-2.1-.8A3.3,3.3,0,0,1,57,59.9Zm1.1,0a2.7,2.7,0,0,0,.5,1.8,1.7,1.7,0,0,0,2.6,0,2.7,2.7,0,0,0,.5-1.8,2.6,2.6,0,0,0-.5-1.7,1.7,1.7,0,0,0-2.6,0A2.6,2.6,0,0,0,58.1,59.9Z"/><path d="M63.7,63V54.4h1.1V63Z"/><path d="M70.1,62.2l-1.1.7-1.2.2a2.3,2.3,0,0,1-1.6-.5,1.7,1.7,0,0,1-.6-1.3,1.7,1.7,0,0,1,.2-.8l.5-.6.8-.3.9-.2,1.9-.4v-.3a1.2,1.2,0,0,0-.3-.9,1.8,1.8,0,0,0-1.2-.4,1.9,1.9,0,0,0-1.1.3,1.6,1.6,0,0,0-.5.9h-1a2.6,2.6,0,0,1,.5-1.1,2,2,0,0,1,.9-.6l1.4-.2,1.3.2.7.5a1.7,1.7,0,0,1,.3.7,5.9,5.9,0,0,1,.1,1v1.4a14.9,14.9,0,0,0,.1,1.9,2.3,2.3,0,0,0,.3.7H70.3A2.2,2.2,0,0,1,70.1,62.2ZM70,59.9l-1.7.4-.9.2-.4.3a.9.9,0,0,0,.2,1.2,1.4,1.4,0,0,0,.9.3l1.1-.3a1.6,1.6,0,0,0,.7-.7,2.5,2.5,0,0,0,.2-1.1Z"/><path d="M75.4,63V54.4H80l1.1.4a2.1,2.1,0,0,1,.7.8,2.8,2.8,0,0,1-.4,3,3.3,3.3,0,0,1-2.5.8H76.6V63Zm1.1-4.5h2.2a2.4,2.4,0,0,0,1.6-.4,1.5,1.5,0,0,0,.5-1.2,1.6,1.6,0,0,0-.3-.9,1.3,1.3,0,0,0-.7-.5H76.6Z"/><path d="M82.9,63V56.8h.9v.9a2.6,2.6,0,0,1,.7-.9l.7-.2a2.1,2.1,0,0,1,1.1.3l-.4,1-.8-.2-.6.2a1.1,1.1,0,0,0-.4.6,4.1,4.1,0,0,0-.2,1.2V63Z"/><path d="M86.2,59.9a3.2,3.2,0,0,1,1-2.6,2.9,2.9,0,0,1,2-.7,2.8,2.8,0,0,1,2.1.8,3.2,3.2,0,0,1,.8,2.3,4.1,4.1,0,0,1-.4,1.9,2.6,2.6,0,0,1-1,1.1,3.1,3.1,0,0,1-1.5.4,2.8,2.8,0,0,1-2.1-.8A3.3,3.3,0,0,1,86.2,59.9Zm1.1,0a2.7,2.7,0,0,0,.5,1.8,1.7,1.7,0,0,0,2.6,0,2.7,2.7,0,0,0,.5-1.8,2.6,2.6,0,0,0-.5-1.7,1.7,1.7,0,0,0-2.6,0A2.6,2.6,0,0,0,87.3,59.9Z"/><path d="M93.1,63V57.6h-.9v-.8h.9v-.7a2.9,2.9,0,0,1,.1-.9,1.3,1.3,0,0,1,.5-.7,1.9,1.9,0,0,1,1.1-.3h1l-.2.9h-.6l-.7.2a1.1,1.1,0,0,0-.2.8v.6h1.2v.8H94.2V63Z"/><path d="M95.9,55.6V54.4h1.1v1.2Zm0,7.4V56.8h1.1V63Z"/><path d="M97.7,61.2l1-.2a1.5,1.5,0,0,0,.5,1,1.7,1.7,0,0,0,1.1.3,1.6,1.6,0,0,0,1.1-.3.9.9,0,0,0,.4-.7.6.6,0,0,0-.3-.6l-1.1-.4-1.6-.5a1.5,1.5,0,0,1-.9-1.4,1.6,1.6,0,0,1,.2-.8l.5-.6.7-.3h.9l1.3.2a1.7,1.7,0,0,1,.8.6,2.2,2.2,0,0,1,.4,1h-1a1.1,1.1,0,0,0-.4-.7,1.5,1.5,0,0,0-1-.3,1.7,1.7,0,0,0-1,.2.7.7,0,0,0-.3.6.6.6,0,0,0,.1.4l.4.3.9.3,1.6.5a1.6,1.6,0,0,1,.7.6,1.5,1.5,0,0,1,.3.9,1.8,1.8,0,0,1-.3,1,2,2,0,0,1-.9.7l-1.3.3a2.9,2.9,0,0,1-1.8-.5A2.3,2.3,0,0,1,97.7,61.2Z"/><path d="M103.4,61.2l1-.2a1.5,1.5,0,0,0,.5,1,1.7,1.7,0,0,0,1.1.3,1.6,1.6,0,0,0,1.1-.3.9.9,0,0,0,.4-.7.6.6,0,0,0-.3-.6l-1.1-.4-1.6-.5a1.5,1.5,0,0,1-.9-1.4,1.6,1.6,0,0,1,.2-.8l.5-.6.7-.3h.9l1.3.2a1.7,1.7,0,0,1,.8.6,2.2,2.2,0,0,1,.4,1h-1a1.1,1.1,0,0,0-.4-.7,1.5,1.5,0,0,0-1-.3,1.7,1.7,0,0,0-1,.2.7.7,0,0,0-.3.6.6.6,0,0,0,.1.4l.4.3.9.3,1.6.5a1.6,1.6,0,0,1,.7.6,1.5,1.5,0,0,1,.3.9,1.8,1.8,0,0,1-.3,1,2,2,0,0,1-.9.7l-1.3.3a2.9,2.9,0,0,1-1.8-.5A2.3,2.3,0,0,1,103.4,61.2Z"/><path d="M109.4,55.6V54.4h1.1v1.2Zm0,7.4V56.8h1.1V63Z"/><path d="M111.4,59.9a3.2,3.2,0,0,1,1-2.6,2.9,2.9,0,0,1,2-.7,2.8,2.8,0,0,1,2.1.8,3.2,3.2,0,0,1,.8,2.3,4.1,4.1,0,0,1-.4,1.9,2.6,2.6,0,0,1-1,1.1,3.1,3.1,0,0,1-1.5.4,2.8,2.8,0,0,1-2.1-.8A3.3,3.3,0,0,1,111.4,59.9Zm1.1,0a2.7,2.7,0,0,0,.5,1.8,1.7,1.7,0,0,0,2.6,0,2.7,2.7,0,0,0,.5-1.8,2.6,2.6,0,0,0-.5-1.7,1.7,1.7,0,0,0-2.6,0A2.6,2.6,0,0,0,112.4,59.9Z"/><path d="M118.1,63V56.8h.9v.9a2.2,2.2,0,0,1,2-1l1,.2a1.6,1.6,0,0,1,.7.5,2,2,0,0,1,.3.8,6,6,0,0,1,.1,1V63h-1.1V59.2a2.8,2.8,0,0,0-.1-1,1,1,0,0,0-.4-.5l-.7-.2a1.7,1.7,0,0,0-1.2.4,2.1,2.1,0,0,0-.5,1.6V63Z"/><path d="M128.4,62.2l-1.1.7-1.2.2a2.3,2.3,0,0,1-1.6-.5,1.7,1.7,0,0,1-.6-1.3,1.7,1.7,0,0,1,.2-.8l.5-.6.8-.3.9-.2,1.9-.4v-.3a1.2,1.2,0,0,0-.3-.9,1.8,1.8,0,0,0-1.2-.4,1.9,1.9,0,0,0-1.1.3,1.6,1.6,0,0,0-.5.9h-1a2.6,2.6,0,0,1,.5-1.1,2,2,0,0,1,.9-.6l1.4-.2,1.3.2.7.5a1.7,1.7,0,0,1,.3.7,5.9,5.9,0,0,1,.1,1v1.4a14.9,14.9,0,0,0,.1,1.9,2.3,2.3,0,0,0,.3.7h-1.1A2.2,2.2,0,0,1,128.4,62.2Zm-.1-2.4-1.7.4-.9.2-.4.3a.9.9,0,0,0,.2,1.2,1.4,1.4,0,0,0,.9.3l1.1-.3a1.6,1.6,0,0,0,.7-.7,2.5,2.5,0,0,0,.2-1.1Z"/><path d="M130.7,63V54.4h1.1V63Z"/><path d="M140,63v-.8a1.9,1.9,0,0,1-1.7.9,2.4,2.4,0,0,1-1.4-.4,2.7,2.7,0,0,1-1-1.1,4,4,0,0,1-.3-1.7,4.4,4.4,0,0,1,.3-1.7,2.4,2.4,0,0,1,.9-1.2,2.5,2.5,0,0,1,1.4-.4l1,.2.7.6V54.4h1V63Zm-3.3-3.1a2.7,2.7,0,0,0,.5,1.8,1.5,1.5,0,0,0,1.2.6,1.5,1.5,0,0,0,1.2-.6A2.6,2.6,0,0,0,140,60a2.9,2.9,0,0,0-.5-1.9,1.5,1.5,0,0,0-1.2-.6,1.5,1.5,0,0,0-1.2.6A2.8,2.8,0,0,0,136.7,59.9Z"/><path d="M146.5,61h1.1a2.7,2.7,0,0,1-1,1.5,3.2,3.2,0,0,1-3.9-.3,3.3,3.3,0,0,1-.8-2.4,3.4,3.4,0,0,1,.8-2.4,2.7,2.7,0,0,1,2.1-.9,2.7,2.7,0,0,1,2,.8,3.4,3.4,0,0,1,.8,2.4v.3H143a2.4,2.4,0,0,0,.6,1.6,1.7,1.7,0,0,0,1.3.5,1.6,1.6,0,0,0,1-.3A2,2,0,0,0,146.5,61Zm-3.5-1.7h3.5a2.1,2.1,0,0,0-.4-1.2,1.6,1.6,0,0,0-1.3-.6,1.7,1.7,0,0,0-1.2.5A1.9,1.9,0,0,0,143.1,59.3Z"/><path d="M151.7,63V54.4h3.2a4,4,0,0,1,1.6.3,2,2,0,0,1,.9.8,2.1,2.1,0,0,1,.3,1.1,1.9,1.9,0,0,1-.3,1,2.1,2.1,0,0,1-.9.8,2.2,2.2,0,0,1,1.2.8,2.1,2.1,0,0,1,.4,1.3,2.5,2.5,0,0,1-.3,1.1,2.2,2.2,0,0,1-.6.8l-.9.4h-4.7Zm1.1-5h2.9a1.2,1.2,0,0,0,.7-.4,1.2,1.2,0,0,0,.2-.7,1.4,1.4,0,0,0-.2-.8,1,1,0,0,0-.6-.4h-3Zm0,4h2.9l.7-.2.4-.5a1.5,1.5,0,0,0,.2-.7,1.4,1.4,0,0,0-.2-.8,1.3,1.3,0,0,0-.7-.5h-3.2Z"/><path d="M159.2,63V56.8h.9v.9a2.6,2.6,0,0,1,.7-.9l.7-.2a2.1,2.1,0,0,1,1.1.3l-.4,1-.8-.2-.6.2a1.1,1.1,0,0,0-.4.6,4.1,4.1,0,0,0-.2,1.2V63Z"/><path d="M166.9,62.2l-1.1.7-1.2.2a2.3,2.3,0,0,1-1.6-.5,1.7,1.7,0,0,1-.6-1.3,1.7,1.7,0,0,1,.2-.8l.5-.6.8-.3.9-.2,1.9-.4v-.3a1.2,1.2,0,0,0-.3-.9,1.8,1.8,0,0,0-1.2-.4,1.9,1.9,0,0,0-1.1.3,1.6,1.6,0,0,0-.5.9h-1a2.6,2.6,0,0,1,.5-1.1,2,2,0,0,1,.9-.6l1.4-.2,1.3.2.7.5a1.7,1.7,0,0,1,.3.7,5.9,5.9,0,0,1,.1,1v1.4a14.9,14.9,0,0,0,.1,1.9,2.3,2.3,0,0,0,.3.7h-1.1A2.2,2.2,0,0,1,166.9,62.2Zm-.1-2.4-1.7.4-.9.2-.4.3a.9.9,0,0,0,.2,1.2,1.4,1.4,0,0,0,.9.3l1.1-.3a1.6,1.6,0,0,0,.7-.7,2.5,2.5,0,0,0,.2-1.1Z"/><path d="M169,63.5l1,.2a1,1,0,0,0,.4.7,1.8,1.8,0,0,0,1.1.3,1.9,1.9,0,0,0,1.1-.3,1.4,1.4,0,0,0,.5-.8,6.7,6.7,0,0,0,.1-1.4,2.2,2.2,0,0,1-1.7.8,2.3,2.3,0,0,1-2-.9,3.6,3.6,0,0,1-.7-2.2,4.1,4.1,0,0,1,.3-1.6,2.6,2.6,0,0,1,.9-1.2,2.5,2.5,0,0,1,1.4-.4,2.2,2.2,0,0,1,1.8.9v-.7h1v5.4a5.1,5.1,0,0,1-.3,2.1,2.2,2.2,0,0,1-.9,1,3.2,3.2,0,0,1-1.6.4,3,3,0,0,1-1.8-.5A1.7,1.7,0,0,1,169,63.5Zm.9-3.7a2.7,2.7,0,0,0,.5,1.8,1.6,1.6,0,0,0,2.4,0,2.6,2.6,0,0,0,.5-1.8,2.6,2.6,0,0,0-.5-1.7,1.6,1.6,0,0,0-1.2-.6,1.5,1.5,0,0,0-1.2.6A2.5,2.5,0,0,0,169.8,59.8Z"/><path d="M179.5,62.2l-1.1.7-1.2.2a2.3,2.3,0,0,1-1.6-.5,1.7,1.7,0,0,1-.6-1.3,1.7,1.7,0,0,1,.2-.8l.5-.6.8-.3.9-.2,1.9-.4v-.3a1.2,1.2,0,0,0-.3-.9,1.8,1.8,0,0,0-1.2-.4,1.9,1.9,0,0,0-1.1.3,1.6,1.6,0,0,0-.5.9h-1a2.6,2.6,0,0,1,.5-1.1,2,2,0,0,1,.9-.6l1.4-.2,1.3.2.7.5a1.7,1.7,0,0,1,.3.7,5.9,5.9,0,0,1,.1,1v1.4a14.9,14.9,0,0,0,.1,1.9,2.3,2.3,0,0,0,.3.7h-1.1A2.2,2.2,0,0,1,179.5,62.2Zm-.1-2.4-1.7.4-.9.2-.4.3a.9.9,0,0,0,.2,1.2,1.4,1.4,0,0,0,.9.3l1.1-.3a1.6,1.6,0,0,0,.7-.7,2.5,2.5,0,0,0,.2-1.1Z"/><path d="M182.1,63V61.8h1.2V63a2.1,2.1,0,0,1-.2,1.1,1.5,1.5,0,0,1-.7.6l-.3-.5.5-.4a1.8,1.8,0,0,0,.2-.8Z"/><path d="M102.6,77.4V68.8h3.2a4,4,0,0,1,1.6.3,2,2,0,0,1,.9.8,2.1,2.1,0,0,1,.3,1.1,1.9,1.9,0,0,1-.3,1,2.1,2.1,0,0,1-.9.8,2.2,2.2,0,0,1,1.2.8,2.1,2.1,0,0,1,.4,1.3,2.5,2.5,0,0,1-.3,1.1,2.2,2.2,0,0,1-.6.8l-.9.4h-4.7Zm1.1-5h2.9a1.2,1.2,0,0,0,.7-.4,1.2,1.2,0,0,0,.2-.7,1.4,1.4,0,0,0-.2-.8,1,1,0,0,0-.6-.4h-3Zm0,4h2.9l.7-.2.4-.5a1.5,1.5,0,0,0,.2-.7,1.4,1.4,0,0,0-.2-.8,1.3,1.3,0,0,0-.7-.5h-3.2Z"/><path d="M110.1,77.4V71.2h.9v.9a2.6,2.6,0,0,1,.7-.9l.7-.2a2.1,2.1,0,0,1,1.1.3l-.4,1-.8-.2-.6.2a1.1,1.1,0,0,0-.4.6,4.1,4.1,0,0,0-.2,1.2v3.3Z"/><path d="M117.8,76.6l-1.1.7-1.2.2A2.3,2.3,0,0,1,114,77a1.7,1.7,0,0,1-.6-1.3,1.7,1.7,0,0,1,.2-.8l.5-.6.8-.3.9-.2,1.9-.4v-.3a1.2,1.2,0,0,0-.3-.9,1.8,1.8,0,0,0-1.2-.4,1.9,1.9,0,0,0-1.1.3,1.6,1.6,0,0,0-.5.9h-1a2.6,2.6,0,0,1,.5-1.1,2,2,0,0,1,.9-.6l1.4-.2,1.3.2.7.5a1.7,1.7,0,0,1,.3.7,5.9,5.9,0,0,1,.1,1v1.4a14.9,14.9,0,0,0,.1,1.9,2.3,2.3,0,0,0,.3.7H118A2.2,2.2,0,0,1,117.8,76.6Zm-.1-2.4-1.7.4-.9.2-.4.3a.9.9,0,0,0,.2,1.2,1.4,1.4,0,0,0,.9.3l1.1-.3a1.6,1.6,0,0,0,.7-.7,2.5,2.5,0,0,0,.2-1.1Z"/><path d="M119.9,77.9l1,.2a1,1,0,0,0,.4.7,1.8,1.8,0,0,0,1.1.3,1.9,1.9,0,0,0,1.1-.3,1.4,1.4,0,0,0,.5-.8,6.7,6.7,0,0,0,.1-1.4,2.2,2.2,0,0,1-1.7.8,2.3,2.3,0,0,1-2-.9,3.6,3.6,0,0,1-.7-2.2,4.1,4.1,0,0,1,.3-1.6,2.6,2.6,0,0,1,.9-1.2,2.5,2.5,0,0,1,1.4-.4,2.2,2.2,0,0,1,1.8.9v-.7h1v5.4a5.1,5.1,0,0,1-.3,2.1,2.2,2.2,0,0,1-.9,1,3.2,3.2,0,0,1-1.6.4,3,3,0,0,1-1.8-.5A1.7,1.7,0,0,1,119.9,77.9Zm.9-3.7a2.7,2.7,0,0,0,.5,1.8,1.6,1.6,0,0,0,2.4,0,2.6,2.6,0,0,0,.5-1.8,2.6,2.6,0,0,0-.5-1.7,1.6,1.6,0,0,0-1.2-.6,1.5,1.5,0,0,0-1.2.6A2.5,2.5,0,0,0,120.8,74.2Z"/><path d="M130.4,76.6l-1.1.7-1.2.2a2.3,2.3,0,0,1-1.6-.5,1.7,1.7,0,0,1-.6-1.3,1.7,1.7,0,0,1,.2-.8l.5-.6.8-.3.9-.2,1.9-.4v-.3a1.2,1.2,0,0,0-.3-.9,1.8,1.8,0,0,0-1.2-.4,1.9,1.9,0,0,0-1.1.3,1.6,1.6,0,0,0-.5.9h-1a2.6,2.6,0,0,1,.5-1.1,2,2,0,0,1,.9-.6L129,71l1.3.2.7.5a1.7,1.7,0,0,1,.3.7,5.9,5.9,0,0,1,.1,1v1.4a14.9,14.9,0,0,0,.1,1.9,2.3,2.3,0,0,0,.3.7h-1.1A2.2,2.2,0,0,1,130.4,76.6Zm-.1-2.4-1.7.4-.9.2-.4.3a.9.9,0,0,0,.2,1.2,1.4,1.4,0,0,0,.9.3l1.1-.3a1.6,1.6,0,0,0,.7-.7,2.5,2.5,0,0,0,.2-1.1Z"/><path d="M137.7,79.9a10.5,10.5,0,0,1-1.5-2.6,8.1,8.1,0,0,1-.2-5.7,11.2,11.2,0,0,1,1.6-3h.8l-.9,1.7a9.5,9.5,0,0,0-.6,1.7,9.8,9.8,0,0,0-.3,2.2,10.6,10.6,0,0,0,1.8,5.6Z"/><path d="M139.4,77.4V68.8H144l1.1.4a2.1,2.1,0,0,1,.7.8,2.8,2.8,0,0,1-.4,3,3.3,3.3,0,0,1-2.5.8h-2.2v3.5Zm1.1-4.5h2.2a2.4,2.4,0,0,0,1.6-.4,1.5,1.5,0,0,0,.5-1.2,1.6,1.6,0,0,0-.3-.9,1.3,1.3,0,0,0-.7-.5h-3.3Z"/><path d="M146.6,74.3a3.2,3.2,0,0,1,1-2.6,2.9,2.9,0,0,1,2-.7,2.8,2.8,0,0,1,2.1.8,3.2,3.2,0,0,1,.8,2.3,4.1,4.1,0,0,1-.4,1.9,2.6,2.6,0,0,1-1,1.1,3.1,3.1,0,0,1-1.5.4,2.8,2.8,0,0,1-2.1-.8A3.3,3.3,0,0,1,146.6,74.3Zm1.1,0a2.7,2.7,0,0,0,.5,1.8,1.7,1.7,0,0,0,2.6,0,2.7,2.7,0,0,0,.5-1.8,2.6,2.6,0,0,0-.5-1.7,1.7,1.7,0,0,0-2.6,0A2.6,2.6,0,0,0,147.6,74.3Z"/><path d="M153.3,77.4V71.2h.9v.9a2.6,2.6,0,0,1,.7-.9l.7-.2a2.1,2.1,0,0,1,1.1.3l-.4,1-.8-.2-.6.2a1.1,1.1,0,0,0-.4.6,4.1,4.1,0,0,0-.2,1.2v3.3Z"/><path d="M159.2,76.5l.2.9h-.8l-.9-.2a1,1,0,0,1-.4-.5,3.8,3.8,0,0,1-.1-1.2V72h-.8v-.8h.8V69.6l1-.6v2.2h1.1V72h-1.1v3.6a1.8,1.8,0,0,0,.1.6l.2.2h.8Z"/><path d="M164,77.4v-.9a2.3,2.3,0,0,1-2,1.1l-1-.2-.7-.5a2,2,0,0,1-.3-.8,5.4,5.4,0,0,1-.1-1V71.2h1.1v3.5a6.2,6.2,0,0,0,.1,1.1,1.1,1.1,0,0,0,.4.7l.8.2.9-.2a1.4,1.4,0,0,0,.6-.7,3.3,3.3,0,0,0,.2-1.2V71.2h1.1v6.2Z"/><path d="M166,77.9l1,.2a1,1,0,0,0,.4.7,1.8,1.8,0,0,0,1.1.3,1.9,1.9,0,0,0,1.1-.3,1.4,1.4,0,0,0,.5-.8,6.7,6.7,0,0,0,.1-1.4,2.2,2.2,0,0,1-1.7.8,2.3,2.3,0,0,1-2-.9,3.6,3.6,0,0,1-.7-2.2,4.1,4.1,0,0,1,.3-1.6,2.6,2.6,0,0,1,.9-1.2,2.5,2.5,0,0,1,1.4-.4,2.2,2.2,0,0,1,1.8.9v-.7h1v5.4a5.1,5.1,0,0,1-.3,2.1,2.2,2.2,0,0,1-.9,1,3.2,3.2,0,0,1-1.6.4,3,3,0,0,1-1.8-.5A1.7,1.7,0,0,1,166,77.9Zm.9-3.7a2.7,2.7,0,0,0,.5,1.8,1.6,1.6,0,0,0,2.4,0,2.6,2.6,0,0,0,.5-1.8,2.6,2.6,0,0,0-.5-1.7,1.6,1.6,0,0,0-1.2-.6,1.5,1.5,0,0,0-1.2.6A2.5,2.5,0,0,0,166.9,74.2Z"/><path d="M176.6,76.6l-1.1.7-1.2.2a2.3,2.3,0,0,1-1.6-.5,1.7,1.7,0,0,1-.6-1.3,1.7,1.7,0,0,1,.2-.8l.5-.6.8-.3.9-.2,1.9-.4v-.3a1.2,1.2,0,0,0-.3-.9,1.8,1.8,0,0,0-1.2-.4,1.9,1.9,0,0,0-1.1.3,1.6,1.6,0,0,0-.5.9h-1a2.6,2.6,0,0,1,.5-1.1,2,2,0,0,1,.9-.6l1.4-.2,1.3.2.7.5a1.7,1.7,0,0,1,.3.7,5.9,5.9,0,0,1,.1,1v1.4a14.9,14.9,0,0,0,.1,1.9,2.3,2.3,0,0,0,.3.7h-1.1A2.2,2.2,0,0,1,176.6,76.6Zm-.1-2.4-1.7.4-.9.2-.4.3a.9.9,0,0,0,.2,1.2,1.4,1.4,0,0,0,.9.3l1.1-.3a1.6,1.6,0,0,0,.7-.7,2.5,2.5,0,0,0,.2-1.1Z"/><path d="M178.8,77.4V68.8h1.1v8.6Z"/><path d="M181.8,79.9h-.8a10.6,10.6,0,0,0,1.8-5.6,9.6,9.6,0,0,0-.3-2.2,9.2,9.2,0,0,0-.6-1.7l-.9-1.8h.8a11.2,11.2,0,0,1,1.6,3,8.1,8.1,0,0,1-.2,5.7A10.7,10.7,0,0,1,181.8,79.9Z"/><path class="cls-2" d="M193.1,43.2a7.9,7.9,0,0,1,.3-2.5,3.1,3.1,0,0,1,.9-1.4,2.4,2.4,0,0,1,1.6-.5,2.5,2.5,0,0,1,1.2.3,2.3,2.3,0,0,1,.9.8,4.3,4.3,0,0,1,.5,1.3,8.5,8.5,0,0,1,.2,2,7.9,7.9,0,0,1-.3,2.4,3.1,3.1,0,0,1-.9,1.4,2.4,2.4,0,0,1-1.6.5,2.4,2.4,0,0,1-2-.9A5.7,5.7,0,0,1,193.1,43.2Zm1.1,0a5.4,5.4,0,0,0,.5,2.8,1.4,1.4,0,0,0,2.4,0,5.4,5.4,0,0,0,.5-2.8,5.4,5.4,0,0,0-.5-2.8,1.5,1.5,0,0,0-1.2-.7,1.4,1.4,0,0,0-1.2.6A5.4,5.4,0,0,0,194.2,43.2Z"/><path class="cls-2" d="M205,40.9h-1a2,2,0,0,0-.4-.9,1.4,1.4,0,0,0-1.1-.5,1.4,1.4,0,0,0-.9.3,2.4,2.4,0,0,0-.8,1.1,5.5,5.5,0,0,0-.3,2,2.4,2.4,0,0,1,.9-.9l1.2-.3a2.4,2.4,0,0,1,1.8.8,2.8,2.8,0,0,1,.7,2,3.3,3.3,0,0,1-.3,1.5,2.5,2.5,0,0,1-1,1.1,2.6,2.6,0,0,1-1.4.4,2.7,2.7,0,0,1-2.2-1,4.9,4.9,0,0,1-.8-3.2,5.7,5.7,0,0,1,.9-3.6,2.6,2.6,0,0,1,2.2-1,2.3,2.3,0,0,1,2.4,2.1Zm-4.3,3.7a2.4,2.4,0,0,0,.2,1,1.7,1.7,0,0,0,.6.8l.9.3a1.5,1.5,0,0,0,1.1-.5,2.1,2.1,0,0,0,.5-1.5,2,2,0,0,0-.5-1.4,1.6,1.6,0,0,0-1.2-.5,1.6,1.6,0,0,0-1.2.5A1.8,1.8,0,0,0,200.7,44.6Z"/><path class="cls-2" d="M205.3,47.6l2.5-8.9h.8l-2.5,8.9Z"/><path class="cls-2" d="M214.4,46.4v1h-5.7a1.9,1.9,0,0,1,.1-.7,3.9,3.9,0,0,1,.7-1.1l1.4-1.3a11.7,11.7,0,0,0,1.9-1.8,2.2,2.2,0,0,0,.5-1.3,1.4,1.4,0,0,0-.4-1.1,1.6,1.6,0,0,0-1.2-.4,1.6,1.6,0,0,0-1.2.5,1.7,1.7,0,0,0-.5,1.3h-1.1a2.7,2.7,0,0,1,.8-1.8,2.9,2.9,0,0,1,2-.6,2.7,2.7,0,0,1,2,.7,2.3,2.3,0,0,1,.7,1.7,2.6,2.6,0,0,1-.2,1,3.9,3.9,0,0,1-.7,1l-1.6,1.5-1.2,1.1-.4.6Z"/><path class="cls-2" d="M215.2,43.2a7.9,7.9,0,0,1,.3-2.5,3.1,3.1,0,0,1,.9-1.4,2.4,2.4,0,0,1,1.6-.5,2.5,2.5,0,0,1,1.2.3,2.3,2.3,0,0,1,.9.8,4.3,4.3,0,0,1,.5,1.3,8.5,8.5,0,0,1,.2,2,7.9,7.9,0,0,1-.3,2.4,3.1,3.1,0,0,1-.9,1.4,2.4,2.4,0,0,1-1.6.5,2.4,2.4,0,0,1-2-.9A5.7,5.7,0,0,1,215.2,43.2Zm1.1,0a5.4,5.4,0,0,0,.5,2.8,1.4,1.4,0,0,0,2.4,0,5.4,5.4,0,0,0,.5-2.8,5.4,5.4,0,0,0-.5-2.8,1.5,1.5,0,0,0-1.2-.7,1.4,1.4,0,0,0-1.2.6A5.4,5.4,0,0,0,216.3,43.2Z"/><path class="cls-2" d="M225.5,47.4h-1.1V40.7l-1,.7-1.1.5V41a6.4,6.4,0,0,0,1.5-1,4,4,0,0,0,.9-1.1h.7Z"/><path class="cls-2" d="M231.3,47.4V45.4h-3.7v-1l3.9-5.6h.9v5.6h1.2v1h-1.2v2.1Zm0-3V40.5l-2.7,3.9Z"/><path class="cls-2" d="M233.7,44.7v-.8h6.7v.8Z"/><path class="cls-2" d="M240.6,43.2a7.9,7.9,0,0,1,.3-2.5,3.1,3.1,0,0,1,.9-1.4,2.4,2.4,0,0,1,1.6-.5,2.5,2.5,0,0,1,1.2.3,2.3,2.3,0,0,1,.9.8,4.3,4.3,0,0,1,.5,1.3,8.5,8.5,0,0,1,.2,2,7.9,7.9,0,0,1-.3,2.4,3.1,3.1,0,0,1-.9,1.4,2.4,2.4,0,0,1-1.6.5,2.4,2.4,0,0,1-2-.9A5.7,5.7,0,0,1,240.6,43.2Zm1.1,0a5.4,5.4,0,0,0,.5,2.8,1.4,1.4,0,0,0,2.4,0,5.4,5.4,0,0,0,.5-2.8,5.4,5.4,0,0,0-.5-2.8,1.5,1.5,0,0,0-1.2-.7,1.4,1.4,0,0,0-1.2.6A5.4,5.4,0,0,0,241.7,43.2Z"/><path class="cls-2" d="M247,40v-1h5.6v.8a11.7,11.7,0,0,0-1.6,2.3,14.1,14.1,0,0,0-1.2,3,11.1,11.1,0,0,0-.4,2.4h-1.1a10.5,10.5,0,0,1,.4-2.4,12.9,12.9,0,0,1,1.1-2.8,11.9,11.9,0,0,1,1.5-2.2Z"/><path class="cls-2" d="M252.8,47.6l2.5-8.9h.8l-2.5,8.9Z"/><path class="cls-2" d="M261.8,46.4v1h-5.7a1.9,1.9,0,0,1,.1-.7,3.9,3.9,0,0,1,.7-1.1l1.4-1.3a11.7,11.7,0,0,0,1.9-1.8,2.2,2.2,0,0,0,.5-1.3,1.4,1.4,0,0,0-.4-1.1,1.6,1.6,0,0,0-1.2-.4,1.6,1.6,0,0,0-1.2.5,1.7,1.7,0,0,0-.5,1.3h-1.1a2.7,2.7,0,0,1,.8-1.8,2.9,2.9,0,0,1,2-.6,2.7,2.7,0,0,1,2,.7,2.3,2.3,0,0,1,.7,1.7,2.6,2.6,0,0,1-.2,1,3.9,3.9,0,0,1-.7,1l-1.6,1.5-1.2,1.1-.4.6Z"/><path class="cls-2" d="M262.7,43.2a7.9,7.9,0,0,1,.3-2.5,3.1,3.1,0,0,1,.9-1.4,2.4,2.4,0,0,1,1.6-.5,2.5,2.5,0,0,1,1.2.3,2.3,2.3,0,0,1,.9.8,4.3,4.3,0,0,1,.5,1.3,8.5,8.5,0,0,1,.2,2,7.9,7.9,0,0,1-.3,2.4,3.1,3.1,0,0,1-.9,1.4,2.4,2.4,0,0,1-1.6.5,2.4,2.4,0,0,1-2-.9A5.7,5.7,0,0,1,262.7,43.2Zm1.1,0a5.4,5.4,0,0,0,.5,2.8,1.4,1.4,0,0,0,2.4,0,5.4,5.4,0,0,0,.5-2.8,5.4,5.4,0,0,0-.5-2.8,1.5,1.5,0,0,0-1.2-.7,1.4,1.4,0,0,0-1.2.6A5.4,5.4,0,0,0,263.7,43.2Z"/><path class="cls-2" d="M273,47.4h-1.1V40.7l-1,.7-1.1.5V41a6.4,6.4,0,0,0,1.5-1,4,4,0,0,0,.9-1.1h.7Z"/><path class="cls-2" d="M278.7,47.4V45.4H275v-1l3.9-5.6h.9v5.6H281v1h-1.2v2.1Zm0-3V40.5L276,44.4Z"/><path class="cls-2" d="M61.5,36.7v-10h6.8v1.2H62.8V31h4.7v1.2H62.8v4.6Z"/><path class="cls-2" d="M69,33.1a3.7,3.7,0,0,1,1.1-3,3.4,3.4,0,0,1,2.3-.8,3.3,3.3,0,0,1,2.4,1,3.7,3.7,0,0,1,1,2.7,4.8,4.8,0,0,1-.4,2.2,3,3,0,0,1-1.2,1.2,3.6,3.6,0,0,1-1.8.4,3.3,3.3,0,0,1-2.5-1A3.9,3.9,0,0,1,69,33.1Zm1.3,0a3.1,3.1,0,0,0,.6,2.1,2,2,0,0,0,3.1,0,3.2,3.2,0,0,0,.6-2.1,3,3,0,0,0-.6-2,2,2,0,0,0-3.1,0A3.1,3.1,0,0,0,70.3,33.1Z"/><path class="cls-2" d="M79.6,35.6l.2,1.1h-.9l-1-.2a1.2,1.2,0,0,1-.5-.6,4.4,4.4,0,0,1-.2-1.5V30.4h-.9v-1h.9V27.6l1.2-.7v2.5h1.2v1H78.3v4.2a2.1,2.1,0,0,0,.1.7l.2.2h1Z"/><path class="cls-2" d="M79.9,33.1a3.7,3.7,0,0,1,1.1-3,3.4,3.4,0,0,1,2.3-.8,3.3,3.3,0,0,1,2.4,1,3.7,3.7,0,0,1,1,2.7,4.8,4.8,0,0,1-.4,2.2,3,3,0,0,1-1.2,1.2,3.6,3.6,0,0,1-1.8.4,3.3,3.3,0,0,1-2.5-1A3.9,3.9,0,0,1,79.9,33.1Zm1.3,0a3.1,3.1,0,0,0,.6,2.1,2,2,0,0,0,3.1,0,3.2,3.2,0,0,0,.6-2.1,3,3,0,0,0-.6-2,2,2,0,0,0-3.1,0A3.1,3.1,0,0,0,81.2,33.1Z"/><path class="cls-2" d="M87.6,37.3l1.2.2a1.1,1.1,0,0,0,.4.8,2.1,2.1,0,0,0,1.3.3,2.2,2.2,0,0,0,1.3-.3,1.7,1.7,0,0,0,.6-1,7.9,7.9,0,0,0,.1-1.6,2.5,2.5,0,0,1-2,1,2.7,2.7,0,0,1-2.3-1.1,4.2,4.2,0,0,1-.8-2.6,4.8,4.8,0,0,1,.4-1.9,3,3,0,0,1,1.1-1.4,2.9,2.9,0,0,1,1.7-.5,2.6,2.6,0,0,1,2.1,1v-.9h1.1v6.3a6,6,0,0,1-.3,2.4,2.5,2.5,0,0,1-1.1,1.1,3.8,3.8,0,0,1-1.8.4,3.5,3.5,0,0,1-2.1-.6A2,2,0,0,1,87.6,37.3Zm1-4.4a3.1,3.1,0,0,0,.6,2.1A1.9,1.9,0,0,0,92,35a3,3,0,0,0,.6-2,3,3,0,0,0-.6-2,1.8,1.8,0,0,0-1.4-.7,1.8,1.8,0,0,0-1.4.7A3,3,0,0,0,88.6,32.9Z"/><path class="cls-2" d="M95.2,36.7V29.4h1.1v1.1a3,3,0,0,1,.8-1l.8-.2a2.4,2.4,0,0,1,1.3.4l-.4,1.1-.9-.3-.7.2a1.3,1.3,0,0,0-.5.7,4.8,4.8,0,0,0-.2,1.4v3.8Z"/><path class="cls-2" d="M104.2,35.8a4.6,4.6,0,0,1-1.3.8l-1.4.2a2.6,2.6,0,0,1-1.8-.6,1.9,1.9,0,0,1-.6-1.5,2,2,0,0,1,.9-1.7l.9-.4,1.1-.2,2.2-.4v-.3a1.4,1.4,0,0,0-.3-1.1,2.1,2.1,0,0,0-1.4-.4,2.2,2.2,0,0,0-1.3.3,1.9,1.9,0,0,0-.6,1.1l-1.2-.2a3,3,0,0,1,.5-1.2,2.4,2.4,0,0,1,1.1-.7l1.6-.3,1.5.2a2,2,0,0,1,.9.5,1.9,1.9,0,0,1,.4.8,6.9,6.9,0,0,1,.1,1.1v1.6a17.4,17.4,0,0,0,.1,2.2,2.7,2.7,0,0,0,.3.9h-1.3A2.6,2.6,0,0,1,104.2,35.8Zm-.1-2.7-2,.5-1.1.2-.5.4a1.1,1.1,0,0,0,.2,1.4,1.6,1.6,0,0,0,1.1.3,2.5,2.5,0,0,0,1.3-.3,1.9,1.9,0,0,0,.8-.9,3,3,0,0,0,.2-1.2Z"/><path class="cls-2" d="M107.2,36.7V30.4h-1.1v-1h1.1v-.8a3.4,3.4,0,0,1,.1-1.1,1.6,1.6,0,0,1,.6-.8,2.3,2.3,0,0,1,1.3-.3h1.1l-.2,1.1h-.7a1.1,1.1,0,0,0-.8.2,1.3,1.3,0,0,0-.2.9v.7h1.4v1h-1.4v6.3Z"/><path class="cls-2" d="M110.4,28.1V26.7h1.2v1.4Zm0,8.6V29.4h1.2v7.3Z"/><path class="cls-2" d="M117.9,35.8a4.6,4.6,0,0,1-1.3.8l-1.4.2a2.6,2.6,0,0,1-1.8-.6,1.9,1.9,0,0,1-.6-1.5,2,2,0,0,1,.9-1.7l.9-.4,1.1-.2,2.2-.4v-.3a1.4,1.4,0,0,0-.3-1.1,2.1,2.1,0,0,0-1.4-.4,2.2,2.2,0,0,0-1.3.3,1.9,1.9,0,0,0-.6,1.1l-1.2-.2a3,3,0,0,1,.5-1.2,2.4,2.4,0,0,1,1.1-.7l1.6-.3,1.5.2a2,2,0,0,1,.9.5,1.9,1.9,0,0,1,.4.8A6.9,6.9,0,0,1,119,32v1.6a17.4,17.4,0,0,0,.1,2.2,2.7,2.7,0,0,0,.3.9h-1.3A2.6,2.6,0,0,1,117.9,35.8Zm-.1-2.7-2,.5-1.1.2-.5.4a1.1,1.1,0,0,0,.2,1.4,1.6,1.6,0,0,0,1.1.3,2.5,2.5,0,0,0,1.3-.3,1.9,1.9,0,0,0,.8-.9,3,3,0,0,0,.2-1.2Z"/><path class="cls-2" d="M128.8,36.7v-.9a2.3,2.3,0,0,1-2,1.1,2.9,2.9,0,0,1-1.6-.5A3.1,3.1,0,0,1,124,35a4.6,4.6,0,0,1-.4-2,5.2,5.2,0,0,1,.4-2,2.9,2.9,0,0,1,1.1-1.4,2.9,2.9,0,0,1,1.6-.5,2.4,2.4,0,0,1,2,1V26.7h1.2v10Zm-3.9-3.6a3.2,3.2,0,0,0,.6,2.1,1.8,1.8,0,0,0,1.4.7,1.7,1.7,0,0,0,1.4-.7,3,3,0,0,0,.6-2,3.4,3.4,0,0,0-.6-2.2,1.8,1.8,0,0,0-1.4-.7,1.7,1.7,0,0,0-1.4.7A3.3,3.3,0,0,0,124.9,33.1Z"/><path class="cls-2" d="M136.4,34.4l1.3.2a3.1,3.1,0,0,1-1.1,1.7,3.8,3.8,0,0,1-4.6-.4,3.8,3.8,0,0,1-.9-2.8,4,4,0,0,1,.9-2.8,3.2,3.2,0,0,1,2.4-1,3.1,3.1,0,0,1,2.4,1,3.9,3.9,0,0,1,.9,2.8v.3h-5.4a2.8,2.8,0,0,0,.7,1.8,2,2,0,0,0,1.5.6,1.9,1.9,0,0,0,1.2-.4A2.4,2.4,0,0,0,136.4,34.4Zm-4-2h4.1A2.5,2.5,0,0,0,136,31a1.9,1.9,0,0,0-1.5-.7,2,2,0,0,0-1.4.6A2.2,2.2,0,0,0,132.4,32.4Z"/><path class="cls-2" d="M147.3,34.4l1.3.2a3.1,3.1,0,0,1-1.1,1.7,3.8,3.8,0,0,1-4.6-.4,3.8,3.8,0,0,1-.9-2.8,4,4,0,0,1,.9-2.8,3.2,3.2,0,0,1,2.4-1,3.1,3.1,0,0,1,2.4,1,3.9,3.9,0,0,1,.9,2.8v.3h-5.4a2.8,2.8,0,0,0,.7,1.8,2,2,0,0,0,1.5.6,1.9,1.9,0,0,0,1.2-.4A2.4,2.4,0,0,0,147.3,34.4Zm-4-2h4.1a2.5,2.5,0,0,0-.5-1.4,1.9,1.9,0,0,0-1.5-.7,2,2,0,0,0-1.4.6A2.2,2.2,0,0,0,143.3,32.4Z"/><path class="cls-2" d="M149.3,34.5l1.2-.2a1.7,1.7,0,0,0,.6,1.1,2,2,0,0,0,1.3.4,1.9,1.9,0,0,0,1.3-.3,1,1,0,0,0,.4-.8.7.7,0,0,0-.4-.7l-1.3-.4-1.9-.6a1.8,1.8,0,0,1-1.1-1.7,1.9,1.9,0,0,1,.2-.9,2,2,0,0,1,.6-.7l.8-.4h1.1l1.5.2a2,2,0,0,1,1,.7,2.6,2.6,0,0,1,.4,1.1l-1.2.2a1.3,1.3,0,0,0-.5-.9,1.7,1.7,0,0,0-1.1-.3,2,2,0,0,0-1.2.3.8.8,0,0,0-.4.7.7.7,0,0,0,.2.4l.5.3,1.1.3,1.8.6a1.8,1.8,0,0,1,.8.6,1.8,1.8,0,0,1,.3,1.1,2.1,2.1,0,0,1-.4,1.2,2.3,2.3,0,0,1-1,.8,3.8,3.8,0,0,1-1.5.3,3.4,3.4,0,0,1-2.2-.6A2.7,2.7,0,0,1,149.3,34.5Z"/><path class="cls-2" d="M159.1,35.6l.2,1.1h-.9l-1-.2a1.2,1.2,0,0,1-.5-.6,4.4,4.4,0,0,1-.2-1.5V30.4h-.9v-1h.9V27.6l1.2-.7v2.5h1.2v1h-1.2v4.2a2.1,2.1,0,0,0,.1.7l.2.2h1Z"/><path class="cls-2" d="M164.7,36.7V35.6a2.7,2.7,0,0,1-2.3,1.2l-1.2-.2a2,2,0,0,1-.8-.6,2.3,2.3,0,0,1-.4-.9,6.2,6.2,0,0,1-.1-1.1V29.4h1.2v4a7.2,7.2,0,0,0,.1,1.3,1.3,1.3,0,0,0,.5.8,1.5,1.5,0,0,0,.9.3,2,2,0,0,0,1-.3,1.6,1.6,0,0,0,.7-.8,3.9,3.9,0,0,0,.2-1.4V29.4h1.2v7.3Zm-2.6-8.2.9-1.9h1.6l-1.5,1.9Z"/><path class="cls-2" d="M172,36.7v-.9a2.3,2.3,0,0,1-2,1.1,2.9,2.9,0,0,1-1.6-.5,3.1,3.1,0,0,1-1.1-1.3,4.6,4.6,0,0,1-.4-2,5.2,5.2,0,0,1,.4-2,2.9,2.9,0,0,1,1.1-1.4,2.9,2.9,0,0,1,1.6-.5,2.4,2.4,0,0,1,2,1V26.7h1.2v10Zm-3.9-3.6a3.2,3.2,0,0,0,.6,2.1,1.8,1.8,0,0,0,1.4.7,1.7,1.7,0,0,0,1.4-.7,3,3,0,0,0,.6-2,3.4,3.4,0,0,0-.6-2.2,1.8,1.8,0,0,0-1.4-.7,1.7,1.7,0,0,0-1.4.7A3.3,3.3,0,0,0,168.2,33.1Z"/><path class="cls-2" d="M174.7,28.1V26.7H176v1.4Zm0,8.6V29.4H176v7.3Z"/><path class="cls-2" d="M177,33.1a3.7,3.7,0,0,1,1.1-3,3.4,3.4,0,0,1,2.3-.8,3.3,3.3,0,0,1,2.4,1,3.7,3.7,0,0,1,1,2.7,4.8,4.8,0,0,1-.4,2.2,3,3,0,0,1-1.2,1.2,3.6,3.6,0,0,1-1.8.4,3.3,3.3,0,0,1-2.5-1A3.9,3.9,0,0,1,177,33.1Zm1.3,0a3.1,3.1,0,0,0,.6,2.1,2,2,0,0,0,3.1,0,3.2,3.2,0,0,0,.6-2.1,3,3,0,0,0-.6-2,2,2,0,0,0-3.1,0A3.1,3.1,0,0,0,178.3,33.1Z"/><path class="cls-2" d="M49.4,47.4V38.8h5.8v1H50.6v2.7h4v1h-4v3.9Z"/><path class="cls-2" d="M55.7,44.3a3.2,3.2,0,0,1,1-2.6,2.9,2.9,0,0,1,2-.7,2.8,2.8,0,0,1,2.1.8,3.2,3.2,0,0,1,.8,2.3,4.1,4.1,0,0,1-.4,1.9,2.6,2.6,0,0,1-1,1.1,3.1,3.1,0,0,1-1.5.4,2.8,2.8,0,0,1-2.1-.8A3.3,3.3,0,0,1,55.7,44.3Zm1.1,0a2.7,2.7,0,0,0,.5,1.8,1.7,1.7,0,0,0,2.6,0,2.7,2.7,0,0,0,.5-1.8,2.6,2.6,0,0,0-.5-1.7,1.7,1.7,0,0,0-2.6,0A2.6,2.6,0,0,0,56.8,44.3Z"/><path class="cls-2" d="M62.3,47.4V41.2h.9v.9a2.6,2.6,0,0,1,.7-.9l.7-.2a2.1,2.1,0,0,1,1.1.3l-.4,1-.8-.2-.6.2a1.1,1.1,0,0,0-.4.6,4.1,4.1,0,0,0-.2,1.2v3.3Z"/><path class="cls-2" d="M65.8,47.4V41.2h.9v.9a2.2,2.2,0,0,1,.8-.7,2.2,2.2,0,0,1,1.1-.3,2,2,0,0,1,1.1.3,1.5,1.5,0,0,1,.6.8,2.2,2.2,0,0,1,1.9-1.1,1.9,1.9,0,0,1,1.4.5,2.2,2.2,0,0,1,.5,1.6v4.3h-1V43.5a2.9,2.9,0,0,0-.1-.9.9.9,0,0,0-.4-.4l-.6-.2a1.5,1.5,0,0,0-1.1.4,1.9,1.9,0,0,0-.4,1.4v3.6H69.5v-4a1.8,1.8,0,0,0-.3-1.1,1,1,0,0,0-.8-.4l-.8.2a1.3,1.3,0,0,0-.5.7,3.9,3.9,0,0,0-.2,1.3v3.2Z"/><path class="cls-2" d="M79.4,46.7l-1.1.7-1.2.2a2.3,2.3,0,0,1-1.6-.5,1.7,1.7,0,0,1-.6-1.3,1.7,1.7,0,0,1,.2-.8l.5-.6.8-.3.9-.2,1.9-.4v-.3a1.2,1.2,0,0,0-.3-.9,1.8,1.8,0,0,0-1.2-.4,1.9,1.9,0,0,0-1.1.3,1.6,1.6,0,0,0-.5.9h-1a2.6,2.6,0,0,1,.5-1.1,2,2,0,0,1,.9-.6l1.4-.2,1.3.2.7.5a1.7,1.7,0,0,1,.3.7,5.9,5.9,0,0,1,.1,1v1.4a14.9,14.9,0,0,0,.1,1.9,2.3,2.3,0,0,0,.3.7H79.6A2.2,2.2,0,0,1,79.4,46.7Zm-.1-2.4-1.7.4-.9.2-.4.3a.9.9,0,0,0,.2,1.2,1.4,1.4,0,0,0,.9.3l1.1-.3a1.6,1.6,0,0,0,.7-.7,2.5,2.5,0,0,0,.2-1.1Z"/><path class="cls-2" d="M85.6,45.1h1a2.7,2.7,0,0,1-.9,1.7,2.5,2.5,0,0,1-1.7.6,2.7,2.7,0,0,1-2.1-.8,3.4,3.4,0,0,1-.8-2.4,4.3,4.3,0,0,1,.3-1.8,2.3,2.3,0,0,1,1-1.1,3,3,0,0,1,1.5-.4,2.6,2.6,0,0,1,1.7.5,2.4,2.4,0,0,1,.8,1.5l-1,.2a1.7,1.7,0,0,0-.5-.9,1.3,1.3,0,0,0-.9-.3,1.6,1.6,0,0,0-1.3.6,2.7,2.7,0,0,0-.5,1.8,2.8,2.8,0,0,0,.5,1.8,1.6,1.6,0,0,0,1.3.6,1.5,1.5,0,0,0,1-.4A1.9,1.9,0,0,0,85.6,45.1Zm-2.4,3.1.3-1h.8l-.2.6.8.3a.8.8,0,0,1,.3.6,1,1,0,0,1-.4.8,2,2,0,0,1-1.3.3h-.8V49h.6l.8-.2a.3.3,0,0,0,.2-.3v-.2h-.9Z"/><path class="cls-2" d="M91.1,46.7l-1.1.7-1.2.2a2.3,2.3,0,0,1-1.6-.5,1.7,1.7,0,0,1-.6-1.3,1.7,1.7,0,0,1,.2-.8l.5-.6.8-.3.9-.2,1.9-.4v-.3a1.2,1.2,0,0,0-.3-.9,1.8,1.8,0,0,0-1.2-.4,1.9,1.9,0,0,0-1.1.3,1.6,1.6,0,0,0-.5.9h-1a2.6,2.6,0,0,1,.5-1.1,2,2,0,0,1,.9-.6l1.4-.2,1.3.2.7.5a1.7,1.7,0,0,1,.3.7,5.9,5.9,0,0,1,.1,1v1.4a14.9,14.9,0,0,0,.1,1.9,2.3,2.3,0,0,0,.3.7H91.3A2.2,2.2,0,0,1,91.1,46.7Zm-3.5-6.4a1.3,1.3,0,0,1,.3-1,1.1,1.1,0,0,1,.9-.4l1,.3.6.2h.3a.8.8,0,0,0,.1-.4h.8a1.5,1.5,0,0,1-.3,1,1.1,1.1,0,0,1-.8.3l-1-.3-.6-.2h-.3a.6.6,0,0,0-.1.4Zm3.4,4-1.7.4-.9.2-.4.3a.9.9,0,0,0,.2,1.2,1.4,1.4,0,0,0,.9.3l1.1-.3a1.6,1.6,0,0,0,.7-.7,2.5,2.5,0,0,0,.2-1.1Z"/><path class="cls-2" d="M92.8,44.3a3.2,3.2,0,0,1,1-2.6,2.9,2.9,0,0,1,2-.7,2.8,2.8,0,0,1,2.1.8,3.2,3.2,0,0,1,.8,2.3,4.1,4.1,0,0,1-.4,1.9,2.6,2.6,0,0,1-1,1.1,3.1,3.1,0,0,1-1.5.4,2.8,2.8,0,0,1-2.1-.8A3.3,3.3,0,0,1,92.8,44.3Zm1.1,0a2.7,2.7,0,0,0,.5,1.8,1.7,1.7,0,0,0,2.6,0,2.7,2.7,0,0,0,.5-1.8,2.6,2.6,0,0,0-.5-1.7,1.7,1.7,0,0,0-2.6,0A2.6,2.6,0,0,0,93.9,44.3Z"/><path class="cls-2" d="M106.3,47.4v-.8a1.9,1.9,0,0,1-1.7.9,2.4,2.4,0,0,1-1.4-.4,2.7,2.7,0,0,1-1-1.1,4,4,0,0,1-.3-1.7,4.4,4.4,0,0,1,.3-1.7,2.4,2.4,0,0,1,.9-1.2,2.5,2.5,0,0,1,1.4-.4l1,.2.7.6V38.8h1v8.6ZM103,44.3a2.7,2.7,0,0,0,.5,1.8,1.5,1.5,0,0,0,1.2.6,1.5,1.5,0,0,0,1.2-.6,2.6,2.6,0,0,0,.5-1.7,2.9,2.9,0,0,0-.5-1.9,1.5,1.5,0,0,0-1.2-.6,1.5,1.5,0,0,0-1.2.6A2.8,2.8,0,0,0,103,44.3Z"/><path class="cls-2" d="M112.7,45.4h1.1a2.7,2.7,0,0,1-1,1.5,3.2,3.2,0,0,1-3.9-.3,3.3,3.3,0,0,1-.8-2.4,3.4,3.4,0,0,1,.8-2.4,2.7,2.7,0,0,1,2.1-.9,2.7,2.7,0,0,1,2,.8,3.4,3.4,0,0,1,.8,2.4v.3h-4.6a2.4,2.4,0,0,0,.6,1.6,1.7,1.7,0,0,0,1.3.5,1.6,1.6,0,0,0,1-.3A2,2,0,0,0,112.7,45.4Zm-3.5-1.7h3.5a2.1,2.1,0,0,0-.4-1.2,1.6,1.6,0,0,0-1.3-.6,1.7,1.7,0,0,0-1.2.5A1.9,1.9,0,0,0,109.3,43.7Z"/><path class="cls-2" d="M121.6,45.1h1a2.7,2.7,0,0,1-.9,1.7,2.5,2.5,0,0,1-1.7.6,2.7,2.7,0,0,1-2.1-.8,3.4,3.4,0,0,1-.8-2.4,4.3,4.3,0,0,1,.3-1.8,2.3,2.3,0,0,1,1-1.1,3,3,0,0,1,1.5-.4,2.6,2.6,0,0,1,1.7.5,2.4,2.4,0,0,1,.8,1.5l-1,.2a1.7,1.7,0,0,0-.5-.9,1.3,1.3,0,0,0-.9-.3,1.6,1.6,0,0,0-1.3.6,2.7,2.7,0,0,0-.5,1.8,2.8,2.8,0,0,0,.5,1.8,1.6,1.6,0,0,0,1.3.6,1.5,1.5,0,0,0,1-.4A1.9,1.9,0,0,0,121.6,45.1Z"/><path class="cls-2" d="M127.1,47.4v-.9a2.3,2.3,0,0,1-2,1.1l-1-.2-.7-.5a2,2,0,0,1-.3-.8,5.4,5.4,0,0,1-.1-1V41.2h1.1v3.5a6.2,6.2,0,0,0,.1,1.1,1.1,1.1,0,0,0,.4.7l.8.2.9-.2a1.4,1.4,0,0,0,.6-.7,3.3,3.3,0,0,0,.2-1.2V41.2H128v6.2Z"/><path class="cls-2" d="M129.2,47.4V41.2h.9v.9a2.6,2.6,0,0,1,.7-.9l.7-.2a2.1,2.1,0,0,1,1.1.3l-.4,1-.8-.2-.6.2a1.1,1.1,0,0,0-.4.6,4.1,4.1,0,0,0-.2,1.2v3.3Z"/><path class="cls-2" d="M135,46.5l.2.9h-.8l-.9-.2a1,1,0,0,1-.4-.5,3.8,3.8,0,0,1-.1-1.2V42h-.8v-.8h.8V39.7l1-.6v2.2H135V42H134v3.6a1.8,1.8,0,0,0,.1.6l.2.2h.8Z"/><path class="cls-2" d="M139.7,46.7l-1.1.7-1.2.2a2.3,2.3,0,0,1-1.6-.5,1.7,1.7,0,0,1-.6-1.3,1.7,1.7,0,0,1,.2-.8l.5-.6.8-.3.9-.2,1.9-.4v-.3a1.2,1.2,0,0,0-.3-.9,1.8,1.8,0,0,0-1.2-.4,1.9,1.9,0,0,0-1.1.3,1.6,1.6,0,0,0-.5.9h-1a2.6,2.6,0,0,1,.5-1.1,2,2,0,0,1,.9-.6l1.4-.2,1.3.2.7.5a1.7,1.7,0,0,1,.3.7,5.9,5.9,0,0,1,.1,1v1.4a14.9,14.9,0,0,0,.1,1.9,2.3,2.3,0,0,0,.3.7h-1.1A2.2,2.2,0,0,1,139.7,46.7Zm-.1-2.4-1.7.4-.9.2-.4.3a.9.9,0,0,0,.2,1.2,1.4,1.4,0,0,0,.9.3l1.1-.3a1.6,1.6,0,0,0,.7-.7,2.5,2.5,0,0,0,.2-1.1Z"/><path class="cls-2" d="M148.7,47.4v-.8a1.9,1.9,0,0,1-1.7.9,2.4,2.4,0,0,1-1.4-.4,2.7,2.7,0,0,1-1-1.1,4,4,0,0,1-.3-1.7,4.4,4.4,0,0,1,.3-1.7,2.4,2.4,0,0,1,.9-1.2,2.5,2.5,0,0,1,1.4-.4l1,.2.7.6V38.8h1v8.6Zm-3.3-3.1a2.7,2.7,0,0,0,.5,1.8,1.5,1.5,0,0,0,1.2.6,1.5,1.5,0,0,0,1.2-.6,2.6,2.6,0,0,0,.5-1.7,2.9,2.9,0,0,0-.5-1.9,1.5,1.5,0,0,0-1.2-.6,1.5,1.5,0,0,0-1.2.6A2.8,2.8,0,0,0,145.3,44.3Z"/><path class="cls-2" d="M154.9,47.4v-.9a2.3,2.3,0,0,1-2,1.1l-1-.2-.7-.5a2,2,0,0,1-.3-.8,5.4,5.4,0,0,1-.1-1V41.2h1.1v3.5a6.2,6.2,0,0,0,.1,1.1,1.1,1.1,0,0,0,.4.7l.8.2.9-.2a1.4,1.4,0,0,0,.6-.7,3.3,3.3,0,0,0,.2-1.2V41.2h1.1v6.2Z"/><path class="cls-2" d="M157,47.4V41.2h.9v.9a2.6,2.6,0,0,1,.7-.9l.7-.2a2.1,2.1,0,0,1,1.1.3l-.4,1-.8-.2-.6.2a1.1,1.1,0,0,0-.4.6,4.1,4.1,0,0,0-.2,1.2v3.3Z"/><path class="cls-2" d="M164.6,46.7l-1.1.7-1.2.2a2.3,2.3,0,0,1-1.6-.5,1.7,1.7,0,0,1-.6-1.3,1.7,1.7,0,0,1,.2-.8l.5-.6.8-.3.9-.2,1.9-.4v-.3a1.2,1.2,0,0,0-.3-.9,1.8,1.8,0,0,0-1.2-.4,1.9,1.9,0,0,0-1.1.3,1.6,1.6,0,0,0-.5.9h-1a2.6,2.6,0,0,1,.5-1.1,2,2,0,0,1,.9-.6l1.4-.2,1.3.2.7.5a1.7,1.7,0,0,1,.3.7,5.9,5.9,0,0,1,.1,1v1.4a14.9,14.9,0,0,0,.1,1.9,2.3,2.3,0,0,0,.3.7h-1.1A2.2,2.2,0,0,1,164.6,46.7Zm-.1-2.4-1.7.4-.9.2-.4.3a.9.9,0,0,0,.2,1.2,1.4,1.4,0,0,0,.9.3l1.1-.3a1.6,1.6,0,0,0,.7-.7,2.5,2.5,0,0,0,.2-1.1Z"/><path class="cls-2" d="M170.8,45.1h1A2.7,2.7,0,0,1,171,47a2.5,2.5,0,0,1-1.7.6,2.7,2.7,0,0,1-2.1-.8,3.4,3.4,0,0,1-.8-2.4,4.3,4.3,0,0,1,.3-1.8,2.3,2.3,0,0,1,1-1.1,3,3,0,0,1,1.5-.4,2.6,2.6,0,0,1,1.7.5,2.4,2.4,0,0,1,.8,1.5l-1,.2a1.7,1.7,0,0,0-.5-.9,1.3,1.3,0,0,0-.9-.3,1.6,1.6,0,0,0-1.3.6,2.7,2.7,0,0,0-.5,1.8,2.8,2.8,0,0,0,.5,1.8,1.6,1.6,0,0,0,1.3.6,1.5,1.5,0,0,0,1-.4A1.9,1.9,0,0,0,170.8,45.1Zm-2.4,3.1.3-1h.8l-.2.6.8.3a.8.8,0,0,1,.3.6,1,1,0,0,1-.4.8,2,2,0,0,1-1.3.3h-.8V49h.6l.8-.2a.3.3,0,0,0,.2-.3v-.2h-.9Z"/><path class="cls-2" d="M176.3,46.7l-1.1.7-1.2.2a2.3,2.3,0,0,1-1.6-.5,1.7,1.7,0,0,1-.6-1.3,1.7,1.7,0,0,1,.2-.8l.5-.6.8-.3.9-.2,1.9-.4v-.3a1.2,1.2,0,0,0-.3-.9,1.8,1.8,0,0,0-1.2-.4,1.9,1.9,0,0,0-1.1.3,1.6,1.6,0,0,0-.5.9h-1a2.6,2.6,0,0,1,.5-1.1,2,2,0,0,1,.9-.6l1.4-.2,1.3.2.7.5a1.7,1.7,0,0,1,.3.7,5.9,5.9,0,0,1,.1,1v1.4a14.9,14.9,0,0,0,.1,1.9,2.3,2.3,0,0,0,.3.7h-1.1A2.2,2.2,0,0,1,176.3,46.7Zm-3.5-6.4a1.3,1.3,0,0,1,.3-1,1.1,1.1,0,0,1,.9-.4l1,.3.6.2h.3a.8.8,0,0,0,.1-.4h.8a1.5,1.5,0,0,1-.3,1,1.1,1.1,0,0,1-.8.3l-1-.3-.6-.2h-.3a.6.6,0,0,0-.1.4Zm3.4,4-1.7.4-.9.2-.4.3a.9.9,0,0,0,.2,1.2,1.4,1.4,0,0,0,.9.3l1.1-.3a1.6,1.6,0,0,0,.7-.7,2.5,2.5,0,0,0,.2-1.1Z"/><path class="cls-2" d="M178.1,44.3a3.2,3.2,0,0,1,1-2.6,2.9,2.9,0,0,1,2-.7,2.8,2.8,0,0,1,2.1.8,3.2,3.2,0,0,1,.8,2.3,4.1,4.1,0,0,1-.4,1.9,2.6,2.6,0,0,1-1,1.1,3.1,3.1,0,0,1-1.5.4,2.8,2.8,0,0,1-2.1-.8A3.3,3.3,0,0,1,178.1,44.3Zm1.1,0a2.7,2.7,0,0,0,.5,1.8,1.7,1.7,0,0,0,2.6,0,2.7,2.7,0,0,0,.5-1.8,2.6,2.6,0,0,0-.5-1.7,1.7,1.7,0,0,0-2.6,0A2.6,2.6,0,0,0,179.1,44.3Z"/><path class="cls-3" d="M286.3,31.6H195.4a.6.6,0,0,0-.7.4,1.2,1.2,0,0,1-1.4.6,1.3,1.3,0,0,1-.9-1.2,1.2,1.2,0,0,1,2.4-.5.5.5,0,0,0,.5.3h99c.7,0,.7,0,.7-.7s0-.4.1-.6A9.7,9.7,0,1,1,304.6,41a9.4,9.4,0,0,1-7.2-3.2,9.1,9.1,0,0,1-2.4-5.8c0-.2,0-.4-.3-.4h-8.3Zm18.2,8.8a9.1,9.1,0,1,0-9-9.6A9.1,9.1,0,0,0,304.5,40.4Z"/><path class="cls-4" d="M286.6,31.1h-.3a17.7,17.7,0,0,1,5-12.3,17.7,17.7,0,0,1,11-5.6,18.4,18.4,0,0,1,20.3,14.4,17.8,17.8,0,0,1-3.5,15,17.7,17.7,0,0,1-8.8,6.2,18.3,18.3,0,0,1-22.1-9.2,16.9,16.9,0,0,1-1.9-6.9V31.6h.3a17.1,17.1,0,0,0,1.9,7.9,17.8,17.8,0,0,0,8.8,8.4,18,18,0,0,0,21.6-5.4A17.5,17.5,0,0,0,322.4,28a17.3,17.3,0,0,0-6.2-10.5,17.6,17.6,0,0,0-15-3.8,17.3,17.3,0,0,0-9.7,5.4A17.5,17.5,0,0,0,286.6,31.1Z"/><path class="cls-4" d="M281.7,31.1h-.3a21.5,21.5,0,0,1,2.4-10A23.5,23.5,0,0,1,301.7,8.2H304c.1,0,.3-.1.3.1s-.2.2-.3.2a22.9,22.9,0,0,0-9.8,2.5,22.7,22.7,0,0,0-4.5,3.1,22.8,22.8,0,0,0-7.9,15.3C281.7,29.9,281.7,30.5,281.7,31.1Z"/><path class="cls-3" d="M304.6,38.3a7,7,0,1,1,6.9-6.9A7,7,0,0,1,304.6,38.3Zm-6.4-7a6.4,6.4,0,1,0,6.5-6.4A6.4,6.4,0,0,0,298.2,31.3Z"/><path class="cls-3" d="M308.1,31.4a3.5,3.5,0,1,1-3.4-3.5A3.5,3.5,0,0,1,308.1,31.4Z"/></g></g></svg>