<svg xmlns="http://www.w3.org/2000/svg" viewBox="0 0 330 115"><defs><style>.cls-1{fill:none;stroke:#7c7c7c;stroke-miterlimit:10;stroke-width:2px;}.cls-2{fill:#585857;}.cls-3{fill:#478ac9;}.cls-4{fill:#77aad9;}</style></defs><title>foto1Prancheta 1</title><g id="Camada_4" data-name="Camada 4"><line class="cls-1" x1="303.6" y1="174.2" x2="304.1" y2="-13.5"/></g><g id="Camada_3" data-name="Camada 3"><g id="fotoi"><path d="M38.5,61V52.4h6.2v1H39.6v2.6h4.8v1H39.6V60h5.3v1Z"/><path d="M45.5,59.2l1-.2a1.5,1.5,0,0,0,.5,1,1.7,1.7,0,0,0,1.1.3,1.6,1.6,0,0,0,1.1-.3.9.9,0,0,0,.4-.7.6.6,0,0,0-.3-.6l-1.1-.4-1.6-.5a1.5,1.5,0,0,1-.9-1.4,1.6,1.6,0,0,1,.2-.8l.5-.6.7-.3H48l1.3.2a1.7,1.7,0,0,1,.8.6,2.2,2.2,0,0,1,.4,1h-1a1.1,1.1,0,0,0-.4-.7,1.5,1.5,0,0,0-1-.3,1.7,1.7,0,0,0-1,.2.7.7,0,0,0-.3.6.6.6,0,0,0,.1.4l.4.3.9.3,1.6.5a1.6,1.6,0,0,1,.7.6,1.5,1.5,0,0,1,.3.9,1.8,1.8,0,0,1-.3,1,2,2,0,0,1-.9.7l-1.3.3a2.9,2.9,0,0,1-1.8-.5A2.3,2.3,0,0,1,45.5,59.2Z"/><path d="M55.7,58.7h1a2.7,2.7,0,0,1-.9,1.7,2.5,2.5,0,0,1-1.7.6,2.7,2.7,0,0,1-2.1-.8,3.4,3.4,0,0,1-.8-2.4,4.3,4.3,0,0,1,.3-1.8,2.3,2.3,0,0,1,1-1.1,3,3,0,0,1,1.5-.4,2.6,2.6,0,0,1,1.7.5,2.4,2.4,0,0,1,.8,1.5l-1,.2a1.7,1.7,0,0,0-.5-.9,1.3,1.3,0,0,0-.9-.3,1.6,1.6,0,0,0-1.3.6,2.7,2.7,0,0,0-.5,1.8,2.8,2.8,0,0,0,.5,1.8,1.6,1.6,0,0,0,1.3.6,1.5,1.5,0,0,0,1-.4A1.9,1.9,0,0,0,55.7,58.7Z"/><path d="M56.8,57.9a3.2,3.2,0,0,1,1-2.6,2.9,2.9,0,0,1,2-.7,2.8,2.8,0,0,1,2.1.8,3.2,3.2,0,0,1,.8,2.3,4.1,4.1,0,0,1-.4,1.9,2.6,2.6,0,0,1-1,1.1,3.1,3.1,0,0,1-1.5.4,2.8,2.8,0,0,1-2.1-.8A3.3,3.3,0,0,1,56.8,57.9Zm1.1,0a2.7,2.7,0,0,0,.5,1.8,1.7,1.7,0,0,0,2.6,0,2.7,2.7,0,0,0,.5-1.8,2.6,2.6,0,0,0-.5-1.7,1.7,1.7,0,0,0-2.6,0A2.6,2.6,0,0,0,57.9,57.9Z"/><path d="M63.5,61V52.4h1.1V61Z"/><path d="M69.9,60.3l-1.1.7-1.2.2a2.3,2.3,0,0,1-1.6-.5,1.7,1.7,0,0,1-.6-1.3,1.7,1.7,0,0,1,.2-.8l.5-.6.8-.3.9-.2,1.9-.4v-.3a1.2,1.2,0,0,0-.3-.9,1.8,1.8,0,0,0-1.2-.4,1.9,1.9,0,0,0-1.1.3,1.6,1.6,0,0,0-.5.9h-1a2.6,2.6,0,0,1,.5-1.1,2,2,0,0,1,.9-.6l1.4-.2,1.3.2.7.5a1.7,1.7,0,0,1,.3.7,5.9,5.9,0,0,1,.1,1v1.4a14.9,14.9,0,0,0,.1,1.9,2.3,2.3,0,0,0,.3.7H70.1A2.2,2.2,0,0,1,69.9,60.3Zm-.1-2.4-1.7.4-.9.2-.4.3a.9.9,0,0,0,.2,1.2,1.4,1.4,0,0,0,.9.3l1.1-.3a1.6,1.6,0,0,0,.7-.7,2.5,2.5,0,0,0,.2-1.1Z"/><path d="M75.3,61V52.4h4.5l1.1.4a2.1,2.1,0,0,1,.7.8,2.8,2.8,0,0,1-.4,3,3.3,3.3,0,0,1-2.5.8H76.4V61Zm1.1-4.5h2.2a2.4,2.4,0,0,0,1.6-.4,1.5,1.5,0,0,0,.5-1.2,1.6,1.6,0,0,0-.3-.9,1.3,1.3,0,0,0-.7-.5H76.4Z"/><path d="M82.8,61V54.8h.9v.9a2.6,2.6,0,0,1,.7-.9l.7-.2a2.1,2.1,0,0,1,1.1.3l-.4,1-.8-.2-.6.2a1.1,1.1,0,0,0-.4.6,4.1,4.1,0,0,0-.2,1.2V61Z"/><path d="M86,57.9a3.2,3.2,0,0,1,1-2.6,2.9,2.9,0,0,1,2-.7,2.8,2.8,0,0,1,2.1.8,3.2,3.2,0,0,1,.8,2.3,4.1,4.1,0,0,1-.4,1.9,2.6,2.6,0,0,1-1,1.1,3.1,3.1,0,0,1-1.5.4,2.8,2.8,0,0,1-2.1-.8A3.3,3.3,0,0,1,86,57.9Zm1.1,0a2.7,2.7,0,0,0,.5,1.8,1.7,1.7,0,0,0,2.6,0,2.7,2.7,0,0,0,.5-1.8,2.6,2.6,0,0,0-.5-1.7,1.7,1.7,0,0,0-2.6,0A2.6,2.6,0,0,0,87.1,57.9Z"/><path d="M93,61V55.6h-.9v-.8H93v-.7a2.9,2.9,0,0,1,.1-.9,1.3,1.3,0,0,1,.5-.7,1.9,1.9,0,0,1,1.1-.3h1l-.2.9h-.6l-.7.2a1.1,1.1,0,0,0-.2.8v.6h1.2v.8H94V61Z"/><path d="M95.7,53.6V52.4h1.1v1.2Zm0,7.4V54.8h1.1V61Z"/><path d="M97.6,59.2l1-.2a1.5,1.5,0,0,0,.5,1,1.7,1.7,0,0,0,1.1.3,1.6,1.6,0,0,0,1.1-.3.9.9,0,0,0,.4-.7.6.6,0,0,0-.3-.6l-1.1-.4-1.6-.5a1.5,1.5,0,0,1-.9-1.4,1.6,1.6,0,0,1,.2-.8l.5-.6.7-.3h.9l1.3.2a1.7,1.7,0,0,1,.8.6,2.2,2.2,0,0,1,.4,1h-1a1.1,1.1,0,0,0-.4-.7,1.5,1.5,0,0,0-1-.3,1.7,1.7,0,0,0-1,.2.7.7,0,0,0-.3.6.6.6,0,0,0,.1.4l.4.3.9.3,1.6.5a1.6,1.6,0,0,1,.7.6,1.5,1.5,0,0,1,.3.9,1.8,1.8,0,0,1-.3,1,2,2,0,0,1-.9.7l-1.3.3a2.9,2.9,0,0,1-1.8-.5A2.3,2.3,0,0,1,97.6,59.2Z"/><path d="M103.2,59.2l1-.2a1.5,1.5,0,0,0,.5,1,1.7,1.7,0,0,0,1.1.3A1.6,1.6,0,0,0,107,60a.9.9,0,0,0,.4-.7.6.6,0,0,0-.3-.6l-1.1-.4-1.6-.5a1.5,1.5,0,0,1-.9-1.4,1.6,1.6,0,0,1,.2-.8l.5-.6.7-.3h.9l1.3.2a1.7,1.7,0,0,1,.8.6,2.2,2.2,0,0,1,.4,1h-1a1.1,1.1,0,0,0-.4-.7,1.5,1.5,0,0,0-1-.3,1.7,1.7,0,0,0-1,.2.7.7,0,0,0-.3.6.6.6,0,0,0,.1.4l.4.3.9.3,1.6.5a1.6,1.6,0,0,1,.7.6,1.5,1.5,0,0,1,.3.9,1.8,1.8,0,0,1-.3,1,2,2,0,0,1-.9.7l-1.3.3a2.9,2.9,0,0,1-1.8-.5A2.3,2.3,0,0,1,103.2,59.2Z"/><path d="M109.3,53.6V52.4h1.1v1.2Zm0,7.4V54.8h1.1V61Z"/><path d="M111.2,57.9a3.2,3.2,0,0,1,1-2.6,2.9,2.9,0,0,1,2-.7,2.8,2.8,0,0,1,2.1.8,3.2,3.2,0,0,1,.8,2.3,4.1,4.1,0,0,1-.4,1.9,2.6,2.6,0,0,1-1,1.1,3.1,3.1,0,0,1-1.5.4,2.8,2.8,0,0,1-2.1-.8A3.3,3.3,0,0,1,111.2,57.9Zm1.1,0a2.7,2.7,0,0,0,.5,1.8,1.7,1.7,0,0,0,2.6,0,2.7,2.7,0,0,0,.5-1.8,2.6,2.6,0,0,0-.5-1.7,1.7,1.7,0,0,0-2.6,0A2.6,2.6,0,0,0,112.3,57.9Z"/><path d="M117.9,61V54.8h.9v.9a2.2,2.2,0,0,1,2-1l1,.2a1.6,1.6,0,0,1,.7.5,2,2,0,0,1,.3.8,6,6,0,0,1,.1,1V61h-1.1V57.2a2.8,2.8,0,0,0-.1-1,1,1,0,0,0-.4-.5l-.7-.2a1.7,1.7,0,0,0-1.2.4,2.1,2.1,0,0,0-.5,1.6V61Z"/><path d="M128.3,60.3l-1.1.7-1.2.2a2.3,2.3,0,0,1-1.6-.5,1.7,1.7,0,0,1-.6-1.3,1.7,1.7,0,0,1,.2-.8l.5-.6.8-.3.9-.2,1.9-.4v-.3a1.2,1.2,0,0,0-.3-.9,1.8,1.8,0,0,0-1.2-.4,1.9,1.9,0,0,0-1.1.3,1.6,1.6,0,0,0-.5.9h-1a2.6,2.6,0,0,1,.5-1.1,2,2,0,0,1,.9-.6l1.4-.2,1.3.2.7.5a1.7,1.7,0,0,1,.3.7,5.9,5.9,0,0,1,.1,1v1.4a14.9,14.9,0,0,0,.1,1.9,2.3,2.3,0,0,0,.3.7h-1.1A2.2,2.2,0,0,1,128.3,60.3Zm-.1-2.4-1.7.4-.9.2-.4.3a.9.9,0,0,0,.2,1.2,1.4,1.4,0,0,0,.9.3l1.1-.3a1.6,1.6,0,0,0,.7-.7,2.5,2.5,0,0,0,.2-1.1Z"/><path d="M130.5,61V52.4h1.1V61Z"/><path d="M139.9,61v-.8a1.9,1.9,0,0,1-1.7.9,2.4,2.4,0,0,1-1.4-.4,2.7,2.7,0,0,1-1-1.1,4,4,0,0,1-.3-1.7,4.4,4.4,0,0,1,.3-1.7,2.4,2.4,0,0,1,.9-1.2,2.5,2.5,0,0,1,1.4-.4l1,.2.7.6V52.4h1V61Zm-3.3-3.1a2.7,2.7,0,0,0,.5,1.8,1.5,1.5,0,0,0,1.2.6,1.5,1.5,0,0,0,1.2-.6,2.6,2.6,0,0,0,.5-1.7,2.9,2.9,0,0,0-.5-1.9,1.5,1.5,0,0,0-1.2-.6,1.5,1.5,0,0,0-1.2.6A2.8,2.8,0,0,0,136.5,57.9Z"/><path d="M146.4,59h1.1a2.7,2.7,0,0,1-1,1.5,3.2,3.2,0,0,1-3.9-.3,3.3,3.3,0,0,1-.8-2.4,3.4,3.4,0,0,1,.8-2.4,2.7,2.7,0,0,1,2.1-.9,2.7,2.7,0,0,1,2,.8,3.4,3.4,0,0,1,.8,2.4v.3h-4.6a2.4,2.4,0,0,0,.6,1.6,1.7,1.7,0,0,0,1.3.5,1.6,1.6,0,0,0,1-.3A2,2,0,0,0,146.4,59Zm-3.5-1.7h3.5a2.1,2.1,0,0,0-.4-1.2,1.6,1.6,0,0,0-1.3-.6,1.7,1.7,0,0,0-1.2.5A1.9,1.9,0,0,0,142.9,57.3Z"/><path d="M151.5,61V52.4h3.2a4,4,0,0,1,1.6.3,2,2,0,0,1,.9.8,2.1,2.1,0,0,1,.3,1.1,1.9,1.9,0,0,1-.3,1,2.1,2.1,0,0,1-.9.8,2.2,2.2,0,0,1,1.2.8,2.1,2.1,0,0,1,.4,1.3,2.5,2.5,0,0,1-.3,1.1,2.2,2.2,0,0,1-.6.8l-.9.4h-4.7Zm1.1-5h2.9a1.2,1.2,0,0,0,.7-.4,1.2,1.2,0,0,0,.2-.7,1.4,1.4,0,0,0-.2-.8,1,1,0,0,0-.6-.4h-3Zm0,4h2.9l.7-.2.4-.5a1.5,1.5,0,0,0,.2-.7,1.4,1.4,0,0,0-.2-.8,1.3,1.3,0,0,0-.7-.5h-3.2Z"/><path d="M159.1,61V54.8h.9v.9a2.6,2.6,0,0,1,.7-.9l.7-.2a2.1,2.1,0,0,1,1.1.3l-.4,1-.8-.2-.6.2a1.1,1.1,0,0,0-.4.6,4.1,4.1,0,0,0-.2,1.2V61Z"/><path d="M166.8,60.3l-1.1.7-1.2.2a2.3,2.3,0,0,1-1.6-.5,1.7,1.7,0,0,1-.6-1.3,1.7,1.7,0,0,1,.2-.8l.5-.6.8-.3.9-.2,1.9-.4v-.3a1.2,1.2,0,0,0-.3-.9,1.8,1.8,0,0,0-1.2-.4,1.9,1.9,0,0,0-1.1.3,1.6,1.6,0,0,0-.5.9h-1a2.6,2.6,0,0,1,.5-1.1,2,2,0,0,1,.9-.6l1.4-.2,1.3.2.7.5a1.7,1.7,0,0,1,.3.7,5.9,5.9,0,0,1,.1,1v1.4a14.9,14.9,0,0,0,.1,1.9,2.3,2.3,0,0,0,.3.7H167A2.2,2.2,0,0,1,166.8,60.3Zm-.1-2.4-1.7.4-.9.2-.4.3a.9.9,0,0,0,.2,1.2,1.4,1.4,0,0,0,.9.3l1.1-.3a1.6,1.6,0,0,0,.7-.7,2.5,2.5,0,0,0,.2-1.1Z"/><path d="M168.8,61.5l1,.2a1,1,0,0,0,.4.7,1.8,1.8,0,0,0,1.1.3,1.9,1.9,0,0,0,1.1-.3,1.4,1.4,0,0,0,.5-.8,6.7,6.7,0,0,0,.1-1.4,2.2,2.2,0,0,1-1.7.8,2.3,2.3,0,0,1-2-.9,3.6,3.6,0,0,1-.7-2.2,4.1,4.1,0,0,1,.3-1.6,2.6,2.6,0,0,1,.9-1.2,2.5,2.5,0,0,1,1.4-.4,2.2,2.2,0,0,1,1.8.9v-.7h1v5.4a5.1,5.1,0,0,1-.3,2.1,2.2,2.2,0,0,1-.9,1,3.2,3.2,0,0,1-1.6.4,3,3,0,0,1-1.8-.5A1.7,1.7,0,0,1,168.8,61.5Zm.9-3.7a2.7,2.7,0,0,0,.5,1.8,1.6,1.6,0,0,0,2.4,0,2.6,2.6,0,0,0,.5-1.8,2.6,2.6,0,0,0-.5-1.7,1.6,1.6,0,0,0-1.2-.6,1.5,1.5,0,0,0-1.2.6A2.5,2.5,0,0,0,169.7,57.8Z"/><path d="M179.4,60.3l-1.1.7-1.2.2a2.3,2.3,0,0,1-1.6-.5,1.7,1.7,0,0,1-.6-1.3,1.7,1.7,0,0,1,.2-.8l.5-.6.8-.3.9-.2,1.9-.4v-.3a1.2,1.2,0,0,0-.3-.9,1.8,1.8,0,0,0-1.2-.4,1.9,1.9,0,0,0-1.1.3,1.6,1.6,0,0,0-.5.9h-1a2.6,2.6,0,0,1,.5-1.1,2,2,0,0,1,.9-.6l1.4-.2,1.3.2.7.5a1.7,1.7,0,0,1,.3.7,5.9,5.9,0,0,1,.1,1v1.4a14.9,14.9,0,0,0,.1,1.9,2.3,2.3,0,0,0,.3.7h-1.1A2.2,2.2,0,0,1,179.4,60.3Zm-.1-2.4-1.7.4-.9.2-.4.3a.9.9,0,0,0,.2,1.2,1.4,1.4,0,0,0,.9.3l1.1-.3a1.6,1.6,0,0,0,.7-.7,2.5,2.5,0,0,0,.2-1.1Z"/><path d="M181.9,61V59.8h1.2V61a2.1,2.1,0,0,1-.2,1.1,1.5,1.5,0,0,1-.7.6l-.3-.5.5-.4a1.8,1.8,0,0,0,.2-.8Z"/><path d="M102.4,75.4V66.8h3.2a4,4,0,0,1,1.6.3,2,2,0,0,1,.9.8,2.1,2.1,0,0,1,.3,1.1,1.9,1.9,0,0,1-.3,1,2.1,2.1,0,0,1-.9.8,2.2,2.2,0,0,1,1.2.8,2.1,2.1,0,0,1,.4,1.3,2.5,2.5,0,0,1-.3,1.1,2.2,2.2,0,0,1-.6.8l-.9.4h-4.7Zm1.1-5h2.9a1.2,1.2,0,0,0,.7-.4,1.2,1.2,0,0,0,.2-.7,1.4,1.4,0,0,0-.2-.8,1,1,0,0,0-.6-.4h-3Zm0,4h2.9l.7-.2.4-.5a1.5,1.5,0,0,0,.2-.7,1.4,1.4,0,0,0-.2-.8,1.3,1.3,0,0,0-.7-.5h-3.2Z"/><path d="M110,75.4V69.2h.9v.9a2.6,2.6,0,0,1,.7-.9l.7-.2a2.1,2.1,0,0,1,1.1.3l-.4,1-.8-.2-.6.2a1.1,1.1,0,0,0-.4.6,4.1,4.1,0,0,0-.2,1.2v3.3Z"/><path d="M117.7,74.7l-1.1.7-1.2.2a2.3,2.3,0,0,1-1.6-.5,1.7,1.7,0,0,1-.6-1.3,1.7,1.7,0,0,1,.2-.8l.5-.6.8-.3.9-.2,1.9-.4v-.3a1.2,1.2,0,0,0-.3-.9,1.8,1.8,0,0,0-1.2-.4,1.9,1.9,0,0,0-1.1.3,1.6,1.6,0,0,0-.5.9h-1a2.6,2.6,0,0,1,.5-1.1,2,2,0,0,1,.9-.6l1.4-.2,1.3.2.7.5a1.7,1.7,0,0,1,.3.7,5.9,5.9,0,0,1,.1,1v1.4a14.9,14.9,0,0,0,.1,1.9,2.4,2.4,0,0,0,.3.7h-1.1A2.2,2.2,0,0,1,117.7,74.7Zm-.1-2.4-1.7.4-.9.2-.4.3a.9.9,0,0,0,.2,1.2,1.4,1.4,0,0,0,.9.3,2.2,2.2,0,0,0,1.1-.3,1.6,1.6,0,0,0,.7-.7,2.5,2.5,0,0,0,.2-1.1Z"/><path d="M119.7,75.9l1,.2a1,1,0,0,0,.4.7,1.8,1.8,0,0,0,1.1.3,1.9,1.9,0,0,0,1.1-.3,1.4,1.4,0,0,0,.5-.8,6.7,6.7,0,0,0,.1-1.4,2.2,2.2,0,0,1-1.7.8,2.3,2.3,0,0,1-2-.9,3.6,3.6,0,0,1-.7-2.2,4.1,4.1,0,0,1,.3-1.6,2.6,2.6,0,0,1,.9-1.2,2.5,2.5,0,0,1,1.4-.4,2.2,2.2,0,0,1,1.8.9v-.7h1v5.4a5.1,5.1,0,0,1-.3,2.1,2.2,2.2,0,0,1-.9,1,3.2,3.2,0,0,1-1.6.4,3,3,0,0,1-1.8-.5A1.7,1.7,0,0,1,119.7,75.9Zm.9-3.7a2.7,2.7,0,0,0,.5,1.8,1.6,1.6,0,0,0,2.4,0,2.6,2.6,0,0,0,.5-1.8,2.6,2.6,0,0,0-.5-1.7,1.6,1.6,0,0,0-1.2-.6,1.5,1.5,0,0,0-1.2.6A2.5,2.5,0,0,0,120.6,72.2Z"/><path d="M130.3,74.7l-1.1.7-1.2.2a2.3,2.3,0,0,1-1.6-.5,1.7,1.7,0,0,1-.6-1.3,1.7,1.7,0,0,1,.2-.8l.5-.6.8-.3.9-.2,1.9-.4v-.3a1.2,1.2,0,0,0-.3-.9,1.8,1.8,0,0,0-1.2-.4,1.9,1.9,0,0,0-1.1.3,1.6,1.6,0,0,0-.5.9h-1a2.6,2.6,0,0,1,.5-1.1,2,2,0,0,1,.9-.6l1.4-.2,1.3.2.7.5a1.7,1.7,0,0,1,.3.7,5.9,5.9,0,0,1,.1,1v1.4a14.9,14.9,0,0,0,.1,1.9,2.4,2.4,0,0,0,.3.7h-1.1A2.2,2.2,0,0,1,130.3,74.7Zm-.1-2.4-1.7.4-.9.2-.4.3a.9.9,0,0,0,.2,1.2,1.4,1.4,0,0,0,.9.3,2.2,2.2,0,0,0,1.1-.3,1.6,1.6,0,0,0,.7-.7,2.5,2.5,0,0,0,.2-1.1Z"/><path d="M137.5,78a10.5,10.5,0,0,1-1.5-2.6,8.1,8.1,0,0,1-.2-5.7,11.2,11.2,0,0,1,1.6-3h.8l-.9,1.7a9.5,9.5,0,0,0-.6,1.7,9.8,9.8,0,0,0-.3,2.2,10.6,10.6,0,0,0,1.8,5.6Z"/><path d="M139.3,75.4V66.8h4.5l1.1.4a2.1,2.1,0,0,1,.7.8,2.8,2.8,0,0,1-.4,3,3.3,3.3,0,0,1-2.5.8h-2.2v3.5Zm1.1-4.5h2.2a2.4,2.4,0,0,0,1.6-.4,1.5,1.5,0,0,0,.5-1.2,1.6,1.6,0,0,0-.3-.9,1.3,1.3,0,0,0-.7-.5h-3.3Z"/><path d="M146.4,72.3a3.2,3.2,0,0,1,1-2.6,2.9,2.9,0,0,1,2-.7,2.8,2.8,0,0,1,2.1.8,3.2,3.2,0,0,1,.8,2.3,4.1,4.1,0,0,1-.4,1.9,2.6,2.6,0,0,1-1,1.1,3.1,3.1,0,0,1-1.5.4,2.8,2.8,0,0,1-2.1-.8A3.3,3.3,0,0,1,146.4,72.3Zm1.1,0a2.6,2.6,0,0,0,.5,1.8,1.7,1.7,0,0,0,2.6,0,2.7,2.7,0,0,0,.5-1.8,2.6,2.6,0,0,0-.5-1.7,1.7,1.7,0,0,0-2.6,0A2.6,2.6,0,0,0,147.5,72.3Z"/><path d="M153.1,75.4V69.2h.9v.9a2.6,2.6,0,0,1,.7-.9l.7-.2a2.1,2.1,0,0,1,1.1.3l-.4,1-.8-.2-.6.2a1.1,1.1,0,0,0-.4.6,4.1,4.1,0,0,0-.2,1.2v3.3Z"/><path d="M159.1,74.5l.2.9h-.8l-.9-.2a1,1,0,0,1-.4-.5,3.8,3.8,0,0,1-.1-1.2V70h-.8v-.8h.8V67.7l1-.6v2.2h1.1V70H158v3.6a1.8,1.8,0,0,0,.1.6l.2.2h.8Z"/><path d="M163.8,75.4v-.9a2.3,2.3,0,0,1-2,1.1l-1-.2-.7-.5a2,2,0,0,1-.3-.8,5.4,5.4,0,0,1-.1-1V69.2h1.1v3.5a6.2,6.2,0,0,0,.1,1.1,1.1,1.1,0,0,0,.4.7l.8.2.9-.2a1.4,1.4,0,0,0,.6-.7,3.3,3.3,0,0,0,.2-1.2V69.2h1.1v6.2Z"/><path d="M165.9,75.9l1,.2a1,1,0,0,0,.4.7,1.8,1.8,0,0,0,1.1.3,1.9,1.9,0,0,0,1.1-.3,1.4,1.4,0,0,0,.5-.8,6.7,6.7,0,0,0,.1-1.4,2.2,2.2,0,0,1-1.7.8,2.3,2.3,0,0,1-2-.9,3.6,3.6,0,0,1-.7-2.2,4.1,4.1,0,0,1,.3-1.6,2.6,2.6,0,0,1,.9-1.2,2.5,2.5,0,0,1,1.4-.4,2.2,2.2,0,0,1,1.8.9v-.7h1v5.4a5.1,5.1,0,0,1-.3,2.1,2.2,2.2,0,0,1-.9,1,3.2,3.2,0,0,1-1.6.4,3,3,0,0,1-1.8-.5A1.7,1.7,0,0,1,165.9,75.9Zm.9-3.7a2.7,2.7,0,0,0,.5,1.8,1.6,1.6,0,0,0,2.4,0,2.6,2.6,0,0,0,.5-1.8,2.6,2.6,0,0,0-.5-1.7,1.6,1.6,0,0,0-1.2-.6,1.5,1.5,0,0,0-1.2.6A2.5,2.5,0,0,0,166.7,72.2Z"/><path d="M176.4,74.7l-1.1.7-1.2.2a2.3,2.3,0,0,1-1.6-.5,1.7,1.7,0,0,1-.6-1.3,1.7,1.7,0,0,1,.2-.8l.5-.6.8-.3.9-.2,1.9-.4v-.3a1.2,1.2,0,0,0-.3-.9,1.8,1.8,0,0,0-1.2-.4,1.9,1.9,0,0,0-1.1.3,1.6,1.6,0,0,0-.5.9h-1a2.6,2.6,0,0,1,.5-1.1,2,2,0,0,1,.9-.6l1.4-.2,1.3.2.7.5a1.7,1.7,0,0,1,.3.7,5.9,5.9,0,0,1,.1,1v1.4a14.9,14.9,0,0,0,.1,1.9,2.4,2.4,0,0,0,.3.7h-1.1A2.2,2.2,0,0,1,176.4,74.7Zm-.1-2.4-1.7.4-.9.2-.4.3a.9.9,0,0,0,.2,1.2,1.4,1.4,0,0,0,.9.3,2.2,2.2,0,0,0,1.1-.3,1.6,1.6,0,0,0,.7-.7,2.5,2.5,0,0,0,.2-1.1Z"/><path d="M178.7,75.4V66.8h1.1v8.6Z"/><path d="M181.7,78h-.8a10.6,10.6,0,0,0,1.8-5.6,9.6,9.6,0,0,0-.3-2.2,9.2,9.2,0,0,0-.6-1.7l-.9-1.8h.8a11.2,11.2,0,0,1,1.6,3,8.1,8.1,0,0,1-.2,5.7A10.7,10.7,0,0,1,181.7,78Z"/><path class="cls-2" d="M197.1,45.9h-1.1V39.2l-1,.7-1.1.5v-1a6.4,6.4,0,0,0,1.5-1,4,4,0,0,0,.9-1.1h.7Z"/><path class="cls-2" d="M199.5,41.7a7.9,7.9,0,0,1,.3-2.5,3.1,3.1,0,0,1,.9-1.4,2.4,2.4,0,0,1,1.6-.5,2.5,2.5,0,0,1,1.2.3,2.3,2.3,0,0,1,.9.8,4.3,4.3,0,0,1,.5,1.3,8.5,8.5,0,0,1,.2,2,7.9,7.9,0,0,1-.3,2.4,3.1,3.1,0,0,1-.9,1.4,2.4,2.4,0,0,1-1.6.5,2.4,2.4,0,0,1-2-.9A5.7,5.7,0,0,1,199.5,41.7Zm1.1,0a5.4,5.4,0,0,0,.5,2.8,1.4,1.4,0,0,0,2.4,0,5.4,5.4,0,0,0,.5-2.8,5.4,5.4,0,0,0-.5-2.8,1.5,1.5,0,0,0-1.2-.7,1.4,1.4,0,0,0-1.2.6A5.4,5.4,0,0,0,200.6,41.7Z"/><path class="cls-2" d="M205.4,46l2.5-8.9h.8L206.2,46Z"/><path class="cls-2" d="M214.4,44.9v1h-5.7a1.9,1.9,0,0,1,.1-.7,3.9,3.9,0,0,1,.7-1.1l1.4-1.3a11.7,11.7,0,0,0,1.9-1.8,2.2,2.2,0,0,0,.5-1.3,1.4,1.4,0,0,0-.4-1.1,1.6,1.6,0,0,0-1.2-.4,1.6,1.6,0,0,0-1.2.5,1.7,1.7,0,0,0-.5,1.3h-1.1a2.7,2.7,0,0,1,.8-1.8,2.9,2.9,0,0,1,2-.6,2.7,2.7,0,0,1,2,.7,2.3,2.3,0,0,1,.7,1.7,2.6,2.6,0,0,1-.2,1,3.9,3.9,0,0,1-.7,1l-1.6,1.5-1.2,1.1-.4.6Z"/><path class="cls-2" d="M215.2,41.7a7.9,7.9,0,0,1,.3-2.5,3.1,3.1,0,0,1,.9-1.4,2.4,2.4,0,0,1,1.6-.5,2.5,2.5,0,0,1,1.2.3,2.3,2.3,0,0,1,.9.8,4.3,4.3,0,0,1,.5,1.3,8.5,8.5,0,0,1,.2,2,7.9,7.9,0,0,1-.3,2.4,3.1,3.1,0,0,1-.9,1.4,2.4,2.4,0,0,1-1.6.5,2.4,2.4,0,0,1-2-.9A5.7,5.7,0,0,1,215.2,41.7Zm1.1,0a5.4,5.4,0,0,0,.5,2.8,1.4,1.4,0,0,0,2.4,0,5.4,5.4,0,0,0,.5-2.8,5.4,5.4,0,0,0-.5-2.8,1.5,1.5,0,0,0-1.2-.7,1.4,1.4,0,0,0-1.2.6A5.4,5.4,0,0,0,216.3,41.7Z"/><path class="cls-2" d="M225.5,45.9h-1.1V39.2l-1,.7-1.1.5v-1a6.4,6.4,0,0,0,1.5-1,4,4,0,0,0,.9-1.1h.7Z"/><path class="cls-2" d="M227.9,43.6H229a2.3,2.3,0,0,0,.6,1.3,1.5,1.5,0,0,0,1.1.4,1.7,1.7,0,0,0,1.3-.5,1.7,1.7,0,0,0,.5-1.3,1.6,1.6,0,0,0-.5-1.2,1.6,1.6,0,0,0-1.2-.5H230v-.9h.2a2.2,2.2,0,0,0,1.2-.4,1.2,1.2,0,0,0,.5-1.1,1.3,1.3,0,0,0-.4-1,1.4,1.4,0,0,0-1-.4,1.4,1.4,0,0,0-1,.4,1.9,1.9,0,0,0-.5,1.2l-1.1-.2a2.7,2.7,0,0,1,.9-1.6,2.5,2.5,0,0,1,1.7-.6,2.8,2.8,0,0,1,1.3.3,2.2,2.2,0,0,1,.9.8,2.1,2.1,0,0,1,.3,1.1,1.8,1.8,0,0,1-.3,1,2,2,0,0,1-.9.7,2,2,0,0,1,1.2.7,2.2,2.2,0,0,1,.4,1.4,2.5,2.5,0,0,1-.8,1.9,2.9,2.9,0,0,1-2.1.8,2.7,2.7,0,0,1-1.9-.7A2.6,2.6,0,0,1,227.9,43.6Z"/><path class="cls-2" d="M233.8,43.2v-.8h6.7v.8Z"/><path class="cls-2" d="M244.6,45.9h-1.1V39.2l-1,.7-1.1.5v-1a6.4,6.4,0,0,0,1.5-1,4,4,0,0,0,.9-1.1h.7Z"/><path class="cls-2" d="M252.5,44.9v1h-5.7a1.9,1.9,0,0,1,.1-.7,3.9,3.9,0,0,1,.7-1.1l1.4-1.3a11.7,11.7,0,0,0,1.9-1.8,2.2,2.2,0,0,0,.5-1.3,1.4,1.4,0,0,0-.4-1.1,1.6,1.6,0,0,0-1.2-.4,1.6,1.6,0,0,0-1.2.5,1.7,1.7,0,0,0-.5,1.3H247a2.7,2.7,0,0,1,.8-1.8,2.9,2.9,0,0,1,2-.6,2.7,2.7,0,0,1,2,.7,2.3,2.3,0,0,1,.7,1.7,2.6,2.6,0,0,1-.2,1,3.9,3.9,0,0,1-.7,1L250,43.2l-1.2,1.1-.4.6Z"/><path class="cls-2" d="M252.8,46l2.5-8.9h.8L253.7,46Z"/><path class="cls-2" d="M261.9,44.9v1h-5.7a1.9,1.9,0,0,1,.1-.7A3.9,3.9,0,0,1,257,44l1.4-1.3a11.7,11.7,0,0,0,1.9-1.8,2.2,2.2,0,0,0,.5-1.3,1.4,1.4,0,0,0-.4-1.1,1.6,1.6,0,0,0-1.2-.4,1.6,1.6,0,0,0-1.2.5,1.7,1.7,0,0,0-.5,1.3h-1.1a2.7,2.7,0,0,1,.8-1.8,2.9,2.9,0,0,1,2-.6,2.7,2.7,0,0,1,2,.7,2.3,2.3,0,0,1,.7,1.7,2.6,2.6,0,0,1-.2,1,3.9,3.9,0,0,1-.7,1l-1.6,1.5-1.2,1.1-.4.6Z"/><path class="cls-2" d="M262.7,41.7a7.9,7.9,0,0,1,.3-2.5,3.1,3.1,0,0,1,.9-1.4,2.4,2.4,0,0,1,1.6-.5,2.5,2.5,0,0,1,1.2.3,2.3,2.3,0,0,1,.9.8,4.3,4.3,0,0,1,.5,1.3,8.5,8.5,0,0,1,.2,2,7.9,7.9,0,0,1-.3,2.4,3.1,3.1,0,0,1-.9,1.4,2.4,2.4,0,0,1-1.6.5,2.4,2.4,0,0,1-2-.9A5.7,5.7,0,0,1,262.7,41.7Zm1.1,0a5.4,5.4,0,0,0,.5,2.8,1.4,1.4,0,0,0,2.4,0,5.4,5.4,0,0,0,.5-2.8,5.4,5.4,0,0,0-.5-2.8,1.5,1.5,0,0,0-1.2-.7,1.4,1.4,0,0,0-1.2.6A5.4,5.4,0,0,0,263.8,41.7Z"/><path class="cls-2" d="M273,45.9H272V39.2l-1,.7-1.1.5v-1a6.4,6.4,0,0,0,1.5-1,4,4,0,0,0,.9-1.1h.7Z"/><path class="cls-2" d="M275.4,43.6h1.1a2.3,2.3,0,0,0,.6,1.3,1.5,1.5,0,0,0,1.1.4,1.7,1.7,0,0,0,1.3-.5,1.7,1.7,0,0,0,.5-1.3,1.6,1.6,0,0,0-.5-1.2,1.6,1.6,0,0,0-1.2-.5h-.7v-.9h.2a2.2,2.2,0,0,0,1.2-.4,1.2,1.2,0,0,0,.5-1.1,1.3,1.3,0,0,0-.4-1,1.4,1.4,0,0,0-1-.4,1.4,1.4,0,0,0-1,.4,1.9,1.9,0,0,0-.5,1.2l-1.1-.2a2.7,2.7,0,0,1,.9-1.6,2.5,2.5,0,0,1,1.7-.6,2.8,2.8,0,0,1,1.3.3,2.2,2.2,0,0,1,.9.8,2.1,2.1,0,0,1,.3,1.1,1.8,1.8,0,0,1-.3,1,2,2,0,0,1-.9.7,2,2,0,0,1,1.2.7,2.2,2.2,0,0,1,.4,1.4,2.5,2.5,0,0,1-.8,1.9,2.9,2.9,0,0,1-2.1.8,2.7,2.7,0,0,1-1.9-.7A2.6,2.6,0,0,1,275.4,43.6Z"/><path class="cls-3" d="M286.3,31.6H195.4a.6.6,0,0,0-.7.4,1.2,1.2,0,0,1-1.4.6,1.3,1.3,0,0,1-.9-1.2,1.2,1.2,0,0,1,2.4-.5.5.5,0,0,0,.5.3h99c.7,0,.7,0,.7-.7s0-.4.1-.6A9.7,9.7,0,1,1,304.6,41a9.4,9.4,0,0,1-7.2-3.2,9.1,9.1,0,0,1-2.4-5.8c0-.2,0-.4-.3-.4h-8.3Zm18.2,8.8a9.1,9.1,0,1,0-9-9.6A9.1,9.1,0,0,0,304.5,40.4Z"/><path class="cls-4" d="M286.6,31.1h-.3a17.7,17.7,0,0,1,5-12.3,17.7,17.7,0,0,1,11-5.6,18.4,18.4,0,0,1,20.3,14.4,17.8,17.8,0,0,1-3.5,15,17.7,17.7,0,0,1-8.8,6.2,18.3,18.3,0,0,1-22.1-9.2,16.9,16.9,0,0,1-1.9-6.9V31.6h.3a17.1,17.1,0,0,0,1.9,7.9,17.8,17.8,0,0,0,8.8,8.4,18,18,0,0,0,21.6-5.4A17.5,17.5,0,0,0,322.4,28a17.3,17.3,0,0,0-6.2-10.5,17.6,17.6,0,0,0-15-3.8,17.3,17.3,0,0,0-9.7,5.4A17.5,17.5,0,0,0,286.6,31.1Z"/><path class="cls-4" d="M281.7,31.1h-.3a21.5,21.5,0,0,1,2.4-10A23.5,23.5,0,0,1,301.7,8.2H304c.1,0,.3-.1.3.1s-.2.2-.3.2a22.9,22.9,0,0,0-9.8,2.5,22.7,22.7,0,0,0-4.5,3.1,22.8,22.8,0,0,0-7.9,15.3C281.7,29.9,281.7,30.5,281.7,31.1Z"/><path class="cls-3" d="M304.6,38.3a7,7,0,1,1,6.9-6.9A7,7,0,0,1,304.6,38.3Zm-6.4-7a6.4,6.4,0,1,0,6.5-6.4A6.4,6.4,0,0,0,298.2,31.3Z"/><path class="cls-3" d="M308.1,31.4a3.5,3.5,0,1,1-3.4-3.5A3.5,3.5,0,0,1,308.1,31.4Z"/><path class="cls-2" d="M70.3,34.7v-10h6.8v1.2H71.7v3.1h4.7v1.2H71.7v4.6Z"/><path class="cls-2" d="M77.8,31a3.7,3.7,0,0,1,1.1-3,3.4,3.4,0,0,1,2.3-.8,3.3,3.3,0,0,1,2.4,1,3.7,3.7,0,0,1,1,2.7,4.8,4.8,0,0,1-.4,2.2A3,3,0,0,1,83,34.4a3.6,3.6,0,0,1-1.8.4,3.3,3.3,0,0,1-2.5-1A3.9,3.9,0,0,1,77.8,31Zm1.3,0a3.1,3.1,0,0,0,.6,2.1,2,2,0,0,0,3.1,0,3.2,3.2,0,0,0,.6-2.1,3,3,0,0,0-.6-2,2,2,0,0,0-3.1,0A3.1,3.1,0,0,0,79.1,31Z"/><path class="cls-2" d="M88.4,33.6l.2,1.1h-.9l-1-.2a1.2,1.2,0,0,1-.5-.6,4.4,4.4,0,0,1-.2-1.5V28.4H85v-1h.9V25.6l1.2-.7v2.5h1.2v1H87.1v4.2a2.1,2.1,0,0,0,.1.7l.2.2h1Z"/><path class="cls-2" d="M88.7,31a3.7,3.7,0,0,1,1.1-3,3.4,3.4,0,0,1,2.3-.8,3.3,3.3,0,0,1,2.4,1,3.7,3.7,0,0,1,1,2.7,4.8,4.8,0,0,1-.4,2.2,3,3,0,0,1-1.2,1.2,3.6,3.6,0,0,1-1.8.4,3.3,3.3,0,0,1-2.5-1A3.9,3.9,0,0,1,88.7,31ZM90,31a3.1,3.1,0,0,0,.6,2.1,2,2,0,0,0,3.1,0,3.2,3.2,0,0,0,.6-2.1,3,3,0,0,0-.6-2,2,2,0,0,0-3.1,0A3.1,3.1,0,0,0,90,31Z"/><path class="cls-2" d="M96.4,35.3l1.2.2a1.1,1.1,0,0,0,.4.8,2.1,2.1,0,0,0,1.3.3,2.2,2.2,0,0,0,1.3-.3,1.7,1.7,0,0,0,.6-1,7.9,7.9,0,0,0,.1-1.6,2.5,2.5,0,0,1-2,1A2.7,2.7,0,0,1,97,33.6a4.2,4.2,0,0,1-.8-2.6,4.8,4.8,0,0,1,.4-1.9,3,3,0,0,1,1.1-1.4,2.9,2.9,0,0,1,1.7-.5,2.6,2.6,0,0,1,2.1,1v-.9h1.1v6.3a6,6,0,0,1-.3,2.4,2.5,2.5,0,0,1-1.1,1.1,3.8,3.8,0,0,1-1.8.4,3.5,3.5,0,0,1-2.1-.6A2,2,0,0,1,96.4,35.3Zm1-4.4A3.1,3.1,0,0,0,98,33a1.9,1.9,0,0,0,2.8,0,3,3,0,0,0,.6-2,3,3,0,0,0-.6-2,1.8,1.8,0,0,0-1.4-.7,1.8,1.8,0,0,0-1.4.7A3,3,0,0,0,97.4,30.9Z"/><path class="cls-2" d="M104,34.7V27.4h1.1v1.1a3,3,0,0,1,.8-1l.8-.2a2.4,2.4,0,0,1,1.3.4l-.4,1.1-.9-.3-.7.2a1.3,1.3,0,0,0-.5.7,4.8,4.8,0,0,0-.2,1.4v3.8Z"/><path class="cls-2" d="M113,33.8a4.6,4.6,0,0,1-1.3.8l-1.4.2a2.6,2.6,0,0,1-1.8-.6,1.9,1.9,0,0,1-.6-1.5,2,2,0,0,1,.9-1.7l.9-.4,1.1-.2,2.2-.4v-.3a1.4,1.4,0,0,0-.3-1.1,2.1,2.1,0,0,0-1.4-.4,2.2,2.2,0,0,0-1.3.3,1.9,1.9,0,0,0-.6,1.1l-1.2-.2a3,3,0,0,1,.5-1.2,2.4,2.4,0,0,1,1.1-.7l1.6-.3,1.5.2a2,2,0,0,1,.9.5,1.9,1.9,0,0,1,.4.8,6.9,6.9,0,0,1,.1,1.1v1.6a17.4,17.4,0,0,0,.1,2.2,2.7,2.7,0,0,0,.3.9h-1.3A2.6,2.6,0,0,1,113,33.8Zm-.1-2.7-2,.5-1.1.2-.5.4a1.1,1.1,0,0,0,.2,1.4,1.6,1.6,0,0,0,1.1.3,2.5,2.5,0,0,0,1.3-.3,1.9,1.9,0,0,0,.8-.9,3,3,0,0,0,.2-1.2Z"/><path class="cls-2" d="M116,34.7V28.4h-1.1v-1H116v-.8a3.4,3.4,0,0,1,.1-1.1,1.6,1.6,0,0,1,.6-.8,2.3,2.3,0,0,1,1.3-.3h1.1l-.2,1.1h-.7a1.1,1.1,0,0,0-.8.2,1.3,1.3,0,0,0-.2.9v.7h1.4v1h-1.4v6.3Z"/><path class="cls-2" d="M119.2,26.1V24.7h1.2v1.4Zm0,8.6V27.4h1.2v7.3Z"/><path class="cls-2" d="M126.7,33.8a4.6,4.6,0,0,1-1.3.8l-1.4.2a2.6,2.6,0,0,1-1.8-.6,1.9,1.9,0,0,1-.6-1.5,2,2,0,0,1,.9-1.7l.9-.4,1.1-.2,2.2-.4v-.3a1.4,1.4,0,0,0-.3-1.1,2.1,2.1,0,0,0-1.4-.4,2.2,2.2,0,0,0-1.3.3,1.9,1.9,0,0,0-.6,1.1l-1.2-.2a3,3,0,0,1,.5-1.2,2.4,2.4,0,0,1,1.1-.7l1.6-.3,1.5.2a2,2,0,0,1,.9.5,1.9,1.9,0,0,1,.4.8,6.9,6.9,0,0,1,.1,1.1v1.6a17.4,17.4,0,0,0,.1,2.2,2.7,2.7,0,0,0,.3.9h-1.3A2.6,2.6,0,0,1,126.7,33.8Zm-.1-2.7-2,.5-1.1.2-.5.4a1.1,1.1,0,0,0,.2,1.4,1.6,1.6,0,0,0,1.1.3,2.5,2.5,0,0,0,1.3-.3,1.9,1.9,0,0,0,.8-.9,3,3,0,0,0,.2-1.2Z"/><path class="cls-2" d="M133.3,34.7v-10h1.3v10Z"/><path class="cls-2" d="M136.4,34.7V27.4h1.1v1a2.6,2.6,0,0,1,2.3-1.2l1.2.2a1.9,1.9,0,0,1,.8.6,2.4,2.4,0,0,1,.4.9,7.1,7.1,0,0,1,.1,1.2v4.5h-1.2V30.3a3.3,3.3,0,0,0-.1-1.1,1.2,1.2,0,0,0-.5-.6l-.9-.2a2,2,0,0,0-1.4.5,2.5,2.5,0,0,0-.6,1.9v4Z"/><path class="cls-2" d="M143.8,26.1V24.7H145v1.4Zm0,8.6V27.4H145v7.3Z"/><path class="cls-2" d="M151.3,32l1.2.2a3.1,3.1,0,0,1-1,2,3,3,0,0,1-2,.7,3.1,3.1,0,0,1-2.4-1,4,4,0,0,1-.9-2.8,5.1,5.1,0,0,1,.4-2.1,2.7,2.7,0,0,1,1.2-1.3,3.5,3.5,0,0,1,1.7-.4,3,3,0,0,1,1.9.6,2.7,2.7,0,0,1,1,1.7l-1.2.2a2,2,0,0,0-.6-1.1,1.6,1.6,0,0,0-1-.4,1.9,1.9,0,0,0-1.5.7,3.2,3.2,0,0,0-.6,2.1,3.3,3.3,0,0,0,.6,2.1,1.8,1.8,0,0,0,1.5.7,1.7,1.7,0,0,0,1.2-.4A2.2,2.2,0,0,0,151.3,32Z"/><path class="cls-2" d="M153.2,26.1V24.7h1.2v1.4Zm0,8.6V27.4h1.2v7.3Z"/><path class="cls-2" d="M160.6,33.8a4.6,4.6,0,0,1-1.3.8l-1.4.2a2.6,2.6,0,0,1-1.8-.6,1.9,1.9,0,0,1-.6-1.5,2,2,0,0,1,.9-1.7l.9-.4,1.1-.2,2.2-.4v-.3a1.4,1.4,0,0,0-.3-1.1,2.1,2.1,0,0,0-1.4-.4,2.2,2.2,0,0,0-1.3.3,1.9,1.9,0,0,0-.6,1.1l-1.2-.2a3,3,0,0,1,.5-1.2,2.4,2.4,0,0,1,1.1-.7l1.6-.3,1.5.2a2,2,0,0,1,.9.5,1.9,1.9,0,0,1,.4.8,6.9,6.9,0,0,1,.1,1.1v1.6a17.4,17.4,0,0,0,.1,2.2,2.7,2.7,0,0,0,.3.9h-1.3A2.6,2.6,0,0,1,160.6,33.8Zm-.1-2.7-2,.5-1.1.2-.5.4a1.1,1.1,0,0,0,.2,1.4,1.6,1.6,0,0,0,1.1.3,2.5,2.5,0,0,0,1.3-.3,1.9,1.9,0,0,0,.8-.9,3,3,0,0,0,.2-1.2Z"/><path class="cls-2" d="M168,32l1.2.2a3.1,3.1,0,0,1-1,2,3,3,0,0,1-2,.7,3.1,3.1,0,0,1-2.4-1,4,4,0,0,1-.9-2.8,5.1,5.1,0,0,1,.4-2.1,2.7,2.7,0,0,1,1.2-1.3,3.5,3.5,0,0,1,1.7-.4,3,3,0,0,1,1.9.6,2.7,2.7,0,0,1,1,1.7l-1.2.2a2,2,0,0,0-.6-1.1,1.6,1.6,0,0,0-1-.4,1.9,1.9,0,0,0-1.5.7,3.2,3.2,0,0,0-.6,2.1,3.3,3.3,0,0,0,.6,2.1,1.8,1.8,0,0,0,1.5.7,1.7,1.7,0,0,0,1.2-.4A2.2,2.2,0,0,0,168,32Zm-2.9,3.6.4-1.2h.9l-.2.7a1.4,1.4,0,0,1,.9.4.9.9,0,0,1,.3.6,1.1,1.1,0,0,1-.5.9,2.3,2.3,0,0,1-1.5.4h-1v-.8h.6l.9-.2a.4.4,0,0,0,.2-.3v-.2l-.3-.2Z"/><path class="cls-2" d="M174.7,33.8a4.6,4.6,0,0,1-1.3.8l-1.4.2a2.6,2.6,0,0,1-1.8-.6,1.9,1.9,0,0,1-.6-1.5,2,2,0,0,1,.9-1.7l.9-.4,1.1-.2,2.2-.4v-.3a1.4,1.4,0,0,0-.3-1.1,2.1,2.1,0,0,0-1.4-.4,2.2,2.2,0,0,0-1.3.3,1.9,1.9,0,0,0-.6,1.1l-1.2-.2a3,3,0,0,1,.5-1.2,2.4,2.4,0,0,1,1.1-.7l1.6-.3,1.5.2a2,2,0,0,1,.9.5,1.9,1.9,0,0,1,.4.8,6.9,6.9,0,0,1,.1,1.1v1.6a17.3,17.3,0,0,0,.1,2.2,2.7,2.7,0,0,0,.3.9h-1.3A2.6,2.6,0,0,1,174.7,33.8Zm-4.1-7.4a1.6,1.6,0,0,1,.4-1.1,1.3,1.3,0,0,1,1-.4l1.2.4.6.2h.3a.9.9,0,0,0,.2-.5h.9a1.7,1.7,0,0,1-.4,1.2,1.3,1.3,0,0,1-.9.4l-1.1-.4-.7-.2-.4.2a.7.7,0,0,0-.1.5Zm4,4.7-2,.5-1.1.2-.5.4a1.1,1.1,0,0,0,.2,1.4,1.6,1.6,0,0,0,1.1.3,2.5,2.5,0,0,0,1.3-.3,1.9,1.9,0,0,0,.8-.9,3,3,0,0,0,.2-1.2Z"/><path class="cls-2" d="M176.9,31a3.7,3.7,0,0,1,1.1-3,3.4,3.4,0,0,1,2.3-.8,3.3,3.3,0,0,1,2.4,1,3.7,3.7,0,0,1,1,2.7,4.8,4.8,0,0,1-.4,2.2,3,3,0,0,1-1.2,1.2,3.6,3.6,0,0,1-1.8.4,3.3,3.3,0,0,1-2.5-1A3.9,3.9,0,0,1,176.9,31Zm1.3,0a3.1,3.1,0,0,0,.6,2.1,2,2,0,0,0,3.1,0,3.2,3.2,0,0,0,.6-2.1,3,3,0,0,0-.6-2,2,2,0,0,0-3.1,0A3.1,3.1,0,0,0,178.1,31Z"/><path class="cls-2" d="M49.3,45.9V37.3h5.8v1H50.4V41h4v1h-4v3.9Z"/><path class="cls-2" d="M55.5,42.8a3.2,3.2,0,0,1,1-2.6,2.9,2.9,0,0,1,2-.7,2.8,2.8,0,0,1,2.1.8,3.2,3.2,0,0,1,.8,2.3,4.1,4.1,0,0,1-.4,1.9,2.6,2.6,0,0,1-1,1.1,3.1,3.1,0,0,1-1.5.4,2.8,2.8,0,0,1-2.1-.8A3.3,3.3,0,0,1,55.5,42.8Zm1.1,0a2.7,2.7,0,0,0,.5,1.8,1.7,1.7,0,0,0,2.6,0,2.7,2.7,0,0,0,.5-1.8,2.6,2.6,0,0,0-.5-1.7,1.7,1.7,0,0,0-2.6,0A2.6,2.6,0,0,0,56.6,42.8Z"/><path class="cls-2" d="M62.1,45.9V39.7h.9v.9a2.6,2.6,0,0,1,.7-.9l.7-.2a2.1,2.1,0,0,1,1.1.3l-.4,1-.8-.2-.6.2a1.1,1.1,0,0,0-.4.6,4.1,4.1,0,0,0-.2,1.2v3.3Z"/><path class="cls-2" d="M65.6,45.9V39.7h.9v.9a2.2,2.2,0,0,1,.8-.7,2.2,2.2,0,0,1,1.1-.3,2,2,0,0,1,1.1.3,1.5,1.5,0,0,1,.6.8,2.2,2.2,0,0,1,1.9-1.1,1.9,1.9,0,0,1,1.4.5,2.2,2.2,0,0,1,.5,1.6v4.3H73V42a2.9,2.9,0,0,0-.1-.9.9.9,0,0,0-.4-.4l-.6-.2a1.5,1.5,0,0,0-1.1.4,1.9,1.9,0,0,0-.4,1.4v3.6H69.3v-4a1.8,1.8,0,0,0-.3-1.1,1,1,0,0,0-.8-.4l-.8.2a1.3,1.3,0,0,0-.5.7,3.9,3.9,0,0,0-.2,1.3v3.2Z"/><path class="cls-2" d="M79.2,45.1l-1.1.7-1.2.2a2.3,2.3,0,0,1-1.6-.5,1.7,1.7,0,0,1-.6-1.3,1.7,1.7,0,0,1,.2-.8l.5-.6.8-.3.9-.2,1.9-.4v-.3a1.2,1.2,0,0,0-.3-.9,1.8,1.8,0,0,0-1.2-.4,1.9,1.9,0,0,0-1.1.3,1.6,1.6,0,0,0-.5.9H75a2.6,2.6,0,0,1,.5-1.1,2,2,0,0,1,.9-.6l1.4-.2,1.3.2.7.5a1.7,1.7,0,0,1,.3.7,5.9,5.9,0,0,1,.1,1v1.4a14.9,14.9,0,0,0,.1,1.9,2.3,2.3,0,0,0,.3.7H79.4A2.2,2.2,0,0,1,79.2,45.1Zm-.1-2.4-1.7.4-.9.2-.4.3a.9.9,0,0,0,.2,1.2,1.4,1.4,0,0,0,.9.3l1.1-.3a1.6,1.6,0,0,0,.7-.7,2.5,2.5,0,0,0,.2-1.1Z"/><path class="cls-2" d="M85.4,43.6h1a2.7,2.7,0,0,1-.9,1.7,2.5,2.5,0,0,1-1.7.6,2.7,2.7,0,0,1-2.1-.8,3.4,3.4,0,0,1-.8-2.4,4.3,4.3,0,0,1,.3-1.8,2.3,2.3,0,0,1,1-1.1,3,3,0,0,1,1.5-.4,2.6,2.6,0,0,1,1.7.5,2.4,2.4,0,0,1,.8,1.5l-1,.2a1.7,1.7,0,0,0-.5-.9,1.3,1.3,0,0,0-.9-.3,1.6,1.6,0,0,0-1.3.6,2.7,2.7,0,0,0-.5,1.8,2.8,2.8,0,0,0,.5,1.8,1.6,1.6,0,0,0,1.3.6,1.5,1.5,0,0,0,1-.4A1.9,1.9,0,0,0,85.4,43.6ZM83,46.7l.3-1h.8l-.2.6.8.3a.8.8,0,0,1,.3.6,1,1,0,0,1-.4.8,2,2,0,0,1-1.3.3h-.8v-.7H83l.8-.2a.3.3,0,0,0,.2-.3v-.2H83Z"/><path class="cls-2" d="M90.9,45.1l-1.1.7-1.2.2a2.3,2.3,0,0,1-1.6-.5,1.7,1.7,0,0,1-.6-1.3,1.7,1.7,0,0,1,.2-.8l.5-.6.8-.3.9-.2,1.9-.4v-.3a1.2,1.2,0,0,0-.3-.9,1.8,1.8,0,0,0-1.2-.4,1.9,1.9,0,0,0-1.1.3,1.6,1.6,0,0,0-.5.9h-1a2.6,2.6,0,0,1,.5-1.1,2,2,0,0,1,.9-.6l1.4-.2,1.3.2.7.5a1.7,1.7,0,0,1,.3.7,5.9,5.9,0,0,1,.1,1v1.4a14.9,14.9,0,0,0,.1,1.9,2.3,2.3,0,0,0,.3.7H91.1A2.2,2.2,0,0,1,90.9,45.1Zm-3.5-6.4a1.3,1.3,0,0,1,.3-1,1.1,1.1,0,0,1,.9-.4l1,.3.6.2h.3a.8.8,0,0,0,.1-.4h.8a1.5,1.5,0,0,1-.3,1,1.1,1.1,0,0,1-.8.3l-1-.3-.6-.2h-.3a.6.6,0,0,0-.1.4Zm3.4,4-1.7.4-.9.2-.4.3a.9.9,0,0,0,.2,1.2,1.4,1.4,0,0,0,.9.3l1.1-.3a1.6,1.6,0,0,0,.7-.7,2.5,2.5,0,0,0,.2-1.1Z"/><path class="cls-2" d="M92.7,42.8a3.2,3.2,0,0,1,1-2.6,2.9,2.9,0,0,1,2-.7,2.8,2.8,0,0,1,2.1.8,3.2,3.2,0,0,1,.8,2.3,4.1,4.1,0,0,1-.4,1.9,2.6,2.6,0,0,1-1,1.1,3.1,3.1,0,0,1-1.5.4,2.8,2.8,0,0,1-2.1-.8A3.3,3.3,0,0,1,92.7,42.8Zm1.1,0a2.7,2.7,0,0,0,.5,1.8,1.7,1.7,0,0,0,2.6,0,2.7,2.7,0,0,0,.5-1.8,2.6,2.6,0,0,0-.5-1.7,1.7,1.7,0,0,0-2.6,0A2.6,2.6,0,0,0,93.8,42.8Z"/><path class="cls-2" d="M106.2,45.9v-.8a1.9,1.9,0,0,1-1.7.9,2.4,2.4,0,0,1-1.4-.4,2.7,2.7,0,0,1-1-1.1,4,4,0,0,1-.3-1.7,4.4,4.4,0,0,1,.3-1.7,2.4,2.4,0,0,1,.9-1.2,2.5,2.5,0,0,1,1.4-.4l1,.2.7.6V37.3h1v8.6Zm-3.3-3.1a2.7,2.7,0,0,0,.5,1.8,1.5,1.5,0,0,0,1.2.6,1.5,1.5,0,0,0,1.2-.6,2.6,2.6,0,0,0,.5-1.7,2.9,2.9,0,0,0-.5-1.9,1.5,1.5,0,0,0-1.2-.6,1.5,1.5,0,0,0-1.2.6A2.8,2.8,0,0,0,102.8,42.8Z"/><path class="cls-2" d="M112.6,43.9h1.1a2.7,2.7,0,0,1-1,1.5,3.2,3.2,0,0,1-3.9-.3,3.3,3.3,0,0,1-.8-2.4,3.4,3.4,0,0,1,.8-2.4,2.7,2.7,0,0,1,2.1-.9,2.7,2.7,0,0,1,2,.8,3.4,3.4,0,0,1,.8,2.4V43h-4.6a2.4,2.4,0,0,0,.6,1.6,1.7,1.7,0,0,0,1.3.5,1.6,1.6,0,0,0,1-.3A2,2,0,0,0,112.6,43.9Zm-3.5-1.7h3.5a2.1,2.1,0,0,0-.4-1.2,1.6,1.6,0,0,0-1.3-.6,1.7,1.7,0,0,0-1.2.5A1.9,1.9,0,0,0,109.1,42.2Z"/><path class="cls-2" d="M121.4,43.6h1a2.7,2.7,0,0,1-.9,1.7,2.5,2.5,0,0,1-1.7.6,2.7,2.7,0,0,1-2.1-.8,3.4,3.4,0,0,1-.8-2.4,4.3,4.3,0,0,1,.3-1.8,2.3,2.3,0,0,1,1-1.1,3,3,0,0,1,1.5-.4,2.6,2.6,0,0,1,1.7.5,2.4,2.4,0,0,1,.8,1.5l-1,.2a1.7,1.7,0,0,0-.5-.9,1.3,1.3,0,0,0-.9-.3,1.6,1.6,0,0,0-1.3.6,2.7,2.7,0,0,0-.5,1.8,2.8,2.8,0,0,0,.5,1.8,1.6,1.6,0,0,0,1.3.6,1.5,1.5,0,0,0,1-.4A1.9,1.9,0,0,0,121.4,43.6Z"/><path class="cls-2" d="M127,45.9V45a2.3,2.3,0,0,1-2,1.1l-1-.2-.7-.5a2,2,0,0,1-.3-.8,5.4,5.4,0,0,1-.1-1V39.7h1.1v3.5a6.2,6.2,0,0,0,.1,1.1,1.1,1.1,0,0,0,.4.7l.8.2.9-.2a1.4,1.4,0,0,0,.6-.7,3.3,3.3,0,0,0,.2-1.2V39.7h1.1v6.2Z"/><path class="cls-2" d="M129.1,45.9V39.7h.9v.9a2.6,2.6,0,0,1,.7-.9l.7-.2a2.1,2.1,0,0,1,1.1.3l-.4,1-.8-.2-.6.2a1.1,1.1,0,0,0-.4.6,4.1,4.1,0,0,0-.2,1.2v3.3Z"/><path class="cls-2" d="M134.9,44.9l.2.9h-.8l-.9-.2a1,1,0,0,1-.4-.5,3.8,3.8,0,0,1-.1-1.2V40.5H132v-.8h.8V38.1l1-.6v2.2h1.1v.8h-1.1v3.6a1.8,1.8,0,0,0,.1.6l.2.2h.8Z"/><path class="cls-2" d="M139.5,45.1l-1.1.7-1.2.2a2.3,2.3,0,0,1-1.6-.5,1.7,1.7,0,0,1-.6-1.3,1.7,1.7,0,0,1,.2-.8l.5-.6.8-.3.9-.2,1.9-.4v-.3a1.2,1.2,0,0,0-.3-.9,1.8,1.8,0,0,0-1.2-.4,1.9,1.9,0,0,0-1.1.3,1.6,1.6,0,0,0-.5.9h-1a2.6,2.6,0,0,1,.5-1.1,2,2,0,0,1,.9-.6l1.4-.2,1.3.2.7.5a1.7,1.7,0,0,1,.3.7,5.9,5.9,0,0,1,.1,1v1.4a14.9,14.9,0,0,0,.1,1.9,2.3,2.3,0,0,0,.3.7h-1.1A2.2,2.2,0,0,1,139.5,45.1Zm-.1-2.4-1.7.4-.9.2-.4.3a.9.9,0,0,0,.2,1.2,1.4,1.4,0,0,0,.9.3l1.1-.3a1.6,1.6,0,0,0,.7-.7,2.5,2.5,0,0,0,.2-1.1Z"/><path class="cls-2" d="M148.5,45.9v-.8a1.9,1.9,0,0,1-1.7.9,2.4,2.4,0,0,1-1.4-.4,2.7,2.7,0,0,1-1-1.1,4,4,0,0,1-.3-1.7,4.4,4.4,0,0,1,.3-1.7,2.4,2.4,0,0,1,.9-1.2,2.5,2.5,0,0,1,1.4-.4l1,.2.7.6V37.3h1v8.6Zm-3.3-3.1a2.7,2.7,0,0,0,.5,1.8,1.5,1.5,0,0,0,1.2.6,1.5,1.5,0,0,0,1.2-.6,2.6,2.6,0,0,0,.5-1.7,2.9,2.9,0,0,0-.5-1.9,1.5,1.5,0,0,0-1.2-.6,1.5,1.5,0,0,0-1.2.6A2.8,2.8,0,0,0,145.2,42.8Z"/><path class="cls-2" d="M154.8,45.9V45a2.3,2.3,0,0,1-2,1.1l-1-.2-.7-.5a2,2,0,0,1-.3-.8,5.4,5.4,0,0,1-.1-1V39.7h1.1v3.5a6.2,6.2,0,0,0,.1,1.1,1.1,1.1,0,0,0,.4.7l.8.2.9-.2a1.4,1.4,0,0,0,.6-.7,3.3,3.3,0,0,0,.2-1.2V39.7h1.1v6.2Z"/><path class="cls-2" d="M156.9,45.9V39.7h.9v.9a2.6,2.6,0,0,1,.7-.9l.7-.2a2.1,2.1,0,0,1,1.1.3l-.4,1-.8-.2-.6.2a1.1,1.1,0,0,0-.4.6,4.1,4.1,0,0,0-.2,1.2v3.3Z"/><path class="cls-2" d="M164.5,45.1l-1.1.7-1.2.2a2.3,2.3,0,0,1-1.6-.5,1.7,1.7,0,0,1-.6-1.3,1.7,1.7,0,0,1,.2-.8l.5-.6.8-.3.9-.2,1.9-.4v-.3a1.2,1.2,0,0,0-.3-.9,1.8,1.8,0,0,0-1.2-.4,1.9,1.9,0,0,0-1.1.3,1.6,1.6,0,0,0-.5.9h-1a2.6,2.6,0,0,1,.5-1.1,2,2,0,0,1,.9-.6l1.4-.2,1.3.2.7.5a1.7,1.7,0,0,1,.3.7,5.9,5.9,0,0,1,.1,1v1.4a14.9,14.9,0,0,0,.1,1.9,2.3,2.3,0,0,0,.3.7h-1.1A2.2,2.2,0,0,1,164.5,45.1Zm-.1-2.4-1.7.4-.9.2-.4.3a.9.9,0,0,0,.2,1.2,1.4,1.4,0,0,0,.9.3l1.1-.3a1.6,1.6,0,0,0,.7-.7,2.5,2.5,0,0,0,.2-1.1Z"/><path class="cls-2" d="M170.7,43.6h1a2.7,2.7,0,0,1-.9,1.7,2.5,2.5,0,0,1-1.7.6,2.7,2.7,0,0,1-2.1-.8,3.4,3.4,0,0,1-.8-2.4,4.3,4.3,0,0,1,.3-1.8,2.3,2.3,0,0,1,1-1.1,3,3,0,0,1,1.5-.4,2.6,2.6,0,0,1,1.7.5,2.4,2.4,0,0,1,.8,1.5l-1,.2a1.7,1.7,0,0,0-.5-.9,1.3,1.3,0,0,0-.9-.3,1.6,1.6,0,0,0-1.3.6,2.7,2.7,0,0,0-.5,1.8,2.8,2.8,0,0,0,.5,1.8,1.6,1.6,0,0,0,1.3.6,1.5,1.5,0,0,0,1-.4A1.9,1.9,0,0,0,170.7,43.6Zm-2.4,3.1.3-1h.8l-.2.6.8.3a.8.8,0,0,1,.3.6,1,1,0,0,1-.4.8,2,2,0,0,1-1.3.3h-.8v-.7h.6l.8-.2a.3.3,0,0,0,.2-.3v-.2h-.9Z"/><path class="cls-2" d="M176.2,45.1l-1.1.7-1.2.2a2.3,2.3,0,0,1-1.6-.5,1.7,1.7,0,0,1-.6-1.3,1.7,1.7,0,0,1,.2-.8l.5-.6.8-.3.9-.2,1.9-.4v-.3a1.2,1.2,0,0,0-.3-.9,1.8,1.8,0,0,0-1.2-.4,1.9,1.9,0,0,0-1.1.3,1.6,1.6,0,0,0-.5.9h-1a2.6,2.6,0,0,1,.5-1.1,2,2,0,0,1,.9-.6l1.4-.2,1.3.2.7.5a1.7,1.7,0,0,1,.3.7,5.9,5.9,0,0,1,.1,1v1.4a14.9,14.9,0,0,0,.1,1.9,2.3,2.3,0,0,0,.3.7h-1.1A2.2,2.2,0,0,1,176.2,45.1Zm-3.5-6.4a1.3,1.3,0,0,1,.3-1,1.1,1.1,0,0,1,.9-.4l1,.3.6.2h.3a.8.8,0,0,0,.1-.4h.8a1.5,1.5,0,0,1-.3,1,1.1,1.1,0,0,1-.8.3l-1-.3-.6-.2h-.3a.6.6,0,0,0-.1.4Zm3.4,4-1.7.4-.9.2-.4.3a.9.9,0,0,0,.2,1.2,1.4,1.4,0,0,0,.9.3l1.1-.3a1.6,1.6,0,0,0,.7-.7,2.5,2.5,0,0,0,.2-1.1Z"/><path class="cls-2" d="M177.9,42.8a3.2,3.2,0,0,1,1-2.6,2.9,2.9,0,0,1,2-.7,2.8,2.8,0,0,1,2.1.8,3.2,3.2,0,0,1,.8,2.3,4.1,4.1,0,0,1-.4,1.9,2.6,2.6,0,0,1-1,1.1,3.1,3.1,0,0,1-1.5.4,2.8,2.8,0,0,1-2.1-.8A3.3,3.3,0,0,1,177.9,42.8Zm1.1,0a2.7,2.7,0,0,0,.5,1.8,1.7,1.7,0,0,0,2.6,0,2.7,2.7,0,0,0,.5-1.8,2.6,2.6,0,0,0-.5-1.7,1.7,1.7,0,0,0-2.6,0A2.6,2.6,0,0,0,179,42.8Z"/></g></g></svg>