<svg xmlns="http://www.w3.org/2000/svg" viewBox="0 0 330 115"><defs><style>.cls-1{fill:none;stroke:#7c7c7c;stroke-miterlimit:10;stroke-width:2px;}.cls-2{fill:#585857;}.cls-3{fill:#478ac9;}.cls-4{fill:#77aad9;}</style></defs><title>marketingPrancheta 1</title><g id="Camada_4" data-name="Camada 4"><line class="cls-1" x1="303.6" y1="174.2" x2="304.1" y2="-13.5"/></g><g id="Camada_2" data-name="Camada 2"><g id="marketing"><path d="M29,57.6l1.1.3A3.8,3.8,0,0,1,28.9,60a3.5,3.5,0,0,1-2.3.7,4.1,4.1,0,0,1-2.3-.6A3.5,3.5,0,0,1,23,58.5a5.8,5.8,0,0,1-.5-2.3,5.1,5.1,0,0,1,.5-2.3,3.5,3.5,0,0,1,1.5-1.5,4.3,4.3,0,0,1,2.1-.5,3.5,3.5,0,0,1,2.2.7A3.4,3.4,0,0,1,30,54.4l-1.1.3a2.7,2.7,0,0,0-.9-1.4,2.3,2.3,0,0,0-1.4-.4,2.8,2.8,0,0,0-1.7.5,2.5,2.5,0,0,0-.9,1.3,5.1,5.1,0,0,0-.3,1.6,5.2,5.2,0,0,0,.3,1.9,2.4,2.4,0,0,0,1,1.2,2.8,2.8,0,0,0,1.5.4,2.4,2.4,0,0,0,1.6-.6A2.8,2.8,0,0,0,29,57.6Z"/><path d="M35.3,58.6h1.1a2.7,2.7,0,0,1-1,1.5,3.2,3.2,0,0,1-3.9-.3,3.3,3.3,0,0,1-.8-2.4,3.4,3.4,0,0,1,.8-2.4,2.7,2.7,0,0,1,2.1-.9,2.7,2.7,0,0,1,2,.8,3.4,3.4,0,0,1,.8,2.4v.3H31.8a2.4,2.4,0,0,0,.6,1.6,1.7,1.7,0,0,0,1.3.5,1.6,1.6,0,0,0,1-.3A2,2,0,0,0,35.3,58.6Zm-3.5-1.7h3.5a2.1,2.1,0,0,0-.4-1.2,1.6,1.6,0,0,0-1.3-.6,1.7,1.7,0,0,0-1.2.5A1.9,1.9,0,0,0,31.9,56.9Z"/><path d="M37.4,60.6V54.4h.9v.9a2.2,2.2,0,0,1,2-1l1,.2a1.6,1.6,0,0,1,.7.5,2,2,0,0,1,.3.8,6,6,0,0,1,.1,1v3.8H41.4V56.8a2.8,2.8,0,0,0-.1-1,1,1,0,0,0-.4-.5l-.7-.2a1.7,1.7,0,0,0-1.2.4,2.1,2.1,0,0,0-.5,1.6v3.4Z"/><path d="M46,59.6l.2.9h-.8l-.9-.2A1,1,0,0,1,44,60a3.8,3.8,0,0,1-.1-1.2V55.2h-.8v-.8h.8V52.8l1-.6v2.2H46v.8H44.9v3.6a1.8,1.8,0,0,0,.1.6l.2.2H46Z"/><path d="M46.7,60.6V54.4h.9v.9a2.6,2.6,0,0,1,.7-.9l.7-.2a2.1,2.1,0,0,1,1.1.3l-.4,1-.8-.2-.6.2a1.1,1.1,0,0,0-.4.6,4.1,4.1,0,0,0-.2,1.2v3.3Z"/><path d="M49.9,57.5a3.2,3.2,0,0,1,1-2.6,2.9,2.9,0,0,1,2-.7,2.8,2.8,0,0,1,2.1.8,3.2,3.2,0,0,1,.8,2.3,4.1,4.1,0,0,1-.4,1.9,2.6,2.6,0,0,1-1,1.1,3.1,3.1,0,0,1-1.5.4,2.8,2.8,0,0,1-2.1-.8A3.3,3.3,0,0,1,49.9,57.5Zm1.1,0a2.7,2.7,0,0,0,.5,1.8,1.7,1.7,0,0,0,2.6,0,2.7,2.7,0,0,0,.5-1.8,2.6,2.6,0,0,0-.5-1.7,1.7,1.7,0,0,0-2.6,0A2.6,2.6,0,0,0,51,57.5Z"/><path d="M63.6,60.6v-.8a1.9,1.9,0,0,1-1.7.9,2.4,2.4,0,0,1-1.4-.4,2.7,2.7,0,0,1-1-1.1,4,4,0,0,1-.3-1.7,4.4,4.4,0,0,1,.3-1.7,2.4,2.4,0,0,1,.9-1.2,2.5,2.5,0,0,1,1.4-.4l1,.2.7.6V52h1v8.6Zm-3.3-3.1a2.7,2.7,0,0,0,.5,1.8,1.5,1.5,0,0,0,1.2.6,1.5,1.5,0,0,0,1.2-.6,2.6,2.6,0,0,0,.5-1.7,2.9,2.9,0,0,0-.5-1.9,1.5,1.5,0,0,0-1.2-.6,1.5,1.5,0,0,0-1.2.6A2.8,2.8,0,0,0,60.3,57.5Z"/><path d="M70.2,58.6h1.1a2.7,2.7,0,0,1-1,1.5,3.2,3.2,0,0,1-3.9-.3,3.3,3.3,0,0,1-.8-2.4,3.4,3.4,0,0,1,.8-2.4,2.7,2.7,0,0,1,2.1-.9,2.7,2.7,0,0,1,2,.8,3.4,3.4,0,0,1,.8,2.4v.3H66.6a2.4,2.4,0,0,0,.6,1.6,1.7,1.7,0,0,0,1.3.5,1.6,1.6,0,0,0,1-.3A2,2,0,0,0,70.2,58.6Zm-3.5-1.7h3.5a2.1,2.1,0,0,0-.4-1.2,1.6,1.6,0,0,0-1.3-.6,1.7,1.7,0,0,0-1.2.5A1.9,1.9,0,0,0,66.7,56.9Z"/><path d="M75.4,60.6V52h6.2v1H76.5v2.6h4.8v1H76.5v2.9h5.3v1Z"/><path d="M82.8,60.6V54.4h.9v.9a2.2,2.2,0,0,1,.8-.7,2.2,2.2,0,0,1,1.1-.3,2,2,0,0,1,1.1.3,1.5,1.5,0,0,1,.6.8,2.2,2.2,0,0,1,1.9-1.1,1.9,1.9,0,0,1,1.4.5,2.2,2.2,0,0,1,.5,1.6v4.3h-1V56.7a2.9,2.9,0,0,0-.1-.9.9.9,0,0,0-.4-.4l-.6-.2a1.5,1.5,0,0,0-1.1.4,1.9,1.9,0,0,0-.4,1.4v3.6H86.5v-4a1.8,1.8,0,0,0-.3-1.1,1,1,0,0,0-.8-.4l-.8.2a1.3,1.3,0,0,0-.5.7,3.9,3.9,0,0,0-.2,1.3v3.2Z"/><path d="M92.5,63V54.4h1v.8a2.4,2.4,0,0,1,.8-.7l1-.2a2.5,2.5,0,0,1,1.4.4,2.5,2.5,0,0,1,.9,1.2,4.2,4.2,0,0,1,.3,1.6,4.2,4.2,0,0,1-.3,1.7,2.6,2.6,0,0,1-1,1.2,2.6,2.6,0,0,1-1.4.4l-.9-.2-.7-.6v3Zm1-5.5a2.7,2.7,0,0,0,.5,1.8,1.5,1.5,0,0,0,1.2.6,1.5,1.5,0,0,0,1.2-.6,2.8,2.8,0,0,0,.5-1.8,2.7,2.7,0,0,0-.5-1.8,1.5,1.5,0,0,0-1.2-.6,1.5,1.5,0,0,0-1.2.6A2.8,2.8,0,0,0,93.4,57.5Z"/><path d="M98.8,60.6V54.4h.9v.9a2.6,2.6,0,0,1,.7-.9l.7-.2a2.1,2.1,0,0,1,1.1.3l-.4,1-.8-.2-.6.2a1.1,1.1,0,0,0-.4.6,4.1,4.1,0,0,0-.2,1.2v3.3Z"/><path d="M106.7,58.6h1.1a2.7,2.7,0,0,1-1,1.5,3.2,3.2,0,0,1-3.9-.3,3.3,3.3,0,0,1-.8-2.4,3.4,3.4,0,0,1,.8-2.4,2.7,2.7,0,0,1,2.1-.9,2.7,2.7,0,0,1,2,.8,3.4,3.4,0,0,1,.8,2.4v.3h-4.6a2.4,2.4,0,0,0,.6,1.6,1.7,1.7,0,0,0,1.3.5,1.6,1.6,0,0,0,1-.3A2,2,0,0,0,106.7,58.6Zm-3.5-1.7h3.5a2.1,2.1,0,0,0-.4-1.2,1.6,1.6,0,0,0-1.3-.6,1.7,1.7,0,0,0-1.2.5A1.9,1.9,0,0,0,103.2,56.9Z"/><path d="M108.5,61.1l1,.2a1,1,0,0,0,.4.7,1.8,1.8,0,0,0,1.1.3,1.9,1.9,0,0,0,1.1-.3,1.4,1.4,0,0,0,.5-.8,6.7,6.7,0,0,0,.1-1.4,2.2,2.2,0,0,1-1.7.8,2.3,2.3,0,0,1-2-.9,3.6,3.6,0,0,1-.7-2.2,4.1,4.1,0,0,1,.3-1.6,2.6,2.6,0,0,1,.9-1.2,2.5,2.5,0,0,1,1.4-.4,2.2,2.2,0,0,1,1.8.9v-.7h1v5.4a5.1,5.1,0,0,1-.3,2.1,2.2,2.2,0,0,1-.9,1,3.2,3.2,0,0,1-1.6.4,3,3,0,0,1-1.8-.5A1.7,1.7,0,0,1,108.5,61.1Zm.9-3.7a2.7,2.7,0,0,0,.5,1.8,1.6,1.6,0,0,0,2.4,0,2.6,2.6,0,0,0,.5-1.8,2.6,2.6,0,0,0-.5-1.7,1.6,1.6,0,0,0-1.2-.6,1.5,1.5,0,0,0-1.2.6A2.5,2.5,0,0,0,109.4,57.4Z"/><path d="M114.7,57.5a3.2,3.2,0,0,1,1-2.6,2.9,2.9,0,0,1,2-.7,2.8,2.8,0,0,1,2.1.8,3.2,3.2,0,0,1,.8,2.3,4.1,4.1,0,0,1-.4,1.9,2.6,2.6,0,0,1-1,1.1,3.1,3.1,0,0,1-1.5.4,2.8,2.8,0,0,1-2.1-.8A3.3,3.3,0,0,1,114.7,57.5Zm1.1,0a2.7,2.7,0,0,0,.5,1.8,1.7,1.7,0,0,0,2.6,0,2.7,2.7,0,0,0,.5-1.8,2.6,2.6,0,0,0-.5-1.7,1.7,1.7,0,0,0-2.6,0A2.6,2.6,0,0,0,115.7,57.5Z"/><path d="M128.6,58.6h1.1a2.7,2.7,0,0,1-1,1.5,3.2,3.2,0,0,1-3.9-.3,3.3,3.3,0,0,1-.8-2.4,3.4,3.4,0,0,1,.8-2.4,2.7,2.7,0,0,1,2.1-.9,2.7,2.7,0,0,1,2,.8,3.4,3.4,0,0,1,.8,2.4v.3h-4.6a2.4,2.4,0,0,0,.6,1.6,1.7,1.7,0,0,0,1.3.5,1.6,1.6,0,0,0,1-.3A2,2,0,0,0,128.6,58.6Zm-3.5-1.7h3.5a2.1,2.1,0,0,0-.4-1.2,1.6,1.6,0,0,0-1.3-.6,1.7,1.7,0,0,0-1.2.5A1.9,1.9,0,0,0,125.1,56.9Z"/><path d="M133.8,60.6V52h5.8v1H135v2.7h4v1h-4v3.9Z"/><path d="M140.2,57.5a3.2,3.2,0,0,1,1-2.6,2.9,2.9,0,0,1,2-.7,2.8,2.8,0,0,1,2.1.8,3.2,3.2,0,0,1,.8,2.3,4.1,4.1,0,0,1-.4,1.9,2.6,2.6,0,0,1-1,1.1,3.1,3.1,0,0,1-1.5.4,2.8,2.8,0,0,1-2.1-.8A3.3,3.3,0,0,1,140.2,57.5Zm1.1,0a2.7,2.7,0,0,0,.5,1.8,1.7,1.7,0,0,0,2.6,0,2.7,2.7,0,0,0,.5-1.8,2.6,2.6,0,0,0-.5-1.7,1.7,1.7,0,0,0-2.6,0A2.6,2.6,0,0,0,141.3,57.5Z"/><path d="M146.9,60.6V54.4h.9v.9a2.6,2.6,0,0,1,.7-.9l.7-.2a2.1,2.1,0,0,1,1.1.3l-.4,1-.8-.2-.6.2a1.1,1.1,0,0,0-.4.6,4.1,4.1,0,0,0-.2,1.2v3.3Z"/><path d="M150.5,60.6V54.4h.9v.9a2.2,2.2,0,0,1,.8-.7,2.2,2.2,0,0,1,1.1-.3,2,2,0,0,1,1.1.3,1.5,1.5,0,0,1,.6.8,2.2,2.2,0,0,1,1.9-1.1,1.9,1.9,0,0,1,1.4.5,2.2,2.2,0,0,1,.5,1.6v4.3h-1V56.7a2.9,2.9,0,0,0-.1-.9.9.9,0,0,0-.4-.4l-.6-.2a1.5,1.5,0,0,0-1.1.4,1.9,1.9,0,0,0-.4,1.4v3.6h-1.1v-4a1.8,1.8,0,0,0-.3-1.1,1,1,0,0,0-.8-.4l-.8.2a1.3,1.3,0,0,0-.5.7,3.9,3.9,0,0,0-.2,1.3v3.2Z"/><path d="M164.2,59.8l-1.1.7-1.2.2a2.3,2.3,0,0,1-1.6-.5,1.7,1.7,0,0,1-.6-1.3,1.7,1.7,0,0,1,.2-.8l.5-.6.8-.3.9-.2,1.9-.4v-.3a1.2,1.2,0,0,0-.3-.9,1.8,1.8,0,0,0-1.2-.4,1.9,1.9,0,0,0-1.1.3,1.6,1.6,0,0,0-.5.9h-1a2.6,2.6,0,0,1,.5-1.1,2,2,0,0,1,.9-.6l1.4-.2,1.3.2.7.5a1.7,1.7,0,0,1,.3.7,5.9,5.9,0,0,1,.1,1V58a14.9,14.9,0,0,0,.1,1.9,2.3,2.3,0,0,0,.3.7h-1.1A2.2,2.2,0,0,1,164.2,59.8Zm-.1-2.4-1.7.4-.9.2-.4.3a.9.9,0,0,0,.2,1.2,1.4,1.4,0,0,0,.9.3l1.1-.3a1.6,1.6,0,0,0,.7-.7,2.5,2.5,0,0,0,.2-1.1Z"/><path d="M170.6,58.3h1a2.7,2.7,0,0,1-.9,1.7,2.5,2.5,0,0,1-1.7.6,2.7,2.7,0,0,1-2.1-.8,3.4,3.4,0,0,1-.8-2.4,4.3,4.3,0,0,1,.3-1.8,2.3,2.3,0,0,1,1-1.1,3,3,0,0,1,1.5-.4,2.6,2.6,0,0,1,1.7.5,2.4,2.4,0,0,1,.8,1.5l-1,.2a1.7,1.7,0,0,0-.5-.9,1.3,1.3,0,0,0-.9-.3,1.6,1.6,0,0,0-1.3.6,2.7,2.7,0,0,0-.5,1.8,2.8,2.8,0,0,0,.5,1.8,1.6,1.6,0,0,0,1.3.6,1.5,1.5,0,0,0,1-.4A1.9,1.9,0,0,0,170.6,58.3Zm-2.4,3.1.3-1h.8l-.2.6.8.3a.8.8,0,0,1,.3.6,1,1,0,0,1-.4.8,2,2,0,0,1-1.3.3h-.8v-.7h.6l.8-.2a.3.3,0,0,0,.2-.3v-.2h-.9Z"/><path d="M176.2,59.8l-1.1.7-1.2.2a2.3,2.3,0,0,1-1.6-.5,1.7,1.7,0,0,1-.6-1.3,1.7,1.7,0,0,1,.2-.8l.5-.6.8-.3.9-.2,1.9-.4v-.3a1.2,1.2,0,0,0-.3-.9,1.8,1.8,0,0,0-1.2-.4,1.9,1.9,0,0,0-1.1.3,1.6,1.6,0,0,0-.5.9h-1a2.6,2.6,0,0,1,.5-1.1,2,2,0,0,1,.9-.6l1.4-.2,1.3.2.7.5a1.7,1.7,0,0,1,.3.7,5.9,5.9,0,0,1,.1,1V58a14.9,14.9,0,0,0,.1,1.9,2.3,2.3,0,0,0,.3.7h-1.1A2.2,2.2,0,0,1,176.2,59.8Zm-3.5-6.4a1.3,1.3,0,0,1,.3-1,1.1,1.1,0,0,1,.9-.4l1,.3.6.2h.3a.8.8,0,0,0,.1-.4h.8a1.5,1.5,0,0,1-.3,1,1.1,1.1,0,0,1-.8.3l-1-.3-.6-.2h-.3a.6.6,0,0,0-.1.4Zm3.4,4-1.7.4-.9.2-.4.3a.9.9,0,0,0,.2,1.2,1.4,1.4,0,0,0,.9.3l1.1-.3a1.6,1.6,0,0,0,.7-.7,2.5,2.5,0,0,0,.2-1.1Z"/><path d="M178.1,57.5a3.2,3.2,0,0,1,1-2.6,2.9,2.9,0,0,1,2-.7,2.8,2.8,0,0,1,2.1.8,3.2,3.2,0,0,1,.8,2.3,4.1,4.1,0,0,1-.4,1.9,2.6,2.6,0,0,1-1,1.1,3.1,3.1,0,0,1-1.5.4,2.8,2.8,0,0,1-2.1-.8A3.3,3.3,0,0,1,178.1,57.5Zm1.1,0a2.7,2.7,0,0,0,.5,1.8,1.7,1.7,0,0,0,2.6,0,2.7,2.7,0,0,0,.5-1.8,2.6,2.6,0,0,0-.5-1.7,1.7,1.7,0,0,0-2.6,0A2.6,2.6,0,0,0,179.1,57.5Z"/><path d="M47.9,75V66.4h4.5l1.1.4a2.1,2.1,0,0,1,.7.8,2.8,2.8,0,0,1-.4,3,3.3,3.3,0,0,1-2.5.8H49V75ZM49,70.5h2.2a2.4,2.4,0,0,0,1.6-.4,1.5,1.5,0,0,0,.5-1.2A1.6,1.6,0,0,0,53,68a1.3,1.3,0,0,0-.7-.5H49Z"/><path d="M55.4,75V68.8h.9v.9a2.6,2.6,0,0,1,.7-.9l.7-.2a2.1,2.1,0,0,1,1.1.3l-.4,1-.8-.2-.6.2a1.1,1.1,0,0,0-.4.6,4.1,4.1,0,0,0-.2,1.2V75Z"/><path d="M58.6,71.9a3.2,3.2,0,0,1,1-2.6,2.9,2.9,0,0,1,2-.7,2.8,2.8,0,0,1,2.1.8,3.2,3.2,0,0,1,.8,2.3,4.1,4.1,0,0,1-.4,1.9,2.6,2.6,0,0,1-1,1.1,3.1,3.1,0,0,1-1.5.4,2.8,2.8,0,0,1-2.1-.8A3.3,3.3,0,0,1,58.6,71.9Zm1.1,0a2.7,2.7,0,0,0,.5,1.8,1.7,1.7,0,0,0,2.6,0,2.7,2.7,0,0,0,.5-1.8,2.6,2.6,0,0,0-.5-1.7,1.7,1.7,0,0,0-2.6,0A2.6,2.6,0,0,0,59.7,71.9Z"/><path d="M65.6,75V69.6h-.9v-.8h.9v-.7a2.9,2.9,0,0,1,.1-.9,1.3,1.3,0,0,1,.5-.7,1.9,1.9,0,0,1,1.1-.3h1l-.2.9h-.6l-.7.2a1.1,1.1,0,0,0-.2.8v.6h1.2v.8H66.6V75Z"/><path d="M68.3,67.6V66.4h1.1v1.2Zm0,7.4V68.8h1.1V75Z"/><path d="M74.7,72.7h1a2.7,2.7,0,0,1-.9,1.7,2.5,2.5,0,0,1-1.7.6,2.7,2.7,0,0,1-2.1-.8,3.4,3.4,0,0,1-.8-2.4,4.3,4.3,0,0,1,.3-1.8,2.3,2.3,0,0,1,1-1.1,3,3,0,0,1,1.5-.4,2.6,2.6,0,0,1,1.7.5,2.4,2.4,0,0,1,.8,1.5l-1,.2a1.7,1.7,0,0,0-.5-.9,1.3,1.3,0,0,0-.9-.3,1.6,1.6,0,0,0-1.3.6,2.7,2.7,0,0,0-.5,1.8,2.8,2.8,0,0,0,.5,1.8,1.6,1.6,0,0,0,1.3.6,1.5,1.5,0,0,0,1-.4A1.9,1.9,0,0,0,74.7,72.7Z"/><path d="M76.2,67.6V66.4h1.1v1.2Zm0,7.4V68.8h1.1V75Z"/><path d="M78.2,71.9a3.2,3.2,0,0,1,1-2.6,2.9,2.9,0,0,1,2-.7,2.8,2.8,0,0,1,2.1.8,3.2,3.2,0,0,1,.8,2.3,4.1,4.1,0,0,1-.4,1.9,2.6,2.6,0,0,1-1,1.1,3.1,3.1,0,0,1-1.5.4,2.8,2.8,0,0,1-2.1-.8A3.3,3.3,0,0,1,78.2,71.9Zm1.1,0a2.7,2.7,0,0,0,.5,1.8,1.7,1.7,0,0,0,2.6,0,2.7,2.7,0,0,0,.5-1.8,2.6,2.6,0,0,0-.5-1.7,1.7,1.7,0,0,0-2.6,0A2.6,2.6,0,0,0,79.2,71.9Z"/><path d="M84.9,75V68.8h.9v.9a2.2,2.2,0,0,1,2-1l1,.2a1.6,1.6,0,0,1,.7.5,2,2,0,0,1,.3.8,6,6,0,0,1,.1,1V75H88.9V71.2a2.8,2.8,0,0,0-.1-1,1,1,0,0,0-.4-.5l-.7-.2a1.7,1.7,0,0,0-1.2.4,2.1,2.1,0,0,0-.5,1.6V75Z"/><path d="M95.2,74.2l-1.1.7-1.2.2a2.3,2.3,0,0,1-1.6-.5,1.7,1.7,0,0,1-.6-1.3,1.7,1.7,0,0,1,.2-.8l.5-.6.8-.3.9-.2,1.9-.4v-.3a1.2,1.2,0,0,0-.3-.9,1.8,1.8,0,0,0-1.2-.4,1.9,1.9,0,0,0-1.1.3,1.6,1.6,0,0,0-.5.9H91a2.6,2.6,0,0,1,.5-1.1,2,2,0,0,1,.9-.6l1.4-.2,1.3.2.7.5a1.7,1.7,0,0,1,.3.7,5.9,5.9,0,0,1,.1,1v1.4a14.9,14.9,0,0,0,.1,1.9,2.3,2.3,0,0,0,.3.7H95.4A2.2,2.2,0,0,1,95.2,74.2Zm-.1-2.4-1.7.4-.9.2-.4.3a.9.9,0,0,0,.2,1.2,1.4,1.4,0,0,0,.9.3l1.1-.3a1.6,1.6,0,0,0,.7-.7,2.5,2.5,0,0,0,.2-1.1Z"/><path d="M97.5,75V66.4h1.1V75Z"/><path d="M106.8,75v-.8a1.9,1.9,0,0,1-1.7.9,2.4,2.4,0,0,1-1.4-.4,2.7,2.7,0,0,1-1-1.1,4,4,0,0,1-.3-1.7,4.4,4.4,0,0,1,.3-1.7,2.4,2.4,0,0,1,.9-1.2,2.5,2.5,0,0,1,1.4-.4l1,.2.7.6V66.4h1V75Zm-3.3-3.1a2.7,2.7,0,0,0,.5,1.8,1.5,1.5,0,0,0,1.2.6,1.5,1.5,0,0,0,1.2-.6,2.6,2.6,0,0,0,.5-1.7,2.9,2.9,0,0,0-.5-1.9,1.5,1.5,0,0,0-1.2-.6,1.5,1.5,0,0,0-1.2.6A2.8,2.8,0,0,0,103.5,71.9Z"/><path d="M113.3,73h1.1a2.7,2.7,0,0,1-1,1.5,3.2,3.2,0,0,1-3.9-.3,3.3,3.3,0,0,1-.8-2.4,3.4,3.4,0,0,1,.8-2.4,2.7,2.7,0,0,1,2.1-.9,2.7,2.7,0,0,1,2,.8,3.4,3.4,0,0,1,.8,2.4v.3h-4.6a2.4,2.4,0,0,0,.6,1.6,1.7,1.7,0,0,0,1.3.5,1.6,1.6,0,0,0,1-.3A2,2,0,0,0,113.3,73Zm-3.5-1.7h3.5a2.1,2.1,0,0,0-.4-1.2,1.6,1.6,0,0,0-1.3-.6,1.7,1.7,0,0,0-1.2.5A1.9,1.9,0,0,0,109.9,71.3Z"/><path d="M118.5,75V66.4h3.2a4,4,0,0,1,1.6.3,2,2,0,0,1,.9.8,2.1,2.1,0,0,1,.3,1.1,1.9,1.9,0,0,1-.3,1,2.1,2.1,0,0,1-.9.8,2.2,2.2,0,0,1,1.2.8,2.1,2.1,0,0,1,.4,1.3,2.5,2.5,0,0,1-.3,1.1,2.2,2.2,0,0,1-.6.8l-.9.4h-4.7Zm1.1-5h2.9a1.2,1.2,0,0,0,.7-.4,1.2,1.2,0,0,0,.2-.7,1.4,1.4,0,0,0-.2-.8,1,1,0,0,0-.6-.4h-3Zm0,4h2.9l.7-.2.4-.5a1.5,1.5,0,0,0,.2-.7,1.4,1.4,0,0,0-.2-.8,1.3,1.3,0,0,0-.7-.5h-3.2Z"/><path d="M126,75V68.8h.9v.9a2.6,2.6,0,0,1,.7-.9l.7-.2a2.1,2.1,0,0,1,1.1.3l-.4,1-.8-.2-.6.2a1.1,1.1,0,0,0-.4.6,4.1,4.1,0,0,0-.2,1.2V75Z"/><path d="M133.7,74.2l-1.1.7-1.2.2a2.3,2.3,0,0,1-1.6-.5,1.7,1.7,0,0,1-.6-1.3,1.7,1.7,0,0,1,.2-.8l.5-.6.8-.3.9-.2,1.9-.4v-.3a1.2,1.2,0,0,0-.3-.9,1.8,1.8,0,0,0-1.2-.4,1.9,1.9,0,0,0-1.1.3,1.6,1.6,0,0,0-.5.9h-1a2.6,2.6,0,0,1,.5-1.1,2,2,0,0,1,.9-.6l1.4-.2,1.3.2.7.5a1.7,1.7,0,0,1,.3.7,5.9,5.9,0,0,1,.1,1v1.4a14.9,14.9,0,0,0,.1,1.9,2.3,2.3,0,0,0,.3.7h-1.1A2.2,2.2,0,0,1,133.7,74.2Zm-.1-2.4-1.7.4-.9.2-.4.3a.9.9,0,0,0,.2,1.2,1.4,1.4,0,0,0,.9.3l1.1-.3a1.6,1.6,0,0,0,.7-.7,2.5,2.5,0,0,0,.2-1.1Z"/><path d="M135.8,75.5l1,.2a1,1,0,0,0,.4.7,1.8,1.8,0,0,0,1.1.3,1.9,1.9,0,0,0,1.1-.3,1.4,1.4,0,0,0,.5-.8,6.7,6.7,0,0,0,.1-1.4,2.2,2.2,0,0,1-1.7.8,2.3,2.3,0,0,1-2-.9,3.6,3.6,0,0,1-.7-2.2,4.1,4.1,0,0,1,.3-1.6,2.6,2.6,0,0,1,.9-1.2,2.5,2.5,0,0,1,1.4-.4,2.2,2.2,0,0,1,1.8.9v-.7h1v5.4a5.1,5.1,0,0,1-.3,2.1,2.2,2.2,0,0,1-.9,1,3.2,3.2,0,0,1-1.6.4,3,3,0,0,1-1.8-.5A1.7,1.7,0,0,1,135.8,75.5Zm.9-3.7a2.7,2.7,0,0,0,.5,1.8,1.6,1.6,0,0,0,2.4,0,2.6,2.6,0,0,0,.5-1.8,2.6,2.6,0,0,0-.5-1.7,1.6,1.6,0,0,0-1.2-.6,1.5,1.5,0,0,0-1.2.6A2.5,2.5,0,0,0,136.6,71.8Z"/><path d="M146.3,74.2l-1.1.7-1.2.2a2.3,2.3,0,0,1-1.6-.5,1.7,1.7,0,0,1-.6-1.3,1.7,1.7,0,0,1,.2-.8l.5-.6.8-.3.9-.2,1.9-.4v-.3a1.2,1.2,0,0,0-.3-.9,1.8,1.8,0,0,0-1.2-.4,1.9,1.9,0,0,0-1.1.3,1.6,1.6,0,0,0-.5.9h-1a2.6,2.6,0,0,1,.5-1.1,2,2,0,0,1,.9-.6l1.4-.2,1.3.2.7.5a1.7,1.7,0,0,1,.3.7,5.9,5.9,0,0,1,.1,1v1.4a14.9,14.9,0,0,0,.1,1.9,2.3,2.3,0,0,0,.3.7h-1.1A2.2,2.2,0,0,1,146.3,74.2Zm-.1-2.4-1.7.4-.9.2-.4.3a.9.9,0,0,0,.2,1.2,1.4,1.4,0,0,0,.9.3l1.1-.3a1.6,1.6,0,0,0,.7-.7,2.5,2.5,0,0,0,.2-1.1Z"/><path d="M148.9,75V73.8h1.2V75a2.1,2.1,0,0,1-.2,1.1,1.5,1.5,0,0,1-.7.6l-.3-.5.5-.4a1.8,1.8,0,0,0,.2-.8Z"/><path d="M154.6,75V66.4h3.2a4,4,0,0,1,1.6.3,2,2,0,0,1,.9.8,2.1,2.1,0,0,1,.3,1.1,1.9,1.9,0,0,1-.3,1,2.1,2.1,0,0,1-.9.8,2.2,2.2,0,0,1,1.2.8,2.1,2.1,0,0,1,.4,1.3,2.5,2.5,0,0,1-.3,1.1,2.2,2.2,0,0,1-.6.8l-.9.4h-4.7Zm1.1-5h2.9a1.2,1.2,0,0,0,.7-.4,1.2,1.2,0,0,0,.2-.7,1.4,1.4,0,0,0-.2-.8,1,1,0,0,0-.6-.4h-3Zm0,4h2.9l.7-.2.4-.5a1.5,1.5,0,0,0,.2-.7,1.4,1.4,0,0,0-.2-.8,1.3,1.3,0,0,0-.7-.5h-3.2Z"/><path d="M162.2,75V68.8h.9v.9a2.6,2.6,0,0,1,.7-.9l.7-.2a2.1,2.1,0,0,1,1.1.3l-.4,1-.8-.2-.6.2a1.1,1.1,0,0,0-.4.6,4.1,4.1,0,0,0-.2,1.2V75Z"/><path d="M169.9,74.2l-1.1.7-1.2.2a2.3,2.3,0,0,1-1.6-.5,1.7,1.7,0,0,1-.6-1.3,1.7,1.7,0,0,1,.2-.8l.5-.6.8-.3.9-.2,1.9-.4v-.3a1.2,1.2,0,0,0-.3-.9,1.8,1.8,0,0,0-1.2-.4,1.9,1.9,0,0,0-1.1.3,1.6,1.6,0,0,0-.5.9h-1a2.5,2.5,0,0,1,.5-1.1,2,2,0,0,1,.9-.6l1.4-.2,1.3.2.7.5a1.7,1.7,0,0,1,.3.7,5.9,5.9,0,0,1,.1,1v1.4a14.9,14.9,0,0,0,.1,1.9,2.3,2.3,0,0,0,.3.7h-1.1A2.2,2.2,0,0,1,169.9,74.2Zm-.1-2.4-1.7.4-.9.2-.4.3a.9.9,0,0,0,.2,1.2,1.4,1.4,0,0,0,.9.3l1.1-.3a1.6,1.6,0,0,0,.7-.7,2.5,2.5,0,0,0,.2-1.1Z"/><path d="M171.9,75.5l1,.2a1,1,0,0,0,.4.7,1.8,1.8,0,0,0,1.1.3,1.9,1.9,0,0,0,1.1-.3,1.4,1.4,0,0,0,.5-.8,6.7,6.7,0,0,0,.1-1.4,2.2,2.2,0,0,1-1.7.8,2.3,2.3,0,0,1-2-.9,3.6,3.6,0,0,1-.7-2.2,4.1,4.1,0,0,1,.3-1.6A2.6,2.6,0,0,1,173,69a2.5,2.5,0,0,1,1.4-.4,2.2,2.2,0,0,1,1.8.9v-.7h1v5.4a5.1,5.1,0,0,1-.3,2.1,2.2,2.2,0,0,1-.9,1,3.2,3.2,0,0,1-1.6.4,3,3,0,0,1-1.8-.5A1.7,1.7,0,0,1,171.9,75.5Zm.9-3.7a2.7,2.7,0,0,0,.5,1.8,1.6,1.6,0,0,0,2.4,0,2.6,2.6,0,0,0,.5-1.8,2.6,2.6,0,0,0-.5-1.7,1.6,1.6,0,0,0-1.2-.6,1.5,1.5,0,0,0-1.2.6A2.5,2.5,0,0,0,172.8,71.8Z"/><path d="M182.5,74.2l-1.1.7-1.2.2a2.3,2.3,0,0,1-1.6-.5,1.7,1.7,0,0,1-.6-1.3,1.7,1.7,0,0,1,.2-.8l.5-.6.8-.3.9-.2,1.9-.4v-.3a1.2,1.2,0,0,0-.3-.9,1.8,1.8,0,0,0-1.2-.4,1.9,1.9,0,0,0-1.1.3,1.6,1.6,0,0,0-.5.9h-1a2.6,2.6,0,0,1,.5-1.1,2,2,0,0,1,.9-.6l1.4-.2,1.3.2.7.5a1.7,1.7,0,0,1,.3.7,5.9,5.9,0,0,1,.1,1v1.4a14.9,14.9,0,0,0,.1,1.9,2.3,2.3,0,0,0,.3.7h-1.1A2.2,2.2,0,0,1,182.5,74.2Zm-.1-2.4-1.7.4-.9.2-.4.3a.9.9,0,0,0,.2,1.2,1.4,1.4,0,0,0,.9.3l1.1-.3a1.6,1.6,0,0,0,.7-.7,2.5,2.5,0,0,0,.2-1.1Z"/><path d="M137.7,91.9a10.5,10.5,0,0,1-1.5-2.6,8.1,8.1,0,0,1-.2-5.7,11.2,11.2,0,0,1,1.6-3h.8l-.9,1.7a9.5,9.5,0,0,0-.6,1.7,9.8,9.8,0,0,0-.3,2.2,10.6,10.6,0,0,0,1.8,5.6Z"/><path d="M139.4,89.4V80.8H144l1.1.4a2.1,2.1,0,0,1,.7.8,2.8,2.8,0,0,1-.4,3,3.3,3.3,0,0,1-2.5.8h-2.2v3.5Zm1.1-4.5h2.2a2.4,2.4,0,0,0,1.6-.4,1.5,1.5,0,0,0,.5-1.2,1.6,1.6,0,0,0-.3-.9,1.3,1.3,0,0,0-.7-.5h-3.3Z"/><path d="M146.6,86.3a3.2,3.2,0,0,1,1-2.6,2.9,2.9,0,0,1,2-.7,2.8,2.8,0,0,1,2.1.8,3.2,3.2,0,0,1,.8,2.3,4.1,4.1,0,0,1-.4,1.9,2.6,2.6,0,0,1-1,1.1,3.1,3.1,0,0,1-1.5.4,2.8,2.8,0,0,1-2.1-.8A3.3,3.3,0,0,1,146.6,86.3Zm1.1,0a2.7,2.7,0,0,0,.5,1.8,1.7,1.7,0,0,0,2.6,0,2.7,2.7,0,0,0,.5-1.8,2.6,2.6,0,0,0-.5-1.7,1.7,1.7,0,0,0-2.6,0A2.6,2.6,0,0,0,147.6,86.3Z"/><path d="M153.3,89.4V83.2h.9v.9a2.6,2.6,0,0,1,.7-.9l.7-.2a2.1,2.1,0,0,1,1.1.3l-.4,1-.8-.2-.6.2a1.1,1.1,0,0,0-.4.6,4.1,4.1,0,0,0-.2,1.2v3.3Z"/><path d="M159.2,88.4l.2.9h-.8l-.9-.2a1,1,0,0,1-.4-.5,3.8,3.8,0,0,1-.1-1.2V84h-.8v-.8h.8V81.6l1-.6v2.2h1.1V84h-1.1v3.6a1.8,1.8,0,0,0,.1.6l.2.2h.8Z"/><path d="M164,89.4v-.9a2.3,2.3,0,0,1-2,1.1l-1-.2-.7-.5a2,2,0,0,1-.3-.8,5.4,5.4,0,0,1-.1-1V83.2h1.1v3.5a6.2,6.2,0,0,0,.1,1.1,1.1,1.1,0,0,0,.4.7l.8.2.9-.2a1.4,1.4,0,0,0,.6-.7,3.3,3.3,0,0,0,.2-1.2V83.2h1.1v6.2Z"/><path d="M166,89.9l1,.2a1,1,0,0,0,.4.7,1.8,1.8,0,0,0,1.1.3,1.9,1.9,0,0,0,1.1-.3,1.4,1.4,0,0,0,.5-.8,6.7,6.7,0,0,0,.1-1.4,2.2,2.2,0,0,1-1.7.8,2.3,2.3,0,0,1-2-.9,3.6,3.6,0,0,1-.7-2.2,4.1,4.1,0,0,1,.3-1.6,2.6,2.6,0,0,1,.9-1.2,2.5,2.5,0,0,1,1.4-.4,2.2,2.2,0,0,1,1.8.9v-.7h1v5.4a5.1,5.1,0,0,1-.3,2.1,2.2,2.2,0,0,1-.9,1,3.2,3.2,0,0,1-1.6.4,3,3,0,0,1-1.8-.5A1.7,1.7,0,0,1,166,89.9Zm.9-3.7a2.7,2.7,0,0,0,.5,1.8,1.6,1.6,0,0,0,2.4,0,2.6,2.6,0,0,0,.5-1.8,2.6,2.6,0,0,0-.5-1.7,1.6,1.6,0,0,0-1.2-.6,1.5,1.5,0,0,0-1.2.6A2.5,2.5,0,0,0,166.9,86.2Z"/><path d="M176.6,88.6l-1.1.7-1.2.2a2.3,2.3,0,0,1-1.6-.5,1.7,1.7,0,0,1-.6-1.3,1.7,1.7,0,0,1,.2-.8l.5-.6.8-.3.9-.2,1.9-.4v-.3a1.2,1.2,0,0,0-.3-.9,1.8,1.8,0,0,0-1.2-.4,1.9,1.9,0,0,0-1.1.3,1.6,1.6,0,0,0-.5.9h-1a2.6,2.6,0,0,1,.5-1.1,2,2,0,0,1,.9-.6l1.4-.2,1.3.2.7.5a1.7,1.7,0,0,1,.3.7,5.9,5.9,0,0,1,.1,1v1.4a14.9,14.9,0,0,0,.1,1.9,2.3,2.3,0,0,0,.3.7h-1.1A2.2,2.2,0,0,1,176.6,88.6Zm-.1-2.4-1.7.4-.9.2-.4.3a.9.9,0,0,0,.2,1.2,1.4,1.4,0,0,0,.9.3l1.1-.3a1.6,1.6,0,0,0,.7-.7,2.5,2.5,0,0,0,.2-1.1Z"/><path d="M178.8,89.4V80.8h1.1v8.6Z"/><path d="M181.8,91.9h-.8a10.6,10.6,0,0,0,1.8-5.6,9.6,9.6,0,0,0-.3-2.2,9.2,9.2,0,0,0-.6-1.7l-.9-1.8h.8a11.2,11.2,0,0,1,1.6,3,8.1,8.1,0,0,1-.2,5.7A10.7,10.7,0,0,1,181.8,91.9Z"/><path class="cls-2" d="M196.1,47.6H195V40.9l-1,.7-1.1.5v-1a6.4,6.4,0,0,0,1.5-1,4,4,0,0,0,.9-1.1h.7Z"/><path class="cls-2" d="M201.5,47.6h-1.1V40.9l-1,.7-1.1.5v-1a6.4,6.4,0,0,0,1.5-1,4,4,0,0,0,.9-1.1h.7Z"/><path class="cls-2" d="M203.4,47.7l2.5-8.9h.8l-2.5,8.9Z"/><path class="cls-2" d="M212.5,46.6v1h-5.7a1.9,1.9,0,0,1,.1-.7,3.9,3.9,0,0,1,.7-1.1l1.4-1.3a11.7,11.7,0,0,0,1.9-1.8,2.2,2.2,0,0,0,.5-1.3,1.4,1.4,0,0,0-.4-1.1,1.6,1.6,0,0,0-1.2-.4,1.6,1.6,0,0,0-1.2.5,1.7,1.7,0,0,0-.5,1.3H207a2.7,2.7,0,0,1,.8-1.8,2.9,2.9,0,0,1,2-.6,2.7,2.7,0,0,1,2,.7,2.3,2.3,0,0,1,.7,1.7,2.6,2.6,0,0,1-.2,1,3.9,3.9,0,0,1-.7,1l-1.6,1.5L208.7,46l-.4.6Z"/><path class="cls-2" d="M213.3,43.3a7.9,7.9,0,0,1,.3-2.5,3.1,3.1,0,0,1,.9-1.4,2.4,2.4,0,0,1,1.6-.5,2.5,2.5,0,0,1,1.2.3,2.3,2.3,0,0,1,.9.8,4.3,4.3,0,0,1,.5,1.3,8.5,8.5,0,0,1,.2,2,7.9,7.9,0,0,1-.3,2.4,3.1,3.1,0,0,1-.9,1.4,2.4,2.4,0,0,1-1.6.5,2.4,2.4,0,0,1-2-.9A5.7,5.7,0,0,1,213.3,43.3Zm1.1,0a5.4,5.4,0,0,0,.5,2.8,1.4,1.4,0,0,0,2.4,0,5.4,5.4,0,0,0,.5-2.8,5.4,5.4,0,0,0-.5-2.8,1.5,1.5,0,0,0-1.2-.7,1.4,1.4,0,0,0-1.2.6A5.4,5.4,0,0,0,214.4,43.3Z"/><path class="cls-2" d="M225.2,46.6v1h-5.7a1.9,1.9,0,0,1,.1-.7,3.9,3.9,0,0,1,.7-1.1l1.4-1.3a11.7,11.7,0,0,0,1.9-1.8,2.2,2.2,0,0,0,.5-1.3,1.4,1.4,0,0,0-.4-1.1,1.6,1.6,0,0,0-1.2-.4,1.6,1.6,0,0,0-1.2.5,1.7,1.7,0,0,0-.5,1.3h-1.1a2.7,2.7,0,0,1,.8-1.8,2.9,2.9,0,0,1,2-.6,2.7,2.7,0,0,1,2,.7,2.3,2.3,0,0,1,.7,1.7,2.6,2.6,0,0,1-.2,1,3.9,3.9,0,0,1-.7,1l-1.6,1.5L221.4,46l-.4.6Z"/><path class="cls-2" d="M226,43.3a7.9,7.9,0,0,1,.3-2.5,3.1,3.1,0,0,1,.9-1.4,2.4,2.4,0,0,1,1.6-.5,2.5,2.5,0,0,1,1.2.3,2.3,2.3,0,0,1,.9.8,4.3,4.3,0,0,1,.5,1.3,8.5,8.5,0,0,1,.2,2,7.9,7.9,0,0,1-.3,2.4,3.1,3.1,0,0,1-.9,1.4,2.4,2.4,0,0,1-1.6.5,2.4,2.4,0,0,1-2-.9A5.7,5.7,0,0,1,226,43.3Zm1.1,0a5.4,5.4,0,0,0,.5,2.8,1.4,1.4,0,0,0,2.4,0,5.4,5.4,0,0,0,.5-2.8,5.4,5.4,0,0,0-.5-2.8,1.5,1.5,0,0,0-1.2-.7,1.4,1.4,0,0,0-1.2.6A5.4,5.4,0,0,0,227.1,43.3Z"/><path class="cls-2" d="M231.8,44.9V44h6.7v.8Z"/><path class="cls-2" d="M242.7,47.6h-1.1V40.9l-1,.7-1.1.5v-1a6.4,6.4,0,0,0,1.5-1A4,4,0,0,0,242,39h.7Z"/><path class="cls-2" d="M248.1,47.6h-1.1V40.9l-1,.7-1.1.5v-1a6.4,6.4,0,0,0,1.5-1,4,4,0,0,0,.9-1.1h.7Z"/><path class="cls-2" d="M250,47.7l2.5-8.9h.8l-2.5,8.9Z"/><path class="cls-2" d="M259,46.6v1h-5.7a1.9,1.9,0,0,1,.1-.7,3.9,3.9,0,0,1,.7-1.1l1.4-1.3a11.7,11.7,0,0,0,1.9-1.8,2.2,2.2,0,0,0,.5-1.3,1.4,1.4,0,0,0-.4-1.1,1.6,1.6,0,0,0-1.2-.4,1.6,1.6,0,0,0-1.2.5,1.7,1.7,0,0,0-.5,1.3h-1.1a2.7,2.7,0,0,1,.8-1.8,2.9,2.9,0,0,1,2-.6,2.7,2.7,0,0,1,2,.7,2.3,2.3,0,0,1,.7,1.7,2.6,2.6,0,0,1-.2,1,3.9,3.9,0,0,1-.7,1l-1.6,1.5L255.3,46l-.4.6Z"/><path class="cls-2" d="M259.9,43.3a7.9,7.9,0,0,1,.3-2.5,3.1,3.1,0,0,1,.9-1.4,2.4,2.4,0,0,1,1.6-.5,2.5,2.5,0,0,1,1.2.3,2.3,2.3,0,0,1,.9.8,4.3,4.3,0,0,1,.5,1.3,8.5,8.5,0,0,1,.2,2,7.9,7.9,0,0,1-.3,2.4,3.1,3.1,0,0,1-.9,1.4,2.4,2.4,0,0,1-1.6.5,2.4,2.4,0,0,1-2-.9A5.7,5.7,0,0,1,259.9,43.3Zm1.1,0a5.4,5.4,0,0,0,.5,2.8,1.4,1.4,0,0,0,2.4,0,5.4,5.4,0,0,0,.5-2.8,5.4,5.4,0,0,0-.5-2.8,1.5,1.5,0,0,0-1.2-.7,1.4,1.4,0,0,0-1.2.6A5.4,5.4,0,0,0,260.9,43.3Z"/><path class="cls-2" d="M270.2,47.6h-1.1V40.9l-1,.7-1.1.5v-1a6.4,6.4,0,0,0,1.5-1,4,4,0,0,0,.9-1.1h.7Z"/><path class="cls-2" d="M272.7,45.6h1a1.8,1.8,0,0,0,.5,1,1.4,1.4,0,0,0,.9.3l.9-.2.6-.6a3.5,3.5,0,0,0,.4-1,5.3,5.3,0,0,0,.2-1.3v-.2a2.4,2.4,0,0,1-.9.8,2.3,2.3,0,0,1-1.2.3,2.4,2.4,0,0,1-1.8-.8,2.8,2.8,0,0,1-.7-2,2.9,2.9,0,0,1,.8-2.1,2.6,2.6,0,0,1,1.9-.8,2.8,2.8,0,0,1,1.5.5,2.8,2.8,0,0,1,1.1,1.3,6.3,6.3,0,0,1,.4,2.4,7.8,7.8,0,0,1-.4,2.6,3.1,3.1,0,0,1-1.1,1.5,2.8,2.8,0,0,1-1.7.5,2.3,2.3,0,0,1-2.4-2.1Zm4.3-3.8a2.1,2.1,0,0,0-.5-1.4,1.5,1.5,0,0,0-1.2-.5,1.6,1.6,0,0,0-1.2.6,2.1,2.1,0,0,0-.5,1.5,1.8,1.8,0,0,0,.5,1.3,1.6,1.6,0,0,0,1.2.5,1.6,1.6,0,0,0,1.2-.5A2,2,0,0,0,277,41.8Z"/><path class="cls-2" d="M87.2,34.6v-10h2l2.4,7.1.5,1.5.5-1.6,2.4-7h1.8v10H95.4V26.2l-2.9,8.4H91.3L88.4,26v8.5Z"/><path class="cls-2" d="M103.1,33.7a4.6,4.6,0,0,1-1.3.8l-1.4.2a2.6,2.6,0,0,1-1.8-.6,1.9,1.9,0,0,1-.6-1.5,2,2,0,0,1,.2-1,2,2,0,0,1,.6-.7l.9-.4,1.1-.2,2.2-.4v-.3a1.4,1.4,0,0,0-.3-1.1,2.1,2.1,0,0,0-1.4-.4,2.2,2.2,0,0,0-1.3.3,1.9,1.9,0,0,0-.6,1.1l-1.2-.2a3,3,0,0,1,.5-1.2,2.4,2.4,0,0,1,1.1-.7l1.6-.3,1.5.2a2,2,0,0,1,.9.6,1.9,1.9,0,0,1,.4.8,6.9,6.9,0,0,1,.1,1.1v1.6a17.5,17.5,0,0,0,.1,2.2,2.7,2.7,0,0,0,.3.9h-1.3A2.6,2.6,0,0,1,103.1,33.7Zm-.1-2.7-2,.5-1.1.2-.5.4a1.1,1.1,0,0,0,.2,1.4,1.6,1.6,0,0,0,1.1.3,2.5,2.5,0,0,0,1.3-.3,1.9,1.9,0,0,0,.8-.9,3,3,0,0,0,.2-1.2Z"/><path class="cls-2" d="M105.7,34.6V27.3h1.1v1.1a3,3,0,0,1,.8-1l.8-.2a2.4,2.4,0,0,1,1.3.4l-.4,1.1-.9-.3-.7.2a1.3,1.3,0,0,0-.5.7,4.8,4.8,0,0,0-.2,1.4v3.8Z"/><path class="cls-2" d="M110,34.6v-10h1.2v5.7l2.9-3h1.6L113,30l3.1,4.6h-1.5l-2.4-3.7-.9.8v2.9Z"/><path class="cls-2" d="M121.6,32.2l1.3.2a3.1,3.1,0,0,1-1.1,1.7,3.8,3.8,0,0,1-4.6-.4,3.8,3.8,0,0,1-.9-2.8,4,4,0,0,1,.9-2.8,3.2,3.2,0,0,1,2.4-1,3.1,3.1,0,0,1,2.4,1,3.9,3.9,0,0,1,.9,2.8v.3h-5.4a2.8,2.8,0,0,0,.7,1.8,2,2,0,0,0,1.5.6,1.9,1.9,0,0,0,1.2-.4A2.4,2.4,0,0,0,121.6,32.2Zm-4-2h4.1a2.5,2.5,0,0,0-.5-1.4,1.9,1.9,0,0,0-1.5-.7,2,2,0,0,0-1.4.6A2.2,2.2,0,0,0,117.6,30.2Z"/><path class="cls-2" d="M126.7,33.5l.2,1.1H126l-1-.2a1.2,1.2,0,0,1-.5-.6,4.4,4.4,0,0,1-.2-1.5V28.2h-.9v-1h.9V25.5l1.2-.7v2.5h1.2v1h-1.2v4.2a2.1,2.1,0,0,0,.1.7l.2.2h1Z"/><path class="cls-2" d="M127.6,25.9V24.5h1.2v1.4Zm0,8.6V27.3h1.2v7.3Z"/><path class="cls-2" d="M130.3,34.6V27.3h1.1v1a2.6,2.6,0,0,1,2.3-1.2l1.2.2a1.9,1.9,0,0,1,.8.6,2.4,2.4,0,0,1,.4.9,7.1,7.1,0,0,1,.1,1.2v4.5H135V30.1a3.3,3.3,0,0,0-.1-1.1,1.2,1.2,0,0,0-.5-.6l-.9-.2a2,2,0,0,0-1.4.5,2.5,2.5,0,0,0-.6,1.9v4Z"/><path class="cls-2" d="M137.5,35.2l1.2.2a1.1,1.1,0,0,0,.4.8,2,2,0,0,0,1.3.3,2.2,2.2,0,0,0,1.3-.3,1.7,1.7,0,0,0,.6-1,7.9,7.9,0,0,0,.1-1.6,2.5,2.5,0,0,1-2,1,2.7,2.7,0,0,1-2.3-1.1,4.2,4.2,0,0,1-.8-2.6,4.8,4.8,0,0,1,.4-1.9,3,3,0,0,1,1.1-1.4,2.9,2.9,0,0,1,1.7-.5,2.6,2.6,0,0,1,2.1,1v-.9h1.1v6.3a6,6,0,0,1-.3,2.4,2.5,2.5,0,0,1-1.1,1.1,3.8,3.8,0,0,1-1.8.4,3.5,3.5,0,0,1-2.1-.6A2,2,0,0,1,137.5,35.2Zm1-4.4a3.1,3.1,0,0,0,.6,2.1,1.8,1.8,0,0,0,1.4.7,1.8,1.8,0,0,0,1.4-.7,3,3,0,0,0,.6-2,3,3,0,0,0-.6-2,1.8,1.8,0,0,0-1.4-.7,1.8,1.8,0,0,0-1.4.7A3,3,0,0,0,138.5,30.8Z"/><path class="cls-2" d="M148.8,34.6v-10H154a3.4,3.4,0,0,1,1.5.7,4.1,4.1,0,0,1,1.2,1.7,6.7,6.7,0,0,1,.4,2.4,7,7,0,0,1-.3,2,4.9,4.9,0,0,1-.7,1.5,3.6,3.6,0,0,1-.9.9l-1.2.5-1.6.2Zm1.3-1.2h2.1l1.6-.2.9-.5a3.2,3.2,0,0,0,.7-1.3,6.2,6.2,0,0,0,.3-1.9,4.7,4.7,0,0,0-.5-2.4,2.6,2.6,0,0,0-1.3-1.1l-1.7-.2h-2.1Z"/><path class="cls-2" d="M158.4,25.9V24.5h1.2v1.4Zm0,8.6V27.3h1.2v7.3Z"/><path class="cls-2" d="M160.9,35.2l1.2.2a1.1,1.1,0,0,0,.4.8,2,2,0,0,0,1.3.3,2.2,2.2,0,0,0,1.3-.3,1.7,1.7,0,0,0,.6-1,7.9,7.9,0,0,0,.1-1.6,2.5,2.5,0,0,1-2,1,2.7,2.7,0,0,1-2.3-1.1,4.2,4.2,0,0,1-.8-2.6A4.8,4.8,0,0,1,161,29a3,3,0,0,1,1.1-1.4,2.9,2.9,0,0,1,1.7-.5,2.6,2.6,0,0,1,2.1,1v-.9H167v6.3a5.9,5.9,0,0,1-.3,2.4,2.5,2.5,0,0,1-1.1,1.1,3.8,3.8,0,0,1-1.8.4,3.5,3.5,0,0,1-2.1-.6A2,2,0,0,1,160.9,35.2Zm1-4.4a3.1,3.1,0,0,0,.6,2.1,1.8,1.8,0,0,0,1.4.7,1.8,1.8,0,0,0,1.4-.7,3,3,0,0,0,.6-2,3,3,0,0,0-.6-2,1.8,1.8,0,0,0-1.4-.7,1.8,1.8,0,0,0-1.4.7A3,3,0,0,0,161.9,30.8Z"/><path class="cls-2" d="M168.5,25.9V24.5h1.2v1.4Zm0,8.6V27.3h1.2v7.3Z"/><path class="cls-2" d="M173.9,33.5l.2,1.1h-.9l-1-.2a1.2,1.2,0,0,1-.5-.6,4.4,4.4,0,0,1-.2-1.5V28.2h-.9v-1h.9V25.5l1.2-.7v2.5h1.2v1h-1.2v4.2a2.2,2.2,0,0,0,.1.7l.2.2h1Z"/><path class="cls-2" d="M179.5,33.7a4.6,4.6,0,0,1-1.3.8l-1.4.2a2.6,2.6,0,0,1-1.8-.6,1.9,1.9,0,0,1-.6-1.5,2,2,0,0,1,.2-1,2,2,0,0,1,.6-.7l.9-.4,1.1-.2,2.2-.4v-.3a1.4,1.4,0,0,0-.3-1.1,2.1,2.1,0,0,0-1.4-.4,2.2,2.2,0,0,0-1.3.3,1.9,1.9,0,0,0-.6,1.1l-1.2-.2a3,3,0,0,1,.5-1.2,2.4,2.4,0,0,1,1.1-.7l1.6-.3,1.5.2a2,2,0,0,1,.9.6,1.9,1.9,0,0,1,.4.8,6.9,6.9,0,0,1,.1,1.1v1.6a17.6,17.6,0,0,0,.1,2.2,2.7,2.7,0,0,0,.3.9h-1.3A2.6,2.6,0,0,1,179.5,33.7Zm-.1-2.7-2,.5-1.1.2-.5.4a1.1,1.1,0,0,0,.2,1.4,1.6,1.6,0,0,0,1.1.3,2.5,2.5,0,0,0,1.3-.3,1.9,1.9,0,0,0,.8-.9,3,3,0,0,0,.2-1.2Z"/><path class="cls-2" d="M182.1,34.6v-10h1.2v10Z"/><path class="cls-2" d="M49.4,48.3V39.7h5.8v1H50.6v2.7h4v1h-4v3.9Z"/><path class="cls-2" d="M55.7,45.2a3.2,3.2,0,0,1,1-2.6,2.9,2.9,0,0,1,2-.7,2.8,2.8,0,0,1,2.1.8,3.2,3.2,0,0,1,.8,2.3,4.1,4.1,0,0,1-.4,1.9,2.6,2.6,0,0,1-1,1.1,3.1,3.1,0,0,1-1.5.4,2.8,2.8,0,0,1-2.1-.8A3.3,3.3,0,0,1,55.7,45.2Zm1.1,0a2.7,2.7,0,0,0,.5,1.8,1.7,1.7,0,0,0,2.6,0,2.7,2.7,0,0,0,.5-1.8,2.6,2.6,0,0,0-.5-1.7,1.7,1.7,0,0,0-2.6,0A2.6,2.6,0,0,0,56.8,45.2Z"/><path class="cls-2" d="M62.3,48.3V42.1h.9V43a2.6,2.6,0,0,1,.7-.9l.7-.2a2.1,2.1,0,0,1,1.1.3l-.4,1-.8-.2-.6.2a1.1,1.1,0,0,0-.4.6,4.1,4.1,0,0,0-.2,1.2v3.3Z"/><path class="cls-2" d="M65.8,48.3V42.1h.9V43a2.2,2.2,0,0,1,.8-.7,2.2,2.2,0,0,1,1.1-.3,2,2,0,0,1,1.1.3,1.5,1.5,0,0,1,.6.8A2.2,2.2,0,0,1,72.3,42a1.9,1.9,0,0,1,1.4.5,2.2,2.2,0,0,1,.5,1.6v4.3h-1V44.4a2.9,2.9,0,0,0-.1-.9.9.9,0,0,0-.4-.4l-.6-.2a1.5,1.5,0,0,0-1.1.4,1.9,1.9,0,0,0-.4,1.4v3.6H69.5v-4a1.8,1.8,0,0,0-.3-1.1,1,1,0,0,0-.8-.4l-.8.2a1.3,1.3,0,0,0-.5.7,3.9,3.9,0,0,0-.2,1.3v3.2Z"/><path class="cls-2" d="M79.4,47.6l-1.1.7-1.2.2a2.3,2.3,0,0,1-1.6-.5,1.7,1.7,0,0,1-.6-1.3,1.7,1.7,0,0,1,.2-.8l.5-.6.8-.3.9-.2,1.9-.4v-.3a1.2,1.2,0,0,0-.3-.9,1.8,1.8,0,0,0-1.2-.4,1.9,1.9,0,0,0-1.1.3,1.6,1.6,0,0,0-.5.9h-1a2.6,2.6,0,0,1,.5-1.1,2,2,0,0,1,.9-.6l1.4-.2,1.3.2.7.5a1.7,1.7,0,0,1,.3.7,5.9,5.9,0,0,1,.1,1v1.4a14.9,14.9,0,0,0,.1,1.9,2.3,2.3,0,0,0,.3.7H79.6A2.2,2.2,0,0,1,79.4,47.6Zm-.1-2.4-1.7.4-.9.2-.4.3a.9.9,0,0,0,.2,1.2,1.4,1.4,0,0,0,.9.3l1.1-.3a1.6,1.6,0,0,0,.7-.7,2.5,2.5,0,0,0,.2-1.1Z"/><path class="cls-2" d="M85.6,46h1a2.7,2.7,0,0,1-.9,1.7,2.5,2.5,0,0,1-1.7.6,2.7,2.7,0,0,1-2.1-.8,3.4,3.4,0,0,1-.8-2.4,4.3,4.3,0,0,1,.3-1.8,2.3,2.3,0,0,1,1-1.1A3,3,0,0,1,84,42a2.6,2.6,0,0,1,1.7.5,2.4,2.4,0,0,1,.8,1.5l-1,.2a1.7,1.7,0,0,0-.5-.9,1.3,1.3,0,0,0-.9-.3,1.6,1.6,0,0,0-1.3.6,2.7,2.7,0,0,0-.5,1.8,2.8,2.8,0,0,0,.5,1.8,1.6,1.6,0,0,0,1.3.6,1.5,1.5,0,0,0,1-.4A1.9,1.9,0,0,0,85.6,46Zm-2.4,3.1.3-1h.8l-.2.6.8.3a.8.8,0,0,1,.3.6,1,1,0,0,1-.4.8,2,2,0,0,1-1.3.3h-.8v-.7h.6l.8-.2a.3.3,0,0,0,.2-.3v-.2h-.9Z"/><path class="cls-2" d="M91.1,47.6l-1.1.7-1.2.2a2.3,2.3,0,0,1-1.6-.5,1.7,1.7,0,0,1-.6-1.3,1.7,1.7,0,0,1,.2-.8l.5-.6.8-.3.9-.2,1.9-.4v-.3a1.2,1.2,0,0,0-.3-.9,1.8,1.8,0,0,0-1.2-.4,1.9,1.9,0,0,0-1.1.3,1.6,1.6,0,0,0-.5.9h-1a2.6,2.6,0,0,1,.5-1.1,2,2,0,0,1,.9-.6l1.4-.2,1.3.2.7.5a1.7,1.7,0,0,1,.3.7,5.9,5.9,0,0,1,.1,1v1.4a14.9,14.9,0,0,0,.1,1.9,2.3,2.3,0,0,0,.3.7H91.3A2.2,2.2,0,0,1,91.1,47.6Zm-3.5-6.4a1.3,1.3,0,0,1,.3-1,1.1,1.1,0,0,1,.9-.4l1,.3.6.2h.3a.8.8,0,0,0,.1-.4h.8a1.5,1.5,0,0,1-.3,1,1.1,1.1,0,0,1-.8.3l-1-.3-.6-.2h-.3a.6.6,0,0,0-.1.4Zm3.4,4-1.7.4-.9.2-.4.3a.9.9,0,0,0,.2,1.2,1.4,1.4,0,0,0,.9.3l1.1-.3a1.6,1.6,0,0,0,.7-.7,2.5,2.5,0,0,0,.2-1.1Z"/><path class="cls-2" d="M92.8,45.2a3.2,3.2,0,0,1,1-2.6,2.9,2.9,0,0,1,2-.7,2.8,2.8,0,0,1,2.1.8,3.2,3.2,0,0,1,.8,2.3,4.1,4.1,0,0,1-.4,1.9,2.6,2.6,0,0,1-1,1.1,3.1,3.1,0,0,1-1.5.4,2.8,2.8,0,0,1-2.1-.8A3.3,3.3,0,0,1,92.8,45.2Zm1.1,0a2.7,2.7,0,0,0,.5,1.8A1.7,1.7,0,0,0,97,47a2.7,2.7,0,0,0,.5-1.8,2.6,2.6,0,0,0-.5-1.7,1.7,1.7,0,0,0-2.6,0A2.6,2.6,0,0,0,93.9,45.2Z"/><path class="cls-2" d="M106.3,48.3v-.8a1.9,1.9,0,0,1-1.7.9,2.4,2.4,0,0,1-1.4-.4,2.7,2.7,0,0,1-1-1.1,4,4,0,0,1-.3-1.7,4.4,4.4,0,0,1,.3-1.7,2.4,2.4,0,0,1,.9-1.2,2.5,2.5,0,0,1,1.4-.4l1,.2.7.6V39.7h1v8.6ZM103,45.2a2.7,2.7,0,0,0,.5,1.8,1.5,1.5,0,0,0,1.2.6,1.5,1.5,0,0,0,1.2-.6,2.6,2.6,0,0,0,.5-1.7,2.9,2.9,0,0,0-.5-1.9,1.5,1.5,0,0,0-1.2-.6,1.5,1.5,0,0,0-1.2.6A2.8,2.8,0,0,0,103,45.2Z"/><path class="cls-2" d="M112.7,46.3h1.1a2.7,2.7,0,0,1-1,1.5,3.2,3.2,0,0,1-3.9-.3,3.3,3.3,0,0,1-.8-2.4,3.4,3.4,0,0,1,.8-2.4A2.7,2.7,0,0,1,111,42a2.7,2.7,0,0,1,2,.8,3.4,3.4,0,0,1,.8,2.4v.3h-4.6a2.4,2.4,0,0,0,.6,1.6,1.7,1.7,0,0,0,1.3.5,1.6,1.6,0,0,0,1-.3A2,2,0,0,0,112.7,46.3Zm-3.5-1.7h3.5a2.1,2.1,0,0,0-.4-1.2,1.6,1.6,0,0,0-1.3-.6,1.7,1.7,0,0,0-1.2.5A1.9,1.9,0,0,0,109.3,44.6Z"/><path class="cls-2" d="M121.6,46h1a2.7,2.7,0,0,1-.9,1.7,2.5,2.5,0,0,1-1.7.6,2.7,2.7,0,0,1-2.1-.8,3.4,3.4,0,0,1-.8-2.4,4.3,4.3,0,0,1,.3-1.8,2.3,2.3,0,0,1,1-1.1A3,3,0,0,1,120,42a2.6,2.6,0,0,1,1.7.5,2.4,2.4,0,0,1,.8,1.5l-1,.2a1.7,1.7,0,0,0-.5-.9,1.3,1.3,0,0,0-.9-.3,1.6,1.6,0,0,0-1.3.6,2.7,2.7,0,0,0-.5,1.8,2.8,2.8,0,0,0,.5,1.8,1.6,1.6,0,0,0,1.3.6,1.5,1.5,0,0,0,1-.4A1.9,1.9,0,0,0,121.6,46Z"/><path class="cls-2" d="M127.1,48.3v-.9a2.3,2.3,0,0,1-2,1.1l-1-.2-.7-.5a2,2,0,0,1-.3-.8,5.4,5.4,0,0,1-.1-1V42.1h1.1v3.5a6.2,6.2,0,0,0,.1,1.1,1.1,1.1,0,0,0,.4.7l.8.2.9-.2a1.4,1.4,0,0,0,.6-.7,3.3,3.3,0,0,0,.2-1.2V42.1H128v6.2Z"/><path class="cls-2" d="M129.2,48.3V42.1h.9V43a2.6,2.6,0,0,1,.7-.9l.7-.2a2.1,2.1,0,0,1,1.1.3l-.4,1-.8-.2-.6.2a1.1,1.1,0,0,0-.4.6,4.1,4.1,0,0,0-.2,1.2v3.3Z"/><path class="cls-2" d="M135,47.4l.2.9h-.8l-.9-.2a1,1,0,0,1-.4-.5,3.8,3.8,0,0,1-.1-1.2V42.9h-.8v-.8h.8V40.6l1-.6v2.2H135v.8H134v3.6a1.8,1.8,0,0,0,.1.6l.2.2h.8Z"/><path class="cls-2" d="M139.7,47.6l-1.1.7-1.2.2a2.3,2.3,0,0,1-1.6-.5,1.7,1.7,0,0,1-.6-1.3,1.7,1.7,0,0,1,.2-.8l.5-.6.8-.3.9-.2,1.9-.4v-.3a1.2,1.2,0,0,0-.3-.9,1.8,1.8,0,0,0-1.2-.4,1.9,1.9,0,0,0-1.1.3,1.6,1.6,0,0,0-.5.9h-1a2.6,2.6,0,0,1,.5-1.1,2,2,0,0,1,.9-.6l1.4-.2,1.3.2.7.5a1.7,1.7,0,0,1,.3.7,5.9,5.9,0,0,1,.1,1v1.4a14.9,14.9,0,0,0,.1,1.9,2.3,2.3,0,0,0,.3.7h-1.1A2.2,2.2,0,0,1,139.7,47.6Zm-.1-2.4-1.7.4-.9.2-.4.3a.9.9,0,0,0,.2,1.2,1.4,1.4,0,0,0,.9.3l1.1-.3a1.6,1.6,0,0,0,.7-.7,2.5,2.5,0,0,0,.2-1.1Z"/><path class="cls-2" d="M148.7,48.3v-.8a1.9,1.9,0,0,1-1.7.9,2.4,2.4,0,0,1-1.4-.4,2.7,2.7,0,0,1-1-1.1,4,4,0,0,1-.3-1.7,4.4,4.4,0,0,1,.3-1.7,2.4,2.4,0,0,1,.9-1.2,2.5,2.5,0,0,1,1.4-.4l1,.2.7.6V39.7h1v8.6Zm-3.3-3.1a2.7,2.7,0,0,0,.5,1.8,1.5,1.5,0,0,0,1.2.6,1.5,1.5,0,0,0,1.2-.6,2.6,2.6,0,0,0,.5-1.7,2.9,2.9,0,0,0-.5-1.9,1.5,1.5,0,0,0-1.2-.6,1.5,1.5,0,0,0-1.2.6A2.8,2.8,0,0,0,145.3,45.2Z"/><path class="cls-2" d="M154.9,48.3v-.9a2.3,2.3,0,0,1-2,1.1l-1-.2-.7-.5a2,2,0,0,1-.3-.8,5.4,5.4,0,0,1-.1-1V42.1h1.1v3.5a6.2,6.2,0,0,0,.1,1.1,1.1,1.1,0,0,0,.4.7l.8.2.9-.2a1.4,1.4,0,0,0,.6-.7,3.3,3.3,0,0,0,.2-1.2V42.1h1.1v6.2Z"/><path class="cls-2" d="M157,48.3V42.1h.9V43a2.6,2.6,0,0,1,.7-.9l.7-.2a2.1,2.1,0,0,1,1.1.3l-.4,1-.8-.2-.6.2a1.1,1.1,0,0,0-.4.6,4.1,4.1,0,0,0-.2,1.2v3.3Z"/><path class="cls-2" d="M164.6,47.6l-1.1.7-1.2.2a2.3,2.3,0,0,1-1.6-.5,1.7,1.7,0,0,1-.6-1.3,1.7,1.7,0,0,1,.2-.8l.5-.6.8-.3.9-.2,1.9-.4v-.3a1.2,1.2,0,0,0-.3-.9,1.8,1.8,0,0,0-1.2-.4,1.9,1.9,0,0,0-1.1.3,1.6,1.6,0,0,0-.5.9h-1a2.6,2.6,0,0,1,.5-1.1,2,2,0,0,1,.9-.6l1.4-.2,1.3.2.7.5a1.7,1.7,0,0,1,.3.7,5.9,5.9,0,0,1,.1,1v1.4a14.9,14.9,0,0,0,.1,1.9,2.3,2.3,0,0,0,.3.7h-1.1A2.2,2.2,0,0,1,164.6,47.6Zm-.1-2.4-1.7.4-.9.2-.4.3a.9.9,0,0,0,.2,1.2,1.4,1.4,0,0,0,.9.3l1.1-.3a1.6,1.6,0,0,0,.7-.7,2.5,2.5,0,0,0,.2-1.1Z"/><path class="cls-2" d="M170.8,46h1a2.7,2.7,0,0,1-.9,1.7,2.5,2.5,0,0,1-1.7.6,2.7,2.7,0,0,1-2.1-.8,3.4,3.4,0,0,1-.8-2.4,4.3,4.3,0,0,1,.3-1.8,2.3,2.3,0,0,1,1-1.1,3,3,0,0,1,1.5-.4,2.6,2.6,0,0,1,1.7.5,2.4,2.4,0,0,1,.8,1.5l-1,.2a1.7,1.7,0,0,0-.5-.9,1.3,1.3,0,0,0-.9-.3,1.6,1.6,0,0,0-1.3.6,2.7,2.7,0,0,0-.5,1.8A2.8,2.8,0,0,0,168,47a1.6,1.6,0,0,0,1.3.6,1.5,1.5,0,0,0,1-.4A1.9,1.9,0,0,0,170.8,46Zm-2.4,3.1.3-1h.8l-.2.6.8.3a.8.8,0,0,1,.3.6,1,1,0,0,1-.4.8,2,2,0,0,1-1.3.3h-.8v-.7h.6l.8-.2a.3.3,0,0,0,.2-.3v-.2h-.9Z"/><path class="cls-2" d="M176.3,47.6l-1.1.7-1.2.2a2.3,2.3,0,0,1-1.6-.5,1.7,1.7,0,0,1-.6-1.3,1.7,1.7,0,0,1,.2-.8l.5-.6.8-.3.9-.2,1.9-.4v-.3a1.2,1.2,0,0,0-.3-.9,1.8,1.8,0,0,0-1.2-.4,1.9,1.9,0,0,0-1.1.3,1.6,1.6,0,0,0-.5.9h-1a2.6,2.6,0,0,1,.5-1.1,2,2,0,0,1,.9-.6l1.4-.2,1.3.2.7.5a1.7,1.7,0,0,1,.3.7,5.9,5.9,0,0,1,.1,1v1.4a14.9,14.9,0,0,0,.1,1.9,2.3,2.3,0,0,0,.3.7h-1.1A2.2,2.2,0,0,1,176.3,47.6Zm-3.5-6.4a1.3,1.3,0,0,1,.3-1,1.1,1.1,0,0,1,.9-.4l1,.3.6.2h.3a.8.8,0,0,0,.1-.4h.8a1.5,1.5,0,0,1-.3,1,1.1,1.1,0,0,1-.8.3l-1-.3-.6-.2h-.3a.6.6,0,0,0-.1.4Zm3.4,4-1.7.4-.9.2-.4.3a.9.9,0,0,0,.2,1.2,1.4,1.4,0,0,0,.9.3l1.1-.3a1.6,1.6,0,0,0,.7-.7,2.5,2.5,0,0,0,.2-1.1Z"/><path class="cls-2" d="M178.1,45.2a3.2,3.2,0,0,1,1-2.6,2.9,2.9,0,0,1,2-.7,2.8,2.8,0,0,1,2.1.8,3.2,3.2,0,0,1,.8,2.3,4.1,4.1,0,0,1-.4,1.9,2.6,2.6,0,0,1-1,1.1,3.1,3.1,0,0,1-1.5.4,2.8,2.8,0,0,1-2.1-.8A3.3,3.3,0,0,1,178.1,45.2Zm1.1,0a2.7,2.7,0,0,0,.5,1.8,1.7,1.7,0,0,0,2.6,0,2.7,2.7,0,0,0,.5-1.8,2.6,2.6,0,0,0-.5-1.7,1.7,1.7,0,0,0-2.6,0A2.6,2.6,0,0,0,179.1,45.2Z"/><path class="cls-3" d="M286.3,31.6H195.4a.6.6,0,0,0-.7.4,1.2,1.2,0,0,1-1.4.6,1.3,1.3,0,0,1-.9-1.2,1.2,1.2,0,0,1,2.4-.5.5.5,0,0,0,.5.3h99c.7,0,.7,0,.7-.7s0-.4.1-.6A9.7,9.7,0,1,1,304.6,41a9.4,9.4,0,0,1-7.2-3.2,9.1,9.1,0,0,1-2.4-5.8c0-.2,0-.4-.3-.4h-8.3Zm18.2,8.8a9.1,9.1,0,1,0-9-9.6A9.1,9.1,0,0,0,304.5,40.4Z"/><path class="cls-4" d="M286.6,31.1h-.3a17.7,17.7,0,0,1,5-12.3,17.7,17.7,0,0,1,11-5.6,18.4,18.4,0,0,1,20.3,14.4,17.8,17.8,0,0,1-3.5,15,17.7,17.7,0,0,1-8.8,6.2,18.3,18.3,0,0,1-22.1-9.2,16.9,16.9,0,0,1-1.9-6.9V31.6h.3a17.1,17.1,0,0,0,1.9,7.9,17.8,17.8,0,0,0,8.8,8.4,18,18,0,0,0,21.6-5.4A17.5,17.5,0,0,0,322.4,28a17.3,17.3,0,0,0-6.2-10.5,17.6,17.6,0,0,0-15-3.8,17.3,17.3,0,0,0-9.7,5.4A17.5,17.5,0,0,0,286.6,31.1Z"/><path class="cls-4" d="M281.7,31.1h-.3a21.5,21.5,0,0,1,2.4-10A23.5,23.5,0,0,1,301.7,8.2H304c.1,0,.3-.1.3.1s-.2.2-.3.2a22.9,22.9,0,0,0-9.8,2.5,22.7,22.7,0,0,0-4.5,3.1,22.8,22.8,0,0,0-7.9,15.3C281.7,29.9,281.7,30.5,281.7,31.1Z"/><path class="cls-3" d="M304.6,38.3a7,7,0,1,1,6.9-6.9A7,7,0,0,1,304.6,38.3Zm-6.4-7a6.4,6.4,0,1,0,6.5-6.4A6.4,6.4,0,0,0,298.2,31.3Z"/><path class="cls-3" d="M308.1,31.4a3.5,3.5,0,1,1-3.4-3.5A3.5,3.5,0,0,1,308.1,31.4Z"/><path class="cls-3" d="M286.3,31.6H195.4a.6.6,0,0,0-.7.4,1.2,1.2,0,0,1-1.4.6,1.3,1.3,0,0,1-.9-1.2,1.2,1.2,0,0,1,2.4-.5.5.5,0,0,0,.5.3h99c.7,0,.7,0,.7-.7s0-.4.1-.6A9.7,9.7,0,1,1,304.6,41a9.4,9.4,0,0,1-7.2-3.2,9.1,9.1,0,0,1-2.4-5.8c0-.2,0-.4-.3-.4h-8.3Zm18.2,8.8a9.1,9.1,0,1,0-9-9.6A9.1,9.1,0,0,0,304.5,40.4Z"/><path class="cls-4" d="M286.6,31.1h-.3a17.7,17.7,0,0,1,5-12.3,17.7,17.7,0,0,1,11-5.6,18.4,18.4,0,0,1,20.3,14.4,17.8,17.8,0,0,1-3.5,15,17.7,17.7,0,0,1-8.8,6.2,18.3,18.3,0,0,1-22.1-9.2,16.9,16.9,0,0,1-1.9-6.9V31.6h.3a17.1,17.1,0,0,0,1.9,7.9,17.8,17.8,0,0,0,8.8,8.4,18,18,0,0,0,21.6-5.4A17.5,17.5,0,0,0,322.4,28a17.3,17.3,0,0,0-6.2-10.5,17.6,17.6,0,0,0-15-3.8,17.3,17.3,0,0,0-9.7,5.4A17.5,17.5,0,0,0,286.6,31.1Z"/><path class="cls-4" d="M281.7,31.1h-.3a21.5,21.5,0,0,1,2.4-10A23.5,23.5,0,0,1,301.7,8.2H304c.1,0,.3-.1.3.1s-.2.2-.3.2a22.9,22.9,0,0,0-9.8,2.5,22.7,22.7,0,0,0-4.5,3.1,22.8,22.8,0,0,0-7.9,15.3C281.7,29.9,281.7,30.5,281.7,31.1Z"/><path class="cls-3" d="M304.6,38.3a7,7,0,1,1,6.9-6.9A7,7,0,0,1,304.6,38.3Zm-6.4-7a6.4,6.4,0,1,0,6.5-6.4A6.4,6.4,0,0,0,298.2,31.3Z"/><path class="cls-3" d="M308.1,31.4a3.5,3.5,0,1,1-3.4-3.5A3.5,3.5,0,0,1,308.1,31.4Z"/></g></g></svg>