<svg xmlns="http://www.w3.org/2000/svg" viewBox="0 0 330 115"><defs><style>.cls-1{fill:none;stroke:#7c7c7c;stroke-miterlimit:10;stroke-width:2px;}.cls-2{fill:#585857;}.cls-3{fill:#478ac9;}.cls-4{fill:#77aad9;}</style></defs><title>multimediaPrancheta 1</title><g id="Camada_4" data-name="Camada 4"><line class="cls-1" x1="303.6" y1="174.2" x2="304.1" y2="-13.5"/></g><g id="Camada_2" data-name="Camada 2"><g id="multimedia"><path d="M27.2,61.7V53.1h6.2v1H28.4v2.6h4.8v1H28.4v2.9h5.3v1Z"/><path d="M34.3,59.9l1-.2a1.5,1.5,0,0,0,.5,1,1.7,1.7,0,0,0,1.1.3,1.6,1.6,0,0,0,1.1-.3.9.9,0,0,0,.4-.7.6.6,0,0,0-.3-.6L37,59.1l-1.6-.5a1.5,1.5,0,0,1-.9-1.4,1.6,1.6,0,0,1,.2-.8l.5-.6.7-.3h.9l1.3.2a1.7,1.7,0,0,1,.8.6,2.2,2.2,0,0,1,.4,1h-1a1.1,1.1,0,0,0-.4-.7,1.5,1.5,0,0,0-1-.3,1.7,1.7,0,0,0-1,.2.7.7,0,0,0-.3.6.6.6,0,0,0,.1.4l.4.3.9.3,1.6.5a1.6,1.6,0,0,1,.7.6,1.5,1.5,0,0,1,.3.9,1.8,1.8,0,0,1-.3,1,2,2,0,0,1-.9.7l-1.3.3a2.9,2.9,0,0,1-1.8-.5A2.3,2.3,0,0,1,34.3,59.9Z"/><path d="M44.4,59.4h1a2.7,2.7,0,0,1-.9,1.7,2.5,2.5,0,0,1-1.7.6,2.7,2.7,0,0,1-2.1-.8,3.4,3.4,0,0,1-.8-2.4,4.3,4.3,0,0,1,.3-1.8,2.3,2.3,0,0,1,1-1.1,3,3,0,0,1,1.5-.4,2.6,2.6,0,0,1,1.7.5,2.4,2.4,0,0,1,.8,1.5l-1,.2a1.7,1.7,0,0,0-.5-.9,1.3,1.3,0,0,0-.9-.3,1.6,1.6,0,0,0-1.3.6,2.7,2.7,0,0,0-.5,1.8,2.8,2.8,0,0,0,.5,1.8,1.6,1.6,0,0,0,1.3.6,1.5,1.5,0,0,0,1-.4A1.9,1.9,0,0,0,44.4,59.4Z"/><path d="M45.6,58.6a3.2,3.2,0,0,1,1-2.6,2.9,2.9,0,0,1,2-.7,2.8,2.8,0,0,1,2.1.8,3.2,3.2,0,0,1,.8,2.3,4.1,4.1,0,0,1-.4,1.9,2.6,2.6,0,0,1-1,1.1,3.1,3.1,0,0,1-1.5.4,2.8,2.8,0,0,1-2.1-.8A3.3,3.3,0,0,1,45.6,58.6Zm1.1,0a2.7,2.7,0,0,0,.5,1.8,1.7,1.7,0,0,0,2.6,0,2.7,2.7,0,0,0,.5-1.8,2.6,2.6,0,0,0-.5-1.7,1.7,1.7,0,0,0-2.6,0A2.6,2.6,0,0,0,46.7,58.6Z"/><path d="M52.3,61.7V53.1h1.1v8.6Z"/><path d="M58.7,61l-1.1.7-1.2.2a2.3,2.3,0,0,1-1.6-.5,1.7,1.7,0,0,1-.6-1.3,1.7,1.7,0,0,1,.2-.8l.5-.6.8-.3.9-.2,1.9-.4v-.3a1.2,1.2,0,0,0-.3-.9,1.8,1.8,0,0,0-1.2-.4,1.9,1.9,0,0,0-1.1.3,1.6,1.6,0,0,0-.5.9h-1a2.6,2.6,0,0,1,.5-1.1,2,2,0,0,1,.9-.6l1.4-.2,1.3.2.7.5a1.7,1.7,0,0,1,.3.7,5.9,5.9,0,0,1,.1,1v1.4a14.9,14.9,0,0,0,.1,1.9,2.3,2.3,0,0,0,.3.7H58.9A2.2,2.2,0,0,1,58.7,61Zm-.1-2.4-1.7.4-.9.2-.4.3a.9.9,0,0,0,.2,1.2,1.4,1.4,0,0,0,.9.3l1.1-.3a1.6,1.6,0,0,0,.7-.7,2.5,2.5,0,0,0,.2-1.1Z"/><path d="M63.6,59h1.1a2.4,2.4,0,0,0,.4,1.1,1.9,1.9,0,0,0,.9.7l1.3.3,1.1-.2a1.6,1.6,0,0,0,.7-.5,1.2,1.2,0,0,0,.2-.7,1.1,1.1,0,0,0-.2-.7l-.8-.5-1.5-.4-1.7-.5a2.3,2.3,0,0,1-.9-.8,2,2,0,0,1-.3-1.1,2.2,2.2,0,0,1,.4-1.2,2.3,2.3,0,0,1,1.1-.9A4.1,4.1,0,0,1,67,53a4.3,4.3,0,0,1,1.7.3,2.4,2.4,0,0,1,1.1.9,2.6,2.6,0,0,1,.4,1.4H69.1a1.8,1.8,0,0,0-.6-1.2A2.3,2.3,0,0,0,67,54a2.4,2.4,0,0,0-1.5.4,1.1,1.1,0,0,0-.5.9,1,1,0,0,0,.3.8,4.5,4.5,0,0,0,1.7.6l1.9.5a2.6,2.6,0,0,1,1.1.9,2.1,2.1,0,0,1,.4,1.2,2.3,2.3,0,0,1-.4,1.3,2.6,2.6,0,0,1-1.1.9,3.9,3.9,0,0,1-1.7.3,4.9,4.9,0,0,1-2-.3,2.7,2.7,0,0,1-1.2-1A2.9,2.9,0,0,1,63.6,59Z"/><path d="M75.6,61.7v-.9a2.3,2.3,0,0,1-2,1.1l-1-.2-.7-.5a2,2,0,0,1-.3-.8,5.4,5.4,0,0,1-.1-1V55.5h1.1v3.5a6.2,6.2,0,0,0,.1,1.1,1.1,1.1,0,0,0,.4.7l.8.2.9-.2a1.4,1.4,0,0,0,.6-.7,3.3,3.3,0,0,0,.2-1.2V55.5h1.1v6.2Z"/><path d="M77.8,64.1V55.5h1v.8a2.4,2.4,0,0,1,.8-.7l1-.2a2.5,2.5,0,0,1,1.4.4,2.5,2.5,0,0,1,.9,1.2,4.2,4.2,0,0,1,.3,1.6,4.2,4.2,0,0,1-.3,1.7,2.6,2.6,0,0,1-1,1.2,2.6,2.6,0,0,1-1.4.4l-.9-.2-.7-.6v3Zm1-5.5a2.7,2.7,0,0,0,.5,1.8,1.5,1.5,0,0,0,1.2.6,1.5,1.5,0,0,0,1.2-.6,2.8,2.8,0,0,0,.5-1.8,2.7,2.7,0,0,0-.5-1.8,1.5,1.5,0,0,0-1.2-.6,1.5,1.5,0,0,0-1.2.6A2.8,2.8,0,0,0,78.8,58.6Z"/><path d="M88.4,59.7h1.1a2.7,2.7,0,0,1-1,1.5,3.2,3.2,0,0,1-3.9-.3,3.3,3.3,0,0,1-.8-2.4,3.4,3.4,0,0,1,.8-2.4,2.7,2.7,0,0,1,2.1-.9,2.7,2.7,0,0,1,2,.8,3.4,3.4,0,0,1,.8,2.4v.3H84.9a2.4,2.4,0,0,0,.6,1.6,1.7,1.7,0,0,0,1.3.5,1.6,1.6,0,0,0,1-.3A2,2,0,0,0,88.4,59.7ZM85,58h3.5a2.1,2.1,0,0,0-.4-1.2,1.6,1.6,0,0,0-1.3-.6,1.7,1.7,0,0,0-1.2.5A1.9,1.9,0,0,0,85,58Z"/><path d="M90.5,61.7V55.5h.9v.9a2.6,2.6,0,0,1,.7-.9l.7-.2a2.1,2.1,0,0,1,1.1.3l-.4,1-.8-.2-.6.2a1.1,1.1,0,0,0-.4.6,4.1,4.1,0,0,0-.2,1.2v3.3Z"/><path d="M94.1,54.3V53.1h1.1v1.2Zm0,7.4V55.5h1.1v6.2Z"/><path d="M96,58.6A3.2,3.2,0,0,1,97,56a2.9,2.9,0,0,1,2-.7,2.8,2.8,0,0,1,2.1.8,3.2,3.2,0,0,1,.8,2.3,4.1,4.1,0,0,1-.4,1.9,2.6,2.6,0,0,1-1,1.1,3.1,3.1,0,0,1-1.5.4,2.8,2.8,0,0,1-2.1-.8A3.3,3.3,0,0,1,96,58.6Zm1.1,0a2.7,2.7,0,0,0,.5,1.8,1.7,1.7,0,0,0,2.6,0,2.7,2.7,0,0,0,.5-1.8,2.6,2.6,0,0,0-.5-1.7,1.7,1.7,0,0,0-2.6,0A2.6,2.6,0,0,0,97.1,58.6Z"/><path d="M102.7,61.7V55.5h.9v.9a2.6,2.6,0,0,1,.7-.9l.7-.2a2.1,2.1,0,0,1,1.1.3l-.4,1-.8-.2-.6.2a1.1,1.1,0,0,0-.4.6,4.1,4.1,0,0,0-.2,1.2v3.3Z"/><path d="M113.4,61.7v-.8a1.9,1.9,0,0,1-1.7.9,2.4,2.4,0,0,1-1.4-.4,2.7,2.7,0,0,1-1-1.1,4,4,0,0,1-.3-1.7,4.4,4.4,0,0,1,.3-1.7,2.4,2.4,0,0,1,.9-1.2,2.5,2.5,0,0,1,1.4-.4l1,.2.7.6V53.1h1v8.6ZM110,58.6a2.7,2.7,0,0,0,.5,1.8,1.5,1.5,0,0,0,1.2.6,1.5,1.5,0,0,0,1.2-.6,2.6,2.6,0,0,0,.5-1.7,2.9,2.9,0,0,0-.5-1.9,1.5,1.5,0,0,0-1.2-.6,1.5,1.5,0,0,0-1.2.6A2.8,2.8,0,0,0,110,58.6Z"/><path d="M119.9,59.7H121a2.7,2.7,0,0,1-1,1.5,3.2,3.2,0,0,1-3.9-.3,3.3,3.3,0,0,1-.8-2.4,3.4,3.4,0,0,1,.8-2.4,2.7,2.7,0,0,1,2.1-.9,2.7,2.7,0,0,1,2,.8,3.4,3.4,0,0,1,.8,2.4v.3h-4.6a2.4,2.4,0,0,0,.6,1.6,1.7,1.7,0,0,0,1.3.5,1.6,1.6,0,0,0,1-.3A2,2,0,0,0,119.9,59.7ZM116.5,58h3.5a2.1,2.1,0,0,0-.4-1.2,1.6,1.6,0,0,0-1.3-.6,1.7,1.7,0,0,0-1.2.5A1.9,1.9,0,0,0,116.5,58Z"/><path d="M125,61.7V53.1h1.7l2,6.1.4,1.3.5-1.4,2.1-6h1.5v8.6h-1.1V54.5l-2.5,7.2h-1l-2.5-7.3v7.3Z"/><path d="M138.8,59.7h1.1a2.7,2.7,0,0,1-1,1.5A3.2,3.2,0,0,1,135,61a3.3,3.3,0,0,1-.8-2.4,3.4,3.4,0,0,1,.8-2.4,2.7,2.7,0,0,1,2.1-.9,2.7,2.7,0,0,1,2,.8,3.4,3.4,0,0,1,.8,2.4v.3h-4.6a2.4,2.4,0,0,0,.6,1.6,1.7,1.7,0,0,0,1.3.5,1.6,1.6,0,0,0,1-.3A2,2,0,0,0,138.8,59.7ZM135.4,58h3.5a2.1,2.1,0,0,0-.4-1.2,1.6,1.6,0,0,0-1.3-.6,1.7,1.7,0,0,0-1.2.5A1.9,1.9,0,0,0,135.4,58Z"/><path d="M144.9,61.7v-.8a1.9,1.9,0,0,1-1.7.9,2.4,2.4,0,0,1-1.4-.4,2.7,2.7,0,0,1-1-1.1,4,4,0,0,1-.3-1.7,4.4,4.4,0,0,1,.3-1.7,2.4,2.4,0,0,1,.9-1.2,2.5,2.5,0,0,1,1.4-.4l1,.2.7.6V53.1h1v8.6Zm-3.3-3.1a2.7,2.7,0,0,0,.5,1.8,1.5,1.5,0,0,0,1.2.6,1.5,1.5,0,0,0,1.2-.6,2.6,2.6,0,0,0,.5-1.7,2.9,2.9,0,0,0-.5-1.9,1.5,1.5,0,0,0-1.2-.6,1.5,1.5,0,0,0-1.2.6A2.8,2.8,0,0,0,141.6,58.6Z"/><path d="M147.2,54.3V53.1h1.1v1.2Zm0,7.4V55.5h1.1v6.2Z"/><path d="M153.6,61l-1.1.7-1.2.2a2.3,2.3,0,0,1-1.6-.5,1.7,1.7,0,0,1-.6-1.3,1.7,1.7,0,0,1,.2-.8l.5-.6.8-.3.9-.2,1.9-.4v-.3a1.2,1.2,0,0,0-.3-.9,1.8,1.8,0,0,0-1.2-.4,1.9,1.9,0,0,0-1.1.3,1.6,1.6,0,0,0-.5.9h-1a2.6,2.6,0,0,1,.5-1.1,2,2,0,0,1,.9-.6l1.4-.2,1.3.2.7.5a1.7,1.7,0,0,1,.3.7,5.9,5.9,0,0,1,.1,1v1.4a14.9,14.9,0,0,0,.1,1.9,2.3,2.3,0,0,0,.3.7h-1.1A2.2,2.2,0,0,1,153.6,61Zm-.1-2.4-1.7.4-.9.2-.4.3a.9.9,0,0,0,.2,1.2,1.4,1.4,0,0,0,.9.3l1.1-.3a1.6,1.6,0,0,0,.7-.7,2.5,2.5,0,0,0,.2-1.1Z"/><path d="M157.3,61.7l3.3-8.6h1.2l3.5,8.6h-1.3l-1-2.6h-3.6l-.9,2.6Zm2.5-3.5h2.9l-.9-2.4-.6-1.8a11,11,0,0,1-.5,1.6Z"/><path d="M165.8,61.7V55.5h.9v.9a2.6,2.6,0,0,1,.7-.9l.7-.2a2.1,2.1,0,0,1,1.1.3l-.4,1-.8-.2-.6.2a1.1,1.1,0,0,0-.4.6,4.1,4.1,0,0,0-.2,1.2v3.3Z"/><path d="M171.7,60.8l.2.9h-.8l-.9-.2a1,1,0,0,1-.4-.5,3.8,3.8,0,0,1-.1-1.2V56.3h-.8v-.8h.8V54l1-.6v2.2h1.1v.8h-1.1V60a1.8,1.8,0,0,0,.1.6l.2.2h.8Z"/><path d="M176.7,59.7h1.1a2.7,2.7,0,0,1-1,1.5,3.2,3.2,0,0,1-3.9-.3,3.3,3.3,0,0,1-.8-2.4,3.4,3.4,0,0,1,.8-2.4,2.7,2.7,0,0,1,2.1-.9,2.7,2.7,0,0,1,2,.8,3.4,3.4,0,0,1,.8,2.4v.3h-4.6a2.4,2.4,0,0,0,.6,1.6,1.7,1.7,0,0,0,1.3.5,1.6,1.6,0,0,0,1-.3A2,2,0,0,0,176.7,59.7ZM173.2,58h3.5a2.1,2.1,0,0,0-.4-1.2,1.6,1.6,0,0,0-1.3-.6,1.7,1.7,0,0,0-1.2.5A1.9,1.9,0,0,0,173.2,58Z"/><path d="M178.3,59.9l1-.2a1.5,1.5,0,0,0,.5,1,1.7,1.7,0,0,0,1.1.3,1.6,1.6,0,0,0,1.1-.3.9.9,0,0,0,.4-.7.6.6,0,0,0-.3-.6l-1.1-.4-1.6-.5a1.5,1.5,0,0,1-.9-1.4,1.6,1.6,0,0,1,.2-.8l.5-.6.7-.3h.9l1.3.2a1.7,1.7,0,0,1,.8.6,2.2,2.2,0,0,1,.4,1h-1a1.1,1.1,0,0,0-.4-.7,1.5,1.5,0,0,0-1-.3,1.7,1.7,0,0,0-1,.2.7.7,0,0,0-.3.6.6.6,0,0,0,.1.4l.4.3.9.3,1.6.5a1.6,1.6,0,0,1,.7.6,1.5,1.5,0,0,1,.3.9,1.8,1.8,0,0,1-.3,1,2,2,0,0,1-.9.7l-1.3.3a2.9,2.9,0,0,1-1.8-.5A2.3,2.3,0,0,1,178.3,59.9Z"/><path d="M47.4,74.1h1.1a2.7,2.7,0,0,1-1,1.5,3.2,3.2,0,0,1-3.9-.3,3.3,3.3,0,0,1-.8-2.4,3.4,3.4,0,0,1,.8-2.4,2.7,2.7,0,0,1,2.1-.9,2.7,2.7,0,0,1,2,.8,3.4,3.4,0,0,1,.8,2.4v.3H43.9a2.4,2.4,0,0,0,.6,1.6,1.7,1.7,0,0,0,1.3.5,1.6,1.6,0,0,0,1-.3A2,2,0,0,0,47.4,74.1Zm-3.5-1.7h3.5a2.1,2.1,0,0,0-.4-1.2,1.6,1.6,0,0,0-1.3-.6,1.7,1.7,0,0,0-1.2.5A1.9,1.9,0,0,0,43.9,72.4Z"/><path d="M52.6,76.1V67.5h4.5a2.9,2.9,0,0,1,1.3.6,3.5,3.5,0,0,1,1,1.5,5.8,5.8,0,0,1,.3,2,6,6,0,0,1-.2,1.7,4.2,4.2,0,0,1-.6,1.3l-.8.8L57,76H52.6Zm1.1-1h1.8l1.3-.2.8-.4a2.7,2.7,0,0,0,.6-1.1,5.3,5.3,0,0,0,.2-1.7,4,4,0,0,0-.4-2.1,2.2,2.2,0,0,0-1.1-1l-1.5-.2H53.7Z"/><path d="M65,74.1h1.1a2.7,2.7,0,0,1-1,1.5,3.2,3.2,0,0,1-3.9-.3,3.3,3.3,0,0,1-.8-2.4,3.4,3.4,0,0,1,.8-2.4,2.7,2.7,0,0,1,2.1-.9,2.7,2.7,0,0,1,2,.8,3.4,3.4,0,0,1,.8,2.4v.3H61.5a2.4,2.4,0,0,0,.6,1.6,1.7,1.7,0,0,0,1.3.5,1.6,1.6,0,0,0,1-.3A2,2,0,0,0,65,74.1Zm-3.5-1.7H65a2.1,2.1,0,0,0-.4-1.2,1.6,1.6,0,0,0-1.3-.6,1.7,1.7,0,0,0-1.2.5A1.9,1.9,0,0,0,61.5,72.4Z"/><path d="M66.6,74.3l1-.2a1.5,1.5,0,0,0,.5,1,1.7,1.7,0,0,0,1.1.3,1.6,1.6,0,0,0,1.1-.3.9.9,0,0,0,.4-.7.6.6,0,0,0-.3-.6l-1.1-.4L67.7,73a1.5,1.5,0,0,1-.9-1.4,1.6,1.6,0,0,1,.2-.8l.5-.6.7-.3h.9l1.3.2a1.7,1.7,0,0,1,.8.6,2.2,2.2,0,0,1,.4,1h-1a1.1,1.1,0,0,0-.4-.7,1.5,1.5,0,0,0-1-.3,1.7,1.7,0,0,0-1,.2.7.7,0,0,0-.3.6.6.6,0,0,0,.1.4l.4.3.9.3,1.6.5a1.6,1.6,0,0,1,.7.6,1.5,1.5,0,0,1,.3.9,1.8,1.8,0,0,1-.3,1,2,2,0,0,1-.9.7l-1.3.3a2.9,2.9,0,0,1-1.8-.5A2.3,2.3,0,0,1,66.6,74.3Z"/><path d="M72.7,68.7V67.5h1.1v1.2Zm0,7.4V69.9h1.1v6.2Z"/><path d="M74.8,76.6l1,.2a1,1,0,0,0,.4.7,1.8,1.8,0,0,0,1.1.3,1.9,1.9,0,0,0,1.1-.3,1.4,1.4,0,0,0,.5-.8,6.7,6.7,0,0,0,.1-1.4,2.2,2.2,0,0,1-1.7.8,2.3,2.3,0,0,1-2-.9,3.6,3.6,0,0,1-.7-2.2,4.1,4.1,0,0,1,.3-1.6,2.6,2.6,0,0,1,.9-1.2,2.5,2.5,0,0,1,1.4-.4,2.2,2.2,0,0,1,1.8.9v-.7h1v5.4a5.1,5.1,0,0,1-.3,2.1,2.2,2.2,0,0,1-.9,1,3.2,3.2,0,0,1-1.6.4,3,3,0,0,1-1.8-.5A1.7,1.7,0,0,1,74.8,76.6Zm.9-3.7a2.7,2.7,0,0,0,.5,1.8,1.6,1.6,0,0,0,2.4,0,2.6,2.6,0,0,0,.5-1.8,2.6,2.6,0,0,0-.5-1.7,1.6,1.6,0,0,0-1.2-.6,1.5,1.5,0,0,0-1.2.6A2.5,2.5,0,0,0,75.7,72.9Z"/><path d="M81.3,76.1V69.9h.9v.9a2.2,2.2,0,0,1,2-1l1,.2a1.6,1.6,0,0,1,.7.5,2,2,0,0,1,.3.8,6,6,0,0,1,.1,1v3.8H85.3V72.3a2.8,2.8,0,0,0-.1-1,1,1,0,0,0-.4-.5l-.7-.2a1.7,1.7,0,0,0-1.2.4,2.1,2.1,0,0,0-.5,1.6v3.4Z"/><path d="M90.9,78.6V67.4h.9V78.6Z"/><path d="M96.5,76.1V67.5H101l1.1.4a2.1,2.1,0,0,1,.7.8,2.8,2.8,0,0,1-.4,3,3.3,3.3,0,0,1-2.5.8H97.6v3.5Zm1.1-4.5h2.2a2.4,2.4,0,0,0,1.6-.4,1.5,1.5,0,0,0,.5-1.2,1.6,1.6,0,0,0-.3-.9,1.3,1.3,0,0,0-.7-.5H97.6Z"/><path d="M102.7,76.1V74.9h1.2v1.2Z"/><path d="M105.5,76.1V67.5h4.5l1.1.4a2.1,2.1,0,0,1,.7.8,2.8,2.8,0,0,1-.4,3,3.3,3.3,0,0,1-2.5.8h-2.2v3.5Zm1.1-4.5h2.2a2.4,2.4,0,0,0,1.6-.4,1.5,1.5,0,0,0,.5-1.2,1.6,1.6,0,0,0-.3-.9,1.3,1.3,0,0,0-.7-.5h-3.3Z"/><path d="M112.7,73a3.2,3.2,0,0,1,1-2.6,2.9,2.9,0,0,1,2-.7,2.8,2.8,0,0,1,2.1.8,3.2,3.2,0,0,1,.8,2.3,4.1,4.1,0,0,1-.4,1.9,2.6,2.6,0,0,1-1,1.1,3.1,3.1,0,0,1-1.5.4,2.8,2.8,0,0,1-2.1-.8A3.3,3.3,0,0,1,112.7,73Zm1.1,0a2.7,2.7,0,0,0,.5,1.8,1.7,1.7,0,0,0,2.6,0,2.7,2.7,0,0,0,.5-1.8,2.6,2.6,0,0,0-.5-1.7,1.7,1.7,0,0,0-2.6,0A2.6,2.6,0,0,0,113.7,73Z"/><path d="M119.3,76.1V69.9h.9v.9a2.6,2.6,0,0,1,.7-.9l.7-.2a2.1,2.1,0,0,1,1.1.3l-.4,1-.8-.2-.6.2a1.1,1.1,0,0,0-.4.6,4.1,4.1,0,0,0-.2,1.2v3.3Z"/><path d="M125.3,75.2l.2.9h-.8l-.9-.2a1,1,0,0,1-.4-.5,3.8,3.8,0,0,1-.1-1.2V70.7h-.8v-.8h.8V68.4l1-.6v2.2h1.1v.8h-1.1v3.6a1.8,1.8,0,0,0,.1.6l.2.2h.8Z"/><path d="M125.6,73a3.2,3.2,0,0,1,1-2.6,2.9,2.9,0,0,1,2-.7,2.8,2.8,0,0,1,2.1.8,3.2,3.2,0,0,1,.8,2.3,4.1,4.1,0,0,1-.4,1.9,2.6,2.6,0,0,1-1,1.1,3.1,3.1,0,0,1-1.5.4,2.8,2.8,0,0,1-2.1-.8A3.3,3.3,0,0,1,125.6,73Zm1.1,0a2.7,2.7,0,0,0,.5,1.8,1.7,1.7,0,0,0,2.6,0,2.7,2.7,0,0,0,.5-1.8,2.6,2.6,0,0,0-.5-1.7,1.7,1.7,0,0,0-2.6,0A2.6,2.6,0,0,0,126.7,73Z"/><path d="M137.3,78.6a10.5,10.5,0,0,1-1.5-2.6,8.1,8.1,0,0,1-.2-5.7,11.2,11.2,0,0,1,1.6-3h.8l-.9,1.7a9.5,9.5,0,0,0-.6,1.7,9.8,9.8,0,0,0-.3,2.2,10.6,10.6,0,0,0,1.8,5.6Z"/><path d="M139,76.1V67.5h4.5l1.1.4a2.1,2.1,0,0,1,.7.8,2.8,2.8,0,0,1-.4,3,3.3,3.3,0,0,1-2.5.8h-2.2v3.5Zm1.1-4.5h2.2a2.4,2.4,0,0,0,1.6-.4,1.5,1.5,0,0,0,.5-1.2,1.6,1.6,0,0,0-.3-.9,1.3,1.3,0,0,0-.7-.5h-3.3Z"/><path d="M146.1,73a3.2,3.2,0,0,1,1-2.6,2.9,2.9,0,0,1,2-.7,2.8,2.8,0,0,1,2.1.8,3.2,3.2,0,0,1,.8,2.3,4.1,4.1,0,0,1-.4,1.9,2.6,2.6,0,0,1-1,1.1,3.1,3.1,0,0,1-1.5.4,2.8,2.8,0,0,1-2.1-.8A3.3,3.3,0,0,1,146.1,73Zm1.1,0a2.7,2.7,0,0,0,.5,1.8,1.7,1.7,0,0,0,2.6,0,2.7,2.7,0,0,0,.5-1.8,2.6,2.6,0,0,0-.5-1.7,1.7,1.7,0,0,0-2.6,0A2.6,2.6,0,0,0,147.2,73Z"/><path d="M152.8,76.1V69.9h.9v.9a2.6,2.6,0,0,1,.7-.9l.7-.2a2.1,2.1,0,0,1,1.1.3l-.4,1-.8-.2-.6.2a1.1,1.1,0,0,0-.4.6,4.1,4.1,0,0,0-.2,1.2v3.3Z"/><path d="M158.8,75.2l.2.9h-.8l-.9-.2a1,1,0,0,1-.4-.5,3.8,3.8,0,0,1-.1-1.2V70.7h-.8v-.8h.8V68.4l1-.6v2.2h1.1v.8h-1.1v3.6a1.8,1.8,0,0,0,.1.6l.2.2h.8Z"/><path d="M163.5,76.1v-.9a2.3,2.3,0,0,1-2,1.1l-1-.2-.7-.5a2,2,0,0,1-.3-.8,5.4,5.4,0,0,1-.1-1V69.9h1.1v3.5a6.2,6.2,0,0,0,.1,1.1,1.1,1.1,0,0,0,.4.7l.8.2.9-.2a1.4,1.4,0,0,0,.6-.7,3.3,3.3,0,0,0,.2-1.2V69.9h1.1v6.2Z"/><path d="M165.6,76.6l1,.2a1,1,0,0,0,.4.7,1.8,1.8,0,0,0,1.1.3,1.9,1.9,0,0,0,1.1-.3,1.4,1.4,0,0,0,.5-.8,6.7,6.7,0,0,0,.1-1.4,2.2,2.2,0,0,1-1.7.8,2.3,2.3,0,0,1-2-.9,3.6,3.6,0,0,1-.7-2.2,4.1,4.1,0,0,1,.3-1.6,2.6,2.6,0,0,1,.9-1.2,2.5,2.5,0,0,1,1.4-.4,2.2,2.2,0,0,1,1.8.9v-.7h1v5.4a5.1,5.1,0,0,1-.3,2.1,2.2,2.2,0,0,1-.9,1,3.2,3.2,0,0,1-1.6.4,3,3,0,0,1-1.8-.5A1.7,1.7,0,0,1,165.6,76.6Zm.9-3.7a2.7,2.7,0,0,0,.5,1.8,1.6,1.6,0,0,0,2.4,0,2.6,2.6,0,0,0,.5-1.8,2.6,2.6,0,0,0-.5-1.7,1.6,1.6,0,0,0-1.2-.6,1.5,1.5,0,0,0-1.2.6A2.5,2.5,0,0,0,166.5,72.9Z"/><path d="M176.2,75.4l-1.1.7-1.2.2a2.3,2.3,0,0,1-1.6-.5,1.7,1.7,0,0,1-.6-1.3,1.7,1.7,0,0,1,.2-.8l.5-.6.8-.3.9-.2,1.9-.4v-.3a1.2,1.2,0,0,0-.3-.9,1.8,1.8,0,0,0-1.2-.4,1.9,1.9,0,0,0-1.1.3,1.6,1.6,0,0,0-.5.9h-1a2.6,2.6,0,0,1,.5-1.1,2,2,0,0,1,.9-.6l1.4-.2,1.3.2.7.5a1.7,1.7,0,0,1,.3.7,5.9,5.9,0,0,1,.1,1v1.4a14.9,14.9,0,0,0,.1,1.9,2.3,2.3,0,0,0,.3.7h-1.1A2.2,2.2,0,0,1,176.2,75.4Zm-.1-2.4-1.7.4-.9.2-.4.3a.9.9,0,0,0,.2,1.2,1.4,1.4,0,0,0,.9.3l1.1-.3a1.6,1.6,0,0,0,.7-.7,2.5,2.5,0,0,0,.2-1.1Z"/><path d="M178.4,76.1V67.5h1.1v8.6Z"/><path d="M181.4,78.6h-.8a10.6,10.6,0,0,0,1.8-5.6,9.6,9.6,0,0,0-.3-2.2,9.2,9.2,0,0,0-.6-1.7l-.9-1.8h.8a11.2,11.2,0,0,1,1.6,3,8.1,8.1,0,0,1-.2,5.7A10.7,10.7,0,0,1,181.4,78.6Z"/><path d="M93.9,90.5,92,84.3h1.1l1,3.6.4,1.3.3-1.3,1-3.6h1.1l.9,3.6.3,1.2.4-1.2,1.1-3.6h1l-1.9,6.2H97.5l-1-3.7-.2-1.1L95,90.5Z"/><path d="M102.2,90.5l-1.9-6.2h1.1l1,3.6.4,1.3.3-1.3,1-3.6h1.1l.9,3.6.3,1.2.4-1.2,1.1-3.6h1l-1.9,6.2h-1.1l-1-3.7-.2-1.1-1.3,4.8Z"/><path d="M110.5,90.5l-1.9-6.2h1.1l1,3.6.4,1.3.3-1.3,1-3.6h1.1l.9,3.6.3,1.2.4-1.2,1.1-3.6h1l-1.9,6.2h-1.1l-1-3.7-.2-1.1-1.3,4.8Z"/><path d="M117.3,90.5V89.3h1.2v1.2Z"/><path d="M124.2,88.5h1.1a2.7,2.7,0,0,1-1,1.5,3.2,3.2,0,0,1-3.9-.3,3.3,3.3,0,0,1-.8-2.4,3.4,3.4,0,0,1,.8-2.4,2.7,2.7,0,0,1,2.1-.9,2.7,2.7,0,0,1,2,.8,3.4,3.4,0,0,1,.8,2.4v.3h-4.6a2.4,2.4,0,0,0,.6,1.6,1.7,1.7,0,0,0,1.3.5,1.6,1.6,0,0,0,1-.3A2,2,0,0,0,124.2,88.5Zm-3.5-1.7h3.5a2.1,2.1,0,0,0-.4-1.2,1.6,1.6,0,0,0-1.3-.6,1.7,1.7,0,0,0-1.2.5A1.9,1.9,0,0,0,120.8,86.8Z"/><path d="M125.9,88.7l1-.2a1.5,1.5,0,0,0,.5,1,1.7,1.7,0,0,0,1.1.3,1.6,1.6,0,0,0,1.1-.3.9.9,0,0,0,.4-.7.6.6,0,0,0-.3-.6l-1.1-.4-1.6-.5a1.5,1.5,0,0,1-.9-1.4,1.6,1.6,0,0,1,.2-.8l.5-.6.7-.3h.9l1.3.2a1.7,1.7,0,0,1,.8.6,2.2,2.2,0,0,1,.4,1h-1a1.1,1.1,0,0,0-.4-.7,1.5,1.5,0,0,0-1-.3,1.7,1.7,0,0,0-1,.2.7.7,0,0,0-.3.6.6.6,0,0,0,.1.4l.4.3.9.3,1.6.5a1.6,1.6,0,0,1,.7.6,1.5,1.5,0,0,1,.3.9,1.8,1.8,0,0,1-.3,1,2,2,0,0,1-.9.7l-1.3.3a2.9,2.9,0,0,1-1.8-.5A2.3,2.3,0,0,1,125.9,88.7Z"/><path d="M131.9,90.5V84.3h.9v.9a2.2,2.2,0,0,1,.8-.7,2.2,2.2,0,0,1,1.1-.3,2,2,0,0,1,1.1.3,1.5,1.5,0,0,1,.6.8,2.2,2.2,0,0,1,1.9-1.1,1.9,1.9,0,0,1,1.4.5,2.2,2.2,0,0,1,.5,1.6v4.3h-1V86.6a2.9,2.9,0,0,0-.1-.9.9.9,0,0,0-.4-.4l-.6-.2a1.5,1.5,0,0,0-1.1.4,1.9,1.9,0,0,0-.4,1.4v3.6h-1.1v-4a1.8,1.8,0,0,0-.3-1.1,1,1,0,0,0-.8-.4l-.8.2a1.3,1.3,0,0,0-.5.7,3.9,3.9,0,0,0-.2,1.3v3.2Z"/><path d="M145.6,89.8l-1.1.7-1.2.2a2.3,2.3,0,0,1-1.6-.5,1.7,1.7,0,0,1-.6-1.3,1.7,1.7,0,0,1,.2-.8l.5-.6.8-.3.9-.2,1.9-.4v-.3a1.2,1.2,0,0,0-.3-.9A1.8,1.8,0,0,0,144,85a1.9,1.9,0,0,0-1.1.3,1.6,1.6,0,0,0-.5.9h-1a2.6,2.6,0,0,1,.5-1.1,2,2,0,0,1,.9-.6l1.4-.2,1.3.2.7.5a1.7,1.7,0,0,1,.3.7,5.9,5.9,0,0,1,.1,1v1.4a14.9,14.9,0,0,0,.1,1.9,2.3,2.3,0,0,0,.3.7h-1.1A2.2,2.2,0,0,1,145.6,89.8Zm-.1-2.4-1.7.4-.9.2-.4.3a.9.9,0,0,0,.2,1.2,1.4,1.4,0,0,0,.9.3l1.1-.3a1.6,1.6,0,0,0,.7-.7,2.5,2.5,0,0,0,.2-1.1Z"/><path d="M151.9,90.5v-.8a1.9,1.9,0,0,1-1.7.9,2.4,2.4,0,0,1-1.4-.4,2.7,2.7,0,0,1-1-1.1,4,4,0,0,1-.3-1.7,4.4,4.4,0,0,1,.3-1.7,2.4,2.4,0,0,1,.9-1.2,2.5,2.5,0,0,1,1.4-.4l1,.2.7.6V81.9h1v8.6Zm-3.3-3.1a2.7,2.7,0,0,0,.5,1.8,1.5,1.5,0,0,0,1.2.6,1.5,1.5,0,0,0,1.2-.6,2.6,2.6,0,0,0,.5-1.7,2.9,2.9,0,0,0-.5-1.9,1.5,1.5,0,0,0-1.2-.6,1.5,1.5,0,0,0-1.2.6A2.8,2.8,0,0,0,148.6,87.4Z"/><path d="M154.5,90.5V89.3h1.2v1.2Z"/><path d="M157.2,83.1V81.9h1.1v1.2Zm0,7.4V84.3h1.1v6.2Z"/><path d="M159.5,92.9V84.3h1v.8a2.4,2.4,0,0,1,.8-.7l1-.2a2.5,2.5,0,0,1,1.4.4,2.5,2.5,0,0,1,.9,1.2,4.2,4.2,0,0,1,.3,1.6,4.2,4.2,0,0,1-.3,1.7,2.6,2.6,0,0,1-1,1.2,2.6,2.6,0,0,1-1.4.4l-.9-.2-.7-.6v3Zm1-5.5a2.7,2.7,0,0,0,.5,1.8,1.5,1.5,0,0,0,1.2.6,1.5,1.5,0,0,0,1.2-.6,2.8,2.8,0,0,0,.5-1.8,2.7,2.7,0,0,0-.5-1.8,1.5,1.5,0,0,0-1.2-.6,1.5,1.5,0,0,0-1.2.6A2.8,2.8,0,0,0,160.4,87.4Z"/><path d="M165.8,92.9V84.3h1v.8a2.4,2.4,0,0,1,.8-.7l1-.2a2.5,2.5,0,0,1,1.4.4,2.5,2.5,0,0,1,.9,1.2,4.2,4.2,0,0,1,.3,1.6,4.2,4.2,0,0,1-.3,1.7,2.6,2.6,0,0,1-1,1.2,2.6,2.6,0,0,1-1.4.4l-.9-.2-.7-.6v3Zm1-5.5a2.7,2.7,0,0,0,.5,1.8,1.5,1.5,0,0,0,1.2.6,1.5,1.5,0,0,0,1.2-.6,2.8,2.8,0,0,0,.5-1.8,2.7,2.7,0,0,0-.5-1.8,1.5,1.5,0,0,0-1.2-.6,1.5,1.5,0,0,0-1.2.6A2.8,2.8,0,0,0,166.7,87.4Z"/><path d="M172.4,90.5V89.3h1.2v1.2Z"/><path d="M175.1,92.9V84.3h1v.8a2.4,2.4,0,0,1,.8-.7l1-.2a2.5,2.5,0,0,1,1.4.4,2.5,2.5,0,0,1,.9,1.2,4.2,4.2,0,0,1,.3,1.6,4.2,4.2,0,0,1-.3,1.7,2.6,2.6,0,0,1-1,1.2,2.6,2.6,0,0,1-1.4.4l-.9-.2-.7-.6v3Zm1-5.5a2.7,2.7,0,0,0,.5,1.8,1.5,1.5,0,0,0,1.2.6,1.5,1.5,0,0,0,1.2-.6,2.8,2.8,0,0,0,.5-1.8,2.7,2.7,0,0,0-.5-1.8,1.5,1.5,0,0,0-1.2-.6,1.5,1.5,0,0,0-1.2.6A2.8,2.8,0,0,0,176,87.4Z"/><path d="M183.7,89.6l.2.9H183l-.9-.2a1,1,0,0,1-.4-.5,3.8,3.8,0,0,1-.1-1.2V85.1h-.8v-.8h.8V82.8l1-.6v2.2h1.1v.8h-1.1v3.6a1.8,1.8,0,0,0,.1.6l.2.2h.8Z"/><path d="M91.9,92.2v-.9h91.6v.9Z"/><path class="cls-2" d="M192.7,43.6a7.9,7.9,0,0,1,.3-2.5,3.1,3.1,0,0,1,.9-1.4,2.4,2.4,0,0,1,1.6-.5,2.5,2.5,0,0,1,1.2.3,2.3,2.3,0,0,1,.9.8,4.3,4.3,0,0,1,.5,1.3,8.5,8.5,0,0,1,.2,2A7.9,7.9,0,0,1,198,46a3.1,3.1,0,0,1-.9,1.4,2.4,2.4,0,0,1-1.6.5,2.4,2.4,0,0,1-2-.9A5.7,5.7,0,0,1,192.7,43.6Zm1.1,0a5.4,5.4,0,0,0,.5,2.8,1.4,1.4,0,0,0,2.4,0,5.4,5.4,0,0,0,.5-2.8,5.4,5.4,0,0,0-.5-2.8,1.5,1.5,0,0,0-1.2-.7,1.4,1.4,0,0,0-1.2.6A5.4,5.4,0,0,0,193.8,43.6Z"/><path class="cls-2" d="M199.2,45.8h1a1.8,1.8,0,0,0,.5,1,1.4,1.4,0,0,0,.9.3l.9-.2.6-.6a3.5,3.5,0,0,0,.4-1,5.3,5.3,0,0,0,.2-1.3v-.2a2.4,2.4,0,0,1-.9.8,2.3,2.3,0,0,1-1.2.3,2.4,2.4,0,0,1-1.8-.8,2.8,2.8,0,0,1-.7-2,2.9,2.9,0,0,1,.8-2.1,2.6,2.6,0,0,1,1.9-.8,2.8,2.8,0,0,1,1.5.5,2.8,2.8,0,0,1,1.1,1.3,6.3,6.3,0,0,1,.4,2.4,7.8,7.8,0,0,1-.4,2.6,3.1,3.1,0,0,1-1.1,1.5,2.8,2.8,0,0,1-1.7.5,2.3,2.3,0,0,1-2.4-2.1Zm4.3-3.8a2.1,2.1,0,0,0-.5-1.4,1.5,1.5,0,0,0-1.2-.5,1.6,1.6,0,0,0-1.2.6,2.1,2.1,0,0,0-.5,1.5,1.8,1.8,0,0,0,.5,1.3,1.6,1.6,0,0,0,1.2.5,1.6,1.6,0,0,0,1.2-.5A2,2,0,0,0,203.5,42Z"/><path class="cls-2" d="M204.9,48l2.5-8.9h.8L205.8,48Z"/><path class="cls-2" d="M214,46.8v1h-5.7a1.9,1.9,0,0,1,.1-.7,3.9,3.9,0,0,1,.7-1.1l1.4-1.3a11.7,11.7,0,0,0,1.9-1.8,2.2,2.2,0,0,0,.5-1.3,1.4,1.4,0,0,0-.4-1.1,1.6,1.6,0,0,0-1.2-.4,1.6,1.6,0,0,0-1.2.5,1.7,1.7,0,0,0-.5,1.3h-1.1a2.7,2.7,0,0,1,.8-1.8,2.9,2.9,0,0,1,2-.6,2.7,2.7,0,0,1,2,.7,2.3,2.3,0,0,1,.7,1.7,2.6,2.6,0,0,1-.2,1,3.9,3.9,0,0,1-.7,1l-1.6,1.5-1.2,1.1-.4.6Z"/><path class="cls-2" d="M214.8,43.6a7.9,7.9,0,0,1,.3-2.5,3.1,3.1,0,0,1,.9-1.4,2.4,2.4,0,0,1,1.6-.5,2.5,2.5,0,0,1,1.2.3,2.3,2.3,0,0,1,.9.8,4.3,4.3,0,0,1,.5,1.3,8.5,8.5,0,0,1,.2,2,7.9,7.9,0,0,1-.3,2.4,3.1,3.1,0,0,1-.9,1.4,2.4,2.4,0,0,1-1.6.5,2.4,2.4,0,0,1-2-.9A5.7,5.7,0,0,1,214.8,43.6Zm1.1,0a5.4,5.4,0,0,0,.5,2.8,1.4,1.4,0,0,0,2.4,0,5.4,5.4,0,0,0,.5-2.8,5.4,5.4,0,0,0-.5-2.8,1.5,1.5,0,0,0-1.2-.7,1.4,1.4,0,0,0-1.2.6A5.4,5.4,0,0,0,215.9,43.6Z"/><path class="cls-2" d="M225.1,47.8H224V41.1l-1,.7-1.1.5v-1a6.4,6.4,0,0,0,1.5-1,4,4,0,0,0,.9-1.1h.7Z"/><path class="cls-2" d="M227.5,45.6h1.1a2,2,0,0,0,.6,1.2,1.6,1.6,0,0,0,1.1.4,1.7,1.7,0,0,0,1.3-.6,2.2,2.2,0,0,0,.5-1.5,2,2,0,0,0-.5-1.4,1.8,1.8,0,0,0-1.3-.5l-.9.2a1.8,1.8,0,0,0-.6.6h-1l.8-4.4h4.3v1h-3.4l-.5,2.3a2.8,2.8,0,0,1,1.6-.5,2.6,2.6,0,0,1,1.9.8,2.7,2.7,0,0,1,.8,2,3.1,3.1,0,0,1-.7,2,2.7,2.7,0,0,1-2.3,1,2.8,2.8,0,0,1-1.9-.7A2.6,2.6,0,0,1,227.5,45.6Z"/><path class="cls-2" d="M233.3,45.1v-.8H240v.8Z"/><path class="cls-2" d="M240.2,43.6a7.9,7.9,0,0,1,.3-2.5,3.1,3.1,0,0,1,.9-1.4,2.4,2.4,0,0,1,1.6-.5,2.5,2.5,0,0,1,1.2.3,2.3,2.3,0,0,1,.9.8,4.3,4.3,0,0,1,.5,1.3,8.5,8.5,0,0,1,.2,2,7.9,7.9,0,0,1-.3,2.4,3.1,3.1,0,0,1-.9,1.4,2.4,2.4,0,0,1-1.6.5,2.4,2.4,0,0,1-2-.9A5.7,5.7,0,0,1,240.2,43.6Zm1.1,0a5.4,5.4,0,0,0,.5,2.8,1.4,1.4,0,0,0,2.4,0,5.4,5.4,0,0,0,.5-2.8,5.4,5.4,0,0,0-.5-2.8,1.5,1.5,0,0,0-1.2-.7,1.4,1.4,0,0,0-1.2.6A5.4,5.4,0,0,0,241.3,43.6Z"/><path class="cls-2" d="M246.6,40.4v-1h5.6v.8a11.7,11.7,0,0,0-1.6,2.3,14.1,14.1,0,0,0-1.2,3,11.1,11.1,0,0,0-.4,2.4h-1.1a10.5,10.5,0,0,1,.4-2.4,12.9,12.9,0,0,1,1.1-2.8,11.9,11.9,0,0,1,1.5-2.2Z"/><path class="cls-2" d="M252.4,48l2.5-8.9h.8L253.2,48Z"/><path class="cls-2" d="M261.4,46.8v1h-5.7a1.9,1.9,0,0,1,.1-.7,3.9,3.9,0,0,1,.7-1.1l1.4-1.3a11.7,11.7,0,0,0,1.9-1.8,2.2,2.2,0,0,0,.5-1.3,1.4,1.4,0,0,0-.4-1.1,1.6,1.6,0,0,0-1.2-.4,1.6,1.6,0,0,0-1.2.5,1.7,1.7,0,0,0-.5,1.3H256a2.7,2.7,0,0,1,.8-1.8,2.9,2.9,0,0,1,2-.6,2.7,2.7,0,0,1,2,.7,2.3,2.3,0,0,1,.7,1.7,2.6,2.6,0,0,1-.2,1,3.9,3.9,0,0,1-.7,1l-1.6,1.5-1.2,1.1-.4.6Z"/><path class="cls-2" d="M262.2,43.6a7.9,7.9,0,0,1,.3-2.5,3.1,3.1,0,0,1,.9-1.4,2.4,2.4,0,0,1,1.6-.5,2.5,2.5,0,0,1,1.2.3,2.3,2.3,0,0,1,.9.8,4.3,4.3,0,0,1,.5,1.3,8.5,8.5,0,0,1,.2,2,7.9,7.9,0,0,1-.3,2.4,3.1,3.1,0,0,1-.9,1.4,2.4,2.4,0,0,1-1.6.5,2.4,2.4,0,0,1-2-.9A5.7,5.7,0,0,1,262.2,43.6Zm1.1,0a5.4,5.4,0,0,0,.5,2.8,1.4,1.4,0,0,0,2.4,0,5.4,5.4,0,0,0,.5-2.8,5.4,5.4,0,0,0-.5-2.8,1.5,1.5,0,0,0-1.2-.7,1.4,1.4,0,0,0-1.2.6A5.4,5.4,0,0,0,263.3,43.6Z"/><path class="cls-2" d="M272.6,47.8h-1.1V41.1l-1,.7-1.1.5v-1a6.4,6.4,0,0,0,1.5-1,4,4,0,0,0,.9-1.1h.7Z"/><path class="cls-2" d="M276.6,43.2a2,2,0,0,1-1-.7,1.8,1.8,0,0,1-.3-1.1,2.1,2.1,0,0,1,.7-1.6,2.8,2.8,0,0,1,3.6,0,2.1,2.1,0,0,1,.7,1.6,1.8,1.8,0,0,1-.3,1,2,2,0,0,1-1,.7,2.3,2.3,0,0,1,1.2.8,2.3,2.3,0,0,1,.4,1.4,2.5,2.5,0,0,1-.8,1.9,3.2,3.2,0,0,1-4.1,0,2.5,2.5,0,0,1-.8-1.9,2.3,2.3,0,0,1,.4-1.4A2.1,2.1,0,0,1,276.6,43.2Zm-.6,2.2a1.9,1.9,0,0,0,.2.9,1.5,1.5,0,0,0,.6.7l.9.2a1.7,1.7,0,0,0,1.2-.5,1.7,1.7,0,0,0,.5-1.2,1.7,1.7,0,0,0-.5-1.3,1.7,1.7,0,0,0-1.3-.5,1.7,1.7,0,0,0-1.7,1.7Zm.3-4a1.3,1.3,0,0,0,.4,1,1.4,1.4,0,0,0,1,.4,1.4,1.4,0,0,0,1-.4,1.3,1.3,0,0,0,.4-.9,1.3,1.3,0,0,0-.4-1,1.4,1.4,0,0,0-1-.4,1.4,1.4,0,0,0-1,.4A1.2,1.2,0,0,0,276.4,41.4Z"/><path class="cls-2" d="M24,36.2v-10h1.3V35h4.9v1.2Z"/><path class="cls-2" d="M31.3,27.6V26.2h1.2v1.4Zm0,8.6V28.9h1.2v7.3Z"/><path class="cls-2" d="M38.8,33.5l1.2.2a3.1,3.1,0,0,1-1,2,3,3,0,0,1-2,.7,3.1,3.1,0,0,1-2.4-1,4,4,0,0,1-.9-2.8,5.1,5.1,0,0,1,.4-2.1,2.7,2.7,0,0,1,1.2-1.3,3.5,3.5,0,0,1,1.7-.4,3,3,0,0,1,1.9.6,2.7,2.7,0,0,1,1,1.7l-1.2.2a2,2,0,0,0-.6-1.1,1.6,1.6,0,0,0-1-.4,1.9,1.9,0,0,0-1.5.7,3.2,3.2,0,0,0-.6,2.1,3.3,3.3,0,0,0,.6,2.1,1.8,1.8,0,0,0,1.5.7,1.7,1.7,0,0,0,1.2-.4A2.2,2.2,0,0,0,38.8,33.5Z"/><path class="cls-2" d="M45.6,33.9l1.3.2a3.1,3.1,0,0,1-1.1,1.7,3.8,3.8,0,0,1-4.6-.4,3.8,3.8,0,0,1-.9-2.8,4,4,0,0,1,.9-2.8,3.2,3.2,0,0,1,2.4-1,3.1,3.1,0,0,1,2.4,1,3.9,3.9,0,0,1,.9,2.8v.3H41.5a2.8,2.8,0,0,0,.7,1.8,2,2,0,0,0,1.5.6,1.9,1.9,0,0,0,1.2-.4A2.4,2.4,0,0,0,45.6,33.9Zm-4-2h4.1a2.5,2.5,0,0,0-.5-1.4,1.9,1.9,0,0,0-1.5-.7,2,2,0,0,0-1.4.6A2.2,2.2,0,0,0,41.6,31.9Z"/><path class="cls-2" d="M48.1,36.2V28.9h1.1v1a2.6,2.6,0,0,1,2.3-1.2l1.2.2a1.9,1.9,0,0,1,.8.6,2.4,2.4,0,0,1,.4.9,7.1,7.1,0,0,1,.1,1.2v4.5H52.7V31.8a3.3,3.3,0,0,0-.1-1.1,1.2,1.2,0,0,0-.5-.6l-.9-.2a2,2,0,0,0-1.4.5,2.5,2.5,0,0,0-.6,1.9v4Z"/><path class="cls-2" d="M60.2,33.5l1.2.2a3.1,3.1,0,0,1-1,2,3,3,0,0,1-2,.7,3.1,3.1,0,0,1-2.4-1,4,4,0,0,1-.9-2.8,5.1,5.1,0,0,1,.4-2.1,2.7,2.7,0,0,1,1.2-1.3,3.5,3.5,0,0,1,1.7-.4,3,3,0,0,1,1.9.6,2.7,2.7,0,0,1,1,1.7l-1.2.2a2,2,0,0,0-.6-1.1,1.6,1.6,0,0,0-1-.4,1.9,1.9,0,0,0-1.5.7,3.2,3.2,0,0,0-.6,2.1,3.3,3.3,0,0,0,.6,2.1,1.8,1.8,0,0,0,1.5.7,1.7,1.7,0,0,0,1.2-.4A2.2,2.2,0,0,0,60.2,33.5Z"/><path class="cls-2" d="M62.1,27.6V26.2h1.2v1.4Zm0,8.6V28.9h1.2v7.3Z"/><path class="cls-2" d="M69.6,35.3a4.6,4.6,0,0,1-1.3.8l-1.4.2a2.6,2.6,0,0,1-1.8-.6,1.9,1.9,0,0,1-.6-1.5,2,2,0,0,1,.9-1.7l.9-.4,1.1-.2,2.2-.4v-.3a1.4,1.4,0,0,0-.3-1.1,2.1,2.1,0,0,0-1.4-.4,2.2,2.2,0,0,0-1.3.3,1.9,1.9,0,0,0-.6,1.1L64.6,31a3,3,0,0,1,.5-1.2,2.4,2.4,0,0,1,1.1-.7l1.6-.3,1.5.2a2,2,0,0,1,.9.5,1.9,1.9,0,0,1,.4.8,6.9,6.9,0,0,1,.1,1.1v1.6a17.4,17.4,0,0,0,.1,2.2,2.7,2.7,0,0,0,.3.9H69.8A2.6,2.6,0,0,1,69.6,35.3Zm-.1-2.7-2,.5-1.1.2-.5.4a1.1,1.1,0,0,0,.2,1.4,1.6,1.6,0,0,0,1.1.3,2.5,2.5,0,0,0,1.3-.3,1.9,1.9,0,0,0,.8-.9,3,3,0,0,0,.2-1.2Z"/><path class="cls-2" d="M74.9,35.1l.2,1.1h-.9l-1-.2a1.2,1.2,0,0,1-.5-.6,4.4,4.4,0,0,1-.2-1.5V29.9h-.9v-1h.9V27.1l1.2-.7v2.5h1.2v1H73.7v4.2a2.1,2.1,0,0,0,.1.7l.2.2h1Z"/><path class="cls-2" d="M80.5,36.2V35.1a2.7,2.7,0,0,1-2.3,1.2L77,36.1a2,2,0,0,1-.8-.6,2.3,2.3,0,0,1-.4-.9,6.2,6.2,0,0,1-.1-1.1V28.9h1.2v4a7.2,7.2,0,0,0,.1,1.3,1.3,1.3,0,0,0,.5.8,1.5,1.5,0,0,0,.9.3,2,2,0,0,0,1-.3,1.6,1.6,0,0,0,.7-.8,3.9,3.9,0,0,0,.2-1.4V28.9h1.2v7.3Z"/><path class="cls-2" d="M83.1,36.2V28.9h1.1V30a3,3,0,0,1,.8-1l.8-.2a2.4,2.4,0,0,1,1.3.4l-.4,1.1-.9-.3-.7.2a1.3,1.3,0,0,0-.5.7,4.8,4.8,0,0,0-.2,1.4v3.8Z"/><path class="cls-2" d="M92.2,35.3a4.6,4.6,0,0,1-1.3.8l-1.4.2a2.6,2.6,0,0,1-1.8-.6,1.9,1.9,0,0,1-.6-1.5,2,2,0,0,1,.9-1.7l.9-.4,1.1-.2,2.2-.4v-.3a1.4,1.4,0,0,0-.3-1.1,2.1,2.1,0,0,0-1.4-.4,2.2,2.2,0,0,0-1.3.3,1.9,1.9,0,0,0-.6,1.1L87.2,31a3,3,0,0,1,.5-1.2,2.4,2.4,0,0,1,1.1-.7l1.6-.3L92,29a2,2,0,0,1,.9.5,1.9,1.9,0,0,1,.4.8,6.9,6.9,0,0,1,.1,1.1v1.6a17.4,17.4,0,0,0,.1,2.2,2.7,2.7,0,0,0,.3.9H92.4A2.6,2.6,0,0,1,92.2,35.3Zm-.1-2.7-2,.5-1.1.2-.5.4a1.1,1.1,0,0,0,.2,1.4,1.6,1.6,0,0,0,1.1.3,2.5,2.5,0,0,0,1.3-.3,1.9,1.9,0,0,0,.8-.9,3,3,0,0,0,.2-1.2Z"/><path class="cls-2" d="M103.3,33.9l1.3.2a3.1,3.1,0,0,1-1.1,1.7,3.8,3.8,0,0,1-4.6-.4,3.8,3.8,0,0,1-.9-2.8,4,4,0,0,1,.9-2.8,3.2,3.2,0,0,1,2.4-1,3.1,3.1,0,0,1,2.4,1,3.9,3.9,0,0,1,.9,2.8v.3H99.2a2.8,2.8,0,0,0,.7,1.8,2,2,0,0,0,1.5.6,1.9,1.9,0,0,0,1.2-.4A2.4,2.4,0,0,0,103.3,33.9Zm-4-2h4.1a2.5,2.5,0,0,0-.5-1.4,1.9,1.9,0,0,0-1.5-.7,2,2,0,0,0-1.4.6A2.2,2.2,0,0,0,99.3,31.9Z"/><path class="cls-2" d="M105.8,36.2V28.9h1.1v1a2.6,2.6,0,0,1,.9-.9,2.6,2.6,0,0,1,1.3-.3,2.4,2.4,0,0,1,1.3.3,1.8,1.8,0,0,1,.7.9,2.6,2.6,0,0,1,2.2-1.3,2.2,2.2,0,0,1,1.7.6,2.6,2.6,0,0,1,.6,1.8v5h-1.2V31.6a3.4,3.4,0,0,0-.1-1.1,1,1,0,0,0-.4-.5l-.7-.2a1.7,1.7,0,0,0-1.3.5,2.2,2.2,0,0,0-.5,1.6v4.2h-1.2V31.5a2.1,2.1,0,0,0-.3-1.2,1.1,1.1,0,0,0-1-.4l-1,.3a1.5,1.5,0,0,0-.6.8,4.5,4.5,0,0,0-.2,1.5v3.8Z"/><path class="cls-2" d="M120.7,36.2v-10h2l2.4,7.1.5,1.5.5-1.6,2.4-7h1.8v10H129V27.8L126,36.2h-1.2l-2.9-8.5v8.5Z"/><path class="cls-2" d="M136.6,36.2V35.1a2.7,2.7,0,0,1-2.3,1.2l-1.2-.2a2,2,0,0,1-.8-.6,2.3,2.3,0,0,1-.4-.9,6.2,6.2,0,0,1-.1-1.1V28.9H133v4a7.2,7.2,0,0,0,.1,1.3,1.3,1.3,0,0,0,.5.8,1.5,1.5,0,0,0,.9.3,2,2,0,0,0,1-.3,1.6,1.6,0,0,0,.7-.8,3.9,3.9,0,0,0,.2-1.4V28.9h1.2v7.3Z"/><path class="cls-2" d="M139.2,36.2v-10h1.2v10Z"/><path class="cls-2" d="M144.7,35.1l.2,1.1h-.9l-1-.2a1.2,1.2,0,0,1-.5-.6,4.4,4.4,0,0,1-.2-1.5V29.9h-.9v-1h.9V27.1l1.2-.7v2.5h1.2v1h-1.2v4.2a2.1,2.1,0,0,0,.1.7l.2.2h1Z"/><path class="cls-2" d="M145.5,27.6V26.2h1.2v1.4Zm0,8.6V28.9h1.2v7.3Z"/><path class="cls-2" d="M148.2,36.2V28.9h1.1v1a2.6,2.6,0,0,1,.9-.9,2.6,2.6,0,0,1,1.3-.3,2.4,2.4,0,0,1,1.3.3,1.8,1.8,0,0,1,.7.9,2.6,2.6,0,0,1,2.2-1.3,2.2,2.2,0,0,1,1.7.6,2.6,2.6,0,0,1,.6,1.8v5h-1.2V31.6a3.4,3.4,0,0,0-.1-1.1,1,1,0,0,0-.4-.5l-.7-.2a1.7,1.7,0,0,0-1.3.5,2.2,2.2,0,0,0-.5,1.6v4.2h-1.2V31.5a2.1,2.1,0,0,0-.3-1.2,1.1,1.1,0,0,0-1-.4l-1,.3a1.5,1.5,0,0,0-.6.8,4.5,4.5,0,0,0-.2,1.5v3.8Z"/><path class="cls-2" d="M164.5,33.9l1.3.2a3.1,3.1,0,0,1-1.1,1.7,3.8,3.8,0,0,1-4.6-.4,3.8,3.8,0,0,1-.9-2.8,4,4,0,0,1,.9-2.8,3.2,3.2,0,0,1,2.4-1,3.1,3.1,0,0,1,2.4,1,3.9,3.9,0,0,1,.9,2.8v.3h-5.4a2.8,2.8,0,0,0,.7,1.8,2,2,0,0,0,1.5.6,1.9,1.9,0,0,0,1.2-.4A2.4,2.4,0,0,0,164.5,33.9Zm-4-2h4.1a2.5,2.5,0,0,0-.5-1.4,1.9,1.9,0,0,0-1.5-.7,1.9,1.9,0,0,0-1.4.6A2.2,2.2,0,0,0,160.4,31.9Zm1.3-3.8.9-1.9h1.6L162.8,28Z"/><path class="cls-2" d="M171.6,36.2v-.9a2.3,2.3,0,0,1-2,1.1,2.9,2.9,0,0,1-1.6-.5,3.1,3.1,0,0,1-1.1-1.3,4.6,4.6,0,0,1-.4-2,5.2,5.2,0,0,1,.4-2,2.9,2.9,0,0,1,1.1-1.4,2.9,2.9,0,0,1,1.6-.5,2.4,2.4,0,0,1,2,1V26.2h1.2v10Zm-3.9-3.6a3.2,3.2,0,0,0,.6,2.1,1.8,1.8,0,0,0,1.4.7,1.7,1.7,0,0,0,1.4-.7,3,3,0,0,0,.6-2,3.4,3.4,0,0,0-.6-2.2,1.8,1.8,0,0,0-1.4-.7,1.7,1.7,0,0,0-1.4.7A3.3,3.3,0,0,0,167.7,32.6Z"/><path class="cls-2" d="M174.3,27.6V26.2h1.2v1.4Zm0,8.6V28.9h1.2v7.3Z"/><path class="cls-2" d="M181.8,35.3a4.6,4.6,0,0,1-1.3.8l-1.4.2a2.6,2.6,0,0,1-1.8-.6,1.9,1.9,0,0,1-.6-1.5,2,2,0,0,1,.9-1.7l.9-.4,1.1-.2,2.2-.4v-.3a1.4,1.4,0,0,0-.3-1.1,2.1,2.1,0,0,0-1.4-.4,2.2,2.2,0,0,0-1.3.3,1.9,1.9,0,0,0-.6,1.1l-1.2-.2a3,3,0,0,1,.5-1.2,2.4,2.4,0,0,1,1.1-.7l1.6-.3,1.5.2a2,2,0,0,1,.9.5,1.9,1.9,0,0,1,.4.8,6.9,6.9,0,0,1,.1,1.1v1.6a17.3,17.3,0,0,0,.1,2.2,2.7,2.7,0,0,0,.3.9H182A2.6,2.6,0,0,1,181.8,35.3Zm-.1-2.7-2,.5-1.1.2-.5.4a1.1,1.1,0,0,0,.2,1.4,1.6,1.6,0,0,0,1.1.3,2.5,2.5,0,0,0,1.3-.3,1.9,1.9,0,0,0,.8-.9,3,3,0,0,0,.2-1.2Z"/><path class="cls-2" d="M122.3,48.1V39.6h1.2l4.5,6.7V39.6h1.1v8.6h-1.2l-4.5-6.7v6.8Z"/><path class="cls-2" d="M130.4,40.8V39.6h1.1v1.2Zm0,7.4V41.9h1.1v6.2Z"/><path class="cls-2" d="M134.3,48.1l-2.4-6.2H133l1.3,3.7.4,1.3.4-1.2,1.4-3.8h1.1l-2.4,6.2Z"/><path class="cls-2" d="M142.3,46.1h1.1a2.7,2.7,0,0,1-1,1.5,3.2,3.2,0,0,1-3.9-.3,3.3,3.3,0,0,1-.8-2.4,3.4,3.4,0,0,1,.8-2.4,2.7,2.7,0,0,1,2.1-.9,2.7,2.7,0,0,1,2,.8,3.4,3.4,0,0,1,.8,2.4v.3h-4.6a2.4,2.4,0,0,0,.6,1.6,1.7,1.7,0,0,0,1.3.5,1.6,1.6,0,0,0,1-.3A2,2,0,0,0,142.3,46.1Zm-3.5-1.7h3.5a2.1,2.1,0,0,0-.4-1.2,1.6,1.6,0,0,0-1.3-.6,1.7,1.7,0,0,0-1.2.5A1.9,1.9,0,0,0,138.8,44.4Z"/><path class="cls-2" d="M144.2,48.1V39.6h1.1v8.6Z"/><path class="cls-2" d="M154.5,41.7h-1a2,2,0,0,0-.4-.9,1.4,1.4,0,0,0-1.1-.5,1.4,1.4,0,0,0-.9.3,2.4,2.4,0,0,0-.8,1.1,5.5,5.5,0,0,0-.3,2,2.4,2.4,0,0,1,.9-.9l1.2-.3a2.4,2.4,0,0,1,1.8.8,2.8,2.8,0,0,1,.7,2,3.3,3.3,0,0,1-.3,1.5,2.5,2.5,0,0,1-1,1.1,2.6,2.6,0,0,1-1.4.4,2.7,2.7,0,0,1-2.2-1,4.9,4.9,0,0,1-.8-3.2,5.7,5.7,0,0,1,.9-3.6,2.6,2.6,0,0,1,2.2-1,2.3,2.3,0,0,1,2.4,2.1Zm-4.3,3.7a2.4,2.4,0,0,0,.2,1,1.7,1.7,0,0,0,.6.8l.9.3a1.5,1.5,0,0,0,1.1-.5,2.1,2.1,0,0,0,.5-1.5,2,2,0,0,0-.5-1.4,1.6,1.6,0,0,0-1.2-.5,1.6,1.6,0,0,0-1.2.5A1.8,1.8,0,0,0,150.2,45.4Z"/><path class="cls-2" d="M165,47.2l1.5.8-.3.8a6.7,6.7,0,0,1-1.8-1.1,4.3,4.3,0,0,1-2.1.5,4.1,4.1,0,0,1-2.1-.6,3.8,3.8,0,0,1-1.5-1.6,5,5,0,0,1-.5-2.3,5.2,5.2,0,0,1,.5-2.3,3.6,3.6,0,0,1,1.5-1.6,4.2,4.2,0,0,1,2.1-.5,4.1,4.1,0,0,1,2.1.6,3.7,3.7,0,0,1,1.5,1.6,5.1,5.1,0,0,1,.5,2.3,5.3,5.3,0,0,1-.3,1.9A4,4,0,0,1,165,47.2Zm-2.5-1.5a4.2,4.2,0,0,1,1.6.8,3.5,3.5,0,0,0,1-2.7,4.4,4.4,0,0,0-.4-1.8,2.7,2.7,0,0,0-1-1.2,3,3,0,0,0-3.6.4,3.6,3.6,0,0,0-.8,2.6,3.7,3.7,0,0,0,.8,2.6,2.8,2.8,0,0,0,2.1.9l1.1-.2-1.1-.5Z"/><path class="cls-2" d="M167.3,48.1V39.6h3.8a5.1,5.1,0,0,1,1.7.2,1.9,1.9,0,0,1,1,.8,2.4,2.4,0,0,1,.4,1.3,2.2,2.2,0,0,1-.6,1.5,3,3,0,0,1-1.8.8l.7.4.9,1.1,1.5,2.3h-1.4l-1.1-1.8-.8-1.2-.6-.6-.5-.2h-2v3.8Zm1.1-4.8h2.4l1.2-.2a1.3,1.3,0,0,0,.7-.5,1.4,1.4,0,0,0,.2-.8,1.3,1.3,0,0,0-.4-1,2.1,2.1,0,0,0-1.4-.4h-2.7Z"/><path class="cls-2" d="M182,47.2l1.5.8-.3.8a6.7,6.7,0,0,1-1.8-1.1,4.3,4.3,0,0,1-2.1.5,4.1,4.1,0,0,1-2.1-.6,3.8,3.8,0,0,1-1.5-1.6,5,5,0,0,1-.5-2.3,5.2,5.2,0,0,1,.5-2.3,3.6,3.6,0,0,1,1.5-1.6,4.2,4.2,0,0,1,2.1-.5,4.1,4.1,0,0,1,2.1.6,3.7,3.7,0,0,1,1.5,1.6,5.1,5.1,0,0,1,.5,2.3,5.3,5.3,0,0,1-.3,1.9A4,4,0,0,1,182,47.2Zm-2.5-1.5a4.2,4.2,0,0,1,1.6.8,3.5,3.5,0,0,0,1-2.7,4.4,4.4,0,0,0-.4-1.8,2.7,2.7,0,0,0-1-1.2,3,3,0,0,0-3.6.4,3.6,3.6,0,0,0-.8,2.6,3.7,3.7,0,0,0,.8,2.6,2.8,2.8,0,0,0,2.1.9l1.1-.2-1.1-.5Z"/><path class="cls-3" d="M285.9,32.5H195a.6.6,0,0,0-.7.4,1.2,1.2,0,0,1-1.4.6,1.3,1.3,0,0,1-.9-1.2,1.2,1.2,0,0,1,2.4-.5.5.5,0,0,0,.5.3h99c.7,0,.7,0,.7-.7s0-.4.1-.6a9.7,9.7,0,1,1,9.6,11.2,9.4,9.4,0,0,1-7.2-3.2,9.1,9.1,0,0,1-2.4-5.8c0-.2,0-.4-.3-.4h-8.3Zm18.2,8.8a9.1,9.1,0,1,0-9-9.6A9.1,9.1,0,0,0,304.1,41.3Z"/><path class="cls-4" d="M286.2,32h-.3a17.7,17.7,0,0,1,5-12.3,17.7,17.7,0,0,1,11-5.6,18.4,18.4,0,0,1,20.3,14.4,17.8,17.8,0,0,1-3.5,15,17.7,17.7,0,0,1-8.8,6.2,18.3,18.3,0,0,1-22.1-9.2,16.9,16.9,0,0,1-1.9-6.9V32.5h.3a17.1,17.1,0,0,0,1.9,7.9,17.8,17.8,0,0,0,8.8,8.4,18,18,0,0,0,21.6-5.4,17.5,17.5,0,0,0,3.5-14.5,17.3,17.3,0,0,0-6.2-10.5,17.6,17.6,0,0,0-15-3.8,17.3,17.3,0,0,0-9.7,5.4A17.5,17.5,0,0,0,286.2,32Z"/><path class="cls-4" d="M281.3,32h-.3a21.5,21.5,0,0,1,2.4-10A23.5,23.5,0,0,1,301.3,9.1h2.2c.1,0,.3-.1.3.1s-.2.2-.3.2a22.9,22.9,0,0,0-9.8,2.5,22.7,22.7,0,0,0-4.5,3.1,22.8,22.8,0,0,0-7.9,15.3C281.3,30.8,281.3,31.4,281.3,32Z"/><path class="cls-3" d="M304.2,39.2a7,7,0,1,1,6.9-6.9A7,7,0,0,1,304.2,39.2Zm-6.4-7a6.4,6.4,0,1,0,6.5-6.4A6.4,6.4,0,0,0,297.7,32.2Z"/><path class="cls-3" d="M307.7,32.3a3.5,3.5,0,1,1-3.4-3.5A3.5,3.5,0,0,1,307.7,32.3Z"/></g></g></svg>