<svg xmlns="http://www.w3.org/2000/svg" viewBox="0 0 427.7 264.7"><defs><style>.cls-1{fill:#478ac9;}.cls-2{fill:#77aad9;}</style></defs><title>timelineAtivo 1</title><g id="Camada_2" data-name="Camada 2"><g id="Camada_1-2" data-name="Camada 1"><path class="cls-1" d="M194.8,149.5H19c-2,0-3.2.3-4.2,2.4s-5.7,4.7-9.2,3.7A8,8,0,0,1,0,147.6a7.7,7.7,0,0,1,6.3-7.6,7.7,7.7,0,0,1,8.7,4.2,3,3,0,0,0,3.3,2.1H244.9c4.3,0,4.3,0,4.7-4.2.1-1.3.1-2.6.3-3.8,6.4-40.9,51-64,88-45.6a61.4,61.4,0,0,1-27,116.5c-18.3,0-33.6-6.9-45.8-20.4a58.1,58.1,0,0,1-15.5-36.8c-.1-1.4,0-2.5-2.2-2.5H194.8Zm115.5,55.8c30.9.7,57.3-24.7,58.1-56A57.6,57.6,0,0,0,312.1,90c-32.1-.7-57.5,24.2-59,54.3C251.4,179.7,279.6,205.4,310.3,205.2Z"/><path class="cls-2" d="M196.7,146.1h-1.9c.5-30.1,11.2-56,31.8-77.8,19-20.2,42.3-32.3,69.9-35.7C330,28.5,360,37.3,386,59c20.6,17.2,33.8,39.1,39.1,65.3,7,35-.3,66.9-22.1,95.2a112.3,112.3,0,0,1-55.6,39.2c-28.5,9.2-56.8,7.8-84.2-4.6-24.9-11.3-43.5-29.4-55.9-53.6a107.1,107.1,0,0,1-12-43.7l-.4-7.4h1.9a108.3,108.3,0,0,0,12,50.1c12.3,24.2,31,42.1,55.8,53.3a111.7,111.7,0,0,0,69.2,7.6c27.7-5.6,50.4-19.7,67.8-42,21.2-27.3,28.4-58.2,22.1-92-5-27-18.4-49.4-39.6-66.8-28-22.8-60-30.7-95.4-24-24.3,4.6-44.8,16.4-61.6,34.6C207.4,91.7,197,116.9,196.7,146.1Z"/><path class="cls-2" d="M165.3,146.1h-2.1c-.4-22.4,5.2-43.5,14.9-63.4A149,149,0,0,1,292.8.8a82.6,82.6,0,0,1,14-.8c.7,0,1.8-.4,1.9.9s-1.1,1.2-2,1.2a145.6,145.6,0,0,0-62.1,15.9,143.9,143.9,0,0,0-28.9,19.6,144.8,144.8,0,0,0-49.9,97.2C165.4,138.6,165.3,142.4,165.3,146.1Z"/><path class="cls-1" d="M310.9,191.9c-25.4-.1-45-19.9-44.4-46.1.5-22.4,18.8-42.2,43.9-42.5s44.7,19.9,44.7,44.8S334.7,192,310.9,191.9ZM270,147.5a40.9,40.9,0,0,0,40.6,41.1c22.1.1,41.1-18.3,41-40.5-.1-23.8-18.6-41.1-40.4-41.2A40.5,40.5,0,0,0,270,147.5Z"/><path class="cls-1" d="M333.1,148.2a22.1,22.1,0,1,1-21.6-22.5A22.2,22.2,0,0,1,333.1,148.2Z"/></g></g></svg>