<svg xmlns="http://www.w3.org/2000/svg" viewBox="0 0 398.1 264.9"><defs><style>.cls-1{fill:#478ac9;}.cls-2{fill:#77aad9;}</style></defs><title>timelineAtivo 2</title><g id="Camada_2" data-name="Camada 2"><g id="Camada_1-2" data-name="Camada 1"><path class="cls-1" d="M262.5,118.3H183.7c-1.7,0-3.9-.5-5.1.4s-.4,3.1-.5,4.7c-3.7,35.4-37.1,60.6-72.2,54.2-31.2-5.6-56.4-35.1-49.2-73.1,6.2-32.7,39.2-54.3,71.9-47.8,27.5,5.4,48.1,28.9,49.6,56.5.1,1.8.8,2,2.3,2h25.9l24.8-.2h1.6l3,.2H379.1c1.9,0,3.1-.2,4.1-2.2a7.8,7.8,0,0,1,8.9-3.8,8.1,8.1,0,0,1,6,7.9,8.3,8.3,0,0,1-6.5,7.6,8.2,8.2,0,0,1-8.7-4.3c-.6-1.2-.9-2.1-2.6-2.1H262.5Zm-88-1.5a57.7,57.7,0,1,0-56.9,57.8A57.7,57.7,0,0,0,174.5,116.9Z"/><path class="cls-2" d="M232.8,114.9h-1.6c-.1-2.3-.3-4.6-.4-6.9a114.7,114.7,0,0,0-70.9-97.7A111.7,111.7,0,0,0,97.5,3.5C69.7,8.3,46.5,21.4,28.5,43,8.6,66.9-.1,94.6,2.3,125.8a110.7,110.7,0,0,0,11.1,40.9,113.8,113.8,0,0,0,47.1,49.9c25.2,14.2,52.1,18,80.3,12.1s49.1-20,66.1-41.7c15.7-20.1,23.7-43,24.3-68.5h1.7c-.4,28.2-10,52.9-28.4,74.2s-41.3,34.5-69,39c-22.8,3.7-45,1.2-66.2-8.5q-38.7-17.6-57.6-55.6c-10-20.2-13.3-41.6-11-63.9C3.5,77,14.6,54.3,33,35.3S72.8,5.2,98.5,1.4s52,.3,75.4,13.7a115.1,115.1,0,0,1,43.7,43.7C227.4,76.1,232.8,94.8,232.8,114.9Z"/><path class="cls-2" d="M262.5,118.3h2.3A142.5,142.5,0,0,1,250,180.9a148.5,148.5,0,0,1-60,64.2,145.3,145.3,0,0,1-46.2,17.1,126.7,126.7,0,0,1-22.6,2.5c-.9,0-2.3.7-2.3-1s1.4-1.3,2.2-1.3a163.1,163.1,0,0,0,26.7-3.4,140.8,140.8,0,0,0,57.3-26.8c29.8-23,48-53.2,55.1-90.1A138.9,138.9,0,0,0,262.5,118.3Z"/><path class="cls-1" d="M161.2,117.1A44.3,44.3,0,1,1,117,72.6,44.2,44.2,0,0,1,161.2,117.1Zm-85-.5c0,22.9,18.1,41.2,40.7,41.2s41-18.7,40.9-41.2a40.8,40.8,0,0,0-81.6,0Z"/><path class="cls-1" d="M116.8,94.5c11.9,0,22.3,10.1,22.1,22.1s-9.7,22-22.1,22.3-22.5-10.3-22.3-22.4A22.5,22.5,0,0,1,116.8,94.5Z"/></g></g></svg>